# 3ds Max Wavefront OBJ Exporter v0.97b - (c)2007 guruware
# File Created: 12.03.2016 17:14:45

mtllib CoverOfficeA_002.mtl

#
# object CoverOfficeA_002
#

v  2.0511 0.0000 7.6009
v  2.0511 0.0000 -2.7381
v  2.6231 0.5720 -2.7381
v  2.6231 0.5720 7.6009
v  2.0511 0.8090 7.6009
v  1.8141 0.5720 7.6009
v  2.6231 7.5763 7.6009
v  2.0511 8.1483 7.6009
v  1.8141 7.5763 7.6009
v  2.0511 7.3394 7.6009
v  -2.0511 8.1483 7.6009
v  -1.8141 7.5763 7.6009
v  -2.0511 0.0000 -2.7381
v  -1.8141 0.5720 -2.7381
v  1.8141 0.5720 -2.7381
v  2.0511 8.1483 -2.7381
v  2.6231 7.5763 -2.7381
v  2.0511 7.3394 -2.7381
v  1.8141 7.5763 -2.7381
v  2.0511 0.8090 -2.7381
v  2.0511 0.8090 7.0657
v  1.8141 0.5720 7.0657
v  2.0511 7.3394 7.0657
v  1.8141 7.5763 7.0657
v  -1.8141 0.5720 -2.4381
v  1.8141 0.5720 -2.4381
v  2.0511 7.3394 -2.4381
v  1.8141 7.5763 -2.4381
v  2.0511 0.8090 -2.4381
v  -1.8141 7.5763 -2.4381
v  -2.0511 0.8090 -2.4381
v  -2.0511 7.3394 -2.4381
v  -1.8141 7.5763 -2.7381
v  -2.0511 8.1483 -2.7381
v  -2.0511 0.8090 7.0657
v  -1.8141 0.5720 7.0657
v  -2.0511 7.3394 7.0657
v  -1.8141 7.5763 7.0657
v  -2.0511 0.0000 7.6009
v  -2.6231 0.5720 7.6009
v  -2.6231 0.5720 -2.7381
v  -1.8141 0.5720 7.6009
v  -2.0511 0.8090 7.6009
v  -2.6231 7.5763 7.6009
v  -2.0511 7.3394 7.6009
v  -2.0511 7.3394 -2.7381
v  -2.6231 7.5763 -2.7381
v  -2.0511 0.8090 -2.7381
v  -1.9658 0.8042 6.8380
v  -1.9658 5.6553 6.8380
v  1.9658 5.6553 6.8380
v  1.9658 0.8042 6.8380
v  -1.9658 0.8042 7.1616
v  1.9658 0.8042 7.1616
v  1.9658 5.6553 7.1616
v  -1.9658 5.6553 7.1616
v  -0.5193 5.3182 7.2601
v  -0.5536 5.3182 7.1319
v  -0.5536 5.5697 7.1319
v  -0.5193 5.5697 7.2601
v  -0.5822 5.5697 7.2965
v  -0.6261 5.5697 7.1343
v  -0.6261 5.3182 7.1343
v  -0.5822 5.3182 7.2965
v  -0.2995 5.3182 7.4609
v  -0.2995 5.5697 7.4609
v  -0.4617 5.5697 7.4169
v  -0.4617 5.3182 7.4169
v  -0.2972 5.3182 7.3884
v  -0.4254 5.3182 7.3540
v  -0.4254 5.5697 7.3540
v  -0.2972 5.5697 7.3884
v  0.5193 5.3182 7.2601
v  0.5193 5.5697 7.2601
v  0.5536 5.5697 7.1319
v  0.5536 5.3182 7.1319
v  0.5822 5.5697 7.2965
v  0.5822 5.3182 7.2965
v  0.6261 5.3182 7.1343
v  0.6261 5.5697 7.1343
v  0.2995 5.3182 7.4609
v  0.4617 5.3182 7.4169
v  0.4617 5.5697 7.4169
v  0.2995 5.5697 7.4609
v  0.2972 5.3182 7.3884
v  0.2972 5.5697 7.3884
v  0.4254 5.5697 7.3540
v  0.4254 5.3182 7.3540
v  -1.9658 5.7367 6.8380
v  -1.9658 7.3384 6.8380
v  1.9658 7.3384 6.8380
v  1.9658 5.7367 6.8380
v  -1.9658 5.7367 7.1616
v  1.9658 5.7367 7.1616
v  1.9658 7.3384 7.1616
v  -1.9658 7.3384 7.1616
v  -0.5193 6.9652 7.2601
v  -0.5536 6.9652 7.1319
v  -0.5536 7.2167 7.1319
v  -0.5193 7.2167 7.2601
v  -0.5822 7.2167 7.2965
v  -0.6261 7.2167 7.1343
v  -0.6261 6.9652 7.1343
v  -0.5822 6.9652 7.2965
v  -0.2995 6.9652 7.4609
v  -0.2995 7.2167 7.4609
v  -0.4617 7.2167 7.4169
v  -0.4617 6.9652 7.4169
v  -0.2972 6.9652 7.3884
v  -0.4254 6.9652 7.3540
v  -0.4254 7.2167 7.3540
v  -0.2972 7.2167 7.3884
v  0.5193 6.9652 7.2601
v  0.5193 7.2167 7.2601
v  0.5536 7.2167 7.1319
v  0.5536 6.9652 7.1319
v  0.5822 7.2167 7.2965
v  0.5822 6.9652 7.2965
v  0.6261 6.9652 7.1343
v  0.6261 7.2167 7.1343
v  0.2995 6.9652 7.4609
v  0.4617 6.9652 7.4169
v  0.4617 7.2167 7.4169
v  0.2995 7.2167 7.4609
v  0.2972 6.9652 7.3884
v  0.2972 7.2167 7.3884
v  0.4254 7.2167 7.3540
v  0.4254 6.9652 7.3540
# 128 vertices

vn 0.7071 -0.7071 -0.0000
vn 0.0000 0.0000 1.0000
vn 0.0000 0.0000 -1.0000
vn -0.7071 0.7071 -0.0000
vn -1.0000 0.0000 -0.0000
vn -0.7071 -0.7071 -0.0000
vn 0.0000 1.0000 -0.0000
vn 0.0000 -0.0000 -1.0000
vn -0.0000 -0.0000 -1.0000
vn 0.0000 -1.0000 -0.0000
vn -0.0000 0.0000 1.0000
vn 1.0000 0.0000 -0.0000
vn 0.7071 0.7071 -0.0000
vn 0.0000 -0.0000 1.0000
vn 0.8660 0.0000 -0.5000
vn 0.9659 0.0000 -0.2588
vn -0.8653 0.0000 0.5012
vn -0.9652 0.0000 0.2615
vn -0.1319 0.0000 0.9913
vn -0.5012 0.0000 0.8653
vn 0.1305 0.0000 -0.9914
vn 0.5000 0.0000 -0.8660
vn -0.8660 0.0000 -0.5000
vn -0.9659 0.0000 -0.2588
vn 0.8653 0.0000 0.5012
vn 0.9652 0.0000 0.2615
vn 0.1319 0.0000 0.9913
vn 0.5012 0.0000 0.8653
vn -0.1305 0.0000 -0.9914
vn -0.5000 0.0000 -0.8660
vn 0.0000 -1.0000 0.0000
# 31 vertex normals

vt 0.8060 0.5649 0.0000
vt 0.8060 0.7051 0.0000
vt 0.7950 0.7051 0.0000
vt 0.7950 0.5649 0.0000
vt 0.6184 0.5643 0.0000
vt 0.6262 0.5611 0.0000
vt 0.6294 0.5643 0.0000
vt 0.6262 0.5721 0.0000
vt 0.6184 0.4693 0.0000
vt 0.6262 0.4616 0.0000
vt 0.6294 0.4693 0.0000
vt 0.6262 0.4726 0.0000
vt 0.6818 0.4616 0.0000
vt 0.6786 0.4693 0.0000
vt 0.6818 0.6909 0.0000
vt 0.6262 0.6909 0.0000
vt 0.6294 0.6832 0.0000
vt 0.6786 0.6832 0.0000
vt 0.6818 0.5804 0.0000
vt 0.6895 0.5882 0.0000
vt 0.6818 0.5914 0.0000
vt 0.6786 0.5882 0.0000
vt 0.6818 0.6800 0.0000
vt 0.6895 0.6832 0.0000
vt 0.6732 0.6035 0.0000
vt 0.6777 0.6035 0.0000
vt 0.6777 0.6108 0.0000
vt 0.6732 0.6108 0.0000
vt 0.8354 0.5649 0.0000
vt 0.8354 0.6535 0.0000
vt 0.8281 0.6535 0.0000
vt 0.8281 0.5649 0.0000
vt 0.6677 0.6136 0.0000
vt 0.6677 0.6208 0.0000
vt 0.6631 0.6208 0.0000
vt 0.6631 0.6136 0.0000
vt 0.6507 0.6728 0.0000
vt 0.6467 0.6728 0.0000
vt 0.6467 0.6236 0.0000
vt 0.6507 0.6236 0.0000
vt 0.6732 0.5471 0.0000
vt 0.6732 0.5430 0.0000
vt 0.6777 0.5430 0.0000
vt 0.6777 0.5471 0.0000
vt 0.8456 0.5501 0.0000
vt 0.8415 0.5501 0.0000
vt 0.8415 0.4616 0.0000
vt 0.8456 0.4616 0.0000
vt 0.6777 0.5334 0.0000
vt 0.6732 0.5334 0.0000
vt 0.6732 0.5293 0.0000
vt 0.6777 0.5293 0.0000
vt 0.8175 0.5533 0.0000
vt 0.8143 0.5566 0.0000
vt 0.7651 0.5566 0.0000
vt 0.7651 0.4616 0.0000
vt 0.7619 0.5533 0.0000
vt 0.7619 0.4648 0.0000
vt 0.8175 0.4648 0.0000
vt 0.8143 0.4616 0.0000
vt 0.6535 0.6236 0.0000
vt 0.6576 0.6236 0.0000
vt 0.6576 0.6728 0.0000
vt 0.6535 0.6728 0.0000
vt 0.6128 0.6074 0.0000
vt 0.6128 0.7475 0.0000
vt 0.5178 0.7475 0.0000
vt 0.5178 0.6074 0.0000
vt 0.7785 0.7051 0.0000
vt 0.7785 0.5649 0.0000
vt 0.7894 0.5649 0.0000
vt 0.7894 0.7051 0.0000
vt 0.7535 0.7503 0.0000
vt 0.6979 0.7503 0.0000
vt 0.6979 0.6101 0.0000
vt 0.7535 0.6101 0.0000
vt 0.6740 0.7911 0.0000
vt 0.6708 0.7943 0.0000
vt 0.6216 0.7943 0.0000
vt 0.6740 0.7025 0.0000
vt 0.6184 0.7911 0.0000
vt 0.6184 0.7025 0.0000
vt 0.6216 0.6993 0.0000
vt 0.6708 0.6993 0.0000
vt 0.8225 0.7051 0.0000
vt 0.8116 0.7051 0.0000
vt 0.8116 0.5649 0.0000
vt 0.8225 0.5649 0.0000
vt 0.6895 0.5643 0.0000
vt 0.6818 0.5721 0.0000
vt 0.6786 0.5643 0.0000
vt 0.6818 0.5611 0.0000
vt 0.6895 0.4693 0.0000
vt 0.6818 0.4726 0.0000
vt 0.6262 0.5804 0.0000
vt 0.6294 0.5882 0.0000
vt 0.6262 0.5914 0.0000
vt 0.6184 0.5882 0.0000
vt 0.6184 0.6832 0.0000
vt 0.6262 0.6800 0.0000
vt 0.6631 0.6108 0.0000
vt 0.6631 0.6035 0.0000
vt 0.6677 0.6035 0.0000
vt 0.6677 0.6108 0.0000
vt 0.8259 0.4616 0.0000
vt 0.8332 0.4616 0.0000
vt 0.8332 0.5501 0.0000
vt 0.8259 0.5501 0.0000
vt 0.6777 0.6208 0.0000
vt 0.6732 0.6208 0.0000
vt 0.6732 0.6136 0.0000
vt 0.6777 0.6136 0.0000
vt 0.6777 0.6728 0.0000
vt 0.6704 0.6728 0.0000
vt 0.6704 0.6236 0.0000
vt 0.6777 0.6236 0.0000
vt 0.6777 0.5539 0.0000
vt 0.6732 0.5539 0.0000
vt 0.6732 0.5499 0.0000
vt 0.6777 0.5499 0.0000
vt 0.6824 0.7878 0.0000
vt 0.6824 0.6993 0.0000
vt 0.6865 0.6993 0.0000
vt 0.6865 0.7878 0.0000
vt 0.6777 0.5362 0.0000
vt 0.6777 0.5402 0.0000
vt 0.6732 0.5402 0.0000
vt 0.6732 0.5362 0.0000
vt 0.6979 0.6018 0.0000
vt 0.6979 0.4616 0.0000
vt 0.7535 0.4616 0.0000
vt 0.7535 0.6018 0.0000
vt 0.6677 0.6236 0.0000
vt 0.6677 0.6728 0.0000
vt 0.6604 0.6728 0.0000
vt 0.6604 0.6236 0.0000
vt 0.6128 0.6018 0.0000
vt 0.5178 0.6018 0.0000
vt 0.5178 0.4616 0.0000
vt 0.6128 0.4616 0.0000
vt 0.7729 0.7051 0.0000
vt 0.7619 0.7051 0.0000
vt 0.7619 0.5649 0.0000
vt 0.7729 0.5649 0.0000
vt 0.7597 0.7842 0.0000
vt 0.8256 0.7842 0.0000
vt 0.8256 0.8376 0.0000
vt 0.7597 0.8376 0.0000
vt 0.8256 0.7265 0.0000
vt 0.8256 0.7800 0.0000
vt 0.7597 0.7800 0.0000
vt 0.7597 0.7265 0.0000
vt 0.7555 0.7909 0.0000
vt 0.7020 0.7909 0.0000
vt 0.7020 0.7865 0.0000
vt 0.7555 0.7865 0.0000
vt 0.7597 0.7179 0.0000
vt 0.8256 0.7179 0.0000
vt 0.8256 0.7223 0.0000
vt 0.7597 0.7223 0.0000
vt 0.7020 0.8083 0.0000
vt 0.7555 0.8083 0.0000
vt 0.7555 0.8127 0.0000
vt 0.7020 0.8127 0.0000
vt 0.7597 0.7104 0.0000
vt 0.8256 0.7104 0.0000
vt 0.8256 0.7148 0.0000
vt 0.7597 0.7148 0.0000
vt 0.6383 0.5541 0.0000
vt 0.6362 0.5541 0.0000
vt 0.6362 0.5500 0.0000
vt 0.6383 0.5500 0.0000
vt 0.6546 0.5550 0.0000
vt 0.6572 0.5550 0.0000
vt 0.6572 0.5591 0.0000
vt 0.6546 0.5591 0.0000
vt 0.6500 0.5591 0.0000
vt 0.6500 0.5550 0.0000
vt 0.6526 0.5550 0.0000
vt 0.6526 0.5591 0.0000
vt 0.6419 0.5541 0.0000
vt 0.6398 0.5541 0.0000
vt 0.6398 0.5500 0.0000
vt 0.6419 0.5500 0.0000
vt 0.6551 0.5541 0.0000
vt 0.6551 0.5500 0.0000
vt 0.6572 0.5500 0.0000
vt 0.6572 0.5541 0.0000
vt 0.6356 0.5550 0.0000
vt 0.6356 0.5591 0.0000
vt 0.6330 0.5591 0.0000
vt 0.6330 0.5550 0.0000
vt 0.6402 0.5591 0.0000
vt 0.6376 0.5591 0.0000
vt 0.6376 0.5550 0.0000
vt 0.6402 0.5550 0.0000
vt 0.6515 0.5541 0.0000
vt 0.6515 0.5500 0.0000
vt 0.6536 0.5500 0.0000
vt 0.6536 0.5541 0.0000
vt 0.6340 0.5467 0.0000
vt 0.6340 0.5456 0.0000
vt 0.6363 0.5456 0.0000
vt 0.6363 0.5467 0.0000
vt 0.6386 0.5456 0.0000
vt 0.6386 0.5467 0.0000
vt 0.6410 0.5467 0.0000
vt 0.6410 0.5456 0.0000
vt 0.6493 0.5456 0.0000
vt 0.6493 0.5467 0.0000
vt 0.6525 0.5456 0.0000
vt 0.6525 0.5467 0.0000
vt 0.6549 0.5456 0.0000
vt 0.6549 0.5467 0.0000
vt 0.6572 0.5467 0.0000
vt 0.6572 0.5456 0.0000
vt 0.6363 0.5491 0.0000
vt 0.6340 0.5491 0.0000
vt 0.6340 0.5479 0.0000
vt 0.6363 0.5479 0.0000
vt 0.6386 0.5479 0.0000
vt 0.6386 0.5491 0.0000
vt 0.6410 0.5479 0.0000
vt 0.6410 0.5491 0.0000
vt 0.6493 0.5479 0.0000
vt 0.6493 0.5491 0.0000
vt 0.6525 0.5491 0.0000
vt 0.6525 0.5479 0.0000
vt 0.6549 0.5479 0.0000
vt 0.6549 0.5491 0.0000
vt 0.6572 0.5479 0.0000
vt 0.6572 0.5491 0.0000
vt 0.7020 0.8376 0.0000
vt 0.7020 0.8158 0.0000
vt 0.7555 0.8158 0.0000
vt 0.7555 0.8376 0.0000
vt 0.7555 0.7758 0.0000
vt 0.7020 0.7758 0.0000
vt 0.7020 0.7540 0.0000
vt 0.7555 0.7540 0.0000
vt 0.7020 0.8007 0.0000
vt 0.7555 0.8007 0.0000
vt 0.7555 0.8051 0.0000
vt 0.7020 0.8051 0.0000
vt 0.7337 0.7932 0.0000
vt 0.7555 0.7932 0.0000
vt 0.7555 0.7976 0.0000
vt 0.7337 0.7976 0.0000
vt 0.7555 0.7833 0.0000
vt 0.7020 0.7833 0.0000
vt 0.7020 0.7789 0.0000
vt 0.7555 0.7789 0.0000
vt 0.7238 0.7984 0.0000
vt 0.7020 0.7984 0.0000
vt 0.7020 0.7940 0.0000
vt 0.7238 0.7940 0.0000
vt 0.6383 0.5399 0.0000
vt 0.6362 0.5399 0.0000
vt 0.6362 0.5358 0.0000
vt 0.6383 0.5358 0.0000
vt 0.6546 0.5408 0.0000
vt 0.6572 0.5408 0.0000
vt 0.6572 0.5449 0.0000
vt 0.6546 0.5449 0.0000
vt 0.6500 0.5449 0.0000
vt 0.6500 0.5408 0.0000
vt 0.6526 0.5408 0.0000
vt 0.6526 0.5449 0.0000
vt 0.6419 0.5399 0.0000
vt 0.6398 0.5399 0.0000
vt 0.6398 0.5358 0.0000
vt 0.6419 0.5358 0.0000
vt 0.6551 0.5399 0.0000
vt 0.6551 0.5358 0.0000
vt 0.6572 0.5358 0.0000
vt 0.6572 0.5399 0.0000
vt 0.6356 0.5408 0.0000
vt 0.6356 0.5449 0.0000
vt 0.6330 0.5449 0.0000
vt 0.6330 0.5408 0.0000
vt 0.6402 0.5449 0.0000
vt 0.6376 0.5449 0.0000
vt 0.6376 0.5408 0.0000
vt 0.6402 0.5408 0.0000
vt 0.6515 0.5399 0.0000
vt 0.6515 0.5358 0.0000
vt 0.6536 0.5358 0.0000
vt 0.6536 0.5399 0.0000
vt 0.6340 0.5326 0.0000
vt 0.6340 0.5314 0.0000
vt 0.6363 0.5314 0.0000
vt 0.6363 0.5326 0.0000
vt 0.6386 0.5314 0.0000
vt 0.6386 0.5326 0.0000
vt 0.6410 0.5326 0.0000
vt 0.6410 0.5314 0.0000
vt 0.6493 0.5314 0.0000
vt 0.6493 0.5326 0.0000
vt 0.6525 0.5314 0.0000
vt 0.6525 0.5326 0.0000
vt 0.6549 0.5314 0.0000
vt 0.6549 0.5326 0.0000
vt 0.6572 0.5326 0.0000
vt 0.6572 0.5314 0.0000
vt 0.6363 0.5349 0.0000
vt 0.6340 0.5349 0.0000
vt 0.6340 0.5338 0.0000
vt 0.6363 0.5338 0.0000
vt 0.6386 0.5338 0.0000
vt 0.6386 0.5349 0.0000
vt 0.6410 0.5338 0.0000
vt 0.6410 0.5349 0.0000
vt 0.6493 0.5338 0.0000
vt 0.6493 0.5349 0.0000
vt 0.6525 0.5349 0.0000
vt 0.6525 0.5338 0.0000
vt 0.6549 0.5338 0.0000
vt 0.6549 0.5349 0.0000
vt 0.6572 0.5338 0.0000
vt 0.6572 0.5349 0.0000
# 320 texture coords

g CoverOfficeA_002
usemtl Material__1
s 4
f 1/1/1 2/2/1 3/3/1 4/4/1 
s off
f 4/5/2 5/6/2 6/7/2 1/8/2 
f 7/9/2 8/10/2 9/11/2 10/12/2 
f 11/13/2 12/14/2 9/11/2 8/10/2 
f 2/15/3 13/16/3 14/17/3 15/18/3 
f 16/19/3 17/20/3 18/21/3 19/22/3 
f 2/15/3 15/18/3 20/23/3 3/24/3 
f 6/25/4 5/26/4 21/27/4 22/28/4 
f 23/29/5 21/30/5 5/31/5 10/32/5 
f 9/33/6 24/34/6 23/35/6 10/36/6 
f 14/37/7 25/38/7 26/39/7 15/40/7 
f 18/41/6 27/42/6 28/43/6 19/44/6 
f 20/45/5 29/46/5 27/47/5 18/48/5 
f 20/49/4 15/50/4 26/51/4 29/52/4 
s 1
f 18/21/8 17/20/8 3/24/9 20/23/9 
s 2
f 29/53/8 26/54/3 25/55/9 30/56/8 
f 31/57/9 32/58/8 30/56/8 25/55/9 
f 27/59/9 29/53/8 30/56/8 28/60/3 
s off
f 19/61/10 28/62/10 30/63/10 33/64/10 
s 1
f 7/9/11 10/12/11 5/6/2 4/5/2 
s 2
f 4/65/12 3/66/12 17/67/12 7/68/12 
s 4
f 16/69/13 8/70/13 7/71/13 17/72/13 
s 1
f 11/73/7 8/74/7 16/75/7 34/76/7 
s 2
f 35/77/2 36/78/2 22/79/11 37/80/11 
f 22/79/11 21/81/11 23/82/2 24/83/2 
f 37/80/11 22/79/11 24/83/2 38/84/2 
s 4
f 39/85/6 40/86/6 41/87/6 13/88/6 
s off
f 40/89/2 39/90/2 42/91/2 43/92/2 
f 44/93/2 45/94/2 12/14/2 11/13/2 
f 34/95/3 33/96/3 46/97/3 47/98/3 
f 13/16/3 41/99/3 48/100/3 14/17/3 
f 42/101/13 36/102/13 35/103/13 43/104/13 
f 37/105/12 45/106/12 43/107/12 35/108/12 
f 12/109/1 45/110/1 37/111/1 38/112/1 
f 12/113/10 38/114/10 24/115/10 9/116/10 
f 30/117/1 32/118/1 46/119/1 33/120/1 
f 48/121/12 46/122/12 32/123/12 31/124/12 
f 48/125/13 31/126/13 25/127/13 14/128/13 
s 1
f 46/97/9 48/100/8 41/99/8 47/98/9 
f 2/129/10 1/130/10 39/131/10 13/132/10 
s off
f 6/7/2 42/91/2 39/90/2 1/8/2 
f 16/19/3 19/22/3 33/96/3 34/95/3 
f 22/133/7 36/134/7 42/135/7 6/136/7 
s 1
f 44/93/2 40/89/11 43/92/11 45/94/2 
s 2
f 40/137/5 44/138/5 47/139/5 41/140/5 
s 4
f 44/141/4 11/142/4 34/143/4 47/144/4 
s 2
f 49/145/3 50/146/3 51/147/3 52/148/3 
s 4
f 53/149/14 54/150/14 55/151/14 56/152/14 
s 8
f 49/153/10 52/154/10 54/155/10 53/156/10 
s 16
f 52/157/12 51/158/12 55/159/12 54/160/12 
s 32
f 51/161/7 50/162/7 56/163/7 55/164/7 
s 64
f 50/165/5 49/166/5 53/167/5 56/168/5 
s 2
f 57/169/15 58/170/16 59/171/16 60/172/15 
f 61/173/17 62/174/18 63/175/18 64/176/17 
f 65/177/19 66/178/19 67/179/20 68/180/20 
f 69/181/21 70/182/22 71/183/22 72/184/21 
f 70/182/22 57/169/15 60/172/15 71/183/22 
f 67/179/20 61/173/17 64/176/17 68/180/20 
f 73/185/23 74/186/23 75/187/24 76/188/24 
f 77/189/25 78/190/25 79/191/26 80/192/26 
f 81/193/27 82/194/28 83/195/28 84/196/27 
f 85/197/29 86/198/29 87/199/30 88/200/30 
f 88/200/30 87/199/30 74/186/23 73/185/23 
f 83/195/28 82/194/28 78/190/25 77/189/25 
f 72/184/21 86/198/29 85/197/29 69/181/21 
f 66/178/19 65/177/19 81/193/27 84/196/27 
s 1
f 80/201/7 75/202/7 74/203/7 77/204/7 
f 77/204/7 74/203/7 87/205/7 83/206/7 
f 84/207/7 83/206/7 87/205/7 86/208/7 
f 84/207/7 86/208/7 72/209/7 66/210/7 
f 66/210/7 72/209/7 71/211/7 67/212/7 
f 67/212/7 71/211/7 60/213/7 61/214/7 
f 62/215/7 61/214/7 60/213/7 59/216/7 
f 73/217/10 76/218/10 79/219/10 78/220/10 
f 73/217/10 78/220/10 82/221/10 88/222/10 
f 88/222/10 82/221/10 81/223/10 85/224/10 
f 85/224/10 81/223/10 65/225/10 69/226/10 
f 70/227/10 69/226/10 65/225/10 68/228/10 
f 70/227/10 68/228/10 64/229/10 57/230/10 
f 57/230/10 64/229/10 63/231/10 58/232/10 
s 2
f 89/233/3 90/234/3 91/235/3 92/236/3 
s 4
f 93/237/14 94/238/14 95/239/14 96/240/14 
s 8
f 89/241/31 92/242/31 94/243/31 93/244/31 
s 16
f 92/245/12 91/246/12 95/247/12 94/248/12 
s 32
f 91/249/7 90/250/7 96/251/7 95/252/7 
s 64
f 90/253/5 89/254/5 93/255/5 96/256/5 
s 2
f 97/257/15 98/258/16 99/259/16 100/260/15 
f 101/261/17 102/262/18 103/263/18 104/264/17 
f 105/265/19 106/266/19 107/267/20 108/268/20 
f 109/269/21 110/270/22 111/271/22 112/272/21 
f 110/270/22 97/257/15 100/260/15 111/271/22 
f 107/267/20 101/261/17 104/264/17 108/268/20 
f 113/273/23 114/274/23 115/275/24 116/276/24 
f 117/277/25 118/278/25 119/279/26 120/280/26 
f 121/281/27 122/282/28 123/283/28 124/284/27 
f 125/285/29 126/286/29 127/287/30 128/288/30 
f 128/288/30 127/287/30 114/274/23 113/273/23 
f 123/283/28 122/282/28 118/278/25 117/277/25 
f 112/272/21 126/286/29 125/285/29 109/269/21 
f 106/266/19 105/265/19 121/281/27 124/284/27 
s 1
f 120/289/7 115/290/7 114/291/7 117/292/7 
f 117/292/7 114/291/7 127/293/7 123/294/7 
f 124/295/7 123/294/7 127/293/7 126/296/7 
f 124/295/7 126/296/7 112/297/7 106/298/7 
f 106/298/7 112/297/7 111/299/7 107/300/7 
f 107/300/7 111/299/7 100/301/7 101/302/7 
f 102/303/7 101/302/7 100/301/7 99/304/7 
f 113/305/10 116/306/10 119/307/10 118/308/10 
f 113/305/10 118/308/10 122/309/10 128/310/10 
f 128/310/10 122/309/10 121/311/10 125/312/10 
f 125/312/10 121/311/10 105/313/10 109/314/10 
f 110/315/10 109/314/10 105/313/10 108/316/10 
f 110/315/10 108/316/10 104/317/10 97/318/10 
f 97/318/10 104/317/10 103/319/10 98/320/10 
# 114 polygons

