# 3ds Max Wavefront OBJ Exporter v0.97b - (c)2007 guruware
# File Created: 12.03.2016 17:14:33

mtllib CoverOfficeA_001.mtl

#
# object CoverOfficeA_001
#

v  2.0511 0.0000 7.6009
v  2.0511 0.0000 -2.7381
v  2.6231 0.5720 -2.7381
v  2.6231 0.5720 7.6009
v  2.0511 0.8090 7.6009
v  1.8141 0.5720 7.6009
v  2.6231 15.6879 7.6009
v  2.0511 16.2599 7.6009
v  1.8141 15.6879 7.6009
v  2.0511 15.4510 7.6009
v  -2.0511 16.2599 7.6009
v  -1.8141 15.6879 7.6009
v  -2.0511 0.0000 -2.7381
v  -1.8141 0.5720 -2.7381
v  1.8141 0.5720 -2.7381
v  2.0511 16.2599 -2.7381
v  2.6231 15.6879 -2.7381
v  2.0511 15.4510 -2.7381
v  1.8141 15.6879 -2.7381
v  2.0511 0.8090 -2.7381
v  2.0511 0.8090 7.0657
v  1.8141 0.5720 7.0657
v  2.0511 15.4510 7.0657
v  1.8141 15.6879 7.0657
v  -1.8141 0.5720 -2.4381
v  1.8141 0.5720 -2.4381
v  2.0511 15.4510 -2.4381
v  1.8141 15.6879 -2.4381
v  2.0511 0.8090 -2.4381
v  -2.0511 0.8090 -2.4381
v  -1.8141 15.6879 -2.4381
v  -2.0511 15.4510 -2.4381
v  -1.8141 0.5720 7.0657
v  -1.8141 0.5720 7.6009
v  -1.8141 15.6879 -2.7381
v  -2.0511 16.2599 -2.7381
v  -2.0511 15.4510 7.0657
v  -2.0511 0.8090 7.0657
v  -1.8141 15.6879 7.0657
v  -2.0511 0.0000 7.6009
v  -2.6533 0.5720 7.6009
v  -2.6533 0.5720 -2.7381
v  -2.0511 0.8090 7.6009
v  -2.6533 15.6879 7.6009
v  -2.0511 15.4510 7.6009
v  -2.0511 15.4510 -2.7381
v  -2.6533 15.6879 -2.7381
v  -2.0511 0.8090 -2.7381
v  -1.9658 0.8376 6.8380
v  -1.9658 4.4284 6.8380
v  1.9658 4.4284 6.8380
v  1.9658 0.8376 6.8380
v  -1.9658 0.8376 7.1616
v  1.9658 0.8376 7.1616
v  1.9658 4.4284 7.1616
v  -1.9658 4.4284 7.1616
v  0.5193 4.3502 7.2627
v  0.5536 4.3502 7.1345
v  0.5536 4.0987 7.1345
v  0.5193 4.0987 7.2627
v  0.5822 4.0987 7.2990
v  0.6261 4.0987 7.1369
v  0.6261 4.3502 7.1369
v  0.5822 4.3502 7.2990
v  0.2996 4.3502 7.4634
v  0.2996 4.0987 7.4634
v  0.4617 4.0987 7.4195
v  0.4617 4.3502 7.4195
v  0.2972 4.3502 7.3909
v  0.4254 4.3502 7.3566
v  0.4254 4.0987 7.3566
v  0.2972 4.0987 7.3909
v  -0.5193 4.3502 7.2627
v  -0.5193 4.0987 7.2627
v  -0.5536 4.0987 7.1345
v  -0.5536 4.3502 7.1345
v  -0.5822 4.0987 7.2990
v  -0.5822 4.3502 7.2990
v  -0.6261 4.3502 7.1369
v  -0.6261 4.0987 7.1369
v  -0.2995 4.3502 7.4634
v  -0.4617 4.3502 7.4195
v  -0.4617 4.0987 7.4195
v  -0.2995 4.0987 7.4634
v  -0.2972 4.3502 7.3909
v  -0.2972 4.0987 7.3909
v  -0.4254 4.0987 7.3566
v  -0.4254 4.3502 7.3566
v  -1.9658 4.5002 6.8380
v  -1.9658 8.0909 6.8380
v  1.9658 8.0909 6.8380
v  1.9658 4.5002 6.8380
v  -1.9658 4.5002 7.1616
v  1.9658 4.5002 7.1616
v  1.9658 8.0909 7.1616
v  -1.9658 8.0909 7.1616
v  0.5193 8.0128 7.2627
v  0.5536 8.0128 7.1345
v  0.5536 7.7613 7.1345
v  0.5193 7.7613 7.2627
v  0.5822 7.7613 7.2990
v  0.6261 7.7613 7.1369
v  0.6261 8.0128 7.1369
v  0.5822 8.0128 7.2990
v  0.2996 8.0128 7.4634
v  0.2996 7.7613 7.4634
v  0.4617 7.7613 7.4195
v  0.4617 8.0128 7.4195
v  0.2972 8.0128 7.3909
v  0.4254 8.0128 7.3566
v  0.4254 7.7613 7.3566
v  0.2972 7.7613 7.3909
v  -0.5193 8.0128 7.2627
v  -0.5193 7.7613 7.2627
v  -0.5536 7.7613 7.1345
v  -0.5536 8.0128 7.1345
v  -0.5822 7.7613 7.2990
v  -0.5822 8.0128 7.2990
v  -0.6261 8.0128 7.1369
v  -0.6261 7.7613 7.1369
v  -0.2995 8.0128 7.4634
v  -0.4617 8.0128 7.4195
v  -0.4617 7.7613 7.4195
v  -0.2995 7.7613 7.4634
v  -0.2972 8.0128 7.3909
v  -0.2972 7.7613 7.3909
v  -0.4254 7.7613 7.3566
v  -0.4254 8.0128 7.3566
v  -1.9658 8.1627 6.8380
v  -1.9658 11.7535 6.8380
v  1.9658 11.7535 6.8380
v  1.9658 8.1627 6.8380
v  -1.9658 8.1627 7.1616
v  1.9658 8.1627 7.1616
v  1.9658 11.7535 7.1616
v  -1.9658 11.7535 7.1616
v  0.5193 11.6753 7.2627
v  0.5536 11.6753 7.1345
v  0.5536 11.4238 7.1345
v  0.5193 11.4238 7.2627
v  0.5822 11.4238 7.2990
v  0.6261 11.4238 7.1369
v  0.6261 11.6753 7.1369
v  0.5822 11.6753 7.2990
v  0.2996 11.6753 7.4634
v  0.2996 11.4238 7.4634
v  0.4617 11.4238 7.4195
v  0.4617 11.6753 7.4195
v  0.2972 11.6753 7.3909
v  0.4254 11.6753 7.3566
v  0.4254 11.4238 7.3566
v  0.2972 11.4238 7.3909
v  -0.5193 11.6753 7.2627
v  -0.5193 11.4238 7.2627
v  -0.5536 11.4238 7.1345
v  -0.5536 11.6753 7.1345
v  -0.5822 11.4238 7.2990
v  -0.5822 11.6753 7.2990
v  -0.6261 11.6753 7.1369
v  -0.6261 11.4238 7.1369
v  -0.2995 11.6753 7.4634
v  -0.4617 11.6753 7.4195
v  -0.4617 11.4238 7.4195
v  -0.2995 11.4238 7.4634
v  -0.2972 11.6753 7.3909
v  -0.2972 11.4238 7.3909
v  -0.4254 11.4238 7.3566
v  -0.4254 11.6753 7.3566
v  -1.9658 11.8252 6.8380
v  -1.9658 15.4160 6.8380
v  1.9658 15.4160 6.8380
v  1.9658 11.8252 6.8380
v  -1.9658 11.8252 7.1616
v  1.9658 11.8252 7.1616
v  1.9658 15.4160 7.1616
v  -1.9658 15.4160 7.1616
v  0.5193 15.3378 7.2627
v  0.5536 15.3378 7.1345
v  0.5536 15.0863 7.1345
v  0.5193 15.0863 7.2627
v  0.5822 15.0863 7.2990
v  0.6261 15.0863 7.1369
v  0.6261 15.3378 7.1369
v  0.5822 15.3378 7.2990
v  0.2996 15.3378 7.4634
v  0.2996 15.0863 7.4634
v  0.4617 15.0863 7.4195
v  0.4617 15.3378 7.4195
v  0.2972 15.3378 7.3909
v  0.4254 15.3378 7.3566
v  0.4254 15.0863 7.3566
v  0.2972 15.0863 7.3909
v  -0.5193 15.3378 7.2627
v  -0.5193 15.0863 7.2627
v  -0.5536 15.0863 7.1345
v  -0.5536 15.3378 7.1345
v  -0.5822 15.0863 7.2990
v  -0.5822 15.3378 7.2990
v  -0.6261 15.3378 7.1369
v  -0.6261 15.0863 7.1369
v  -0.2995 15.3378 7.4634
v  -0.4617 15.3378 7.4195
v  -0.4617 15.0863 7.4195
v  -0.2995 15.0863 7.4634
v  -0.2972 15.3378 7.3909
v  -0.2972 15.0863 7.3909
v  -0.4254 15.0863 7.3566
v  -0.4254 15.3378 7.3566
# 208 vertices

vn 0.7071 -0.7071 -0.0000
vn 0.0000 0.0000 1.0000
vn 0.0000 0.0000 -1.0000
vn -0.7071 0.7071 -0.0000
vn -1.0000 0.0000 -0.0000
vn -0.7071 -0.7071 -0.0000
vn 0.0000 1.0000 -0.0000
vn 0.0000 -1.0000 -0.0000
vn 1.0000 0.0000 -0.0000
vn 0.7071 0.7071 -0.0000
vn -0.6887 -0.7250 -0.0000
vn -0.6887 0.7250 -0.0000
vn 0.0000 -0.0000 1.0000
vn -0.8660 0.0000 -0.5000
vn -0.9659 0.0000 -0.2588
vn 0.8653 0.0000 0.5012
vn 0.9652 0.0000 0.2615
vn 0.1319 0.0000 0.9913
vn 0.5012 0.0000 0.8653
vn -0.1305 0.0000 -0.9914
vn -0.5000 0.0000 -0.8660
vn 0.8660 0.0000 -0.5000
vn 0.9659 0.0000 -0.2588
vn -0.8653 0.0000 0.5012
vn -0.9652 0.0000 0.2615
vn -0.1319 0.0000 0.9913
vn -0.5012 0.0000 0.8653
vn 0.1305 0.0000 -0.9914
vn 0.5000 0.0000 -0.8660
# 29 vertex normals

vt 0.6895 0.1929 0.0000
vt 0.6895 0.0508 0.0000
vt 0.7006 0.0508 0.0000
vt 0.7006 0.1929 0.0000
vt 0.6411 0.2237 0.0000
vt 0.6489 0.2205 0.0000
vt 0.6522 0.2237 0.0000
vt 0.6489 0.2316 0.0000
vt 0.6411 0.0159 0.0000
vt 0.6489 0.0081 0.0000
vt 0.6522 0.0159 0.0000
vt 0.6489 0.0192 0.0000
vt 0.7053 0.0081 0.0000
vt 0.7021 0.0159 0.0000
vt 0.7896 0.2316 0.0000
vt 0.7332 0.2316 0.0000
vt 0.7365 0.2237 0.0000
vt 0.7864 0.2237 0.0000
vt 0.7896 0.0081 0.0000
vt 0.7975 0.0159 0.0000
vt 0.7896 0.0192 0.0000
vt 0.7864 0.0159 0.0000
vt 0.7896 0.2205 0.0000
vt 0.7975 0.2237 0.0000
vt 0.7723 0.0333 0.0000
vt 0.7769 0.0333 0.0000
vt 0.7769 0.0407 0.0000
vt 0.7723 0.0407 0.0000
vt 0.8839 0.0081 0.0000
vt 0.8839 0.2093 0.0000
vt 0.8766 0.2093 0.0000
vt 0.8766 0.0081 0.0000
vt 0.7822 0.2106 0.0000
vt 0.7822 0.2179 0.0000
vt 0.7776 0.2179 0.0000
vt 0.7776 0.2106 0.0000
vt 0.6746 0.1393 0.0000
vt 0.6705 0.1393 0.0000
vt 0.6705 0.0894 0.0000
vt 0.6746 0.0894 0.0000
vt 0.7608 0.2179 0.0000
vt 0.7608 0.2138 0.0000
vt 0.7654 0.2138 0.0000
vt 0.7654 0.2179 0.0000
vt 0.8994 0.2093 0.0000
vt 0.8953 0.2093 0.0000
vt 0.8953 0.0081 0.0000
vt 0.8994 0.0081 0.0000
vt 0.7738 0.2022 0.0000
vt 0.7738 0.2068 0.0000
vt 0.7697 0.2068 0.0000
vt 0.7697 0.2022 0.0000
vt 0.8620 0.4350 0.0000
vt 0.8121 0.4350 0.0000
vt 0.8088 0.4317 0.0000
vt 0.8121 0.2272 0.0000
vt 0.8088 0.2305 0.0000
vt 0.8652 0.4317 0.0000
vt 0.8652 0.2305 0.0000
vt 0.8620 0.2272 0.0000
vt 0.6672 0.1431 0.0000
vt 0.6746 0.1431 0.0000
vt 0.6746 0.1929 0.0000
vt 0.6672 0.1929 0.0000
vt 0.6816 0.0894 0.0000
vt 0.6857 0.0894 0.0000
vt 0.6857 0.1393 0.0000
vt 0.6816 0.1393 0.0000
vt 0.6297 0.4350 0.0000
vt 0.4876 0.4350 0.0000
vt 0.4876 0.2272 0.0000
vt 0.6297 0.2272 0.0000
vt 0.7541 0.0508 0.0000
vt 0.7541 0.1929 0.0000
vt 0.7430 0.1929 0.0000
vt 0.7430 0.0508 0.0000
vt 0.6975 0.3850 0.0000
vt 0.6411 0.3850 0.0000
vt 0.6411 0.2429 0.0000
vt 0.6975 0.2429 0.0000
vt 0.8652 0.0113 0.0000
vt 0.8652 0.2126 0.0000
vt 0.8620 0.2158 0.0000
vt 0.8121 0.0081 0.0000
vt 0.8121 0.2158 0.0000
vt 0.8088 0.2126 0.0000
vt 0.8088 0.0113 0.0000
vt 0.8620 0.0081 0.0000
vt 0.7579 0.0508 0.0000
vt 0.7693 0.0508 0.0000
vt 0.7693 0.1929 0.0000
vt 0.7579 0.1929 0.0000
vt 0.7136 0.2237 0.0000
vt 0.7053 0.2316 0.0000
vt 0.7021 0.2237 0.0000
vt 0.7053 0.2205 0.0000
vt 0.7136 0.0159 0.0000
vt 0.7053 0.0192 0.0000
vt 0.7332 0.0081 0.0000
vt 0.7365 0.0159 0.0000
vt 0.7332 0.0192 0.0000
vt 0.7250 0.0159 0.0000
vt 0.7250 0.2237 0.0000
vt 0.7332 0.2205 0.0000
vt 0.7692 0.2179 0.0000
vt 0.7692 0.2106 0.0000
vt 0.7738 0.2106 0.0000
vt 0.7738 0.2179 0.0000
vt 0.8766 0.2272 0.0000
vt 0.8839 0.2272 0.0000
vt 0.8839 0.4285 0.0000
vt 0.8766 0.4285 0.0000
vt 0.7853 0.0407 0.0000
vt 0.7807 0.0407 0.0000
vt 0.7807 0.0333 0.0000
vt 0.7853 0.0333 0.0000
vt 0.6784 0.1929 0.0000
vt 0.6784 0.1431 0.0000
vt 0.6857 0.1431 0.0000
vt 0.6857 0.1929 0.0000
vt 0.7822 0.2022 0.0000
vt 0.7822 0.2068 0.0000
vt 0.7781 0.2068 0.0000
vt 0.7781 0.2022 0.0000
vt 0.8953 0.4285 0.0000
vt 0.8953 0.2272 0.0000
vt 0.8994 0.2272 0.0000
vt 0.8994 0.4285 0.0000
vt 0.7685 0.0365 0.0000
vt 0.7685 0.0407 0.0000
vt 0.7639 0.0407 0.0000
vt 0.7639 0.0365 0.0000
vt 0.7250 0.3850 0.0000
vt 0.7250 0.2429 0.0000
vt 0.7813 0.2429 0.0000
vt 0.7813 0.3850 0.0000
vt 0.7731 0.0508 0.0000
vt 0.7845 0.0508 0.0000
vt 0.7845 0.1929 0.0000
vt 0.7731 0.1929 0.0000
vt 0.6297 0.0081 0.0000
vt 0.6297 0.2158 0.0000
vt 0.4876 0.2158 0.0000
vt 0.4876 0.0081 0.0000
vt 0.9699 0.0063 0.0000
vt 0.9699 0.0610 0.0000
vt 0.9100 0.0610 0.0000
vt 0.9100 0.0063 0.0000
vt 0.7014 0.4454 0.0000
vt 0.6415 0.4454 0.0000
vt 0.6415 0.3907 0.0000
vt 0.7014 0.3907 0.0000
vt 0.7640 0.3956 0.0000
vt 0.7040 0.3956 0.0000
vt 0.7040 0.3907 0.0000
vt 0.7640 0.3907 0.0000
vt 0.7588 0.4032 0.0000
vt 0.7040 0.4032 0.0000
vt 0.7040 0.3983 0.0000
vt 0.7588 0.3983 0.0000
vt 0.7641 0.4102 0.0000
vt 0.7042 0.4102 0.0000
vt 0.7042 0.4053 0.0000
vt 0.7641 0.4053 0.0000
vt 0.7588 0.4162 0.0000
vt 0.7040 0.4162 0.0000
vt 0.7040 0.4112 0.0000
vt 0.7588 0.4112 0.0000
vt 0.6657 0.0370 0.0000
vt 0.6657 0.0326 0.0000
vt 0.6743 0.0326 0.0000
vt 0.6743 0.0370 0.0000
vt 0.6638 0.0712 0.0000
vt 0.6638 0.0767 0.0000
vt 0.6552 0.0767 0.0000
vt 0.6552 0.0712 0.0000
vt 0.6552 0.0615 0.0000
vt 0.6638 0.0615 0.0000
vt 0.6638 0.0671 0.0000
vt 0.6552 0.0671 0.0000
vt 0.6657 0.0445 0.0000
vt 0.6657 0.0402 0.0000
vt 0.6743 0.0402 0.0000
vt 0.6743 0.0445 0.0000
vt 0.6657 0.0724 0.0000
vt 0.6743 0.0724 0.0000
vt 0.6743 0.0767 0.0000
vt 0.6657 0.0767 0.0000
vt 0.6638 0.0314 0.0000
vt 0.6552 0.0314 0.0000
vt 0.6552 0.0258 0.0000
vt 0.6638 0.0258 0.0000
vt 0.6552 0.0410 0.0000
vt 0.6552 0.0355 0.0000
vt 0.6638 0.0355 0.0000
vt 0.6638 0.0410 0.0000
vt 0.6657 0.0648 0.0000
vt 0.6743 0.0648 0.0000
vt 0.6743 0.0692 0.0000
vt 0.6657 0.0692 0.0000
vt 0.6812 0.0278 0.0000
vt 0.6835 0.0278 0.0000
vt 0.6835 0.0327 0.0000
vt 0.6812 0.0327 0.0000
vt 0.6835 0.0376 0.0000
vt 0.6812 0.0376 0.0000
vt 0.6812 0.0426 0.0000
vt 0.6835 0.0426 0.0000
vt 0.6835 0.0602 0.0000
vt 0.6812 0.0602 0.0000
vt 0.6835 0.0669 0.0000
vt 0.6812 0.0669 0.0000
vt 0.6835 0.0718 0.0000
vt 0.6812 0.0718 0.0000
vt 0.6812 0.0767 0.0000
vt 0.6835 0.0767 0.0000
vt 0.6762 0.0327 0.0000
vt 0.6762 0.0278 0.0000
vt 0.6786 0.0278 0.0000
vt 0.6786 0.0327 0.0000
vt 0.6786 0.0376 0.0000
vt 0.6762 0.0376 0.0000
vt 0.6786 0.0426 0.0000
vt 0.6762 0.0426 0.0000
vt 0.6786 0.0602 0.0000
vt 0.6762 0.0602 0.0000
vt 0.6762 0.0669 0.0000
vt 0.6786 0.0669 0.0000
vt 0.6786 0.0718 0.0000
vt 0.6762 0.0718 0.0000
vt 0.6786 0.0767 0.0000
vt 0.6762 0.0767 0.0000
# 232 texture coords

g CoverOfficeA_001
usemtl Material__1
s 4
f 1/1/1 2/2/1 3/3/1 4/4/1 
s off
f 4/5/2 5/6/2 6/7/2 1/8/2 
f 7/9/2 8/10/2 9/11/2 10/12/2 
f 11/13/2 12/14/2 9/11/2 8/10/2 
f 2/15/3 13/16/3 14/17/3 15/18/3 
f 16/19/3 17/20/3 18/21/3 19/22/3 
f 2/15/3 15/18/3 20/23/3 3/24/3 
f 6/25/4 5/26/4 21/27/4 22/28/4 
f 23/29/5 21/30/5 5/31/5 10/32/5 
f 9/33/6 24/34/6 23/35/6 10/36/6 
f 14/37/7 25/38/7 26/39/7 15/40/7 
f 18/41/6 27/42/6 28/43/6 19/44/6 
f 20/45/5 29/46/5 27/47/5 18/48/5 
f 20/49/4 15/50/4 26/51/4 29/52/4 
s 1
f 18/21/3 17/20/3 3/24/3 20/23/3 
s 2
f 26/53/3 25/54/3 30/55/3 31/56/3 
f 30/55/3 32/57/3 31/56/3 
f 29/58/3 26/53/3 31/56/3 27/59/3 
f 28/60/3 27/59/3 31/56/3 
s off
f 6/61/7 22/62/7 33/63/7 34/64/7 
f 19/65/8 28/66/8 31/67/8 35/68/8 
s 1
f 7/9/2 10/12/2 5/6/2 4/5/2 
s 2
f 4/69/9 3/70/9 17/71/9 7/72/9 
s 4
f 16/73/10 8/74/10 7/75/10 17/76/10 
s 1
f 11/77/7 8/78/7 16/79/7 36/80/7 
s 2
f 37/81/2 38/82/2 33/83/2 24/84/2 
f 33/83/2 22/85/2 21/86/2 23/87/2 
f 33/83/2 23/87/2 24/84/2 
f 37/81/2 24/84/2 39/88/2 
s 4
f 40/89/11 41/90/11 42/91/11 13/92/11 
s off
f 41/93/2 40/94/2 34/95/2 43/96/2 
f 44/97/2 45/98/2 12/14/2 11/13/2 
f 36/99/3 35/100/3 46/101/3 47/102/3 
f 13/16/3 42/103/3 48/104/3 14/17/3 
f 34/105/10 33/106/10 38/107/10 43/108/10 
f 37/109/9 45/110/9 43/111/9 38/112/9 
f 12/113/1 45/114/1 37/115/1 39/116/1 
f 39/117/8 24/118/8 9/119/8 12/120/8 
f 31/121/1 32/122/1 46/123/1 35/124/1 
f 48/125/9 46/126/9 32/127/9 30/128/9 
f 48/129/10 30/130/10 25/131/10 14/132/10 
s 1
f 2/133/8 1/134/8 40/135/8 13/136/8 
s off
f 6/7/2 34/95/2 40/94/2 1/8/2 
f 16/19/3 19/22/3 35/100/3 36/99/3 
s 1
f 44/97/2 41/93/2 43/96/2 45/98/2 
s 4
f 44/137/12 11/138/12 36/139/12 47/140/12 
s 2
f 47/141/5 42/142/5 41/143/5 44/144/5 
s 1
f 46/101/3 48/104/3 42/103/3 47/102/3 
s 2
f 49/145/3 50/146/3 51/147/3 52/148/3 
s 4
f 53/149/13 54/150/13 55/151/13 56/152/13 
s 8
f 49/153/8 52/154/8 54/155/8 53/156/8 
s 16
f 52/157/9 51/158/9 55/159/9 54/160/9 
s 32
f 51/161/7 50/162/7 56/163/7 55/164/7 
s 64
f 50/165/5 49/166/5 53/167/5 56/168/5 
s 2
f 57/169/14 58/170/15 59/171/15 60/172/14 
f 61/173/16 62/174/17 63/175/17 64/176/16 
f 65/177/18 66/178/18 67/179/19 68/180/19 
f 69/181/20 70/182/21 71/183/21 72/184/20 
f 70/182/21 57/169/14 60/172/14 71/183/21 
f 67/179/19 61/173/16 64/176/16 68/180/19 
f 73/185/22 74/186/22 75/187/23 76/188/23 
f 77/189/24 78/190/24 79/191/25 80/192/25 
f 81/193/26 82/194/27 83/195/27 84/196/26 
f 85/197/28 86/198/28 87/199/29 88/200/29 
f 88/200/29 87/199/29 74/186/22 73/185/22 
f 83/195/27 82/194/27 78/190/24 77/189/24 
f 72/184/20 86/198/28 85/197/28 69/181/20 
f 66/178/18 65/177/18 81/193/26 84/196/26 
s 1
f 80/201/8 75/202/8 74/203/8 77/204/8 
f 77/204/8 74/203/8 87/205/8 83/206/8 
f 84/207/8 83/206/8 87/205/8 86/208/8 
f 84/207/8 86/208/8 72/209/8 66/210/8 
f 66/210/8 72/209/8 71/211/8 67/212/8 
f 67/212/8 71/211/8 60/213/8 61/214/8 
f 62/215/8 61/214/8 60/213/8 59/216/8 
f 73/217/7 76/218/7 79/219/7 78/220/7 
f 73/217/7 78/220/7 82/221/7 88/222/7 
f 88/222/7 82/221/7 81/223/7 85/224/7 
f 85/224/7 81/223/7 65/225/7 69/226/7 
f 70/227/7 69/226/7 65/225/7 68/228/7 
f 70/227/7 68/228/7 64/229/7 57/230/7 
f 57/230/7 64/229/7 63/231/7 58/232/7 
s 2
f 89/145/3 90/146/3 91/147/3 92/148/3 
s 4
f 93/149/13 94/150/13 95/151/13 96/152/13 
s 8
f 89/153/8 92/154/8 94/155/8 93/156/8 
s 16
f 92/157/9 91/158/9 95/159/9 94/160/9 
s 32
f 91/161/7 90/162/7 96/163/7 95/164/7 
s 64
f 90/165/5 89/166/5 93/167/5 96/168/5 
s 2
f 97/169/14 98/170/15 99/171/15 100/172/14 
f 101/173/16 102/174/17 103/175/17 104/176/16 
f 105/177/18 106/178/18 107/179/19 108/180/19 
f 109/181/20 110/182/21 111/183/21 112/184/20 
f 110/182/21 97/169/14 100/172/14 111/183/21 
f 107/179/19 101/173/16 104/176/16 108/180/19 
f 113/185/22 114/186/22 115/187/23 116/188/23 
f 117/189/24 118/190/24 119/191/25 120/192/25 
f 121/193/26 122/194/27 123/195/27 124/196/26 
f 125/197/28 126/198/28 127/199/29 128/200/29 
f 128/200/29 127/199/29 114/186/22 113/185/22 
f 123/195/27 122/194/27 118/190/24 117/189/24 
f 112/184/20 126/198/28 125/197/28 109/181/20 
f 106/178/18 105/177/18 121/193/26 124/196/26 
s 1
f 120/201/8 115/202/8 114/203/8 117/204/8 
f 117/204/8 114/203/8 127/205/8 123/206/8 
f 124/207/8 123/206/8 127/205/8 126/208/8 
f 124/207/8 126/208/8 112/209/8 106/210/8 
f 106/210/8 112/209/8 111/211/8 107/212/8 
f 107/212/8 111/211/8 100/213/8 101/214/8 
f 102/215/8 101/214/8 100/213/8 99/216/8 
f 113/217/7 116/218/7 119/219/7 118/220/7 
f 113/217/7 118/220/7 122/221/7 128/222/7 
f 128/222/7 122/221/7 121/223/7 125/224/7 
f 125/224/7 121/223/7 105/225/7 109/226/7 
f 110/227/7 109/226/7 105/225/7 108/228/7 
f 110/227/7 108/228/7 104/229/7 97/230/7 
f 97/230/7 104/229/7 103/231/7 98/232/7 
s 2
f 129/145/3 130/146/3 131/147/3 132/148/3 
s 4
f 133/149/13 134/150/13 135/151/13 136/152/13 
s 8
f 129/153/8 132/154/8 134/155/8 133/156/8 
s 16
f 132/157/9 131/158/9 135/159/9 134/160/9 
s 32
f 131/161/7 130/162/7 136/163/7 135/164/7 
s 64
f 130/165/5 129/166/5 133/167/5 136/168/5 
s 2
f 137/169/14 138/170/15 139/171/15 140/172/14 
f 141/173/16 142/174/17 143/175/17 144/176/16 
f 145/177/18 146/178/18 147/179/19 148/180/19 
f 149/181/20 150/182/21 151/183/21 152/184/20 
f 150/182/21 137/169/14 140/172/14 151/183/21 
f 147/179/19 141/173/16 144/176/16 148/180/19 
f 153/185/22 154/186/22 155/187/23 156/188/23 
f 157/189/24 158/190/24 159/191/25 160/192/25 
f 161/193/26 162/194/27 163/195/27 164/196/26 
f 165/197/28 166/198/28 167/199/29 168/200/29 
f 168/200/29 167/199/29 154/186/22 153/185/22 
f 163/195/27 162/194/27 158/190/24 157/189/24 
f 152/184/20 166/198/28 165/197/28 149/181/20 
f 146/178/18 145/177/18 161/193/26 164/196/26 
s 1
f 160/201/8 155/202/8 154/203/8 157/204/8 
f 157/204/8 154/203/8 167/205/8 163/206/8 
f 164/207/8 163/206/8 167/205/8 166/208/8 
f 164/207/8 166/208/8 152/209/8 146/210/8 
f 146/210/8 152/209/8 151/211/8 147/212/8 
f 147/212/8 151/211/8 140/213/8 141/214/8 
f 142/215/8 141/214/8 140/213/8 139/216/8 
f 153/217/7 156/218/7 159/219/7 158/220/7 
f 153/217/7 158/220/7 162/221/7 168/222/7 
f 168/222/7 162/221/7 161/223/7 165/224/7 
f 165/224/7 161/223/7 145/225/7 149/226/7 
f 150/227/7 149/226/7 145/225/7 148/228/7 
f 150/227/7 148/228/7 144/229/7 137/230/7 
f 137/230/7 144/229/7 143/231/7 138/232/7 
s 2
f 169/145/3 170/146/3 171/147/3 172/148/3 
s 4
f 173/149/13 174/150/13 175/151/13 176/152/13 
s 8
f 169/153/8 172/154/8 174/155/8 173/156/8 
s 16
f 172/157/9 171/158/9 175/159/9 174/160/9 
s 32
f 171/161/7 170/162/7 176/163/7 175/164/7 
s 64
f 170/165/5 169/166/5 173/167/5 176/168/5 
s 2
f 177/169/14 178/170/15 179/171/15 180/172/14 
f 181/173/16 182/174/17 183/175/17 184/176/16 
f 185/177/18 186/178/18 187/179/19 188/180/19 
f 189/181/20 190/182/21 191/183/21 192/184/20 
f 190/182/21 177/169/14 180/172/14 191/183/21 
f 187/179/19 181/173/16 184/176/16 188/180/19 
f 193/185/22 194/186/22 195/187/23 196/188/23 
f 197/189/24 198/190/24 199/191/25 200/192/25 
f 201/193/26 202/194/27 203/195/27 204/196/26 
f 205/197/28 206/198/28 207/199/29 208/200/29 
f 208/200/29 207/199/29 194/186/22 193/185/22 
f 203/195/27 202/194/27 198/190/24 197/189/24 
f 192/184/20 206/198/28 205/197/28 189/181/20 
f 186/178/18 185/177/18 201/193/26 204/196/26 
s 1
f 200/201/8 195/202/8 194/203/8 197/204/8 
f 197/204/8 194/203/8 207/205/8 203/206/8 
f 204/207/8 203/206/8 207/205/8 206/208/8 
f 204/207/8 206/208/8 192/209/8 186/210/8 
f 186/210/8 192/209/8 191/211/8 187/212/8 
f 187/212/8 191/211/8 180/213/8 181/214/8 
f 182/215/8 181/214/8 180/213/8 179/216/8 
f 193/217/7 196/218/7 199/219/7 198/220/7 
f 193/217/7 198/220/7 202/221/7 208/222/7 
f 208/222/7 202/221/7 201/223/7 205/224/7 
f 205/224/7 201/223/7 185/225/7 189/226/7 
f 190/227/7 189/226/7 185/225/7 188/228/7 
f 190/227/7 188/228/7 184/229/7 177/230/7 
f 177/230/7 184/229/7 183/231/7 178/232/7 
# 180 polygons - 4 triangles

