# 3ds Max Wavefront OBJ Exporter v0.97b - (c)2007 guruware
# File Created: 11.03.2016 12:11:09

mtllib CoverInduA_002.mtl

#
# object CoverInduA_002
#

v  2.0458 0.0000 -5.2066
v  2.6179 0.5720 -5.2066
v  2.6179 0.5720 5.2066
v  2.0458 0.0000 5.2066
v  2.0458 8.1270 -5.2066
v  2.2632 7.9096 1.6680
v  2.6179 7.5550 1.6680
v  2.6179 7.5550 -5.2066
v  2.0459 0.8090 5.2066
v  1.8089 0.5720 5.2066
v  2.0458 8.1270 5.2066
v  1.8089 7.5550 5.2066
v  2.0459 7.3181 5.2066
v  2.6179 7.5550 5.2066
v  -2.0458 8.1270 5.2066
v  -1.8089 7.5550 5.2066
v  -2.0458 0.0000 -5.2066
v  -1.8089 0.5720 -5.2066
v  1.8089 0.5720 -5.2066
v  2.0459 7.3181 -5.2066
v  1.8089 7.5550 -5.2066
v  2.0459 0.8090 -5.2066
v  2.0459 0.8090 4.9066
v  1.8089 0.5720 4.9066
v  2.0459 7.3181 4.9066
v  1.8089 7.5550 4.9066
v  -1.8089 0.5720 -4.9066
v  1.8089 0.5720 -4.9066
v  2.0459 7.3181 -4.9066
v  1.8089 7.5550 -4.9066
v  2.0459 0.8090 -4.9066
v  -2.0459 7.3181 -4.9066
v  -1.8089 7.5550 -4.9066
v  -1.8089 7.5550 -5.2066
v  2.6179 7.0041 1.6680
v  2.6179 7.0041 3.8487
v  2.6179 7.5550 3.8487
v  2.2632 7.9096 3.8487
v  2.5255 7.5167 3.8487
v  2.5179 7.0041 3.8487
v  2.5179 7.0041 1.6680
v  2.5255 7.5167 1.6680
v  2.1925 7.8389 1.6680
v  2.1925 7.8389 3.8487
v  -2.0458 8.1270 -5.2066
v  -1.8089 7.5550 4.9066
v  -2.0459 7.3181 4.9066
v  -2.0458 0.0000 5.2066
v  -2.6179 0.5720 5.2066
v  -2.6179 0.5720 -5.2066
v  -2.6179 7.5550 -5.2066
v  -2.6179 7.5550 1.6680
v  -2.2632 7.9096 1.6680
v  -1.8089 0.5720 5.2066
v  -2.0459 0.8090 5.2066
v  -2.6179 7.5550 5.2066
v  -2.0459 7.3181 5.2066
v  -2.0459 7.3181 -5.2066
v  -2.0459 0.8090 -5.2066
v  -1.8089 0.5720 4.9066
v  -2.0459 0.8090 4.9066
v  -2.0459 0.8090 -4.9066
v  -2.6179 7.0041 1.6680
v  -2.6179 7.5550 3.8487
v  -2.6179 7.0041 3.8487
v  -2.2632 7.9096 3.8487
v  -2.5255 7.5167 3.8487
v  -2.5255 7.5167 1.6680
v  -2.5179 7.0041 1.6680
v  -2.5179 7.0041 3.8487
v  -2.1925 7.8389 3.8487
v  -2.1925 7.8389 1.6680
v  -1.8794 5.6506 4.8964
v  -1.8794 6.8638 4.8964
v  1.8794 6.8638 4.8964
v  1.8794 5.6506 4.8964
v  1.6002 5.8203 4.9812
v  1.6002 6.0592 4.9812
v  -1.6002 6.0592 4.9812
v  -1.6002 5.8203 4.9812
v  1.8794 5.6506 5.0812
v  -1.8794 5.6506 5.0812
v  1.8794 6.8638 5.0812
v  -1.8794 6.8638 5.0812
v  1.6002 5.8203 5.0812
v  -1.6002 5.8203 5.0812
v  1.6002 6.0592 5.0812
v  -1.6002 6.0592 5.0812
v  1.7029 6.4589 5.0383
v  1.6739 6.5673 5.0383
v  1.6739 6.5673 5.1564
v  1.7029 6.4589 5.1564
v  1.5946 6.6467 5.0383
v  1.5946 6.6467 5.1564
v  1.4862 6.6757 5.0383
v  1.4862 6.6757 5.1564
v  1.3778 6.6467 5.0383
v  1.3778 6.6467 5.1564
v  1.2984 6.5673 5.0383
v  1.2984 6.5673 5.1564
v  1.2694 6.4589 5.0383
v  1.2694 6.4589 5.1564
v  1.2984 6.3506 5.0383
v  1.2984 6.3506 5.1564
v  1.3778 6.2712 5.0383
v  1.3778 6.2712 5.1564
v  1.4862 6.2422 5.0383
v  1.4862 6.2422 5.1564
v  1.5946 6.2712 5.0383
v  1.5946 6.2712 5.1564
v  1.6739 6.3506 5.0383
v  1.6739 6.3506 5.1564
v  -1.8794 4.2256 4.8964
v  -1.8794 5.4388 4.8964
v  1.8794 5.4388 4.8964
v  1.8794 4.2256 4.8964
v  1.6002 4.3953 4.9812
v  1.6002 4.6342 4.9812
v  -1.6002 4.6342 4.9812
v  -1.6002 4.3953 4.9812
v  1.8794 4.2256 5.0812
v  -1.8794 4.2256 5.0812
v  1.8794 5.4388 5.0812
v  -1.8794 5.4388 5.0812
v  1.6002 4.3953 5.0812
v  -1.6002 4.3953 5.0812
v  1.6002 4.6342 5.0812
v  -1.6002 4.6342 5.0812
v  1.7029 5.0339 5.0383
v  1.6739 5.1423 5.0383
v  1.6739 5.1423 5.1564
v  1.7029 5.0339 5.1564
v  1.5946 5.2217 5.0383
v  1.5946 5.2217 5.1564
v  1.4862 5.2507 5.0383
v  1.4862 5.2507 5.1564
v  1.3778 5.2217 5.0383
v  1.3778 5.2217 5.1564
v  1.2984 5.1423 5.0383
v  1.2984 5.1423 5.1564
v  1.2694 5.0339 5.0383
v  1.2694 5.0339 5.1564
v  1.2984 4.9255 5.0383
v  1.2984 4.9255 5.1564
v  1.3778 4.8462 5.0383
v  1.3778 4.8462 5.1564
v  1.4862 4.8172 5.0383
v  1.4862 4.8172 5.1564
v  1.5946 4.8462 5.0383
v  1.5946 4.8462 5.1564
v  1.6739 4.9255 5.0383
v  1.6739 4.9255 5.1564
v  -1.8794 2.8006 4.8964
v  -1.8794 4.0138 4.8964
v  1.8794 4.0138 4.8964
v  1.8794 2.8006 4.8964
v  1.6002 2.9703 4.9812
v  1.6002 3.2091 4.9812
v  -1.6002 3.2091 4.9812
v  -1.6002 2.9703 4.9812
v  1.8794 2.8006 5.0812
v  -1.8794 2.8006 5.0812
v  1.8794 4.0138 5.0812
v  -1.8794 4.0138 5.0812
v  1.6002 2.9703 5.0812
v  -1.6002 2.9703 5.0812
v  1.6002 3.2091 5.0812
v  -1.6002 3.2091 5.0812
v  1.7029 3.6089 5.0383
v  1.6739 3.7173 5.0383
v  1.6739 3.7173 5.1564
v  1.7029 3.6089 5.1564
v  1.5946 3.7966 5.0383
v  1.5946 3.7966 5.1564
v  1.4862 3.8257 5.0383
v  1.4862 3.8257 5.1564
v  1.3778 3.7966 5.0383
v  1.3778 3.7966 5.1564
v  1.2984 3.7173 5.0383
v  1.2984 3.7173 5.1564
v  1.2694 3.6089 5.0383
v  1.2694 3.6089 5.1564
v  1.2984 3.5005 5.0383
v  1.2984 3.5005 5.1564
v  1.3778 3.4212 5.0383
v  1.3778 3.4212 5.1564
v  1.4862 3.3922 5.0383
v  1.4862 3.3922 5.1564
v  1.5946 3.4212 5.0383
v  1.5946 3.4212 5.1564
v  1.6739 3.5005 5.0383
v  1.6739 3.5005 5.1564
v  -1.8794 1.3756 4.8964
v  -1.8794 2.5888 4.8964
v  1.8794 2.5888 4.8964
v  1.8794 1.3756 4.8964
v  1.6002 1.5453 4.9812
v  1.6002 1.7841 4.9812
v  -1.6002 1.7841 4.9812
v  -1.6002 1.5453 4.9812
v  1.8794 1.3756 5.0812
v  -1.8794 1.3756 5.0812
v  1.8794 2.5888 5.0812
v  -1.8794 2.5888 5.0812
v  1.6002 1.5453 5.0812
v  -1.6002 1.5453 5.0812
v  1.6002 1.7841 5.0812
v  -1.6002 1.7841 5.0812
v  1.7029 2.1839 5.0383
v  1.6739 2.2923 5.0383
v  1.6739 2.2923 5.1564
v  1.7029 2.1839 5.1564
v  1.5946 2.3716 5.0383
v  1.5946 2.3716 5.1564
v  1.4862 2.4007 5.0383
v  1.4862 2.4007 5.1564
v  1.3778 2.3716 5.0383
v  1.3778 2.3716 5.1564
v  1.2984 2.2923 5.0383
v  1.2984 2.2923 5.1564
v  1.2694 2.1839 5.0383
v  1.2694 2.1839 5.1564
v  1.2984 2.0755 5.0383
v  1.2984 2.0755 5.1564
v  1.3778 1.9962 5.0383
v  1.3778 1.9962 5.1564
v  1.4862 1.9671 5.0383
v  1.4862 1.9671 5.1564
v  1.5946 1.9962 5.0383
v  1.5946 1.9962 5.1564
v  1.6739 2.0755 5.0383
v  1.6739 2.0755 5.1564
# 232 vertices

vn 0.7071 -0.7071 -0.0000
vn 0.7071 0.7071 0.0000
vn 0.0000 0.0000 1.0000
vn 0.0000 0.0000 -1.0000
vn -0.7071 0.7071 -0.0000
vn -1.0000 0.0000 -0.0000
vn -0.7071 -0.7071 -0.0000
vn 0.0000 1.0000 -0.0000
vn 0.0000 -1.0000 -0.0000
vn 1.0000 0.0000 0.0000
vn 1.0000 0.0000 -0.0000
vn 0.7071 0.7071 -0.0000
vn 0.9999 -0.0148 -0.0000
vn 0.6954 0.7186 -0.0000
vn -0.0000 0.0000 1.0000
vn 0.0000 -0.0000 -1.0000
vn -0.7071 0.7071 0.0000
vn -1.0000 0.0000 0.0000
vn -0.9999 -0.0148 -0.0000
vn -0.6954 0.7186 -0.0000
vn -0.0000 -0.0000 -1.0000
vn -0.0000 -0.0000 1.0000
vn 0.0000 -0.0000 1.0000
vn 0.8660 0.5000 -0.0000
vn 0.5000 0.8660 -0.0000
vn -0.0000 1.0000 -0.0000
vn -0.5000 0.8660 -0.0000
vn -0.8660 0.5000 -0.0000
vn -1.0000 -0.0000 -0.0000
vn -0.8660 -0.5000 -0.0000
vn -0.5000 -0.8660 -0.0000
vn -0.0000 -1.0000 -0.0000
vn 0.5000 -0.8660 -0.0000
vn 0.8660 -0.5000 -0.0000
vn 0.0000 1.0000 0.0000
vn 1.0000 -0.0000 -0.0000
# 36 vertex normals

vt 0.1976 0.8612 0.0000
vt 0.1976 0.8475 0.0000
vt 0.3745 0.8475 0.0000
vt 0.3745 0.8612 0.0000
vt 0.1941 0.6485 0.0000
vt 0.3109 0.6537 0.0000
vt 0.3109 0.6622 0.0000
vt 0.1941 0.6622 0.0000
vt 0.2038 0.6941 0.0000
vt 0.2078 0.7038 0.0000
vt 0.2038 0.7078 0.0000
vt 0.1941 0.7038 0.0000
vt 0.3322 0.7038 0.0000
vt 0.3224 0.7078 0.0000
vt 0.3184 0.7038 0.0000
vt 0.3224 0.6941 0.0000
vt 0.3322 0.7733 0.0000
vt 0.3224 0.7693 0.0000
vt 0.0067 0.9860 0.0000
vt 0.0067 0.9165 0.0000
vt 0.0164 0.9205 0.0000
vt 0.0164 0.9820 0.0000
vt 0.1447 0.9860 0.0000
vt 0.1350 0.9957 0.0000
vt 0.1310 0.9860 0.0000
vt 0.1350 0.9820 0.0000
vt 0.0204 0.9860 0.0000
vt 0.0164 0.9957 0.0000
vt 0.3182 0.8120 0.0000
vt 0.3239 0.8120 0.0000
vt 0.3239 0.8171 0.0000
vt 0.3182 0.8171 0.0000
vt 0.2693 0.9954 0.0000
vt 0.1588 0.9954 0.0000
vt 0.1588 0.9903 0.0000
vt 0.2693 0.9903 0.0000
vt 0.3907 0.8718 0.0000
vt 0.3907 0.8769 0.0000
vt 0.3850 0.8769 0.0000
vt 0.3850 0.8718 0.0000
vt 0.0293 0.9723 0.0000
vt 0.0293 0.9672 0.0000
vt 0.0908 0.9672 0.0000
vt 0.0908 0.9723 0.0000
vt 0.3850 0.8526 0.0000
vt 0.3850 0.8475 0.0000
vt 0.3907 0.8475 0.0000
vt 0.3907 0.8526 0.0000
vt 0.2914 0.9954 0.0000
vt 0.2914 0.9903 0.0000
vt 0.4020 0.9903 0.0000
vt 0.4020 0.9954 0.0000
vt 0.2947 0.8173 0.0000
vt 0.2890 0.8173 0.0000
vt 0.2890 0.8122 0.0000
vt 0.2947 0.8122 0.0000
vt 0.4060 0.9763 0.0000
vt 0.4060 0.9068 0.0000
vt 0.4100 0.9108 0.0000
vt 0.4100 0.9723 0.0000
vt 0.0908 0.9500 0.0000
vt 0.0908 0.9551 0.0000
vt 0.0293 0.9551 0.0000
vt 0.0293 0.9500 0.0000
vt 0.1235 0.5650 0.0000
vt 0.1235 0.5743 0.0000
vt 0.0067 0.6836 0.0000
vt 0.0067 0.5650 0.0000
vt 0.1836 0.5650 0.0000
vt 0.1836 0.6836 0.0000
vt 0.1605 0.5743 0.0000
vt 0.1605 0.5650 0.0000
vt 0.3710 0.6485 0.0000
vt 0.3479 0.6537 0.0000
vt 0.2167 0.7560 0.0000
vt 0.2167 0.7473 0.0000
vt 0.2538 0.7473 0.0000
vt 0.2538 0.7560 0.0000
vt 0.3710 0.6622 0.0000
vt 0.3479 0.6622 0.0000
vt 0.2167 0.7360 0.0000
vt 0.2538 0.7360 0.0000
vt 0.2538 0.7438 0.0000
vt 0.2167 0.7438 0.0000
vt 0.2661 0.7438 0.0000
vt 0.2573 0.7407 0.0000
vt 0.2579 0.7391 0.0000
vt 0.2660 0.7421 0.0000
vt 0.2167 0.7308 0.0000
vt 0.2538 0.7308 0.0000
vt 0.2538 0.7325 0.0000
vt 0.2167 0.7325 0.0000
vt 0.1108 0.9688 0.0000
vt 0.1021 0.9723 0.0000
vt 0.1022 0.9706 0.0000
vt 0.1102 0.9672 0.0000
vt 0.0943 0.9690 0.0000
vt 0.0950 0.9674 0.0000
vt 0.0225 0.9411 0.0000
vt 0.0225 0.9781 0.0000
vt 0.0208 0.9781 0.0000
vt 0.0208 0.9411 0.0000
vt 0.2738 0.7402 0.0000
vt 0.2731 0.7387 0.0000
vt 0.1941 0.6345 0.0000
vt 0.1941 0.5650 0.0000
vt 0.3710 0.5650 0.0000
vt 0.3710 0.6345 0.0000
vt 0.2734 0.9068 0.0000
vt 0.2774 0.9108 0.0000
vt 0.2774 0.9723 0.0000
vt 0.2734 0.9763 0.0000
vt 0.3745 0.8855 0.0000
vt 0.1976 0.8855 0.0000
vt 0.1976 0.8718 0.0000
vt 0.3745 0.8718 0.0000
vt 0.3745 0.8232 0.0000
vt 0.3745 0.8370 0.0000
vt 0.2577 0.8370 0.0000
vt 0.2577 0.8285 0.0000
vt 0.2038 0.7830 0.0000
vt 0.1941 0.7733 0.0000
vt 0.2038 0.7693 0.0000
vt 0.2078 0.7733 0.0000
vt 0.3224 0.7830 0.0000
vt 0.3184 0.7733 0.0000
vt 0.1447 0.9165 0.0000
vt 0.1350 0.9205 0.0000
vt 0.1310 0.9165 0.0000
vt 0.1350 0.9068 0.0000
vt 0.0164 0.9068 0.0000
vt 0.0204 0.9165 0.0000
vt 0.2978 0.7626 0.0000
vt 0.3029 0.7626 0.0000
vt 0.3029 0.7683 0.0000
vt 0.2978 0.7683 0.0000
vt 0.3047 0.6728 0.0000
vt 0.3047 0.6779 0.0000
vt 0.1941 0.6779 0.0000
vt 0.1941 0.6728 0.0000
vt 0.3907 0.8283 0.0000
vt 0.3850 0.8283 0.0000
vt 0.3850 0.8232 0.0000
vt 0.3907 0.8232 0.0000
vt 0.0293 0.9637 0.0000
vt 0.0293 0.9586 0.0000
vt 0.0908 0.9586 0.0000
vt 0.0908 0.9637 0.0000
vt 0.3187 0.7971 0.0000
vt 0.3244 0.7971 0.0000
vt 0.3244 0.8022 0.0000
vt 0.3187 0.8022 0.0000
vt 0.1941 0.7971 0.0000
vt 0.3047 0.7971 0.0000
vt 0.3047 0.8022 0.0000
vt 0.1941 0.8022 0.0000
vt 0.3872 0.6485 0.0000
vt 0.3872 0.6536 0.0000
vt 0.3815 0.6536 0.0000
vt 0.3815 0.6485 0.0000
vt 0.0067 0.8232 0.0000
vt 0.1836 0.8232 0.0000
vt 0.1836 0.8927 0.0000
vt 0.0067 0.8927 0.0000
vt 0.0908 0.9809 0.0000
vt 0.0293 0.9809 0.0000
vt 0.0293 0.9758 0.0000
vt 0.0908 0.9758 0.0000
vt 0.0668 0.6941 0.0000
vt 0.1836 0.6941 0.0000
vt 0.1836 0.8127 0.0000
vt 0.0668 0.7035 0.0000
vt 0.0067 0.6941 0.0000
vt 0.0298 0.6941 0.0000
vt 0.0298 0.7035 0.0000
vt 0.0067 0.8127 0.0000
vt 0.1976 0.8232 0.0000
vt 0.2207 0.8285 0.0000
vt 0.2538 0.7683 0.0000
vt 0.2167 0.7683 0.0000
vt 0.2167 0.7595 0.0000
vt 0.2538 0.7595 0.0000
vt 0.1976 0.8370 0.0000
vt 0.2207 0.8370 0.0000
vt 0.2943 0.7604 0.0000
vt 0.2943 0.7683 0.0000
vt 0.2573 0.7683 0.0000
vt 0.2573 0.7604 0.0000
vt 0.1021 0.9809 0.0000
vt 0.1022 0.9792 0.0000
vt 0.1102 0.9758 0.0000
vt 0.1108 0.9774 0.0000
vt 0.2573 0.7560 0.0000
vt 0.2573 0.7543 0.0000
vt 0.2943 0.7543 0.0000
vt 0.2943 0.7560 0.0000
vt 0.4015 0.5681 0.0000
vt 0.4009 0.5697 0.0000
vt 0.3928 0.5667 0.0000
vt 0.3927 0.5650 0.0000
vt 0.3857 0.5701 0.0000
vt 0.3850 0.5686 0.0000
vt 0.2100 0.7655 0.0000
vt 0.2083 0.7655 0.0000
vt 0.2083 0.7284 0.0000
vt 0.2100 0.7284 0.0000
vt 0.0943 0.9776 0.0000
vt 0.0950 0.9760 0.0000
vt 0.1628 0.9763 0.0000
vt 0.1628 0.9068 0.0000
vt 0.1588 0.9723 0.0000
vt 0.1588 0.9108 0.0000
vt 0.2954 0.9763 0.0000
vt 0.2954 0.9068 0.0000
vt 0.2914 0.9723 0.0000
vt 0.2914 0.9108 0.0000
vt 0.8271 0.8322 0.0000
vt 0.8012 0.8322 0.0000
vt 0.8012 0.9124 0.0000
vt 0.8271 0.9124 0.0000
vt 0.8627 0.8322 0.0000
vt 0.8576 0.8322 0.0000
vt 0.8576 0.9005 0.0000
vt 0.8627 0.9005 0.0000
vt 0.8751 0.9124 0.0000
vt 0.8751 0.8322 0.0000
vt 0.8712 0.8322 0.0000
vt 0.8712 0.9124 0.0000
vt 0.8863 0.8870 0.0000
vt 0.8902 0.8870 0.0000
vt 0.8902 0.8612 0.0000
vt 0.8863 0.8612 0.0000
vt 0.8650 0.8322 0.0000
vt 0.8650 0.9124 0.0000
vt 0.8689 0.9124 0.0000
vt 0.8689 0.8322 0.0000
vt 0.8902 0.8322 0.0000
vt 0.8863 0.8322 0.0000
vt 0.8863 0.8581 0.0000
vt 0.8902 0.8581 0.0000
vt 0.8553 0.9124 0.0000
vt 0.8553 0.8322 0.0000
vt 0.8517 0.8382 0.0000
vt 0.8517 0.9065 0.0000
vt 0.8294 0.8322 0.0000
vt 0.8466 0.8382 0.0000
vt 0.8294 0.9124 0.0000
vt 0.8466 0.9065 0.0000
vt 0.8840 0.9005 0.0000
vt 0.8840 0.8322 0.0000
vt 0.8818 0.8322 0.0000
vt 0.8818 0.9005 0.0000
vt 0.8576 0.9028 0.0000
vt 0.8576 0.9079 0.0000
vt 0.8597 0.9079 0.0000
vt 0.8597 0.9028 0.0000
vt 0.8774 0.8322 0.0000
vt 0.8774 0.9005 0.0000
vt 0.8796 0.9005 0.0000
vt 0.8796 0.8322 0.0000
vt 0.8504 0.8686 0.0000
vt 0.8504 0.8635 0.0000
vt 0.8483 0.8635 0.0000
vt 0.8483 0.8686 0.0000
vt 0.8508 0.8807 0.0000
vt 0.8508 0.8783 0.0000
vt 0.8482 0.8783 0.0000
vt 0.8482 0.8807 0.0000
vt 0.8508 0.8767 0.0000
vt 0.8482 0.8767 0.0000
vt 0.8508 0.8743 0.0000
vt 0.8482 0.8743 0.0000
vt 0.8508 0.8720 0.0000
vt 0.8482 0.8720 0.0000
vt 0.8508 0.8703 0.0000
vt 0.8482 0.8703 0.0000
vt 0.8508 0.8956 0.0000
vt 0.8508 0.8933 0.0000
vt 0.8482 0.8933 0.0000
vt 0.8482 0.8956 0.0000
vt 0.8508 0.8910 0.0000
vt 0.8482 0.8910 0.0000
vt 0.8508 0.8893 0.0000
vt 0.8482 0.8893 0.0000
vt 0.8508 0.8870 0.0000
vt 0.8482 0.8870 0.0000
vt 0.8508 0.8847 0.0000
vt 0.8482 0.8847 0.0000
vt 0.8508 0.8830 0.0000
vt 0.8482 0.8830 0.0000
vt 0.8024 0.9159 0.0000
vt 0.8012 0.9180 0.0000
vt 0.8012 0.9204 0.0000
vt 0.8045 0.9147 0.0000
vt 0.8025 0.9225 0.0000
vt 0.8069 0.9147 0.0000
vt 0.8045 0.9237 0.0000
vt 0.8090 0.9159 0.0000
vt 0.8069 0.9237 0.0000
vt 0.8102 0.9180 0.0000
vt 0.8090 0.9224 0.0000
vt 0.8102 0.9204 0.0000
# 302 texture coords

g CoverInduA_002
usemtl Material__0
s 4
f 1/1/1 2/2/1 3/3/1 4/4/1 
f 5/5/2 6/6/2 7/7/2 8/8/2 
s off
f 3/9/3 9/10/3 10/11/3 4/12/3 
f 11/13/3 12/14/3 13/15/3 14/16/3 
f 15/17/3 16/18/3 12/14/3 11/13/3 
f 1/19/4 17/20/4 18/21/4 19/22/4 
f 5/23/4 8/24/4 20/25/4 21/26/4 
f 1/19/4 19/22/4 22/27/4 2/28/4 
f 10/29/5 9/30/5 23/31/5 24/32/5 
f 25/33/6 23/34/6 9/35/6 13/36/6 
f 12/37/7 26/38/7 25/39/7 13/40/7 
f 18/41/8 27/42/8 28/43/8 19/44/8 
f 20/45/7 29/46/7 30/47/7 21/48/7 
f 22/49/6 31/50/6 29/51/6 20/52/6 
f 22/53/5 19/54/5 28/55/5 31/56/5 
s 1
f 20/25/4 8/24/4 2/28/4 22/27/4 
s 2
f 29/57/4 32/58/4 33/59/4 30/60/4 
s off
f 21/61/9 30/62/9 33/63/9 34/64/9 
s 2
f 7/65/10 35/66/10 2/67/10 8/68/10 
s 1
f 13/15/3 9/10/3 3/9/3 14/16/3 
s 2
f 14/69/11 3/70/11 36/71/11 37/72/11 
s 4
f 11/73/12 38/74/12 6/6/2 5/5/2 
s 2
f 39/75/13 40/76/13 41/77/13 42/78/13 
s 4
f 14/79/12 37/80/12 38/74/12 11/73/12 
f 39/81/14 42/82/14 43/83/14 44/84/14 
s 2
f 3/70/11 2/67/10 35/66/10 36/71/11 
s off
f 37/85/4 36/86/4 40/87/4 39/88/4 
f 36/89/8 35/90/8 41/91/8 40/92/8 
f 35/93/3 7/94/3 42/95/3 41/96/3 
f 7/94/15 6/97/15 43/98/15 42/95/15 
f 6/99/1 38/100/1 44/101/1 43/102/1 
f 38/103/16 37/85/16 39/88/16 44/104/16 
s 1
f 15/105/8 11/106/8 5/107/8 45/108/8 
s 2
f 25/109/3 26/110/3 46/111/3 47/112/3 
s 4
f 17/113/7 48/114/7 49/115/7 50/116/7 
f 45/117/17 51/118/17 52/119/17 53/120/17 
s off
f 49/121/3 48/122/3 54/123/3 55/124/3 
f 15/17/3 56/125/3 57/126/3 16/18/3 
f 45/127/4 34/128/4 58/129/4 51/130/4 
f 17/20/4 50/131/4 59/132/4 18/21/4 
f 54/133/12 60/134/12 61/135/12 55/136/12 
f 47/137/11 57/138/11 55/139/11 61/140/11 
f 16/141/1 57/142/1 47/143/1 46/144/1 
f 16/145/9 46/146/9 26/147/9 12/148/9 
f 58/149/1 34/150/1 33/151/1 32/152/1 
f 59/153/11 58/154/11 32/155/11 62/156/11 
f 59/157/12 62/158/12 27/159/12 18/160/12 
s 1
f 58/129/4 59/132/4 50/131/4 51/130/4 
f 1/161/9 4/162/9 48/163/9 17/164/9 
s off
f 10/11/3 54/123/3 48/122/3 4/12/3 
f 5/23/4 21/26/4 34/128/4 45/127/4 
f 24/165/8 60/166/8 54/167/8 10/168/8 
s 2
f 52/169/18 51/170/18 50/171/18 63/172/18 
s 1
f 57/126/3 56/125/3 49/121/3 55/124/3 
s 2
f 56/173/6 64/174/6 65/175/6 49/176/6 
s 4
f 15/177/5 45/117/17 53/120/17 66/178/5 
s 2
f 67/179/19 68/180/19 69/181/19 70/182/19 
s 4
f 56/183/5 15/177/5 66/178/5 64/184/5 
f 67/185/20 71/186/20 72/187/20 68/188/20 
s 2
f 49/176/6 65/175/6 63/172/18 50/171/18 
s off
f 64/189/4 67/190/4 70/191/4 65/192/4 
f 65/193/8 70/194/8 69/195/8 63/196/8 
f 63/197/3 69/198/3 68/199/3 52/200/3 
f 52/200/3 68/199/3 72/201/3 53/202/3 
f 53/203/7 72/204/7 71/205/7 66/206/7 
f 66/207/21 71/208/21 67/190/21 64/189/21 
s 2
f 61/209/3 23/210/3 25/109/3 47/112/3 
f 61/209/3 60/211/3 24/212/3 23/210/3 
f 31/213/4 62/214/4 32/58/4 29/57/4 
f 31/213/4 28/215/4 27/216/4 62/214/4 
f 73/217/4 74/218/4 75/219/4 76/220/4 
s 4
f 77/221/3 78/222/3 79/223/3 80/224/3 
s 8
f 73/225/9 76/226/9 81/227/9 82/228/9 
s 16
f 75/229/11 83/230/11 81/231/11 76/232/11 
s 32
f 75/233/8 74/234/8 84/235/8 83/236/8 
s 64
f 73/237/6 82/238/6 84/239/6 74/240/6 
s off
f 82/241/3 81/242/3 85/243/3 86/244/3 
f 81/242/22 83/245/22 87/246/22 85/243/22 
f 83/245/23 84/247/23 88/248/23 87/246/23 
f 84/247/23 82/241/23 86/244/23 88/248/23 
f 86/249/8 85/250/8 77/251/8 80/252/8 
f 85/253/6 87/254/6 78/255/6 77/256/6 
f 87/257/9 88/258/9 79/259/9 78/260/9 
f 88/261/11 86/262/11 80/263/11 79/264/11 
s 8
f 89/265/11 90/266/24 91/267/24 92/268/11 
f 90/266/24 93/269/25 94/270/25 91/267/24 
f 93/269/25 95/271/8 96/272/26 94/270/25 
f 95/271/8 97/273/27 98/274/27 96/272/26 
f 97/273/27 99/275/28 100/276/28 98/274/27 
f 99/277/28 101/278/29 102/279/6 100/280/28 
f 101/278/29 103/281/30 104/282/30 102/279/6 
f 103/281/30 105/283/31 106/284/31 104/282/30 
f 105/283/31 107/285/32 108/286/9 106/284/31 
f 107/285/32 109/287/33 110/288/33 108/286/9 
f 109/287/33 111/289/34 112/290/34 110/288/33 
f 111/289/34 89/265/11 92/268/11 112/290/34 
s 1
f 110/291/3 112/292/3 92/293/3 108/294/3 
f 108/294/3 92/293/3 91/295/3 106/296/3 
f 106/296/3 91/295/3 94/297/3 104/298/3 
f 104/298/3 94/297/3 96/299/3 102/300/3 
f 102/300/3 96/299/3 98/301/3 100/302/3 
s 2
f 113/217/4 114/218/4 115/219/4 116/220/4 
s 4
f 117/221/3 118/222/3 119/223/3 120/224/3 
s 8
f 113/225/9 116/226/9 121/227/9 122/228/9 
s 16
f 115/229/11 123/230/11 121/231/11 116/232/11 
s 32
f 115/233/8 114/234/8 124/235/8 123/236/8 
s 64
f 113/237/6 122/238/6 124/239/6 114/240/6 
s off
f 122/241/3 121/242/3 125/243/3 126/244/3 
f 121/242/22 123/245/22 127/246/22 125/243/22 
f 123/245/23 124/247/23 128/248/23 127/246/23 
f 124/247/23 122/241/23 126/244/23 128/248/23 
f 126/249/8 125/250/8 117/251/8 120/252/8 
f 125/253/6 127/254/6 118/255/6 117/256/6 
f 127/257/9 128/258/9 119/259/9 118/260/9 
f 128/261/11 126/262/11 120/263/11 119/264/11 
s 8
f 129/265/11 130/266/24 131/267/24 132/268/11 
f 130/266/24 133/269/25 134/270/25 131/267/24 
f 133/269/25 135/271/8 136/272/26 134/270/25 
f 135/271/8 137/273/27 138/274/27 136/272/26 
f 137/273/27 139/275/28 140/276/28 138/274/27 
f 139/277/28 141/278/29 142/279/6 140/280/28 
f 141/278/29 143/281/30 144/282/30 142/279/6 
f 143/281/30 145/283/31 146/284/31 144/282/30 
f 145/283/31 147/285/32 148/286/9 146/284/31 
f 147/285/32 149/287/33 150/288/33 148/286/9 
f 149/287/33 151/289/34 152/290/34 150/288/33 
f 151/289/34 129/265/11 132/268/11 152/290/34 
s 1
f 150/291/3 152/292/3 132/293/3 148/294/3 
f 148/294/3 132/293/3 131/295/3 146/296/3 
f 146/296/3 131/295/3 134/297/3 144/298/3 
f 144/298/3 134/297/3 136/299/3 142/300/3 
f 142/300/3 136/299/3 138/301/3 140/302/3 
s 2
f 153/217/4 154/218/4 155/219/4 156/220/4 
s 4
f 157/221/3 158/222/3 159/223/3 160/224/3 
s 8
f 153/225/9 156/226/9 161/227/9 162/228/9 
s 16
f 155/229/11 163/230/11 161/231/11 156/232/11 
s 32
f 155/233/35 154/234/35 164/235/35 163/236/35 
s 64
f 153/237/6 162/238/6 164/239/6 154/240/6 
s off
f 162/241/3 161/242/3 165/243/3 166/244/3 
f 161/242/22 163/245/22 167/246/22 165/243/22 
f 163/245/23 164/247/23 168/248/23 167/246/23 
f 164/247/23 162/241/23 166/244/23 168/248/23 
f 166/249/8 165/250/8 157/251/8 160/252/8 
f 165/253/6 167/254/6 158/255/6 157/256/6 
f 167/257/9 168/258/9 159/259/9 158/260/9 
f 168/261/11 166/262/11 160/263/11 159/264/11 
s 8
f 169/265/36 170/266/24 171/267/24 172/268/36 
f 170/266/24 173/269/25 174/270/25 171/267/24 
f 173/269/25 175/271/8 176/272/8 174/270/25 
f 175/271/8 177/273/27 178/274/27 176/272/8 
f 177/273/27 179/275/28 180/276/28 178/274/27 
f 179/277/28 181/278/29 182/279/6 180/280/28 
f 181/278/29 183/281/30 184/282/30 182/279/6 
f 183/281/30 185/283/31 186/284/31 184/282/30 
f 185/283/31 187/285/9 188/286/9 186/284/31 
f 187/285/9 189/287/33 190/288/33 188/286/9 
f 189/287/33 191/289/34 192/290/34 190/288/33 
f 191/289/34 169/265/36 172/268/36 192/290/34 
s 1
f 190/291/3 192/292/3 172/293/3 188/294/3 
f 188/294/3 172/293/3 171/295/3 186/296/3 
f 186/296/3 171/295/3 174/297/3 184/298/3 
f 184/298/3 174/297/3 176/299/3 182/300/3 
f 182/300/3 176/299/3 178/301/3 180/302/3 
s 2
f 193/217/4 194/218/4 195/219/4 196/220/4 
s 4
f 197/221/3 198/222/3 199/223/3 200/224/3 
s 8
f 193/225/9 196/226/9 201/227/9 202/228/9 
s 16
f 195/229/11 203/230/11 201/231/11 196/232/11 
s 32
f 195/233/8 194/234/8 204/235/8 203/236/8 
s 64
f 193/237/6 202/238/6 204/239/6 194/240/6 
s off
f 202/241/3 201/242/3 205/243/3 206/244/3 
f 201/242/22 203/245/22 207/246/22 205/243/22 
f 203/245/23 204/247/23 208/248/23 207/246/23 
f 204/247/23 202/241/23 206/244/23 208/248/23 
f 206/249/8 205/250/8 197/251/8 200/252/8 
f 205/253/6 207/254/6 198/255/6 197/256/6 
f 207/257/9 208/258/9 199/259/9 198/260/9 
f 208/261/11 206/262/11 200/263/11 199/264/11 
s 8
f 209/265/36 210/266/24 211/267/24 212/268/36 
f 210/266/24 213/269/25 214/270/25 211/267/24 
f 213/269/25 215/271/8 216/272/8 214/270/25 
f 215/271/8 217/273/27 218/274/27 216/272/8 
f 217/273/27 219/275/28 220/276/28 218/274/27 
f 219/277/28 221/278/29 222/279/29 220/280/28 
f 221/278/29 223/281/30 224/282/30 222/279/29 
f 223/281/30 225/283/31 226/284/31 224/282/30 
f 225/283/31 227/285/32 228/286/9 226/284/31 
f 227/285/32 229/287/33 230/288/33 228/286/9 
f 229/287/33 231/289/34 232/290/34 230/288/33 
f 231/289/34 209/265/36 212/268/36 232/290/34 
s 1
f 230/291/3 232/292/3 212/293/3 228/294/3 
f 228/294/3 212/293/3 211/295/3 226/296/3 
f 226/296/3 211/295/3 214/297/3 224/298/3 
f 224/298/3 214/297/3 216/299/3 222/300/3 
f 222/300/3 216/299/3 218/301/3 220/302/3 
# 194 polygons

