# 3ds Max Wavefront OBJ Exporter v0.97b - (c)2007 guruware
# File Created: 11.03.2016 12:11:26

mtllib CoverInduA_004.mtl

#
# object CoverInduA_004
#

v  7.0304 0.0000 5.2066
v  7.0304 0.0000 -2.7381
v  7.6024 0.5720 -2.7381
v  7.6024 0.5720 5.2066
v  7.0304 0.8090 5.2066
v  6.7935 0.5720 5.2066
v  7.6024 7.5550 5.2066
v  7.0304 8.1270 5.2066
v  6.7935 7.5550 5.2066
v  7.0304 7.3181 5.2066
v  -7.0304 8.1270 5.2066
v  -6.7935 7.5550 5.2066
v  -7.0304 0.0000 -2.7381
v  -6.7935 0.5720 -2.7381
v  6.7935 0.5720 -2.7381
v  7.2478 7.9096 -2.7381
v  6.8835 7.4650 -2.7381
v  6.7935 7.5550 -2.7381
v  7.0304 8.1270 -2.7381
v  7.0304 0.8090 -2.7381
v  7.0304 0.8090 4.7462
v  6.7935 0.5720 4.7462
v  7.0304 7.3181 4.7462
v  6.7935 7.5550 4.7462
v  -6.7935 7.5550 4.7462
v  -6.7935 0.5720 -2.4381
v  6.7935 0.5720 -2.4381
v  6.8835 7.4650 -2.4381
v  6.7935 7.5550 -2.4381
v  7.0304 0.8090 -2.4381
v  7.0304 7.3181 -2.4381
v  7.0304 7.3181 -2.7381
v  7.6024 7.5550 -2.7381
v  -7.0304 0.8090 -2.4381
v  -6.7935 7.5550 -2.4381
v  -7.0304 7.3181 -2.4381
v  -6.8835 7.4650 -2.4381
v  -6.7935 7.5550 -2.7381
v  -7.0304 8.1270 -2.7381
v  -7.0304 0.0000 5.2066
v  -7.6024 0.5720 5.2066
v  -7.6024 0.5720 -2.7381
v  -6.7935 0.5720 5.2066
v  -7.0304 0.8090 5.2066
v  -7.6024 7.5550 5.2066
v  -7.0304 7.3181 5.2066
v  -7.2478 7.9096 -2.7381
v  -6.8835 7.4650 -2.7381
v  -7.0304 0.8090 -2.7381
v  -6.7935 0.5720 4.7462
v  -7.0304 0.8090 4.7462
v  -7.0304 7.3181 4.7462
v  -7.0304 7.3181 -2.7381
v  -7.6024 7.5550 -2.7381
v  -6.7752 0.8043 -0.8018
v  6.7752 0.8043 -0.8018
v  6.7752 7.2710 -0.8018
v  -6.7752 7.2710 -0.8018
v  -7.1611 0.4184 4.8709
v  7.1611 0.4184 4.8709
v  6.7752 0.8043 4.8709
v  -6.7752 0.8043 4.8709
v  7.1611 7.6570 4.8709
v  6.7752 7.2710 4.8709
v  -7.1611 7.6570 4.8709
v  -6.7752 7.2710 4.8709
# 66 vertices

vn 0.7071 -0.7071 -0.0000
vn 0.0000 0.0000 1.0000
vn 0.0000 0.0000 -1.0000
vn -0.7071 0.7071 -0.0000
vn -1.0000 0.0000 -0.0000
vn -0.7071 -0.7071 -0.0000
vn 0.0000 -1.0000 -0.0000
vn 0.0000 1.0000 -0.0000
vn 1.0000 0.0000 -0.0000
vn 0.7071 0.7071 -0.0000
# 10 vertex normals

vt 0.2178 0.3973 0.0000
vt 0.3094 0.3973 0.0000
vt 0.3094 0.4067 0.0000
vt 0.2178 0.4067 0.0000
vt 0.3717 0.3674 0.0000
vt 0.3651 0.3701 0.0000
vt 0.3624 0.3674 0.0000
vt 0.3651 0.3608 0.0000
vt 0.3717 0.4479 0.0000
vt 0.3651 0.4545 0.0000
vt 0.3624 0.4479 0.0000
vt 0.3651 0.4452 0.0000
vt 0.2030 0.4545 0.0000
vt 0.2058 0.4479 0.0000
vt 0.2030 0.4639 0.0000
vt 0.3651 0.4639 0.0000
vt 0.3624 0.4705 0.0000
vt 0.2058 0.4705 0.0000
vt 0.2005 0.5551 0.0000
vt 0.2047 0.5500 0.0000
vt 0.2058 0.5510 0.0000
vt 0.2030 0.5576 0.0000
vt 0.2030 0.4732 0.0000
vt 0.1964 0.4705 0.0000
vt 0.2128 0.3768 0.0000
vt 0.2089 0.3768 0.0000
vt 0.2089 0.3714 0.0000
vt 0.2128 0.3714 0.0000
vt 0.2178 0.4840 0.0000
vt 0.2929 0.4840 0.0000
vt 0.2929 0.4893 0.0000
vt 0.2178 0.4893 0.0000
vt 0.2089 0.3852 0.0000
vt 0.2089 0.3799 0.0000
vt 0.2128 0.3799 0.0000
vt 0.2128 0.3852 0.0000
vt 0.2151 0.2357 0.0000
vt 0.2151 0.2304 0.0000
vt 0.3717 0.2304 0.0000
vt 0.3717 0.2357 0.0000
vt 0.0304 0.3646 0.0000
vt 0.0304 0.3611 0.0000
vt 0.1870 0.3611 0.0000
vt 0.1870 0.3646 0.0000
vt 0.3140 0.3973 0.0000
vt 0.3140 0.4008 0.0000
vt 0.3126 0.4008 0.0000
vt 0.3126 0.3973 0.0000
vt 0.2929 0.4990 0.0000
vt 0.2929 0.5024 0.0000
vt 0.2178 0.5024 0.0000
vt 0.2178 0.4990 0.0000
vt 0.2089 0.3883 0.0000
vt 0.2128 0.3883 0.0000
vt 0.2128 0.3918 0.0000
vt 0.2089 0.3918 0.0000
vt 0.2030 0.5483 0.0000
vt 0.1964 0.5510 0.0000
vt 0.0276 0.3740 0.0000
vt 0.1843 0.3740 0.0000
vt 0.1870 0.3767 0.0000
vt 0.1843 0.4545 0.0000
vt 0.1870 0.4518 0.0000
vt 0.1853 0.4535 0.0000
vt 0.0249 0.3767 0.0000
vt 0.0249 0.4518 0.0000
vt 0.0266 0.4535 0.0000
vt 0.0276 0.4545 0.0000
vt 0.3717 0.2176 0.0000
vt 0.3717 0.2210 0.0000
vt 0.2151 0.2210 0.0000
vt 0.2151 0.2176 0.0000
vt 0.0076 0.2709 0.0000
vt 0.0992 0.2709 0.0000
vt 0.0992 0.3514 0.0000
vt 0.0076 0.3514 0.0000
vt 0.3164 0.3973 0.0000
vt 0.3164 0.4008 0.0000
vt 0.3094 0.4191 0.0000
vt 0.2178 0.4191 0.0000
vt 0.2178 0.4098 0.0000
vt 0.3094 0.4156 0.0000
vt 0.3094 0.4098 0.0000
vt 0.2096 0.2598 0.0000
vt 0.3717 0.2598 0.0000
vt 0.3717 0.3514 0.0000
vt 0.2096 0.3514 0.0000
vt 0.3094 0.3849 0.0000
vt 0.3094 0.3942 0.0000
vt 0.2178 0.3942 0.0000
vt 0.2178 0.3849 0.0000
vt 0.1964 0.3674 0.0000
vt 0.2030 0.3608 0.0000
vt 0.2058 0.3674 0.0000
vt 0.2030 0.3701 0.0000
vt 0.1964 0.4479 0.0000
vt 0.2030 0.4452 0.0000
vt 0.3677 0.5551 0.0000
vt 0.3651 0.5576 0.0000
vt 0.3624 0.5510 0.0000
vt 0.3635 0.5500 0.0000
vt 0.3717 0.4705 0.0000
vt 0.3651 0.4732 0.0000
vt 0.3164 0.3724 0.0000
vt 0.3164 0.3777 0.0000
vt 0.3126 0.3777 0.0000
vt 0.3126 0.3724 0.0000
vt 0.2178 0.4808 0.0000
vt 0.2178 0.4755 0.0000
vt 0.2929 0.4755 0.0000
vt 0.2929 0.4808 0.0000
vt 0.3126 0.3849 0.0000
vt 0.3164 0.3849 0.0000
vt 0.3164 0.3902 0.0000
vt 0.3126 0.3902 0.0000
vt 0.3210 0.3883 0.0000
vt 0.3196 0.3883 0.0000
vt 0.3196 0.3849 0.0000
vt 0.3210 0.3849 0.0000
vt 0.2929 0.4958 0.0000
vt 0.2178 0.4958 0.0000
vt 0.2178 0.4924 0.0000
vt 0.2929 0.4924 0.0000
vt 0.3196 0.3759 0.0000
vt 0.3196 0.3724 0.0000
vt 0.3234 0.3724 0.0000
vt 0.3234 0.3759 0.0000
vt 0.3651 0.5483 0.0000
vt 0.3717 0.5510 0.0000
vt 0.1870 0.4660 0.0000
vt 0.1870 0.5576 0.0000
vt 0.0249 0.5576 0.0000
vt 0.0249 0.4660 0.0000
vt 0.3717 0.2504 0.0000
vt 0.2151 0.2504 0.0000
vt 0.2151 0.2451 0.0000
vt 0.3717 0.2451 0.0000
vt 0.2002 0.2709 0.0000
vt 0.2002 0.3514 0.0000
vt 0.1086 0.3514 0.0000
vt 0.1086 0.2709 0.0000
vt 0.3234 0.3883 0.0000
vt 0.3234 0.3849 0.0000
vt 0.3094 0.3724 0.0000
vt 0.3094 0.3817 0.0000
vt 0.2178 0.3817 0.0000
vt 0.2178 0.3782 0.0000
vt 0.2178 0.3724 0.0000
vt 0.5641 0.3637 0.0000
vt 0.3807 0.3637 0.0000
vt 0.3807 0.4513 0.0000
vt 0.5641 0.4513 0.0000
vt 0.5746 0.4596 0.0000
vt 0.3807 0.4596 0.0000
vt 0.3859 0.4648 0.0000
vt 0.5694 0.4648 0.0000
vt 0.3807 0.5576 0.0000
vt 0.3859 0.5524 0.0000
vt 0.5746 0.5576 0.0000
vt 0.5694 0.5524 0.0000
vt 0.5641 0.2786 0.0000
vt 0.3807 0.2786 0.0000
vt 0.3807 0.3554 0.0000
vt 0.5641 0.3554 0.0000
vt 0.4693 0.5455 0.0000
vt 0.5569 0.5455 0.0000
vt 0.5569 0.4687 0.0000
vt 0.4693 0.4687 0.0000
vt 0.3807 0.2703 0.0000
vt 0.5641 0.2703 0.0000
vt 0.5641 0.1935 0.0000
vt 0.3807 0.1935 0.0000
vt 0.6704 0.4808 0.0000
vt 0.5829 0.4808 0.0000
vt 0.5829 0.5576 0.0000
vt 0.6704 0.5576 0.0000
# 176 texture coords

g CoverInduA_004
usemtl Material__0
s 4
f 1/1/1 2/2/1 3/3/1 4/4/1 
s off
f 4/5/2 5/6/2 6/7/2 1/8/2 
f 7/9/2 8/10/2 9/11/2 10/12/2 
f 11/13/2 12/14/2 9/11/2 8/10/2 
f 2/15/3 13/16/3 14/17/3 15/18/3 
f 16/19/3 17/20/3 18/21/3 19/22/3 
f 2/15/3 15/18/3 20/23/3 3/24/3 
f 6/25/4 5/26/4 21/27/4 22/28/4 
f 23/29/5 21/30/5 5/31/5 10/32/5 
f 9/33/6 24/34/6 23/35/6 10/36/6 
f 12/37/7 25/38/7 24/39/7 9/40/7 
f 14/41/8 26/42/8 27/43/8 15/44/8 
f 17/45/6 28/46/6 29/47/6 18/48/6 
f 20/49/5 30/50/5 31/51/5 32/52/5 
f 20/53/4 15/54/4 27/55/4 30/56/4 
s 1
f 32/57/3 33/58/3 3/24/3 20/23/3 
s 2
f 27/59/3 26/60/3 34/61/3 35/62/3 
f 36/63/3 37/64/2 35/62/3 34/61/3 
f 30/65/3 27/59/3 35/62/3 31/66/3 
f 28/67/3 31/66/3 35/62/3 29/68/3 
s off
f 18/69/7 29/70/7 35/71/7 38/72/7 
s 1
f 7/9/2 10/12/2 5/6/2 4/5/2 
s 2
f 4/73/9 3/74/9 33/75/9 7/76/9 
s off
f 16/19/3 33/58/3 32/57/3 17/20/3 
f 32/77/6 31/78/6 28/46/6 17/45/6 
s 4
f 19/79/10 8/80/10 7/81/10 16/82/10 
f 33/83/10 16/82/10 7/81/10 
s 1
f 11/84/8 8/85/8 19/86/8 39/87/8 
s 4
f 40/88/6 41/89/6 42/90/6 13/91/6 
s off
f 41/92/2 40/93/2 43/94/2 44/95/2 
f 45/96/2 46/97/2 12/14/2 11/13/2 
f 47/98/3 39/99/3 38/100/3 48/101/3 
f 13/16/3 42/102/3 49/103/3 14/17/3 
f 43/104/10 50/105/10 51/106/10 44/107/10 
f 52/108/9 46/109/9 44/110/9 51/111/9 
f 12/112/1 46/113/1 52/114/1 25/115/1 
f 48/116/1 38/117/1 35/118/1 37/119/1 
f 49/120/9 53/121/9 36/122/9 34/123/9 
f 49/124/10 34/125/10 26/126/10 14/127/10 
s 1
f 53/128/3 49/103/3 42/102/3 54/129/3 
f 2/130/7 1/131/7 40/132/7 13/133/7 
s off
f 6/7/2 43/94/2 40/93/2 1/8/2 
f 19/22/3 18/21/3 38/100/3 39/99/3 
f 22/134/8 50/135/8 43/136/8 6/137/8 
s 1
f 45/96/2 41/92/2 44/95/2 46/97/2 
s 2
f 41/138/5 45/139/5 54/140/5 42/141/5 
s off
f 47/98/3 48/101/3 53/128/3 54/129/3 
f 53/142/1 48/116/1 37/119/1 36/143/1 
s 4
f 45/144/4 11/145/4 39/146/4 47/147/4 
f 54/148/4 45/144/4 47/147/4 
s 8
f 55/149/2 56/150/2 57/151/2 58/152/2 
s off
f 59/153/2 60/154/2 61/155/2 62/156/2 
f 60/154/2 63/157/2 64/158/2 61/155/2 
f 63/157/2 65/159/2 66/160/2 64/158/2 
f 65/159/2 59/153/2 62/156/2 66/160/2 
f 62/161/8 61/162/8 56/163/8 55/164/8 
f 61/165/5 64/166/5 57/167/5 56/168/5 
f 64/169/7 66/170/7 58/171/7 57/172/7 
f 66/173/9 62/174/9 55/175/9 58/176/9 
# 57 polygons - 2 triangles

