# 3ds Max Wavefront OBJ Exporter v0.97b - (c)2007 guruware
# File Created: 11.03.2016 12:10:53

mtllib CoverInduA_003.mtl

#
# object CoverInduA_003
#

v  -2.0674 16.1908 3.0395
v  2.0674 16.1908 3.0395
v  2.0674 16.1908 2.8274
v  -2.0674 16.1908 2.8274
v  2.0674 0.0924 -1.7928
v  2.5853 0.6103 -1.7928
v  2.5853 0.6103 -1.5807
v  2.0674 0.0924 -1.5807
v  2.6777 0.5720 3.9586
v  2.1057 0.8090 3.9586
v  1.8687 0.5720 3.9586
v  2.1056 -0.0000 3.9586
v  2.6777 15.7112 3.9586
v  2.1056 16.2832 3.9586
v  1.8687 15.7112 3.9586
v  2.1057 15.4742 3.9586
v  -2.1056 16.2832 3.9586
v  -1.8687 15.7112 3.9586
v  2.1056 16.2832 -4.0141
v  2.6777 15.7112 -4.0141
v  2.1057 15.4742 -4.0141
v  1.8687 15.7112 -4.0141
v  2.1056 -0.0000 -4.0141
v  1.8687 0.5720 -4.0141
v  2.1057 0.8090 -4.0141
v  2.6777 0.5720 -4.0141
v  2.1057 0.8090 3.6836
v  1.8687 0.5720 3.6836
v  2.1057 13.1193 3.0578
v  2.1057 7.8811 3.6836
v  1.8687 15.7112 3.0578
v  2.1057 15.4742 3.0578
v  2.1057 15.4742 -3.7141
v  1.8687 15.7112 -3.7141
v  2.1057 0.8090 -3.7141
v  1.8687 0.5720 -3.7141
v  -2.1057 15.4742 -3.7141
v  -1.8687 15.7112 -3.7141
v  -1.8687 0.5720 3.9586
v  -2.1056 -0.0000 3.9586
v  -1.8687 15.7112 -4.0141
v  -2.1056 16.2832 -4.0141
v  2.5777 13.3686 2.8274
v  2.5777 13.2242 3.0395
v  2.5777 8.2175 -1.5807
v  2.5777 8.3619 -1.7928
v  2.5853 15.6729 3.0395
v  2.5853 15.6729 2.8274
v  -2.1057 0.8090 3.6836
v  -2.1057 7.8811 3.6836
v  -2.1056 16.2832 2.8274
v  2.1056 16.2832 2.8274
v  2.6777 0.5720 -1.7928
v  2.1056 -0.0000 -1.7928
v  2.1056 -0.0000 -1.5807
v  2.6777 0.5720 -1.5807
v  -2.1056 -0.0000 -1.5807
v  2.6777 13.3686 2.8274
v  2.6777 8.3619 -1.7928
v  2.6777 8.2175 -1.5807
v  2.6777 13.2242 3.0395
v  2.6777 15.7112 3.0395
v  2.1056 16.2832 3.0395
v  2.6777 15.7112 2.8274
v  -2.1057 13.1193 3.0578
v  -2.0674 0.0924 -1.7928
v  -2.0674 0.0924 -1.5807
v  -2.5853 0.6103 -1.5807
v  -2.5853 0.6103 -1.7928
v  -2.6777 0.5720 3.9586
v  -2.1057 0.8090 3.9586
v  -2.6777 15.7112 3.9586
v  -2.1057 15.4742 3.9586
v  -1.8687 0.5720 -4.0141
v  -2.1056 -0.0000 -4.0141
v  -2.1057 15.4742 -4.0141
v  -2.6777 15.7112 -4.0141
v  -2.6777 0.5720 -4.0141
v  -2.1057 0.8090 -4.0141
v  -1.8687 0.5720 3.6836
v  -2.1057 15.4742 3.0578
v  -1.8687 15.7112 3.0578
v  -1.8687 0.5720 -3.7141
v  -2.1057 0.8090 -3.7141
v  -2.5777 13.3686 2.8274
v  -2.5777 8.3619 -1.7928
v  -2.5777 8.2175 -1.5807
v  -2.5777 13.2242 3.0395
v  -2.5853 15.6729 2.8274
v  -2.5853 15.6729 3.0395
v  -2.1056 16.2832 3.0395
v  -2.1056 -0.0000 -1.7928
v  -2.6777 0.5720 -1.7928
v  -2.6777 0.5720 -1.5807
v  -2.6777 8.3619 -1.7928
v  -2.6777 13.3686 2.8274
v  -2.6777 13.2242 3.0395
v  -2.6777 8.2175 -1.5807
v  -2.6777 15.7112 3.0395
v  -2.6777 15.7112 2.8274
v  0.9330 11.7665 3.7131
v  -0.9330 11.7665 3.7131
v  -0.9330 9.4001 3.9707
v  0.9330 9.4001 3.9707
v  1.8660 8.1617 3.5925
v  1.8660 12.8945 3.0773
v  -1.8660 12.8945 3.0773
v  -1.8660 8.1617 3.5925
v  2.2300 4.9886 3.9336
v  -2.2300 4.9886 3.9336
v  -2.2300 4.6448 3.9336
v  2.2300 4.6448 3.9336
v  -2.2300 1.8945 3.6007
v  2.2300 1.8945 3.6007
v  2.2300 1.8945 3.9336
v  -2.2300 1.8945 3.9336
v  2.2300 7.7389 3.6007
v  -2.2300 7.7389 3.6007
v  -2.2300 7.7389 3.9336
v  2.2300 7.7389 3.9336
v  -2.2300 7.3951 3.9336
v  2.2300 7.3951 3.9336
v  2.2300 7.3951 3.7559
v  -2.2300 7.3951 3.7559
v  -2.2300 7.0513 3.7559
v  2.2300 7.0513 3.7559
v  2.2300 7.0513 3.9336
v  -2.2300 7.0513 3.9336
v  -2.2300 6.7075 3.9336
v  2.2300 6.7075 3.9336
v  2.2300 6.7075 3.7559
v  -2.2300 6.7075 3.7559
v  -2.2300 6.3637 3.7559
v  2.2300 6.3637 3.7559
v  2.2300 6.3637 3.9336
v  -2.2300 6.3637 3.9336
v  -2.2300 6.0199 3.9336
v  2.2300 6.0199 3.9336
v  2.2300 6.0199 3.7559
v  -2.2300 6.0199 3.7559
v  -2.2300 5.6762 3.7559
v  2.2300 5.6762 3.7559
v  2.2300 5.6762 3.9336
v  -2.2300 5.6762 3.9336
v  -2.2300 5.3324 3.9336
v  2.2300 5.3324 3.9336
v  2.2300 5.3324 3.7559
v  -2.2300 5.3324 3.7559
v  -2.2300 4.9886 3.7559
v  2.2300 4.9886 3.7559
v  2.2300 2.2383 3.9336
v  -2.2300 2.2383 3.9336
v  -2.2300 2.2383 3.7559
v  2.2300 2.2383 3.7559
v  2.2300 2.5821 3.7559
v  -2.2300 2.5821 3.7559
v  -2.2300 2.5821 3.9336
v  2.2300 2.5821 3.9336
v  2.2300 2.9259 3.9336
v  -2.2300 2.9259 3.9336
v  -2.2300 2.9259 3.7559
v  2.2300 2.9259 3.7559
v  2.2300 3.2697 3.7559
v  -2.2300 3.2697 3.7559
v  -2.2300 3.2697 3.9336
v  2.2300 3.2697 3.9336
v  2.2300 3.6135 3.9336
v  -2.2300 3.6135 3.9336
v  -2.2300 3.6135 3.7559
v  2.2300 3.6135 3.7559
v  2.2300 3.9572 3.7559
v  -2.2300 3.9572 3.7559
v  -2.2300 3.9572 3.9336
v  2.2300 3.9572 3.9336
v  2.2300 4.3010 3.9336
v  -2.2300 4.3010 3.9336
v  -2.2300 4.3010 3.7559
v  2.2300 4.3010 3.7559
v  2.2300 4.6448 3.7559
v  -2.2300 4.6448 3.7559
# 180 vertices

vn 0.0000 1.0000 -0.0000
vn 0.7071 -0.7071 -0.0000
vn 0.0000 0.0000 1.0000
vn 0.0000 0.0000 -1.0000
vn -0.7071 0.7071 -0.0000
vn -1.0000 0.0000 -0.0000
vn -0.7071 -0.7071 -0.0000
vn -0.0000 0.0000 -1.0000
vn 0.0000 -1.0000 -0.0000
vn 0.0000 -0.0000 1.0000
vn -0.0000 -0.0000 1.0000
vn 1.0000 -0.0018 -0.0013
vn 1.0000 -0.0013 -0.0008
vn 1.0000 0.0006 0.0004
vn 1.0000 0.0004 0.0003
vn 0.7071 0.7071 -0.0000
vn 1.0000 0.0000 -0.0000
vn 1.0000 -0.0031 -0.0001
vn 1.0000 -0.0031 -0.0000
vn 1.0000 0.0010 0.0000
vn 1.0000 0.0010 -0.0000
vn 0.0000 -0.6782 0.7349
vn 0.0000 0.6782 -0.7349
vn 0.0000 0.1186 0.9929
vn -1.0000 -0.0018 -0.0013
vn -1.0000 0.0004 0.0003
vn -1.0000 0.0006 0.0004
vn -1.0000 -0.0013 -0.0008
vn -1.0000 -0.0031 -0.0001
vn -1.0000 -0.0031 -0.0000
vn -1.0000 0.0010 0.0000
vn -1.0000 0.0010 -0.0000
vn 0.0000 0.1082 0.9941
vn 0.4796 0.0949 0.8723
vn -0.4796 0.0949 0.8723
vn 0.0000 -0.2921 0.9564
vn 0.0000 0.4910 0.8712
vn -0.0000 1.0000 -0.0000
# 38 vertex normals

vt 0.3660 0.7959 0.0000
vt 0.3660 0.7403 0.0000
vt 0.3688 0.7403 0.0000
vt 0.3688 0.7959 0.0000
vt 0.2589 0.1607 0.0000
vt 0.2688 0.1607 0.0000
vt 0.2688 0.1636 0.0000
vt 0.2589 0.1636 0.0000
vt 0.5397 0.0395 0.0000
vt 0.5429 0.0472 0.0000
vt 0.5397 0.0503 0.0000
vt 0.5320 0.0472 0.0000
vt 0.7433 0.0395 0.0000
vt 0.7510 0.0472 0.0000
vt 0.7433 0.0503 0.0000
vt 0.7401 0.0472 0.0000
vt 0.7510 0.1038 0.0000
vt 0.7433 0.1006 0.0000
vt 0.9687 0.1010 0.0000
vt 0.9613 0.1084 0.0000
vt 0.9583 0.1010 0.0000
vt 0.9613 0.0980 0.0000
vt 0.7583 0.1010 0.0000
vt 0.7657 0.0980 0.0000
vt 0.7688 0.1010 0.0000
vt 0.7657 0.1084 0.0000
vt 0.2731 0.1599 0.0000
vt 0.2776 0.1599 0.0000
vt 0.2776 0.1636 0.0000
vt 0.2731 0.1636 0.0000
vt 0.2119 0.1869 0.0000
vt 0.2823 0.1785 0.0000
vt 0.1802 0.1748 0.0000
vt 0.3935 0.7761 0.0000
vt 0.3935 0.7883 0.0000
vt 0.3890 0.7883 0.0000
vt 0.3890 0.7761 0.0000
vt 0.9704 0.6756 0.0000
vt 0.9743 0.6756 0.0000
vt 0.9743 0.6799 0.0000
vt 0.9704 0.6799 0.0000
vt 0.0089 0.2619 0.0000
vt 0.0049 0.2619 0.0000
vt 0.0049 0.0646 0.0000
vt 0.0089 0.0646 0.0000
vt 0.3890 0.7554 0.0000
vt 0.3890 0.7509 0.0000
vt 0.3930 0.7509 0.0000
vt 0.3930 0.7554 0.0000
vt 0.3947 0.1469 0.0000
vt 0.3915 0.1501 0.0000
vt 0.3915 0.0935 0.0000
vt 0.3947 0.0966 0.0000
vt 0.5397 0.1006 0.0000
vt 0.5320 0.1038 0.0000
vt 0.9613 0.0497 0.0000
vt 0.9687 0.0466 0.0000
vt 0.9399 0.6448 0.0000
vt 0.9438 0.6448 0.0000
vt 0.9438 0.6931 0.0000
vt 0.9399 0.6931 0.0000
vt 0.9823 0.3912 0.0000
vt 0.9856 0.3919 0.0000
vt 0.9544 0.4743 0.0000
vt 0.9511 0.4736 0.0000
vt 0.2935 0.1869 0.0000
vt 0.3033 0.1869 0.0000
vt 0.3033 0.1841 0.0000
vt 0.2935 0.1841 0.0000
vt 0.0072 0.0579 0.0000
vt 0.0072 0.0034 0.0000
vt 0.0986 0.0034 0.0000
vt 0.0986 0.0579 0.0000
vt 0.3774 0.1785 0.0000
vt 0.3774 0.1748 0.0000
vt 0.1802 0.1869 0.0000
vt 0.2055 0.0893 0.0000
vt 0.2055 0.0349 0.0000
vt 0.2939 0.0349 0.0000
vt 0.2939 0.0893 0.0000
vt 0.3738 0.7584 0.0000
vt 0.3847 0.7584 0.0000
vt 0.3847 0.7883 0.0000
vt 0.3738 0.7883 0.0000
vt 0.8534 0.0960 0.0000
vt 0.8534 0.0855 0.0000
vt 0.9250 0.0855 0.0000
vt 0.9250 0.0960 0.0000
vt 0.3842 0.0067 0.0000
vt 0.3842 0.0611 0.0000
vt 0.3126 0.0611 0.0000
vt 0.3126 0.0067 0.0000
vt 0.1766 0.0620 0.0000
vt 0.0846 0.0935 0.0000
vt 0.1467 0.1609 0.0000
vt 0.9487 0.5824 0.0000
vt 0.8499 0.5109 0.0000
vt 0.7852 0.5706 0.0000
vt 0.3885 0.7148 0.0000
vt 0.3885 0.7257 0.0000
vt 0.3761 0.7257 0.0000
vt 0.3761 0.7148 0.0000
vt 0.5700 0.0876 0.0000
vt 0.6620 0.0876 0.0000
vt 0.6620 0.0985 0.0000
vt 0.5700 0.0985 0.0000
vt 0.9712 0.3636 0.0000
vt 0.9738 0.3626 0.0000
vt 0.9911 0.5654 0.0000
vt 0.9886 0.5665 0.0000
vt 0.0846 0.0620 0.0000
vt 0.1467 0.2656 0.0000
vt 0.1766 0.2656 0.0000
vt 0.9487 0.5109 0.0000
vt 0.7531 0.5706 0.0000
vt 0.7531 0.5824 0.0000
vt 0.3492 0.8149 0.0000
vt 0.3415 0.8072 0.0000
vt 0.3428 0.8066 0.0000
vt 0.3497 0.8136 0.0000
vt 0.3415 0.7024 0.0000
vt 0.3429 0.7024 0.0000
vt 0.8032 0.0536 0.0000
vt 0.8912 0.0536 0.0000
vt 0.8912 0.0549 0.0000
vt 0.8032 0.0549 0.0000
vt 0.3660 0.7300 0.0000
vt 0.3975 0.7300 0.0000
vt 0.3970 0.7312 0.0000
vt 0.3660 0.7313 0.0000
vt 0.4052 0.7377 0.0000
vt 0.4039 0.7382 0.0000
vt 0.4052 0.7943 0.0000
vt 0.4039 0.7938 0.0000
vt 0.9875 0.6857 0.0000
vt 0.9801 0.6931 0.0000
vt 0.9796 0.6919 0.0000
vt 0.9863 0.6852 0.0000
vt 0.9480 0.6931 0.0000
vt 0.9480 0.6918 0.0000
vt 0.6616 0.0681 0.0000
vt 0.5700 0.0681 0.0000
vt 0.5700 0.0668 0.0000
vt 0.6616 0.0668 0.0000
vt 0.9956 0.5991 0.0000
vt 0.9956 0.6979 0.0000
vt 0.9944 0.6974 0.0000
vt 0.9943 0.5991 0.0000
vt 0.9882 0.7052 0.0000
vt 0.9877 0.7041 0.0000
vt 0.1663 0.0034 0.0000
vt 0.1663 0.0579 0.0000
vt 0.2447 0.1636 0.0000
vt 0.2447 0.1607 0.0000
vt 0.2546 0.1607 0.0000
vt 0.2546 0.1636 0.0000
vt 0.5397 0.1115 0.0000
vt 0.5429 0.1038 0.0000
vt 0.7433 0.1115 0.0000
vt 0.7401 0.1038 0.0000
vt 0.7657 0.0497 0.0000
vt 0.7583 0.0466 0.0000
vt 0.9583 0.0466 0.0000
vt 0.9613 0.0392 0.0000
vt 0.7657 0.0392 0.0000
vt 0.7688 0.0466 0.0000
vt 0.9704 0.6671 0.0000
vt 0.9740 0.6671 0.0000
vt 0.9740 0.6714 0.0000
vt 0.9704 0.6714 0.0000
vt 0.3557 0.1595 0.0000
vt 0.3874 0.1716 0.0000
vt 0.2853 0.1679 0.0000
vt 0.3935 0.7718 0.0000
vt 0.3890 0.7718 0.0000
vt 0.3890 0.7597 0.0000
vt 0.3935 0.7597 0.0000
vt 0.9926 0.5080 0.0000
vt 0.9809 0.5080 0.0000
vt 0.9809 0.4597 0.0000
vt 0.9926 0.4597 0.0000
vt 0.9875 0.6060 0.0000
vt 0.9392 0.6060 0.0000
vt 0.9392 0.6021 0.0000
vt 0.9875 0.6021 0.0000
vt 0.9558 0.6471 0.0000
vt 0.9558 0.6427 0.0000
vt 0.9597 0.6427 0.0000
vt 0.9597 0.6471 0.0000
vt 0.0262 0.2619 0.0000
vt 0.0262 0.0646 0.0000
vt 0.0302 0.0646 0.0000
vt 0.0302 0.2619 0.0000
vt 0.3778 0.7541 0.0000
vt 0.3738 0.7541 0.0000
vt 0.3738 0.7496 0.0000
vt 0.3778 0.7496 0.0000
vt 0.3218 0.1841 0.0000
vt 0.3218 0.1869 0.0000
vt 0.3774 0.1869 0.0000
vt 0.3774 0.1841 0.0000
vt 0.2404 0.1636 0.0000
vt 0.1902 0.1636 0.0000
vt 0.1902 0.1599 0.0000
vt 0.2404 0.1599 0.0000
vt 0.9607 0.3673 0.0000
vt 0.9950 0.2862 0.0000
vt 0.9918 0.2854 0.0000
vt 0.9575 0.3664 0.0000
vt 0.3076 0.1841 0.0000
vt 0.3076 0.1869 0.0000
vt 0.3175 0.1869 0.0000
vt 0.3175 0.1841 0.0000
vt 0.1967 0.0034 0.0000
vt 0.1967 0.0579 0.0000
vt 0.1902 0.1679 0.0000
vt 0.1902 0.1716 0.0000
vt 0.3874 0.1595 0.0000
vt 0.8534 0.0695 0.0000
vt 0.9078 0.0695 0.0000
vt 0.9078 0.0814 0.0000
vt 0.8534 0.0814 0.0000
vt 0.9558 0.6799 0.0000
vt 0.9558 0.6512 0.0000
vt 0.9663 0.6512 0.0000
vt 0.9663 0.6799 0.0000
vt 0.3616 0.7275 0.0000
vt 0.3616 0.8020 0.0000
vt 0.3508 0.8020 0.0000
vt 0.3508 0.7275 0.0000
vt 0.7948 0.0960 0.0000
vt 0.7948 0.0673 0.0000
vt 0.8492 0.0673 0.0000
vt 0.8492 0.0960 0.0000
vt 0.0405 0.2656 0.0000
vt 0.0704 0.1668 0.0000
vt 0.1325 0.2341 0.0000
vt 0.6808 0.4842 0.0000
vt 0.8509 0.4966 0.0000
vt 0.7836 0.5587 0.0000
vt 0.3928 0.7148 0.0000
vt 0.4052 0.7148 0.0000
vt 0.4052 0.7257 0.0000
vt 0.3928 0.7257 0.0000
vt 0.6620 0.0724 0.0000
vt 0.6620 0.0833 0.0000
vt 0.5700 0.0833 0.0000
vt 0.5700 0.0724 0.0000
vt 0.9708 0.3953 0.0000
vt 0.9682 0.3962 0.0000
vt 0.9585 0.1929 0.0000
vt 0.9611 0.1919 0.0000
vt 0.1325 0.2656 0.0000
vt 0.0704 0.0620 0.0000
vt 0.0405 0.0620 0.0000
vt 0.6808 0.5587 0.0000
vt 0.8844 0.4966 0.0000
vt 0.8844 0.4842 0.0000
vt 0.4054 0.8136 0.0000
vt 0.4059 0.8149 0.0000
vt 0.4123 0.8066 0.0000
vt 0.4136 0.8072 0.0000
vt 0.4122 0.7024 0.0000
vt 0.4136 0.7024 0.0000
vt 0.8032 0.0604 0.0000
vt 0.8032 0.0591 0.0000
vt 0.8912 0.0591 0.0000
vt 0.8912 0.0604 0.0000
vt 0.3660 0.8020 0.0000
vt 0.3660 0.8007 0.0000
vt 0.3970 0.8008 0.0000
vt 0.3975 0.8020 0.0000
vt 0.9863 0.6318 0.0000
vt 0.9875 0.6313 0.0000
vt 0.9796 0.6251 0.0000
vt 0.9801 0.6239 0.0000
vt 0.9480 0.6252 0.0000
vt 0.9480 0.6239 0.0000
vt 0.6616 0.0611 0.0000
vt 0.6616 0.0625 0.0000
vt 0.5700 0.0625 0.0000
vt 0.5700 0.0611 0.0000
vt 0.9264 0.5991 0.0000
vt 0.9276 0.5991 0.0000
vt 0.9275 0.6974 0.0000
vt 0.9264 0.6979 0.0000
vt 0.9342 0.7041 0.0000
vt 0.9337 0.7052 0.0000
vt 0.1998 0.0065 0.0000
vt 0.1998 0.0548 0.0000
vt 0.0042 0.0548 0.0000
vt 0.0042 0.0065 0.0000
vt 0.1911 0.1469 0.0000
vt 0.1911 0.0966 0.0000
vt 0.1943 0.0935 0.0000
vt 0.1943 0.1501 0.0000
vt 0.5034 0.0210 0.0000
vt 0.5034 0.0493 0.0000
vt 0.4675 0.0493 0.0000
vt 0.4675 0.0210 0.0000
vt 0.4675 0.0197 0.0000
vt 0.4487 0.0056 0.0000
vt 0.5206 0.0056 0.0000
vt 0.5034 0.0197 0.0000
vt 0.4675 0.0503 0.0000
vt 0.5034 0.0503 0.0000
vt 0.5206 0.0645 0.0000
vt 0.4487 0.0645 0.0000
vt 0.4475 0.0634 0.0000
vt 0.4475 0.0068 0.0000
vt 0.4663 0.0210 0.0000
vt 0.4663 0.0493 0.0000
vt 0.5050 0.0493 0.0000
vt 0.5050 0.0210 0.0000
vt 0.5221 0.0068 0.0000
vt 0.5221 0.0634 0.0000
vt 0.4616 0.0737 0.0000
vt 0.5168 0.0737 0.0000
vt 0.5168 0.0786 0.0000
vt 0.4616 0.0786 0.0000
vt 0.5168 0.1382 0.0000
vt 0.4616 0.1382 0.0000
vt 0.4616 0.1335 0.0000
vt 0.5168 0.1335 0.0000
vt 0.4590 0.1457 0.0000
vt 0.4038 0.1457 0.0000
vt 0.4038 0.1409 0.0000
vt 0.4590 0.1409 0.0000
vt 0.4038 0.0887 0.0000
vt 0.4590 0.0887 0.0000
vt 0.4590 0.0936 0.0000
vt 0.4038 0.0936 0.0000
vt 0.4616 0.0812 0.0000
vt 0.5168 0.0812 0.0000
vt 0.5168 0.0861 0.0000
vt 0.4616 0.0861 0.0000
vt 0.4038 0.1335 0.0000
vt 0.4590 0.1335 0.0000
vt 0.4590 0.1384 0.0000
vt 0.4038 0.1384 0.0000
vt 0.4038 0.0737 0.0000
vt 0.4590 0.0737 0.0000
vt 0.4590 0.0786 0.0000
vt 0.4038 0.0786 0.0000
vt 0.4038 0.1036 0.0000
vt 0.4590 0.1036 0.0000
vt 0.4590 0.1085 0.0000
vt 0.4038 0.1085 0.0000
vt 0.4616 0.0961 0.0000
vt 0.5168 0.0961 0.0000
vt 0.5168 0.1010 0.0000
vt 0.4616 0.1010 0.0000
vt 0.4038 0.1111 0.0000
vt 0.4590 0.1111 0.0000
vt 0.4590 0.1160 0.0000
vt 0.4038 0.1160 0.0000
vt 0.4616 0.1036 0.0000
vt 0.5168 0.1036 0.0000
vt 0.5168 0.1085 0.0000
vt 0.4616 0.1085 0.0000
vt 0.4590 0.1234 0.0000
vt 0.4038 0.1234 0.0000
vt 0.4038 0.1185 0.0000
vt 0.4590 0.1185 0.0000
vt 0.5168 0.1160 0.0000
vt 0.4616 0.1160 0.0000
vt 0.4616 0.1111 0.0000
vt 0.5168 0.1111 0.0000
vt 0.5168 0.1309 0.0000
vt 0.4616 0.1309 0.0000
vt 0.4616 0.1260 0.0000
vt 0.5168 0.1260 0.0000
vt 0.4590 0.0861 0.0000
vt 0.4038 0.0861 0.0000
vt 0.4038 0.0812 0.0000
vt 0.4590 0.0812 0.0000
vt 0.4590 0.1010 0.0000
vt 0.4038 0.1010 0.0000
vt 0.4038 0.0961 0.0000
vt 0.4590 0.0961 0.0000
vt 0.5168 0.0936 0.0000
vt 0.4616 0.0936 0.0000
vt 0.4616 0.0887 0.0000
vt 0.5168 0.0887 0.0000
vt 0.4590 0.1309 0.0000
vt 0.4038 0.1309 0.0000
vt 0.4038 0.1260 0.0000
vt 0.4590 0.1260 0.0000
vt 0.5168 0.1234 0.0000
vt 0.4616 0.1234 0.0000
vt 0.4616 0.1185 0.0000
vt 0.5168 0.1185 0.0000
vt 0.4038 0.1483 0.0000
vt 0.4590 0.1483 0.0000
vt 0.4590 0.1508 0.0000
vt 0.4038 0.1508 0.0000
vt 0.4616 0.1409 0.0000
vt 0.5168 0.1409 0.0000
vt 0.5168 0.1435 0.0000
vt 0.4616 0.1435 0.0000
vt 0.4038 0.1534 0.0000
vt 0.4590 0.1534 0.0000
vt 0.4590 0.1559 0.0000
vt 0.4038 0.1559 0.0000
vt 0.4616 0.1483 0.0000
vt 0.5168 0.1483 0.0000
vt 0.5168 0.1508 0.0000
vt 0.4616 0.1508 0.0000
vt 0.4038 0.1585 0.0000
vt 0.4590 0.1585 0.0000
vt 0.4590 0.1610 0.0000
vt 0.4038 0.1610 0.0000
vt 0.4616 0.1534 0.0000
vt 0.5168 0.1534 0.0000
vt 0.5168 0.1559 0.0000
vt 0.4616 0.1559 0.0000
vt 0.4038 0.1636 0.0000
vt 0.4590 0.1636 0.0000
vt 0.4590 0.1661 0.0000
vt 0.4038 0.1661 0.0000
vt 0.4616 0.1585 0.0000
vt 0.5168 0.1585 0.0000
vt 0.5168 0.1610 0.0000
vt 0.4616 0.1610 0.0000
vt 0.4038 0.1687 0.0000
vt 0.4590 0.1687 0.0000
vt 0.4590 0.1712 0.0000
vt 0.4038 0.1712 0.0000
vt 0.4616 0.1636 0.0000
vt 0.5168 0.1636 0.0000
vt 0.5168 0.1661 0.0000
vt 0.4616 0.1661 0.0000
vt 0.4038 0.1738 0.0000
vt 0.4590 0.1738 0.0000
vt 0.4590 0.1763 0.0000
vt 0.4038 0.1763 0.0000
vt 0.4616 0.1687 0.0000
vt 0.5168 0.1687 0.0000
vt 0.5168 0.1712 0.0000
vt 0.4616 0.1712 0.0000
vt 0.4038 0.1789 0.0000
vt 0.4590 0.1789 0.0000
vt 0.4590 0.1814 0.0000
vt 0.4038 0.1814 0.0000
vt 0.4616 0.1738 0.0000
vt 0.5168 0.1738 0.0000
vt 0.5168 0.1763 0.0000
vt 0.4616 0.1763 0.0000
vt 0.4038 0.1840 0.0000
vt 0.4590 0.1840 0.0000
vt 0.4590 0.1865 0.0000
vt 0.4038 0.1865 0.0000
vt 0.4616 0.1789 0.0000
vt 0.5168 0.1789 0.0000
vt 0.5168 0.1814 0.0000
vt 0.4616 0.1814 0.0000
# 456 texture coords

g CoverInduA_003
usemtl Material__0
s 1
f 1/1/1 2/2/1 3/3/1 4/4/1 
s 4
f 5/5/2 6/6/2 7/7/2 8/8/2 
s off
f 9/9/3 10/10/3 11/11/3 12/12/3 
f 13/13/3 14/14/3 15/15/3 16/16/3 
f 17/17/3 18/18/3 15/15/3 14/14/3 
f 19/19/4 20/20/4 21/21/4 22/22/4 
f 23/23/4 24/24/4 25/25/4 26/26/4 
f 11/27/5 10/28/5 27/29/5 28/30/5 
f 29/31/6 30/32/6 16/33/6 
f 15/34/7 31/35/7 32/36/7 16/37/7 
f 21/38/7 33/39/7 34/40/7 22/41/7 
f 25/42/6 35/43/6 33/44/6 21/45/6 
f 25/46/5 24/47/5 36/48/5 35/49/5 
s 1
f 21/21/8 20/20/8 26/26/4 25/25/4 
s 2
f 34/50/4 33/51/4 37/52/4 38/53/4 
s off
f 11/11/3 39/54/3 40/55/3 12/12/3 
f 22/22/4 41/56/4 42/57/4 19/19/4 
f 22/58/9 34/59/9 38/60/9 41/61/9 
s 1
f 13/13/10 16/16/10 10/10/11 9/9/11 
s 2
f 43/62/12 44/63/13 45/64/14 46/65/15 
s 4
f 2/66/16 47/67/16 48/68/16 3/69/16 
s 2
f 49/70/3 27/71/3 30/72/3 50/73/3 
s off
f 27/74/6 10/75/6 16/33/6 30/32/6 
f 16/33/6 32/76/6 29/31/6 
s 1
f 19/77/1 42/78/1 51/79/1 52/80/1 
s 4
f 23/81/2 26/82/2 53/83/2 54/84/2 
f 9/85/2 12/86/2 55/87/2 56/88/2 
s 1
f 12/89/9 40/90/9 57/91/9 55/92/9 
s 2
f 20/93/17 58/94/17 59/95/17 
f 9/96/17 60/97/17 61/98/17 
s 4
f 14/99/16 13/100/16 62/101/16 63/102/16 
f 64/103/16 20/104/16 19/105/16 52/106/16 
s 2
f 48/107/18 47/108/19 44/63/13 43/62/12 
f 7/109/20 6/110/21 46/65/15 45/64/14 
f 20/93/17 64/111/17 58/94/17 
f 53/112/17 26/113/17 20/93/17 59/95/17 
f 9/96/17 56/114/17 60/97/17 
f 62/115/17 13/116/17 9/96/17 61/98/17 
s off
f 54/117/3 53/118/3 6/119/3 5/120/3 
f 53/118/11 59/121/11 46/122/11 6/119/11 
f 59/123/22 58/124/22 43/125/22 46/126/22 
f 58/127/3 64/128/3 48/129/3 43/130/3 
f 64/128/3 52/131/3 3/132/3 48/129/3 
f 52/131/3 51/133/3 4/134/3 3/132/3 
f 63/135/4 62/136/4 47/137/4 2/138/4 
f 62/136/4 61/139/4 44/140/4 47/137/4 
f 61/141/23 60/142/23 45/143/23 44/144/23 
f 60/145/4 56/146/4 7/147/4 45/148/4 
f 56/146/4 55/149/4 8/150/4 7/147/4 
f 50/73/24 30/72/24 29/151/24 65/152/24 
s 4
f 66/153/7 67/154/7 68/155/7 69/156/7 
s off
f 70/157/3 40/55/3 39/54/3 71/158/3 
f 72/159/3 73/160/3 18/18/3 17/17/3 
f 74/161/4 24/24/4 23/23/4 75/162/4 
f 42/57/4 41/56/4 76/163/4 77/164/4 
f 75/162/4 78/165/4 79/166/4 74/161/4 
f 39/167/16 80/168/16 49/169/16 71/170/16 
f 65/171/17 73/172/17 50/173/17 
f 18/174/2 73/175/2 81/176/2 82/177/2 
f 18/178/9 82/179/9 31/180/9 15/181/9 
f 83/182/1 36/183/1 24/184/1 74/185/1 
f 38/186/2 37/187/2 76/188/2 41/189/2 
f 79/190/17 76/191/17 37/192/17 84/193/17 
f 79/194/16 84/195/16 83/196/16 74/197/16 
s 1
f 76/163/4 79/166/8 78/165/8 77/164/4 
f 5/198/9 8/199/9 67/200/9 66/201/9 
s off
f 28/202/1 80/203/1 39/204/1 11/205/1 
s 1
f 72/159/11 70/157/10 71/158/10 73/160/11 
s 2
f 85/206/25 86/207/26 87/208/27 88/209/28 
s 4
f 1/210/5 4/211/5 89/212/5 90/213/5 
s 2
f 29/151/3 32/214/3 81/215/3 65/152/3 
s off
f 49/216/17 50/173/17 73/172/17 71/217/17 
f 73/172/17 65/171/17 81/218/17 
s 1
f 17/219/1 14/220/1 63/221/1 91/222/1 
s 4
f 75/223/7 92/224/7 93/225/7 78/226/7 
f 70/227/7 94/228/7 57/229/7 40/230/7 
s 1
f 92/231/9 75/232/9 23/233/9 54/234/9 
s 2
f 77/235/6 95/236/6 96/237/6 
f 70/238/6 97/239/6 98/240/6 
s 4
f 17/241/5 91/242/5 99/243/5 72/244/5 
f 100/245/5 51/246/5 42/247/5 77/248/5 
s 2
f 89/249/29 85/206/25 88/209/28 90/250/30 
f 68/251/31 87/208/27 86/207/26 69/252/32 
f 77/235/6 96/237/6 100/253/6 
f 93/254/6 95/236/6 77/235/6 78/255/6 
f 70/238/6 98/240/6 94/256/6 
f 99/257/6 97/239/6 70/238/6 72/258/6 
s off
f 54/117/3 5/120/3 66/259/3 92/260/3 
f 92/260/3 66/259/3 69/261/3 93/262/3 
f 93/262/10 69/261/10 86/263/10 95/264/10 
f 95/265/22 86/266/22 85/267/22 96/268/22 
f 96/269/3 85/270/3 89/271/3 100/272/3 
f 100/272/3 89/271/3 4/134/3 51/133/3 
f 63/135/4 2/138/4 1/273/4 91/274/4 
f 91/274/4 1/273/4 90/275/4 99/276/4 
f 99/276/4 90/275/4 88/277/4 97/278/4 
f 97/279/23 88/280/23 87/281/23 98/282/23 
f 98/283/4 87/284/4 68/285/4 94/286/4 
f 94/286/4 68/285/4 67/287/4 57/288/4 
f 57/288/4 67/287/4 8/150/4 55/149/4 
s 2
f 31/289/3 82/290/3 81/215/3 32/214/3 
f 80/291/3 28/292/3 27/71/3 49/70/3 
f 36/293/4 83/294/4 84/295/4 35/296/4 
f 35/296/4 84/295/4 37/52/4 33/51/4 
s off
f 101/297/33 102/298/33 103/299/33 104/300/33 
f 104/301/34 105/302/34 106/303/34 101/304/34 
f 103/305/35 102/306/35 107/307/35 108/308/35 
f 108/309/36 105/310/36 104/311/36 103/312/36 
f 102/313/37 101/314/37 106/315/37 107/316/37 
s 4
f 109/317/3 110/318/3 111/319/3 112/320/3 
s 8
f 113/321/9 114/322/9 115/323/9 116/324/9 
s 32
f 117/325/1 118/326/1 119/327/1 120/328/1 
s 4
f 120/329/3 119/330/3 121/331/3 122/332/3 
f 123/333/3 124/334/3 125/335/3 126/336/3 
f 127/337/3 128/338/3 129/339/3 130/340/3 
f 131/341/3 132/342/3 133/343/3 134/344/3 
f 135/345/3 136/346/3 137/347/3 138/348/3 
f 139/349/10 140/350/10 141/351/10 142/352/10 
f 143/353/3 144/354/3 145/355/3 146/356/3 
f 147/357/10 148/358/10 149/359/10 150/360/10 
f 116/361/3 115/362/3 151/363/3 152/364/3 
f 153/365/10 154/366/10 155/367/10 156/368/10 
f 157/369/3 158/370/3 159/371/3 160/372/3 
f 161/373/10 162/374/10 163/375/10 164/376/10 
f 165/377/3 166/378/3 167/379/3 168/380/3 
f 169/381/3 170/382/3 171/383/3 172/384/3 
f 173/385/3 174/386/3 175/387/3 176/388/3 
f 177/389/3 178/390/3 179/391/3 180/392/3 
s off
f 122/393/9 121/394/9 124/395/9 123/396/9 
f 128/397/1 127/398/1 126/399/1 125/400/1 
f 130/401/9 129/402/9 132/403/9 131/404/9 
f 136/405/1 135/406/1 134/407/1 133/408/1 
f 138/409/9 137/410/9 140/411/9 139/412/9 
f 144/413/38 143/414/38 142/415/38 141/416/38 
f 146/417/9 145/418/9 148/419/9 147/420/9 
f 110/421/1 109/422/1 150/423/1 149/424/1 
f 158/425/9 157/426/9 156/427/9 155/428/9 
f 152/429/1 151/430/1 154/431/1 153/432/1 
f 166/433/9 165/434/9 164/435/9 163/436/9 
f 160/437/38 159/438/38 162/439/38 161/440/38 
f 174/441/9 173/442/9 172/443/9 171/444/9 
f 168/445/1 167/446/1 170/447/1 169/448/1 
f 112/449/9 111/450/9 180/451/9 179/452/9 
f 176/453/1 175/454/1 178/455/1 177/456/1 
# 132 polygons - 12 triangles

