# 3ds Max Wavefront OBJ Exporter v0.97b - (c)2007 guruware
# File Created: 29.02.2016 10:39:42

mtllib ScreenA_002.mtl

#
# object ScreenA_002
#

v  -39.3643 0.0000 3.0666
v  -39.3643 0.0000 -3.0666
v  141.7180 0.0000 -3.0666
v  141.7180 0.0000 3.0666
v  -39.3643 104.3151 3.0666
v  141.7180 104.3151 3.0666
v  141.7180 104.3151 -3.0666
v  -39.3643 104.3151 -3.0666
v  -37.6352 4.1934 0.9907
v  139.9888 4.1934 0.9907
v  140.2273 4.4329 0.9907
v  139.9888 100.1217 0.9907
v  140.2273 99.8822 0.9907
v  -37.6352 100.1217 0.9907
v  -37.8736 99.8822 0.9907
v  -37.8736 4.4329 0.9907
v  144.4018 2.6959 3.0666
v  144.4018 2.6959 -3.0666
v  144.4018 101.6192 -3.0666
v  144.4018 101.6192 3.0666
v  -42.0481 2.6959 -3.0666
v  -42.0481 2.6959 3.0666
v  -42.0481 101.6192 3.0666
v  -42.0481 101.6192 -3.0666
v  140.2698 3.5119 3.0666
v  -37.9162 3.5119 3.0666
v  140.9057 4.1506 3.0666
v  140.9057 100.1645 3.0666
v  140.2698 100.8032 3.0666
v  -37.9162 100.8032 3.0666
v  -38.5520 100.1645 3.0666
v  -38.5520 4.1506 3.0666
# 32 vertices

vn 0.0000 -1.0000 -0.0000
vn 0.0000 1.0000 -0.0000
vn 0.0000 0.0000 1.0000
vn 1.0000 0.0000 -0.0000
vn -1.0000 -0.0000 -0.0000
vn -0.7071 -0.7071 -0.0000
vn 0.7071 -0.7071 -0.0000
vn 0.7071 0.7071 -0.0000
vn -0.7071 0.7071 -0.0000
vn 0.0000 0.9037 0.4281
vn -0.6390 0.6390 0.4281
vn -0.9037 0.0000 0.4281
vn -0.6390 -0.6391 0.4281
vn 0.0000 -0.9037 0.4281
vn 0.6390 -0.6391 0.4281
vn 0.9037 0.0000 0.4281
vn 0.6390 0.6390 0.4281
# 17 vertex normals

vt 0.6951 0.0343 0.0000
vt 0.7114 0.0343 0.0000
vt 0.7114 0.3380 0.0000
vt 0.6951 0.3380 0.0000
vt 0.7315 0.0343 0.0000
vt 0.7315 0.3380 0.0000
vt 0.7151 0.3380 0.0000
vt 0.7151 0.0343 0.0000
vt 0.0272 0.0464 0.0000
vt 0.6213 0.0464 0.0000
vt 0.6222 0.0473 0.0000
vt 0.6213 0.4874 0.0000
vt 0.6222 0.4865 0.0000
vt 0.0272 0.4874 0.0000
vt 0.0263 0.4865 0.0000
vt 0.0263 0.0473 0.0000
vt 0.6894 0.4991 0.0000
vt 0.6731 0.4991 0.0000
vt 0.6731 0.0343 0.0000
vt 0.6894 0.0343 0.0000
vt 0.6675 0.4991 0.0000
vt 0.6512 0.4991 0.0000
vt 0.6512 0.0343 0.0000
vt 0.6675 0.0343 0.0000
vt 0.7097 0.3581 0.0000
vt 0.6951 0.3581 0.0000
vt 0.6951 0.3418 0.0000
vt 0.7097 0.3418 0.0000
vt 0.7298 0.3581 0.0000
vt 0.7151 0.3581 0.0000
vt 0.7151 0.3418 0.0000
vt 0.7298 0.3418 0.0000
vt 0.6949 0.3801 0.0000
vt 0.7095 0.3801 0.0000
vt 0.7095 0.3964 0.0000
vt 0.6949 0.3964 0.0000
vt 0.6951 0.3619 0.0000
vt 0.7097 0.3619 0.0000
vt 0.7097 0.3782 0.0000
vt 0.6951 0.3782 0.0000
vt 0.0191 0.0296 0.0000
vt 0.6283 0.0296 0.0000
vt 0.6229 0.0428 0.0000
vt 0.0246 0.0428 0.0000
vt 0.6384 0.0397 0.0000
vt 0.6253 0.0452 0.0000
vt 0.6384 0.4943 0.0000
vt 0.6253 0.4889 0.0000
vt 0.6283 0.5045 0.0000
vt 0.6229 0.4913 0.0000
vt 0.0191 0.5045 0.0000
vt 0.0246 0.4913 0.0000
vt 0.0091 0.4943 0.0000
vt 0.0222 0.4889 0.0000
vt 0.0091 0.0397 0.0000
vt 0.0222 0.0452 0.0000
vt 0.7648 0.0343 0.0000
vt 0.7648 0.3269 0.0000
vt 0.7587 0.3258 0.0000
vt 0.7587 0.0354 0.0000
vt 0.7352 0.4936 0.0000
vt 0.7387 0.4936 0.0000
vt 0.7375 0.4997 0.0000
vt 0.7362 0.4997 0.0000
vt 0.7352 0.4879 0.0000
vt 0.7352 0.0343 0.0000
vt 0.7413 0.0354 0.0000
vt 0.7413 0.4868 0.0000
vt 0.7686 0.3306 0.0000
vt 0.7721 0.3307 0.0000
vt 0.7708 0.3368 0.0000
vt 0.7695 0.3368 0.0000
vt 0.7686 0.3269 0.0000
vt 0.7686 0.0343 0.0000
vt 0.7747 0.0354 0.0000
vt 0.7747 0.3258 0.0000
vt 0.7504 0.4997 0.0000
vt 0.7470 0.4997 0.0000
vt 0.7482 0.4936 0.0000
vt 0.7495 0.4936 0.0000
vt 0.7531 0.0343 0.0000
vt 0.7531 0.4879 0.0000
vt 0.7470 0.4868 0.0000
vt 0.7470 0.0354 0.0000
vt 0.7622 0.3368 0.0000
vt 0.7587 0.3367 0.0000
vt 0.7599 0.3306 0.0000
vt 0.7612 0.3307 0.0000
# 88 texture coords

g ScreenA_002
usemtl ScreenA
s 1
f 1/1/1 2/2/1 3/3/1 4/4/1 
f 5/5/2 6/6/2 7/7/2 8/8/2 
s 2
f 9/9/3 10/10/3 11/11/3 12/12/3 
f 11/11/3 13/13/3 12/12/3 
f 12/12/3 14/14/3 15/15/3 9/9/3 
f 16/16/3 9/9/3 15/15/3 
s 1
f 17/17/4 18/18/4 19/19/4 20/20/4 
f 21/21/5 22/22/5 23/23/5 24/24/5 
s 4
f 1/25/6 22/26/6 21/27/6 2/28/6 
f 3/29/7 18/30/7 17/31/7 4/32/7 
f 6/33/8 20/34/8 19/35/8 7/36/8 
f 8/37/9 24/38/9 23/39/9 5/40/9 
s off
f 1/41/3 4/42/3 25/43/3 26/44/3 
f 4/42/3 17/45/3 27/46/3 25/43/3 
f 17/45/3 20/47/3 28/48/3 27/46/3 
f 20/47/3 6/49/3 29/50/3 28/48/3 
f 6/49/3 5/51/3 30/52/3 29/50/3 
f 5/51/3 23/53/3 31/54/3 30/52/3 
f 23/53/3 22/55/3 32/56/3 31/54/3 
f 22/55/3 1/41/3 26/44/3 32/56/3 
f 26/57/10 25/58/10 10/59/10 9/60/10 
f 25/61/11 27/62/11 11/63/11 10/64/11 
f 27/65/12 28/66/12 13/67/12 11/68/12 
f 28/69/13 29/70/13 12/71/13 13/72/13 
f 29/73/14 30/74/14 14/75/14 12/76/14 
f 30/77/15 31/78/15 15/79/15 14/80/15 
f 31/81/16 32/82/16 16/83/16 15/84/16 
f 32/85/17 26/86/17 9/87/17 16/88/17 
# 26 polygons - 2 triangles

#
# object ScreenGlassA_002
#

v  -39.7485 2.7853 2.8708
v  141.5530 2.7853 2.8708
v  141.5530 100.8190 2.8708
v  -39.7485 100.8190 2.8708
# 4 vertices

vn 0.0000 0.0000 1.0000
# 1 vertex normals

vt 0.0000 0.2296 0.0000
vt 1.0000 0.2296 0.0000
vt 1.0000 0.7704 0.0000
vt 0.0000 0.7704 0.0000
# 4 texture coords

g ScreenGlassA_002
usemtl GlassA
s 2
f 33/89/18 34/90/18 35/91/18 36/92/18 
# 1 polygons

