# 3ds Max Wavefront OBJ Exporter v0.97b - (c)2007 guruware
# File Created: 29.02.2016 10:39:34

mtllib ScreenA_001.mtl

#
# object ScreenA_001
#

v  -39.3643 0.0000 3.0666
v  -39.3643 0.0000 -3.0666
v  39.3643 0.0000 -3.0666
v  39.3643 0.0000 3.0666
v  -39.3643 126.4159 3.0666
v  39.3643 126.4159 3.0666
v  39.3643 126.4159 -3.0666
v  -39.3643 126.4159 -3.0666
v  -37.6352 4.1934 0.9907
v  37.6352 4.1934 0.9907
v  37.8736 4.4329 0.9907
v  37.6352 122.2225 0.9907
v  37.8736 121.9830 0.9907
v  -37.6352 122.2225 0.9907
v  -37.8736 121.9830 0.9907
v  -37.8736 4.4329 0.9907
v  42.0481 2.6959 3.0666
v  42.0481 2.6959 -3.0666
v  42.0481 123.7199 -3.0666
v  42.0481 123.7199 3.0666
v  -42.0481 2.6959 -3.0666
v  -42.0481 2.6959 3.0666
v  -42.0481 123.7199 3.0666
v  -42.0481 123.7199 -3.0666
v  37.9162 3.5119 3.0666
v  -37.9162 3.5119 3.0666
v  38.5520 4.1506 3.0666
v  38.5520 122.2653 3.0666
v  37.9162 122.9040 3.0666
v  -37.9162 122.9040 3.0666
v  -38.5520 122.2653 3.0666
v  -38.5520 4.1506 3.0666
# 32 vertices

vn 0.0000 -1.0000 -0.0000
vn 0.0000 1.0000 -0.0000
vn 0.0000 0.0000 1.0000
vn 1.0000 0.0000 -0.0000
vn -1.0000 0.0000 -0.0000
vn -0.7071 -0.7071 -0.0000
vn 0.7071 -0.7071 -0.0000
vn 0.7071 0.7071 -0.0000
vn -0.7071 0.7071 -0.0000
vn 0.0000 0.9037 0.4281
vn -0.6390 0.6390 0.4281
vn -0.9037 0.0000 0.4281
vn -0.6390 -0.6390 0.4281
vn 0.0000 -0.9037 0.4281
vn 0.6390 -0.6390 0.4281
vn 0.9037 0.0000 0.4281
vn 0.6390 0.6390 0.4281
# 17 vertex normals

vt 0.3816 0.5219 0.0000
vt 0.3979 0.5219 0.0000
vt 0.3979 0.8256 0.0000
vt 0.3816 0.8256 0.0000
vt 0.4180 0.5219 0.0000
vt 0.4180 0.8256 0.0000
vt 0.4017 0.8256 0.0000
vt 0.4017 0.5219 0.0000
vt 0.0272 0.5340 0.0000
vt 0.3079 0.5340 0.0000
vt 0.3088 0.5349 0.0000
vt 0.3079 0.9750 0.0000
vt 0.3088 0.9741 0.0000
vt 0.0272 0.9750 0.0000
vt 0.0263 0.9741 0.0000
vt 0.0263 0.5349 0.0000
vt 0.3760 0.9867 0.0000
vt 0.3597 0.9867 0.0000
vt 0.3597 0.5219 0.0000
vt 0.3760 0.5219 0.0000
vt 0.3540 0.9867 0.0000
vt 0.3377 0.9867 0.0000
vt 0.3377 0.5219 0.0000
vt 0.3540 0.5219 0.0000
vt 0.3963 0.8457 0.0000
vt 0.3816 0.8457 0.0000
vt 0.3816 0.8294 0.0000
vt 0.3963 0.8294 0.0000
vt 0.4163 0.8457 0.0000
vt 0.4017 0.8457 0.0000
vt 0.4017 0.8294 0.0000
vt 0.4163 0.8294 0.0000
vt 0.3814 0.8677 0.0000
vt 0.3960 0.8677 0.0000
vt 0.3960 0.8840 0.0000
vt 0.3814 0.8840 0.0000
vt 0.3816 0.8495 0.0000
vt 0.3963 0.8495 0.0000
vt 0.3963 0.8658 0.0000
vt 0.3816 0.8658 0.0000
vt 0.0191 0.5172 0.0000
vt 0.3149 0.5172 0.0000
vt 0.3094 0.5304 0.0000
vt 0.0246 0.5304 0.0000
vt 0.3250 0.5273 0.0000
vt 0.3118 0.5328 0.0000
vt 0.3250 0.9819 0.0000
vt 0.3118 0.9765 0.0000
vt 0.3149 0.9920 0.0000
vt 0.3094 0.9789 0.0000
vt 0.0191 0.9920 0.0000
vt 0.0246 0.9789 0.0000
vt 0.0091 0.9819 0.0000
vt 0.0222 0.9765 0.0000
vt 0.0091 0.5273 0.0000
vt 0.0222 0.5328 0.0000
vt 0.4514 0.5219 0.0000
vt 0.4514 0.8145 0.0000
vt 0.4453 0.8134 0.0000
vt 0.4453 0.5230 0.0000
vt 0.4218 0.9811 0.0000
vt 0.4252 0.9812 0.0000
vt 0.4241 0.9873 0.0000
vt 0.4228 0.9873 0.0000
vt 0.4218 0.9755 0.0000
vt 0.4218 0.5219 0.0000
vt 0.4279 0.5230 0.0000
vt 0.4279 0.9744 0.0000
vt 0.4551 0.8182 0.0000
vt 0.4586 0.8183 0.0000
vt 0.4574 0.8244 0.0000
vt 0.4561 0.8243 0.0000
vt 0.4551 0.8145 0.0000
vt 0.4551 0.5219 0.0000
vt 0.4612 0.5230 0.0000
vt 0.4612 0.8134 0.0000
vt 0.4370 0.9873 0.0000
vt 0.4335 0.9872 0.0000
vt 0.4347 0.9811 0.0000
vt 0.4360 0.9812 0.0000
vt 0.4396 0.5219 0.0000
vt 0.4396 0.9755 0.0000
vt 0.4335 0.9744 0.0000
vt 0.4335 0.5230 0.0000
vt 0.4487 0.8244 0.0000
vt 0.4453 0.8243 0.0000
vt 0.4465 0.8182 0.0000
vt 0.4478 0.8182 0.0000
# 88 texture coords

g ScreenA_001
usemtl ScreenA
s 1
f 1/1/1 2/2/1 3/3/1 4/4/1 
f 5/5/2 6/6/2 7/7/2 8/8/2 
s 2
f 9/9/3 10/10/3 11/11/3 12/12/3 
f 11/11/3 13/13/3 12/12/3 
f 12/12/3 14/14/3 15/15/3 9/9/3 
f 16/16/3 9/9/3 15/15/3 
s 1
f 17/17/4 18/18/4 19/19/4 20/20/4 
f 21/21/5 22/22/5 23/23/5 24/24/5 
s 4
f 1/25/6 22/26/6 21/27/6 2/28/6 
f 3/29/7 18/30/7 17/31/7 4/32/7 
f 6/33/8 20/34/8 19/35/8 7/36/8 
f 8/37/9 24/38/9 23/39/9 5/40/9 
s off
f 1/41/3 4/42/3 25/43/3 26/44/3 
f 4/42/3 17/45/3 27/46/3 25/43/3 
f 17/45/3 20/47/3 28/48/3 27/46/3 
f 20/47/3 6/49/3 29/50/3 28/48/3 
f 6/49/3 5/51/3 30/52/3 29/50/3 
f 5/51/3 23/53/3 31/54/3 30/52/3 
f 23/53/3 22/55/3 32/56/3 31/54/3 
f 22/55/3 1/41/3 26/44/3 32/56/3 
f 26/57/10 25/58/10 10/59/10 9/60/10 
f 25/61/11 27/62/11 11/63/11 10/64/11 
f 27/65/12 28/66/12 13/67/12 11/68/12 
f 28/69/13 29/70/13 12/71/13 13/72/13 
f 29/73/14 30/74/14 14/75/14 12/76/14 
f 30/77/15 31/78/15 15/79/15 14/80/15 
f 31/81/16 32/82/16 16/83/16 15/84/16 
f 32/85/17 26/86/17 9/87/17 16/88/17 
# 26 polygons - 2 triangles

#
# object ScreenGlassA_001
#

v  -39.7485 2.7853 2.8708
v  39.1994 2.7853 2.8708
v  39.1994 122.9198 2.8708
v  -39.7485 122.9198 2.8708
# 4 vertices

vn 0.0000 0.0000 1.0000
# 1 vertex normals

vt 0.1714 0.0000 0.0000
vt 0.8286 0.0000 0.0000
vt 0.8286 1.0000 0.0000
vt 0.1714 1.0000 0.0000
# 4 texture coords

g ScreenGlassA_001
usemtl GlassA
s 2
f 33/89/18 34/90/18 35/91/18 36/92/18 
# 1 polygons

