# 3ds Max Wavefront OBJ Exporter v0.97b - (c)2007 guruware
# File Created: 08.02.2016 14:06:23

mtllib logo.mtl

#
# object Box003
#

v  260.8013 43.1360 -13.4275
v  233.0964 43.1360 -13.4275
v  233.0964 43.1360 14.2774
v  260.8013 43.1360 14.2774
v  260.8013 36.5155 20.8978
v  233.0964 36.5155 20.8978
v  233.0964 8.8105 20.8978
v  260.8013 8.8105 20.8978
v  226.4760 36.5155 14.2774
v  226.4760 36.5155 -13.4275
v  226.4760 8.8105 -13.4275
v  226.4760 8.8105 14.2774
v  269.6118 45.3260 -13.5887
v  269.6118 45.3260 14.4385
v  224.2860 45.3260 14.4385
v  224.2860 45.3260 -13.5887
v  269.6118 36.6767 23.0878
v  269.6118 8.6493 23.0878
v  224.2860 8.6493 23.0878
v  224.2860 36.6767 23.0878
v  260.9625 45.3260 -22.2380
v  232.9353 45.3260 -22.2380
v  232.9353 45.3260 23.0878
v  260.9625 45.3260 23.0878
v  224.2860 8.6493 -22.2380
v  224.2860 36.6767 -22.2380
v  269.6118 45.3260 23.0878
v  224.2860 45.3260 23.0878
v  224.2860 45.3260 -22.2380
v  232.9353 0.0000 23.0878
v  260.9625 0.0000 23.0878
v  224.2860 0.0000 -13.5887
v  224.2860 0.0000 14.4385
v  224.2860 0.0000 23.0878
# 34 vertices

vn 0.0000 1.0000 -0.0000
vn 0.0000 0.0000 1.0000
vn -1.0000 0.0000 -0.0000
vn -0.2412 0.9705 -0.0000
vn 0.2412 0.9705 -0.0000
vn -0.2412 0.0000 0.9705
vn 0.2412 0.0000 0.9705
vn 0.0000 0.9705 0.2412
vn 0.0000 0.9705 -0.2412
vn -0.9705 0.0000 -0.2412
vn -0.9705 0.0000 0.2412
vn 0.0000 -0.2412 0.9705
vn 0.0000 0.2412 0.9705
vn -0.9705 -0.2412 -0.0000
vn -0.9705 0.2412 -0.0000
# 15 vertex normals

vt 0.9024 0.3962 0.0000
vt 0.6033 0.3962 0.0000
vt 0.6033 0.0971 0.0000
vt 0.9024 0.0971 0.0000
vt 0.3967 0.3958 0.0000
vt 0.0976 0.3957 0.0000
vt 0.0976 0.0966 0.0000
vt 0.3967 0.0968 0.0000
vt 0.3956 0.9022 0.0000
vt 0.0966 0.9023 0.0000
vt 0.0966 0.6032 0.0000
vt 0.3956 0.6031 0.0000
vt 0.9976 0.3980 0.0000
vt 0.9976 0.0954 0.0000
vt 0.5082 0.0954 0.0000
vt 0.5082 0.3980 0.0000
vt 0.4913 0.3982 0.0000
vt 0.4913 0.0956 0.0000
vt 0.0020 0.0954 0.0000
vt 0.0020 0.3979 0.0000
vt 0.9042 0.4913 0.0000
vt 0.6016 0.4913 0.0000
vt 0.6016 0.0020 0.0000
vt 0.9042 0.0020 0.0000
vt 0.4913 0.9044 0.0000
vt 0.4913 0.6018 0.0000
vt 0.0020 0.6021 0.0000
vt 0.0020 0.9046 0.0000
vt 0.9976 0.0020 0.0000
vt 0.5082 0.0020 0.0000
vt 0.5082 0.4913 0.0000
vt 0.3979 0.4915 0.0000
vt 0.0954 0.4913 0.0000
vt 0.0954 0.0020 0.0000
vt 0.3979 0.0022 0.0000
vt 0.3979 0.9978 0.0000
vt 0.0954 0.9980 0.0000
vt 0.0954 0.5087 0.0000
vt 0.3979 0.5085 0.0000
vt 0.4913 0.4915 0.0000
vt 0.0020 0.0020 0.0000
vt 0.0020 0.4913 0.0000
vt 0.4913 0.9978 0.0000
vt 0.4913 0.5085 0.0000
vt 0.0020 0.9980 0.0000
# 45 texture coords

g Box003
usemtl 04___Default
s 1
f 1/1/1 2/2/1 3/3/1 4/4/1 
f 5/5/2 6/6/2 7/7/2 8/8/2 
f 9/9/3 10/10/3 11/11/3 12/12/3 
s 2
f 13/13/4 1/1/4 4/4/4 14/14/4 
f 15/15/5 3/3/5 2/2/5 16/16/5 
s 4
f 17/17/6 5/5/6 8/8/6 18/18/6 
f 19/19/7 7/7/7 6/6/7 20/20/7 
f 21/21/8 22/22/8 2/2/8 1/1/8 
s 8
f 23/23/9 24/24/9 4/4/9 3/3/9 
s 16
f 20/25/10 9/9/10 12/12/10 19/26/10 
s 8
f 25/27/11 11/11/11 10/10/11 26/28/11 
s 2
f 4/4/4 27/29/4 14/14/4 
f 15/15/5 28/30/5 3/3/5 
f 2/2/5 29/31/5 16/16/5 
s 32
f 24/32/12 23/33/12 6/6/12 5/5/12 
s 8
f 30/34/13 31/35/13 8/8/13 7/7/13 
s 64
f 15/36/14 16/37/14 10/10/14 9/9/14 
s 32
f 32/38/15 33/39/15 12/12/15 11/11/15 
s 4
f 17/17/6 27/40/6 5/5/6 
f 19/19/7 34/41/7 7/7/7 
f 6/6/7 28/42/7 20/20/7 
s 16
f 20/25/10 28/43/10 9/9/10 
f 12/12/10 34/44/10 19/26/10 
s 8
f 10/10/11 29/45/11 26/28/11 
s 64
f 28/43/14 15/36/14 9/9/14 
s 32
f 6/6/12 23/33/12 28/42/12 
s 8
f 28/30/9 23/23/9 3/3/9 
f 4/4/9 24/24/9 27/29/9 
s 32
f 27/40/12 24/32/12 5/5/12 
s 64
f 10/10/14 16/37/14 29/45/14 
s 4
f 2/2/8 22/22/8 29/31/8 
s 32
f 12/12/15 33/39/15 34/44/15 
s 8
f 34/41/13 30/34/13 7/7/13 
# 15 polygons - 18 triangles

#
# object Plane001
#

v  71.4838 0.0000 -227.8514
v  71.4838 0.0000 194.6426
v  502.5528 0.0000 194.6426
v  502.5528 0.0000 -227.8514
# 4 vertices

vn 0.0000 1.0000 -0.0000
# 1 vertex normals

vt 0.0000 1.0000 0.0000
vt 0.0000 0.0000 0.0000
vt 1.0000 0.0000 0.0000
vt 1.0000 1.0000 0.0000
# 4 texture coords

g Plane001
usemtl 07___Default
s 1
f 35/46/16 36/47/16 37/48/16 38/49/16 
# 1 polygons

