# 3ds Max Wavefront OBJ Exporter v0.97b - (c)2007 guruware
# File Created: 01.03.2016 18:28:08

mtllib DeskA_001.mtl

#
# object DeskA_001
#

v  153.6158 43.5738 -19.1258
v  151.8697 43.7713 -19.1258
v  151.8697 43.7713 19.1258
v  153.6158 43.5738 19.1258
v  156.6682 0.5590 -19.1258
v  151.8697 0.5590 -19.1258
v  151.8697 39.0212 -19.1258
v  156.6682 39.0212 -19.1258
v  156.5062 40.7432 -19.1258
v  156.6682 0.5590 19.1258
v  156.6682 39.0212 19.1258
v  156.5062 40.7432 19.1258
v  151.8697 0.5590 12.1157
v  151.8697 39.0212 12.1157
v  154.8992 42.9354 -19.1258
v  154.8993 42.9354 19.1258
v  155.8930 41.9919 -19.1258
v  155.8930 41.9919 19.1258
v  34.2324 43.5738 -19.1258
v  34.2324 43.5738 19.1258
v  35.9785 43.7713 19.1258
v  35.9785 43.7713 -19.1258
v  31.1800 0.5590 -19.1258
v  31.1800 39.0212 -19.1258
v  35.9785 39.0212 -19.1258
v  35.9785 0.5590 -19.1258
v  35.9785 0.5590 12.1157
v  35.9785 39.0212 12.1157
v  31.3420 40.7432 -19.1258
v  31.1801 0.5590 19.1258
v  31.1801 39.0212 19.1258
v  31.3420 40.7432 19.1258
v  32.9490 42.9354 -19.1258
v  32.9490 42.9354 19.1258
v  31.9552 41.9919 -19.1258
v  31.9552 41.9919 19.1258
v  153.7797 38.8857 18.6143
v  34.0685 38.8857 18.6144
v  34.0685 0.5590 18.6144
v  153.7797 0.5590 18.6143
v  154.3410 38.9120 19.1258
v  154.3410 0.5590 19.1258
v  154.2292 40.1005 19.1258
v  153.9881 40.5915 19.1258
v  153.5502 41.0073 19.1258
v  152.9467 41.3075 19.1258
v  151.7385 41.4442 19.1258
v  36.1097 41.4442 19.1258
v  34.9016 41.3075 19.1258
v  34.2980 41.0073 19.1258
v  33.8601 40.5915 19.1258
v  33.6190 40.1005 19.1258
v  33.5072 38.9120 19.1258
v  33.5072 0.5590 19.1258
v  153.6800 39.9454 18.6143
v  153.5286 40.2538 18.6143
v  153.2248 40.5422 18.6143
v  152.7852 40.7608 18.6143
v  151.7069 40.8828 18.6143
v  36.1413 40.8828 18.6144
v  35.0630 40.7608 18.6144
v  34.6234 40.5422 18.6144
v  34.3196 40.2538 18.6144
v  34.1682 39.9454 18.6144
v  73.0376 44.7061 3.1679
v  73.7851 44.8348 3.3607
v  73.5567 45.0857 2.4807
v  72.7362 44.8347 2.3847
v  74.7415 44.8348 3.2771
v  74.8136 45.0857 2.3708
v  75.4441 44.7061 2.9574
v  75.6049 44.8347 2.1337
v  73.0862 45.2925 -2.1117
v  72.2027 44.9960 -1.9222
v  74.4794 45.2925 -2.2336
v  75.3824 44.9960 -2.2004
v  73.2006 44.9962 -2.7233
v  72.4118 44.8007 -2.4817
v  74.2606 44.9962 -2.8160
v  75.0793 44.8007 -2.7151
v  72.8289 44.2726 3.4441
v  73.6785 44.2726 3.8734
v  74.9354 44.2726 3.7634
v  75.6976 44.2726 3.1932
v  76.0700 44.2726 2.2606
v  75.8720 44.2726 -2.3553
v  75.3204 44.2726 -2.9086
v  74.3980 44.2726 -3.1645
v  73.0048 44.2726 -3.0426
v  72.1408 44.2726 -2.6304
v  71.6936 44.2726 -1.9898
v  72.3003 44.2726 2.5905
v  72.8289 43.8851 3.4441
v  73.6785 43.8851 3.8734
v  74.9354 43.8851 3.7634
v  75.6976 43.8851 3.1932
v  76.0700 43.8851 2.2606
v  75.8720 43.8851 -2.3553
v  75.3204 43.8851 -2.9086
v  74.3980 43.8851 -3.1645
v  73.0048 43.8851 -3.0426
v  72.1408 43.8851 -2.6304
v  71.6936 43.8851 -1.9898
v  72.3003 43.8851 2.5905
v  66.3146 43.7761 4.0767
v  68.0950 43.7761 -6.0206
v  81.6706 43.7761 -3.6269
v  79.8901 43.7761 6.4705
v  66.3146 43.9000 4.0767
v  79.8901 43.9000 6.4705
v  81.6706 43.9000 -3.6269
v  68.0950 43.9000 -6.0206
v  88.5180 43.7300 5.4444
v  87.7941 43.7300 -2.8294
v  112.5415 43.7300 -4.9945
v  113.2654 43.7300 3.2793
v  88.5180 44.7611 5.4444
v  113.2654 44.7611 3.2793
v  112.5415 44.1036 -4.9945
v  87.7941 44.1036 -2.8294
v  78.3431 43.6471 16.5689
v  78.3431 43.6471 14.1020
v  78.6537 43.6471 14.1020
v  78.6537 43.6471 16.5689
v  78.3431 48.2637 15.8947
v  78.6537 48.2637 15.8947
v  78.6537 48.3185 15.4371
v  78.3431 48.3185 15.4371
v  78.3431 45.9476 16.2183
v  78.3431 46.2265 16.0084
v  78.6537 46.2265 16.0084
v  78.6537 45.9476 16.2183
v  78.5142 44.3452 14.7960
v  78.5142 44.4317 14.4734
v  112.8311 44.4317 14.4734
v  112.8311 44.3452 14.7960
v  78.5142 61.8430 19.4845
v  112.8311 61.8430 19.4845
v  112.8311 61.9294 19.1619
v  78.5142 61.9294 19.1619
v  112.6261 44.6298 14.5264
v  78.7193 44.6298 14.5264
v  78.7193 44.5433 14.8491
v  112.6261 44.5433 14.8491
v  112.6261 61.7314 19.1088
v  112.6261 61.6449 19.4314
v  78.7193 61.6449 19.4314
v  78.7193 61.7314 19.1088
v  112.7157 43.6471 16.5689
v  112.7157 43.6471 14.1020
v  113.0263 43.6471 14.1020
v  113.0263 43.6471 16.5689
v  112.7157 48.2637 15.8947
v  113.0263 48.2637 15.8947
v  113.0263 48.3185 15.4371
v  112.7157 48.3185 15.4371
v  112.7157 45.9476 16.2183
v  112.7157 46.2265 16.0084
v  113.0263 46.2265 16.0084
v  113.0263 45.9476 16.2183
# 160 vertices

vn 0.2832 0.9591 -0.0000
vn 0.0563 0.9984 -0.0000
vn -0.0000 0.0000 -1.0000
vn 1.0000 0.0000 -0.0000
vn 0.9989 0.0469 -0.0000
vn 0.9624 0.2717 -0.0000
vn -1.0000 0.0000 0.0000
vn 0.5733 0.8194 -0.0000
vn 0.8057 0.5923 -0.0000
vn -0.2832 0.9591 0.0000
vn -0.0563 0.9984 0.0000
vn -0.9989 0.0469 0.0000
vn -0.9624 0.2717 0.0000
vn -0.5733 0.8194 0.0000
vn -0.8057 0.5923 0.0000
vn -0.0000 -0.0000 1.0000
vn 0.0000 -0.0000 1.0000
vn 0.0000 0.0000 1.0000
vn 0.0000 -1.0000 -0.0000
vn -0.6735 0.0000 0.7392
vn -0.6724 -0.0316 0.7396
vn -0.6423 -0.1813 0.7447
vn -0.5380 -0.3955 0.7445
vn -0.3838 -0.5485 0.7429
vn -0.1891 -0.6405 0.7443
vn -0.0379 -0.6718 0.7397
vn 0.0379 -0.6718 0.7397
vn 0.1891 -0.6405 0.7443
vn 0.3838 -0.5485 0.7429
vn 0.5379 -0.3954 0.7445
vn 0.6423 -0.1813 0.7447
vn 0.6724 -0.0316 0.7396
vn 0.6735 0.0000 0.7392
vn -0.4339 0.7539 0.4933
vn -0.1025 0.8329 0.5438
vn -0.1449 0.9731 0.1791
vn -0.5475 0.8141 0.1937
vn 0.1921 0.8387 0.5096
vn 0.1864 0.9691 0.1616
vn 0.5187 0.7711 0.3691
vn 0.5682 0.8149 0.1141
vn -0.1964 0.9575 -0.2111
vn -0.6079 0.7781 -0.1581
vn 0.1524 0.9596 -0.2366
vn 0.5693 0.7811 -0.2564
vn -0.1941 0.6929 -0.6944
vn -0.5000 0.6278 -0.5965
vn 0.0696 0.6899 -0.7205
vn 0.3762 0.6170 -0.6912
vn -0.5049 0.6372 0.5823
vn -0.1395 0.6815 0.7184
vn 0.2543 0.6715 0.6959
vn 0.6173 0.6341 0.4658
vn 0.7508 0.6455 0.1401
vn 0.7586 0.5705 -0.3148
vn 0.4545 0.4889 -0.7446
vn 0.0940 0.4464 -0.8899
vn -0.2414 0.4393 -0.8653
vn -0.5860 0.4959 -0.6409
vn -0.7939 0.5816 -0.1776
vn -0.7264 0.6392 0.2526
vn -0.1891 0.0000 0.9820
vn -0.6758 0.0000 0.7371
vn 0.3568 0.0000 0.9342
vn 0.7935 0.0000 0.6085
vn 0.9858 0.0000 0.1677
vn 0.9158 0.0000 -0.4017
vn 0.5045 0.0000 -0.8634
vn 0.0915 0.0000 -0.9958
vn -0.2631 0.0000 -0.9648
vn -0.6467 0.0000 -0.7627
vn -0.9716 0.0000 -0.2366
vn -0.9417 0.0000 0.3364
vn 0.0000 1.0000 -0.0000
vn -0.1736 0.0000 0.9848
vn 0.9848 0.0000 0.1736
vn 0.1736 0.0000 -0.9848
vn -0.9848 0.0000 -0.1736
vn -0.0069 0.9969 -0.0786
vn 0.0872 0.0000 0.9962
vn 0.9962 0.0000 -0.0872
vn -0.0872 0.0000 -0.9962
vn -0.9962 0.0000 0.0872
vn 0.0000 0.9929 0.1191
vn 0.0000 0.6015 0.7989
vn -0.0000 0.2748 -0.9615
vn 0.0000 0.0557 0.9984
vn 0.0000 0.1506 0.9886
vn -0.0000 -0.9659 -0.2588
vn 0.0000 0.9659 0.2588
vn 0.0000 -0.2588 0.9659
vn -0.0000 0.2588 -0.9659
vn -0.0000 -0.2588 0.9659
# 93 vertex normals

vt 0.0962 0.1055 0.0000
vt 0.0962 0.1097 0.0000
vt 0.0035 0.1097 0.0000
vt 0.0035 0.1055 0.0000
vt 0.1043 0.0027 0.0000
vt 0.1159 0.0027 0.0000
vt 0.1159 0.0953 0.0000
vt 0.1043 0.0953 0.0000
vt 0.1047 0.0994 0.0000
vt 0.0029 0.0027 0.0000
vt 0.0969 0.0027 0.0000
vt 0.0969 0.0919 0.0000
vt 0.0029 0.0919 0.0000
vt 0.0969 0.0960 0.0000
vt 0.0029 0.0960 0.0000
vt 0.3908 0.2068 0.0000
vt 0.3908 0.1142 0.0000
vt 0.4660 0.1142 0.0000
vt 0.4660 0.2068 0.0000
vt 0.0966 0.1024 0.0000
vt 0.0032 0.1024 0.0000
vt 0.0969 0.0994 0.0000
vt 0.0029 0.0994 0.0000
vt 0.0962 0.3949 0.0000
vt 0.0035 0.3949 0.0000
vt 0.0035 0.3906 0.0000
vt 0.0962 0.3906 0.0000
vt 0.4065 0.0027 0.0000
vt 0.4065 0.0953 0.0000
vt 0.3949 0.0953 0.0000
vt 0.3949 0.0027 0.0000
vt 0.3834 0.1142 0.0000
vt 0.3834 0.2068 0.0000
vt 0.1043 0.2068 0.0000
vt 0.1043 0.1142 0.0000
vt 0.4061 0.0994 0.0000
vt 0.3949 0.1067 0.0000
vt 0.1159 0.1067 0.0000
vt 0.0029 0.4977 0.0000
vt 0.0029 0.4085 0.0000
vt 0.0969 0.4085 0.0000
vt 0.0969 0.4977 0.0000
vt 0.0029 0.4044 0.0000
vt 0.0969 0.4044 0.0000
vt 0.4891 0.0953 0.0000
vt 0.4139 0.0953 0.0000
vt 0.4139 0.0027 0.0000
vt 0.4891 0.0027 0.0000
vt 0.0966 0.3980 0.0000
vt 0.0032 0.3980 0.0000
vt 0.0969 0.4010 0.0000
vt 0.0029 0.4010 0.0000
vt 0.3748 0.2937 0.0000
vt 0.1129 0.2937 0.0000
vt 0.1129 0.2142 0.0000
vt 0.3748 0.2142 0.0000
vt 0.3928 0.0930 0.0000
vt 0.1183 0.0930 0.0000
vt 0.1183 0.0190 0.0000
vt 0.3928 0.0190 0.0000
vt 0.3838 0.2118 0.0000
vt 0.3838 0.2965 0.0000
vt 0.3786 0.2962 0.0000
vt 0.3786 0.2118 0.0000
vt 0.3834 0.3003 0.0000
vt 0.3784 0.2989 0.0000
vt 0.3821 0.3030 0.0000
vt 0.3778 0.2999 0.0000
vt 0.3799 0.3051 0.0000
vt 0.3768 0.3009 0.0000
vt 0.3770 0.3065 0.0000
vt 0.3755 0.3015 0.0000
vt 0.3731 0.3069 0.0000
vt 0.3728 0.3018 0.0000
vt 0.1146 0.3069 0.0000
vt 0.1149 0.3018 0.0000
vt 0.1107 0.3065 0.0000
vt 0.1122 0.3015 0.0000
vt 0.1079 0.3051 0.0000
vt 0.1109 0.3009 0.0000
vt 0.1057 0.3030 0.0000
vt 0.1099 0.2999 0.0000
vt 0.1043 0.3003 0.0000
vt 0.1094 0.2989 0.0000
vt 0.1039 0.2965 0.0000
vt 0.1091 0.2962 0.0000
vt 0.1039 0.2118 0.0000
vt 0.1091 0.2118 0.0000
vt 0.3771 0.2133 0.0000
vt 0.3771 0.2949 0.0000
vt 0.3758 0.2947 0.0000
vt 0.3758 0.2131 0.0000
vt 0.3768 0.2975 0.0000
vt 0.3756 0.2970 0.0000
vt 0.3763 0.2985 0.0000
vt 0.3753 0.2976 0.0000
vt 0.3753 0.2994 0.0000
vt 0.3746 0.2982 0.0000
vt 0.3740 0.3000 0.0000
vt 0.3736 0.2987 0.0000
vt 0.3713 0.3003 0.0000
vt 0.3712 0.2990 0.0000
vt 0.1164 0.3003 0.0000
vt 0.1165 0.2990 0.0000
vt 0.1137 0.3000 0.0000
vt 0.1141 0.2987 0.0000
vt 0.1124 0.2994 0.0000
vt 0.1131 0.2982 0.0000
vt 0.1114 0.2985 0.0000
vt 0.1125 0.2976 0.0000
vt 0.1109 0.2975 0.0000
vt 0.1121 0.2970 0.0000
vt 0.1107 0.2949 0.0000
vt 0.1119 0.2947 0.0000
vt 0.1107 0.2133 0.0000
vt 0.1119 0.2131 0.0000
vt 0.3742 0.2965 0.0000
vt 0.3736 0.2971 0.0000
vt 0.3702 0.2978 0.0000
vt 0.3726 0.2976 0.0000
vt 0.3746 0.2959 0.0000
vt 0.1142 0.2971 0.0000
vt 0.1135 0.2965 0.0000
vt 0.1175 0.2978 0.0000
vt 0.1132 0.2959 0.0000
vt 0.1151 0.2976 0.0000
vt 0.1062 0.1024 0.0000
vt 0.1086 0.1047 0.0000
vt 0.1117 0.1062 0.0000
vt 0.4022 0.1047 0.0000
vt 0.3991 0.1062 0.0000
vt 0.4046 0.1024 0.0000
vt 0.1246 0.3843 0.0000
vt 0.1255 0.3871 0.0000
vt 0.1222 0.3866 0.0000
vt 0.1216 0.3833 0.0000
vt 0.1255 0.3907 0.0000
vt 0.1222 0.3912 0.0000
vt 0.1247 0.3933 0.0000
vt 0.1216 0.3940 0.0000
vt 0.1055 0.3865 0.0000
vt 0.1058 0.3836 0.0000
vt 0.1055 0.3912 0.0000
vt 0.1058 0.3945 0.0000
vt 0.1032 0.3870 0.0000
vt 0.1036 0.3841 0.0000
vt 0.1032 0.3907 0.0000
vt 0.1037 0.3938 0.0000
vt 0.1258 0.3828 0.0000
vt 0.1279 0.3862 0.0000
vt 0.1281 0.3912 0.0000
vt 0.1261 0.3944 0.0000
vt 0.1225 0.3962 0.0000
vt 0.1054 0.3975 0.0000
vt 0.1026 0.3955 0.0000
vt 0.1008 0.3919 0.0000
vt 0.1005 0.3864 0.0000
vt 0.1020 0.3828 0.0000
vt 0.1048 0.3811 0.0000
vt 0.1221 0.3807 0.0000
vt 0.1026 0.3775 0.0000
vt 0.1046 0.3775 0.0000
vt 0.1046 0.3759 0.0000
vt 0.1026 0.3759 0.0000
vt 0.1277 0.3842 0.0000
vt 0.1326 0.3842 0.0000
vt 0.1326 0.3827 0.0000
vt 0.1277 0.3827 0.0000
vt 0.1307 0.3799 0.0000
vt 0.1326 0.3799 0.0000
vt 0.1326 0.3782 0.0000
vt 0.1307 0.3782 0.0000
vt 0.1270 0.3799 0.0000
vt 0.1270 0.3782 0.0000
vt 0.1071 0.3799 0.0000
vt 0.1071 0.3782 0.0000
vt 0.1044 0.3799 0.0000
vt 0.1044 0.3782 0.0000
vt 0.1026 0.3799 0.0000
vt 0.1026 0.3782 0.0000
vt 0.1271 0.3820 0.0000
vt 0.1326 0.3820 0.0000
vt 0.1326 0.3805 0.0000
vt 0.1271 0.3805 0.0000
vt 0.1309 0.3775 0.0000
vt 0.1326 0.3775 0.0000
vt 0.1326 0.3759 0.0000
vt 0.1309 0.3759 0.0000
vt 0.1282 0.3775 0.0000
vt 0.1282 0.3759 0.0000
vt 0.1083 0.3775 0.0000
vt 0.1083 0.3759 0.0000
vt 0.1238 0.4106 0.0000
vt 0.1217 0.4123 0.0000
vt 0.1058 0.4116 0.0000
vt 0.1027 0.4100 0.0000
vt 0.1249 0.4075 0.0000
vt 0.1010 0.4072 0.0000
vt 0.1010 0.4029 0.0000
vt 0.1249 0.4027 0.0000
vt 0.1027 0.4001 0.0000
vt 0.1238 0.3996 0.0000
vt 0.1058 0.3985 0.0000
vt 0.1217 0.3979 0.0000
vt 0.4322 0.2447 0.0000
vt 0.4322 0.2764 0.0000
vt 0.3895 0.2764 0.0000
vt 0.3895 0.2447 0.0000
vt 0.4322 0.2436 0.0000
vt 0.3895 0.2436 0.0000
vt 0.3895 0.2119 0.0000
vt 0.4322 0.2119 0.0000
vt 0.4322 0.2793 0.0000
vt 0.3895 0.2793 0.0000
vt 0.3895 0.2789 0.0000
vt 0.4322 0.2789 0.0000
vt 0.4213 0.2807 0.0000
vt 0.3895 0.2807 0.0000
vt 0.3895 0.2804 0.0000
vt 0.4213 0.2804 0.0000
vt 0.4322 0.2779 0.0000
vt 0.3895 0.2779 0.0000
vt 0.3895 0.2775 0.0000
vt 0.4322 0.2775 0.0000
vt 0.4213 0.2822 0.0000
vt 0.3895 0.2822 0.0000
vt 0.3895 0.2818 0.0000
vt 0.4213 0.2818 0.0000
vt 0.1741 0.3094 0.0000
vt 0.1741 0.3341 0.0000
vt 0.1002 0.3341 0.0000
vt 0.1002 0.3094 0.0000
vt 0.1741 0.3607 0.0000
vt 0.1002 0.3607 0.0000
vt 0.1002 0.3360 0.0000
vt 0.1741 0.3360 0.0000
vt 0.1741 0.3657 0.0000
vt 0.1002 0.3657 0.0000
vt 0.1002 0.3627 0.0000
vt 0.1741 0.3627 0.0000
vt 0.1512 0.3737 0.0000
vt 0.1265 0.3737 0.0000
vt 0.1265 0.3726 0.0000
vt 0.1512 0.3706 0.0000
vt 0.1741 0.3688 0.0000
vt 0.1002 0.3688 0.0000
vt 0.1002 0.3677 0.0000
vt 0.1741 0.3677 0.0000
vt 0.1249 0.3738 0.0000
vt 0.1002 0.3738 0.0000
vt 0.1002 0.3707 0.0000
vt 0.1249 0.3727 0.0000
vt 0.2265 0.3458 0.0000
vt 0.2265 0.3572 0.0000
vt 0.2251 0.3572 0.0000
vt 0.2251 0.3458 0.0000
vt 0.2249 0.3572 0.0000
vt 0.2234 0.3572 0.0000
vt 0.2234 0.3551 0.0000
vt 0.2249 0.3551 0.0000
vt 0.2157 0.3458 0.0000
vt 0.2167 0.3472 0.0000
vt 0.2259 0.3347 0.0000
vt 0.2267 0.3449 0.0000
vt 0.2281 0.3449 0.0000
vt 0.2281 0.3464 0.0000
vt 0.2267 0.3464 0.0000
vt 0.2045 0.3573 0.0000
vt 0.2137 0.3448 0.0000
vt 0.2147 0.3462 0.0000
vt 0.2283 0.3348 0.0000
vt 0.2297 0.3348 0.0000
vt 0.2297 0.3572 0.0000
vt 0.2283 0.3572 0.0000
vt 0.2173 0.3570 0.0000
vt 0.2195 0.3573 0.0000
vt 0.2140 0.3347 0.0000
vt 0.2267 0.3356 0.0000
vt 0.2281 0.3356 0.0000
vt 0.2281 0.3572 0.0000
vt 0.2267 0.3572 0.0000
vt 0.2110 0.3347 0.0000
vt 0.2132 0.3350 0.0000
vt 0.2164 0.3573 0.0000
vt 0.2931 0.3183 0.0000
vt 0.2931 0.3194 0.0000
vt 0.1831 0.3194 0.0000
vt 0.1831 0.3183 0.0000
vt 0.2931 0.3161 0.0000
vt 0.1831 0.3161 0.0000
vt 0.1831 0.3150 0.0000
vt 0.2931 0.3150 0.0000
vt 0.2402 0.3283 0.0000
vt 0.2402 0.3294 0.0000
vt 0.1831 0.3294 0.0000
vt 0.1831 0.3283 0.0000
vt 0.1831 0.3327 0.0000
vt 0.1831 0.3316 0.0000
vt 0.2402 0.3316 0.0000
vt 0.2402 0.3327 0.0000
vt 0.1831 0.3250 0.0000
vt 0.2918 0.3250 0.0000
vt 0.2918 0.3260 0.0000
vt 0.1831 0.3260 0.0000
vt 0.1831 0.3227 0.0000
vt 0.1831 0.3217 0.0000
vt 0.2918 0.3217 0.0000
vt 0.2918 0.3227 0.0000
vt 0.2982 0.3294 0.0000
vt 0.2425 0.3294 0.0000
vt 0.2425 0.3283 0.0000
vt 0.2982 0.3283 0.0000
vt 0.2425 0.3316 0.0000
vt 0.2982 0.3316 0.0000
vt 0.2982 0.3327 0.0000
vt 0.2425 0.3327 0.0000
vt 0.1803 0.3121 0.0000
vt 0.2890 0.3121 0.0000
vt 0.2897 0.3115 0.0000
vt 0.1796 0.3115 0.0000
vt 0.2874 0.3106 0.0000
vt 0.1787 0.3106 0.0000
vt 0.1780 0.3100 0.0000
vt 0.2880 0.3100 0.0000
vt 0.2859 0.3092 0.0000
vt 0.1772 0.3092 0.0000
vt 0.1766 0.3086 0.0000
vt 0.2866 0.3086 0.0000
vt 0.1819 0.3136 0.0000
vt 0.2906 0.3136 0.0000
vt 0.2913 0.3129 0.0000
vt 0.1813 0.3129 0.0000
vt 0.1819 0.3684 0.0000
vt 0.1813 0.3690 0.0000
vt 0.1772 0.3640 0.0000
vt 0.1766 0.3647 0.0000
vt 0.1787 0.3654 0.0000
vt 0.1780 0.3661 0.0000
vt 0.1803 0.3670 0.0000
vt 0.1796 0.3676 0.0000
vt 0.1875 0.3462 0.0000
vt 0.1875 0.3348 0.0000
vt 0.1890 0.3348 0.0000
vt 0.1890 0.3462 0.0000
vt 0.1892 0.3348 0.0000
vt 0.1906 0.3348 0.0000
vt 0.1906 0.3369 0.0000
vt 0.1892 0.3369 0.0000
vt 0.1983 0.3462 0.0000
vt 0.1973 0.3448 0.0000
vt 0.1881 0.3573 0.0000
vt 0.1874 0.3471 0.0000
vt 0.1859 0.3471 0.0000
vt 0.1859 0.3455 0.0000
vt 0.1874 0.3455 0.0000
vt 0.2095 0.3347 0.0000
vt 0.2003 0.3472 0.0000
vt 0.1993 0.3458 0.0000
vt 0.1857 0.3572 0.0000
vt 0.1843 0.3572 0.0000
vt 0.1843 0.3348 0.0000
vt 0.1857 0.3348 0.0000
vt 0.1968 0.3350 0.0000
vt 0.1946 0.3347 0.0000
vt 0.2000 0.3573 0.0000
vt 0.1874 0.3563 0.0000
vt 0.1859 0.3563 0.0000
vt 0.1859 0.3348 0.0000
vt 0.1874 0.3348 0.0000
vt 0.2031 0.3573 0.0000
vt 0.2009 0.3570 0.0000
vt 0.1976 0.3347 0.0000
# 372 texture coords

g DeskA_001
usemtl _Human__1_default
s 2
f 1/1/1 2/2/2 3/3/2 4/4/1 
s 4
f 5/5/3 6/6/3 7/7/3 8/8/3 
f 8/8/3 7/7/3 9/9/3 
s 2
f 10/10/4 5/11/4 8/12/5 11/13/5 
f 11/13/5 8/12/5 9/14/6 12/15/6 
f 7/16/7 6/17/7 13/18/7 14/19/7 
f 15/20/8 1/1/1 4/4/1 16/21/8 
f 17/22/9 15/20/8 16/21/8 18/23/9 
f 9/14/6 17/22/9 18/23/9 12/15/6 
f 19/24/10 20/25/10 21/26/11 22/27/11 
f 21/26/11 3/3/2 2/2/2 22/27/11 
s 4
f 23/28/3 24/29/3 25/30/3 26/31/3 
s 1
f 27/32/3 28/33/3 14/34/3 13/35/3 
s 4
f 24/29/3 29/36/3 25/30/3 
f 22/37/3 2/38/3 7/7/3 25/30/3 
s 2
f 30/39/7 31/40/12 24/41/12 23/42/7 
f 31/40/12 32/43/13 29/44/13 24/41/12 
f 25/45/4 28/46/4 27/47/4 26/48/4 
f 33/49/14 34/50/14 20/25/10 19/24/10 
f 35/51/15 36/52/15 34/50/14 33/49/14 
f 29/44/13 32/43/13 36/52/15 35/51/15 
s 4
f 37/53/16 38/54/17 39/55/18 40/56/18 
s 8
f 14/57/19 28/58/19 25/59/19 7/60/19 
s off
f 10/61/18 11/62/18 41/63/18 42/64/18 
f 11/62/17 12/65/17 43/66/17 41/63/17 
f 12/65/18 18/67/18 44/68/18 43/66/18 
f 18/67/18 16/69/18 45/70/18 44/68/18 
f 16/69/18 4/71/18 46/72/18 45/70/18 
f 4/71/18 3/73/18 47/74/18 46/72/18 
f 3/73/18 21/75/18 48/76/18 47/74/18 
f 21/75/18 20/77/18 49/78/18 48/76/18 
f 20/77/18 34/79/18 50/80/18 49/78/18 
f 34/79/18 36/81/18 51/82/18 50/80/18 
f 36/81/18 32/83/18 52/84/18 51/82/18 
f 32/83/16 31/85/16 53/86/16 52/84/16 
f 31/85/18 30/87/18 54/88/18 53/86/18 
s 2
f 42/89/20 41/90/21 37/91/21 40/92/20 
f 41/90/21 43/93/22 55/94/22 37/91/21 
f 43/93/22 44/95/23 56/96/23 55/94/22 
f 44/95/23 45/97/24 57/98/24 56/96/23 
f 45/97/24 46/99/25 58/100/25 57/98/24 
f 46/99/25 47/101/26 59/102/26 58/100/25 
f 47/101/26 48/103/27 60/104/27 59/102/26 
f 48/103/27 49/105/28 61/106/28 60/104/27 
f 49/105/28 50/107/29 62/108/29 61/106/28 
f 50/107/29 51/109/30 63/110/30 62/108/29 
f 51/109/30 52/111/31 64/112/31 63/110/30 
f 52/111/31 53/113/32 38/114/32 64/112/31 
f 53/113/32 54/115/33 39/116/33 38/114/32 
s 4
f 37/53/16 56/117/16 57/118/16 59/119/17 
f 57/118/16 58/120/18 59/119/17 
f 37/53/16 55/121/16 56/117/16 
f 62/122/17 63/123/17 38/54/17 60/124/17 
f 63/123/17 64/125/17 38/54/17 
f 60/124/17 61/126/18 62/122/17 
f 59/119/17 60/124/17 38/54/17 37/53/16 
f 7/7/3 17/127/3 9/9/3 
f 7/7/3 15/128/3 17/127/3 
f 7/7/3 1/129/3 15/128/3 
f 7/7/3 2/38/3 1/129/3 
f 33/130/3 19/131/3 25/30/3 
f 19/131/3 22/37/3 25/30/3 
f 29/36/3 35/132/3 25/30/3 
f 35/132/3 33/130/3 25/30/3 
s 1
f 65/133/34 66/134/35 67/135/36 68/136/37 
f 66/134/35 69/137/38 70/138/39 67/135/36 
f 69/137/38 71/139/40 72/140/41 70/138/39 
f 68/136/37 67/135/36 73/141/42 74/142/43 
f 67/135/36 70/138/39 75/143/44 73/141/42 
f 70/138/39 72/140/41 76/144/45 75/143/44 
f 74/142/43 73/141/42 77/145/46 78/146/47 
f 73/141/42 75/143/44 79/147/48 77/145/46 
f 75/143/44 76/144/45 80/148/49 79/147/48 
f 81/149/50 82/150/51 66/134/35 65/133/34 
f 82/150/51 83/151/52 69/137/38 66/134/35 
f 83/151/52 84/152/53 71/139/40 69/137/38 
f 84/152/53 85/153/54 72/140/41 71/139/40 
f 85/153/54 86/154/55 76/144/45 72/140/41 
f 86/154/55 87/155/56 80/148/49 76/144/45 
f 87/155/56 88/156/57 79/147/48 80/148/49 
f 88/156/57 89/157/58 77/145/46 79/147/48 
f 89/157/58 90/158/59 78/146/47 77/145/46 
f 90/158/59 91/159/60 74/142/43 78/146/47 
f 91/159/60 92/160/61 68/136/37 74/142/43 
f 92/160/61 81/149/50 65/133/34 68/136/37 
s 4
f 82/161/62 81/162/63 93/163/63 94/164/62 
f 83/165/64 82/166/62 94/167/62 95/168/64 
f 84/169/65 83/170/64 95/171/64 96/172/65 
f 85/173/66 84/169/65 96/172/65 97/174/66 
f 86/175/67 85/173/66 97/174/66 98/176/67 
f 87/177/68 86/175/67 98/176/67 99/178/68 
f 88/179/69 87/177/68 99/178/68 100/180/69 
f 89/181/70 88/182/69 100/183/69 101/184/70 
f 90/185/71 89/186/70 101/187/70 102/188/71 
f 91/189/72 90/185/71 102/188/71 103/190/72 
f 92/191/73 91/189/72 103/190/72 104/192/73 
f 81/162/63 92/191/73 104/192/73 93/163/63 
s 1
f 99/193/19 98/194/19 97/195/19 96/196/19 
f 100/197/19 99/193/19 96/196/19 95/198/19 
f 100/197/19 95/198/19 94/199/19 101/200/19 
f 101/200/19 94/199/19 93/201/19 102/202/19 
f 102/202/19 93/201/19 104/203/19 103/204/19 
s 2
f 105/205/19 106/206/19 107/207/19 108/208/19 
s 4
f 109/209/74 110/210/74 111/211/74 112/212/74 
s 8
f 105/213/75 108/214/75 110/215/75 109/216/75 
s 16
f 108/217/76 107/218/76 111/219/76 110/220/76 
s 32
f 107/221/77 106/222/77 112/223/77 111/224/77 
s 64
f 106/225/78 105/226/78 109/227/78 112/228/78 
s 2
f 113/229/19 114/230/19 115/231/19 116/232/19 
s 4
f 117/233/79 118/234/79 119/235/79 120/236/79 
s 8
f 113/237/80 116/238/80 118/239/80 117/240/80 
s 16
f 116/241/81 115/242/81 119/243/81 118/244/81 
s 32
f 115/245/82 114/246/82 120/247/82 119/248/82 
s 64
f 114/249/83 113/250/83 117/251/83 120/252/83 
s 2
f 121/253/19 122/254/19 123/255/19 124/256/19 
s 4
f 125/257/84 126/258/84 127/259/84 128/260/84 
s 16
f 129/261/7 130/262/7 122/263/7 
s off
f 131/264/85 130/265/85 129/266/85 132/267/85 
s 64
f 123/268/4 131/269/4 132/270/4 
s 8
f 128/271/86 127/272/86 123/273/86 122/274/86 
s 16
f 125/275/7 128/276/7 122/263/7 130/262/7 
f 122/263/7 121/277/7 129/261/7 
s 32
f 126/278/87 125/279/87 130/265/87 131/264/87 
f 121/280/88 124/281/88 132/267/88 129/266/88 
s 64
f 123/268/4 127/282/4 126/283/4 131/269/4 
f 132/270/4 124/284/4 123/268/4 
s 2
f 133/285/89 134/286/89 135/287/89 136/288/89 
s 4
f 137/289/90 138/290/90 139/291/90 140/292/90 
s 16
f 137/293/7 140/294/7 134/295/7 133/296/7 
s 64
f 139/297/4 138/298/4 136/299/4 135/300/4 
s 2
f 141/301/90 142/302/90 143/303/90 144/304/90 
s 4
f 145/305/89 146/306/89 147/307/89 148/308/89 
s 16
f 142/309/4 148/310/4 147/311/4 143/312/4 
s 64
f 144/313/7 146/314/7 145/315/7 141/316/7 
s 1
f 144/317/91 143/318/91 133/319/91 136/320/91 
f 142/321/92 141/322/92 135/323/92 134/324/92 
f 145/325/92 148/326/92 140/327/92 139/328/92 
f 147/329/91 146/330/93 138/331/93 137/332/91 
f 143/333/91 147/329/91 137/332/91 133/334/91 
f 148/326/92 142/335/92 134/336/92 140/327/92 
f 141/322/92 145/337/92 139/338/92 135/323/92 
f 146/339/93 144/317/91 136/320/91 138/340/93 
s 2
f 149/341/19 150/342/19 151/343/19 152/344/19 
s 4
f 153/345/84 154/346/84 155/347/84 156/348/84 
s 16
f 157/349/7 158/350/7 150/351/7 
s off
f 159/352/85 158/353/85 157/354/85 160/355/85 
s 64
f 151/356/4 159/357/4 160/358/4 
s 8
f 156/359/86 155/360/86 151/361/86 150/362/86 
s 16
f 153/363/7 156/364/7 150/351/7 158/350/7 
f 150/351/7 149/365/7 157/349/7 
s 32
f 154/366/87 153/367/87 158/353/87 159/352/87 
f 149/368/88 152/369/88 160/355/88 157/354/88 
s 64
f 151/356/4 155/370/4 154/371/4 159/357/4 
f 160/358/4 152/372/4 151/356/4 
# 132 polygons - 22 triangles

#
# object DeskScreenA_001
#

v  112.7039 44.5394 14.5631
v  78.6415 44.5394 14.5631
v  78.6415 61.7913 19.1857
v  112.7039 61.7913 19.1857
v  78.6415 44.4834 14.7722
v  112.7039 44.4834 14.7722
v  112.7039 61.7352 19.3948
v  78.6415 61.7352 19.3948
# 8 vertices

vn -0.0000 0.2588 -0.9659
vn 0.0000 -0.2588 0.9659
# 2 vertex normals

vt 0.0000 0.2378 0.0000
vt 1.0000 0.2378 0.0000
vt 1.0000 0.7622 0.0000
vt 0.0000 0.7622 0.0000
# 4 texture coords

g DeskScreenA_001
usemtl scherm
s 8
f 161/373/94 162/374/94 163/375/94 164/376/94 
s 32
f 165/374/95 166/373/95 167/376/95 168/375/95 
# 2 polygons

