# 3ds Max Wavefront OBJ Exporter v0.97b - (c)2007 guruware
# File Created: 03.03.2016 13:02:24

mtllib CeilingA_001.mtl

#
# object CeilingA_001
#

v  150.0000 -38.4393 150.0000
v  150.0000 -38.4393 -150.0000
v  150.0000 -13.3177 -150.0000
v  150.0000 -13.3177 150.0000
v  -150.0000 -38.4393 -150.0000
v  -150.0000 -38.4393 150.0000
v  -150.0000 -13.3177 150.0000
v  -150.0000 -13.3177 -150.0000
v  112.3266 -18.4393 -116.9600
v  112.3266 -18.4393 116.9600
v  116.9600 -18.4393 112.3266
v  116.9600 -18.4393 -112.3266
v  -112.3266 -13.3177 -116.9600
v  112.3266 -13.3177 -116.9600
v  112.3266 -13.3177 116.9600
v  -112.3266 -13.3177 116.9600
v  -116.9600 -13.3177 112.3266
v  -116.9600 -13.3177 -112.3266
v  116.9600 -13.3177 -112.3266
v  116.9600 -13.3177 112.3266
v  -112.3266 -18.4393 116.9600
v  -116.9600 -18.4393 112.3266
v  -116.9600 -18.4393 -112.3266
v  -112.3266 -18.4393 -116.9600
# 24 vertices

vn 1.0000 0.0000 -0.0000
vn -1.0000 0.0000 -0.0000
vn 0.0000 -0.0000 -1.0000
vn 0.0000 0.0000 1.0000
vn 0.0000 1.0000 -0.0000
vn 0.0000 -1.0000 0.0000
vn -1.0000 -0.0000 -0.0000
vn -0.0000 -0.0000 -1.0000
vn 1.0000 0.0000 0.0000
vn -0.7071 -0.0000 -0.7071
vn 0.7071 -0.0000 -0.7071
vn -0.7071 0.0000 0.7071
vn 0.7071 0.0000 0.7071
# 13 vertex normals

vt 0.1511 0.9979 0.0000
vt 0.1511 0.8664 0.0000
vt 0.1621 0.8664 0.0000
vt 0.1621 0.9979 0.0000
vt 0.1480 0.8664 0.0000
vt 0.1480 0.9979 0.0000
vt 0.1370 0.9979 0.0000
vt 0.1370 0.8664 0.0000
vt 0.1904 0.8664 0.0000
vt 0.1904 0.9979 0.0000
vt 0.1794 0.9979 0.0000
vt 0.1794 0.8664 0.0000
vt 0.1652 0.9979 0.0000
vt 0.1652 0.8664 0.0000
vt 0.1763 0.8664 0.0000
vt 0.1763 0.9979 0.0000
vt 0.1148 0.1024 0.0000
vt 0.1148 0.7630 0.0000
vt 0.1017 0.7499 0.0000
vt 0.1017 0.1155 0.0000
vt 0.1339 0.9979 0.0000
vt 0.0024 0.9979 0.0000
vt 0.0024 0.8664 0.0000
vt 0.1339 0.8664 0.0000
vt 0.7539 0.0967 0.0000
vt 0.1100 0.0967 0.0000
vt 0.0020 0.0020 0.0000
vt 0.8619 0.0020 0.0000
vt 0.1100 0.7672 0.0000
vt 0.7539 0.7672 0.0000
vt 0.8619 0.8619 0.0000
vt 0.0020 0.8619 0.0000
vt 0.7672 0.7539 0.0000
vt 0.7672 0.1100 0.0000
vt 0.0967 0.1100 0.0000
vt 0.0967 0.7539 0.0000
vt 0.9141 0.0020 0.0000
vt 0.9141 0.8618 0.0000
vt 0.8945 0.8618 0.0000
vt 0.8945 0.0020 0.0000
vt 0.9193 0.8618 0.0000
vt 0.9193 0.0020 0.0000
vt 0.9389 0.0020 0.0000
vt 0.9389 0.8618 0.0000
vt 0.8696 0.8618 0.0000
vt 0.8696 0.0020 0.0000
vt 0.8892 0.0020 0.0000
vt 0.8892 0.8618 0.0000
vt 0.9889 0.0923 0.0000
vt 0.9889 0.1174 0.0000
vt 0.9692 0.1174 0.0000
vt 0.9692 0.0923 0.0000
vt 0.9691 0.0271 0.0000
vt 0.9691 0.0020 0.0000
vt 0.9887 0.0020 0.0000
vt 0.9887 0.0271 0.0000
vt 0.9442 0.0020 0.0000
vt 0.9638 0.0020 0.0000
vt 0.9638 0.8618 0.0000
vt 0.9442 0.8618 0.0000
vt 0.9887 0.0323 0.0000
vt 0.9887 0.0574 0.0000
vt 0.9691 0.0574 0.0000
vt 0.9691 0.0323 0.0000
vt 0.9887 0.0627 0.0000
vt 0.9887 0.0878 0.0000
vt 0.9691 0.0878 0.0000
vt 0.9691 0.0627 0.0000
vt 0.7622 0.1155 0.0000
vt 0.7622 0.7499 0.0000
vt 0.7491 0.7630 0.0000
vt 0.7491 0.1024 0.0000
# 72 texture coords

g CeilingA_001
usemtl 02___Default
s 1
f 1/1/1 2/2/1 3/3/1 4/4/1 
f 5/5/2 6/6/2 7/7/2 8/8/2 
s 2
f 8/9/3 3/10/3 2/11/3 5/12/3 
f 4/13/4 7/14/4 6/15/4 1/16/4 
s 1
f 9/17/5 10/18/5 11/19/5 12/20/5 
s 4
f 5/21/6 2/22/6 1/23/6 6/24/6 
f 13/25/5 14/26/5 3/27/5 8/28/5 
f 15/29/5 16/30/5 7/31/5 4/32/5 
f 8/28/5 7/31/5 17/33/5 18/34/5 
f 4/32/5 3/27/5 19/35/5 20/36/5 
s 2
f 12/37/7 11/38/7 20/39/7 19/40/7 
f 10/41/8 21/42/8 16/43/8 15/44/8 
f 22/45/9 23/46/9 18/47/9 17/48/9 
s 4
f 15/29/5 4/32/5 20/36/5 
f 17/33/5 7/31/5 16/30/5 
s 8
f 11/49/10 10/50/10 15/51/10 20/52/10 
f 21/53/11 22/54/11 17/55/11 16/56/11 
s 2
f 13/57/4 24/58/4 9/59/4 14/60/4 
s 8
f 9/61/12 12/62/12 19/63/12 14/64/12 
f 13/65/13 18/66/13 23/67/13 24/68/13 
s off
f 8/28/5 18/34/5 13/25/5 
f 14/26/5 19/35/5 3/27/5 
s 1
f 23/69/5 22/70/5 21/71/5 24/72/5 
f 24/72/5 21/71/5 10/18/5 9/17/5 
# 20 polygons - 4 triangles

