# 3ds Max Wavefront OBJ Exporter v0.97b - (c)2007 guruware
# File Created: 11.02.2016 10:49:03

mtllib CornerA_001.mtl

#
# object CornerA_001
#

v  160.0000 149.1250 -160.0002
v  160.0000 -149.1250 -160.0003
v  -160.0000 -149.1250 -160.0003
v  -160.0000 149.1250 -160.0002
v  -110.0000 -149.1250 -140.0003
v  -102.1050 -149.1250 -139.7419
v  -102.1050 149.1250 -139.7418
v  -110.0000 149.1250 -140.0002
v  139.7410 -149.1250 102.1051
v  140.0000 -149.1250 110.0002
v  140.0000 149.1250 110.0002
v  139.7410 149.1250 102.1052
v  140.0000 -149.1250 160.0002
v  140.0000 149.1250 160.0002
v  160.0000 149.1250 160.0002
v  160.0000 -149.1250 160.0002
v  104.6440 -149.1250 24.6441
v  110.0440 -149.1250 30.4091
v  110.0440 149.1250 30.4092
v  104.6440 149.1250 24.6442
v  115.0550 -149.1250 36.5161
v  115.0550 149.1250 36.5162
v  119.6560 -149.1250 42.9361
v  119.6560 149.1250 42.9362
v  123.8280 -149.1250 49.6441
v  123.8280 149.1250 49.6442
v  127.5510 -149.1250 56.6111
v  127.5510 149.1250 56.6112
v  130.8110 -149.1250 63.8061
v  130.8110 149.1250 63.8062
v  133.5940 -149.1250 71.1982
v  133.5940 149.1250 71.1982
v  135.8870 -149.1250 78.7571
v  135.8870 149.1250 78.7572
v  137.6800 -149.1250 86.4501
v  137.6800 149.1250 86.4502
v  138.9670 -149.1250 94.2441
v  138.9670 149.1250 94.2442
v  -24.6450 -149.1250 -104.6450
v  -24.6450 149.1250 -104.6449
v  -30.4100 -149.1250 -110.0448
v  -30.4100 149.1250 -110.0447
v  -36.5160 -149.1250 -115.0559
v  -36.5160 149.1250 -115.0558
v  -42.9370 -149.1250 -119.6569
v  -42.9370 149.1250 -119.6568
v  -49.6450 -149.1250 -123.8282
v  -49.6450 149.1250 -123.8281
v  -56.6110 -149.1250 -127.5518
v  -56.6110 149.1250 -127.5517
v  -63.8060 -149.1250 -130.8118
v  -63.8060 149.1250 -130.8117
v  -71.1990 -149.1250 -133.5942
v  -71.1990 149.1250 -133.5941
v  -78.7580 -149.1250 -135.8872
v  -78.7580 149.1250 -135.8871
v  -86.4510 -149.1250 -137.6809
v  -86.4510 149.1250 -137.6808
v  -94.2440 -149.1250 -138.9676
v  -94.2440 149.1250 -138.9675
v  -160.0000 -149.1250 -140.0003
v  -160.0000 149.1250 -140.0002
# 62 vertices

vn 0.0000 0.0000 -1.0000
vn -0.0327 -0.0000 0.9994
vn -0.0654 -0.0000 0.9978
vn -0.9978 -0.0000 0.0654
vn -0.9994 -0.0000 0.0327
vn -1.0000 0.0000 -0.0000
vn 1.0000 0.0000 -0.0000
vn 0.0000 -0.0000 1.0000
vn -0.7298 -0.0000 0.6836
vn -0.7518 -0.0000 0.6593
vn -0.7933 -0.0000 0.6087
vn -0.8315 -0.0000 0.5556
vn -0.8660 -0.0000 0.5000
vn -0.8968 -0.0000 0.4423
vn -0.9239 -0.0000 0.3827
vn -0.9469 -0.0000 0.3214
vn -0.9659 -0.0000 0.2588
vn -0.9808 -0.0000 0.1951
vn -0.9914 -0.0000 0.1305
vn -0.7071 -0.0000 0.7071
vn -0.6593 -0.0000 0.7518
vn -0.6836 -0.0000 0.7298
vn -0.6087 -0.0000 0.7933
vn -0.5556 -0.0000 0.8315
vn -0.5000 -0.0000 0.8660
vn -0.4423 -0.0000 0.8968
vn -0.3827 -0.0000 0.9239
vn -0.3214 -0.0000 0.9469
vn -0.2588 -0.0000 0.9659
vn -0.1951 -0.0000 0.9808
vn -0.1305 -0.0000 0.9914
vn 0.0000 -1.0000 -0.0000
vn 0.0000 1.0000 0.0000
# 33 vertex normals

vt 0.0000 117.4210 0.0000
vt 0.0000 0.0000 0.0000
vt -125.9840 0.0000 0.0000
vt -125.9840 117.4210 0.0000
vt 110.1070 0.0000 0.0000
vt 106.9970 0.0000 0.0000
vt 106.9970 117.4210 0.0000
vt 110.1070 117.4210 0.0000
vt 23.0420 0.0000 0.0000
vt 19.9321 0.0000 0.0000
vt 19.9321 117.4210 0.0000
vt 23.0420 117.4210 0.0000
vt 19.6850 0.0000 0.0000
vt 19.6850 117.4210 0.0000
vt -0.0000 0.0000 0.0000
vt 7.8740 117.4210 0.0000
vt 7.8740 0.0000 0.0000
vt 53.7919 0.0000 0.0000
vt 50.6820 0.0000 0.0000
vt 50.6820 117.4210 0.0000
vt 53.7919 117.4210 0.0000
vt 51.9157 0.0000 0.0000
vt 48.8059 0.0000 0.0000
vt 48.8059 117.4210 0.0000
vt 51.9157 117.4210 0.0000
vt 49.8239 0.0000 0.0000
vt 46.7140 0.0000 0.0000
vt 46.7140 117.4210 0.0000
vt 49.8239 117.4210 0.0000
vt 47.5254 0.0000 0.0000
vt 44.4155 0.0000 0.0000
vt 44.4155 117.4210 0.0000
vt 47.5254 117.4210 0.0000
vt 45.0300 0.0000 0.0000
vt 41.9201 0.0000 0.0000
vt 41.9201 117.4210 0.0000
vt 45.0300 117.4210 0.0000
vt 42.3484 0.0000 0.0000
vt 39.2386 0.0000 0.0000
vt 39.2386 117.4210 0.0000
vt 42.3484 117.4210 0.0000
vt 39.4922 0.0000 0.0000
vt 36.3823 0.0000 0.0000
vt 36.3823 117.4210 0.0000
vt 39.4922 117.4210 0.0000
vt 36.4735 0.0000 0.0000
vt 33.3636 0.0000 0.0000
vt 33.3636 117.4210 0.0000
vt 36.4735 117.4210 0.0000
vt 33.3053 0.0000 0.0000
vt 30.1954 0.0000 0.0000
vt 30.1954 117.4210 0.0000
vt 33.3053 117.4210 0.0000
vt 30.0011 0.0000 0.0000
vt 26.8912 0.0000 0.0000
vt 26.8912 117.4210 0.0000
vt 30.0011 117.4210 0.0000
vt 26.5751 0.0000 0.0000
vt 23.4653 0.0000 0.0000
vt 23.4653 117.4210 0.0000
vt 26.5751 117.4210 0.0000
vt 125.0770 0.0000 0.0000
vt 53.0917 0.0000 0.0000
vt 53.0917 117.4210 0.0000
vt 125.0770 117.4210 0.0000
vt 127.3910 0.0000 0.0000
vt 124.2810 0.0000 0.0000
vt 124.2810 117.4210 0.0000
vt 127.3910 117.4210 0.0000
vt 128.5050 0.0000 0.0000
vt 125.3950 0.0000 0.0000
vt 125.3950 117.4210 0.0000
vt 128.5050 117.4210 0.0000
vt 129.0750 0.0000 0.0000
vt 125.9650 0.0000 0.0000
vt 125.9650 117.4210 0.0000
vt 129.0750 117.4210 0.0000
vt 129.0990 0.0000 0.0000
vt 125.9890 0.0000 0.0000
vt 125.9890 117.4210 0.0000
vt 129.0990 117.4210 0.0000
vt 128.5770 0.0000 0.0000
vt 125.4670 0.0000 0.0000
vt 125.4670 117.4210 0.0000
vt 128.5770 117.4210 0.0000
vt 127.5110 0.0000 0.0000
vt 124.4010 0.0000 0.0000
vt 124.4010 117.4210 0.0000
vt 127.5110 117.4210 0.0000
vt 125.9050 0.0000 0.0000
vt 122.7950 0.0000 0.0000
vt 122.7950 117.4210 0.0000
vt 125.9050 117.4210 0.0000
vt 123.7670 0.0000 0.0000
vt 120.6570 0.0000 0.0000
vt 120.6570 117.4210 0.0000
vt 123.7670 117.4210 0.0000
vt 121.1060 0.0000 0.0000
vt 117.9960 0.0000 0.0000
vt 117.9960 117.4210 0.0000
vt 121.1060 117.4210 0.0000
vt 117.9330 0.0000 0.0000
vt 114.8230 0.0000 0.0000
vt 114.8230 117.4210 0.0000
vt 117.9330 117.4210 0.0000
vt 114.2610 0.0000 0.0000
vt 111.1510 0.0000 0.0000
vt 111.1510 117.4210 0.0000
vt 114.2610 117.4210 0.0000
vt 125.9840 0.0000 0.0000
vt 106.2990 0.0000 0.0000
vt 106.2990 117.4210 0.0000
vt 125.9840 117.4210 0.0000
vt 118.1100 0.0000 0.0000
vt 118.1100 117.4210 0.0000
# 115 texture coords

g CornerA_001
usemtl 01___Default
s off
f 1/1/1 2/2/1 3/3/1 4/4/1 
f 5/5/2 6/6/3 7/7/3 8/8/2 
f 9/9/4 10/10/5 11/11/5 12/12/4 
f 10/13/6 13/2/6 14/1/6 11/14/6 
f 1/4/7 15/1/7 16/15/7 2/3/7 
f 15/1/8 14/16/8 13/17/8 16/15/8 
f 17/18/9 18/19/10 19/20/10 20/21/9 
f 18/22/10 21/23/11 22/24/11 19/25/10 
f 21/26/11 23/27/12 24/28/12 22/29/11 
f 23/30/12 25/31/13 26/32/13 24/33/12 
f 25/34/13 27/35/14 28/36/14 26/37/13 
f 27/38/14 29/39/15 30/40/15 28/41/14 
f 29/42/15 31/43/16 32/44/16 30/45/15 
f 31/46/16 33/47/17 34/48/17 32/49/16 
f 33/50/17 35/51/18 36/52/18 34/53/17 
f 35/54/18 37/55/19 38/56/19 36/57/18 
f 37/58/19 9/59/4 12/60/4 38/61/19 
f 39/62/20 17/63/20 20/64/20 40/65/20 
f 41/66/21 39/67/22 40/68/22 42/69/21 
f 43/70/23 41/71/21 42/72/21 44/73/23 
f 45/74/24 43/75/23 44/76/23 46/77/24 
f 47/78/25 45/79/24 46/80/24 48/81/25 
f 49/82/26 47/83/25 48/84/25 50/85/26 
f 51/86/27 49/87/26 50/88/26 52/89/27 
f 53/90/28 51/91/27 52/92/27 54/93/28 
f 55/94/29 53/95/28 54/96/28 56/97/29 
f 57/98/30 55/99/29 56/100/29 58/101/30 
f 59/102/31 57/103/30 58/104/30 60/105/31 
f 6/106/3 59/107/31 60/108/31 7/109/3 
f 61/110/8 5/111/8 8/112/8 62/113/8 
f 4/113/6 3/110/6 61/114/6 62/115/6 
f 5/5/32 61/110/32 3/110/32 6/106/32 
f 59/102/32 6/106/32 3/110/32 57/98/32 
f 55/94/32 57/98/32 3/110/32 2/2/32 
f 53/90/32 55/94/32 2/2/32 51/86/32 
f 49/82/32 51/86/32 2/2/32 47/78/32 
f 45/74/32 47/78/32 2/2/32 43/70/32 
f 41/66/32 43/70/32 2/2/32 39/62/32 
f 17/18/32 39/62/32 2/2/32 18/22/32 
f 21/26/32 18/22/32 2/2/32 23/30/32 
f 25/34/32 23/30/32 2/2/32 27/38/32 
f 29/42/32 27/38/32 2/2/32 31/46/32 
f 33/50/32 31/46/32 2/2/32 35/54/32 
f 37/58/32 35/54/32 2/2/32 9/9/32 
f 10/13/32 9/9/32 2/2/32 13/17/32 
f 2/2/32 16/15/32 13/17/32 
f 11/11/33 14/1/33 15/1/33 12/60/33 
f 38/56/33 12/60/33 15/1/33 36/52/33 
f 34/48/33 36/52/33 15/1/33 1/4/33 
f 32/44/33 34/48/33 1/4/33 30/40/33 
f 28/36/33 30/40/33 1/4/33 26/32/33 
f 24/28/33 26/32/33 1/4/33 22/24/33 
f 19/20/33 22/24/33 1/4/33 20/64/33 
f 40/68/33 20/64/33 1/4/33 42/72/33 
f 44/76/33 42/72/33 1/4/33 46/80/33 
f 48/84/33 46/80/33 1/4/33 50/88/33 
f 52/92/33 50/88/33 1/4/33 54/96/33 
f 56/100/33 54/96/33 1/4/33 58/104/33 
f 60/108/33 58/104/33 1/4/33 7/7/33 
f 8/112/33 7/7/33 1/4/33 4/4/33 
f 8/112/33 4/4/33 62/115/33 
# 59 polygons - 2 triangles

