# 3ds Max Wavefront OBJ Exporter v0.97b - (c)2007 guruware
# File Created: 11.02.2016 10:50:00

mtllib FloorA_002.mtl

#
# object FloorA_002
#

v  -150.0000 10.0000 -150.0000
v  -150.0000 10.0000 -0.0000
v  -129.9701 10.0000 -0.0100
v  -110.1500 10.0000 2.8400
v  -90.9301 10.0000 8.4700
v  -72.7101 10.0000 16.7900
v  150.0000 10.0000 150.0000
v  -55.8701 10.0000 27.6200
v  -40.7301 10.0000 40.7300
v  -27.6201 10.0000 55.8600
v  -16.7900 10.0000 72.7100
v  -8.4701 10.0000 90.9301
v  -2.8401 10.0000 110.1500
v  0.0099 10.0000 129.9700
v  0.0000 10.0000 150.0000
v  150.0000 10.0000 -150.0000
v  -129.9701 -10.0000 -0.0100
v  -150.0000 -10.0000 -0.0000
v  -150.0000 -10.0000 -150.0000
v  -110.1500 -10.0000 2.8400
v  -90.9301 -10.0000 8.4700
v  -72.7101 -10.0000 16.7900
v  -55.8701 -10.0000 27.6200
v  -40.7301 -10.0000 40.7300
v  -27.6201 -10.0000 55.8600
v  -16.7900 -10.0000 72.7100
v  150.0000 -10.0000 -150.0000
v  -8.4701 -10.0000 90.9301
v  -2.8401 -10.0000 110.1500
v  0.0099 -10.0000 129.9700
v  0.0000 -10.0000 150.0000
v  150.0000 -10.0000 150.0000
# 32 vertices

vn 0.0000 1.0000 0.0000
vn 0.0000 -1.0000 -0.0000
vn 1.0000 0.0000 -0.0000
vn 0.0000 0.0000 -1.0000
vn 0.0000 -0.0000 1.0000
vn -0.9975 -0.0000 0.0711
vn -1.0000 0.0000 -0.0003
vn -0.9772 -0.0000 0.2123
vn -0.9370 -0.0000 0.3493
vn -0.8777 -0.0000 0.4791
vn -0.8006 -0.0000 0.5992
vn -0.7071 -0.0000 0.7071
vn -0.5992 -0.0000 0.8006
vn -0.4791 -0.0000 0.8777
vn -0.3493 -0.0000 0.9370
vn -0.2123 -0.0000 0.9772
vn -0.0711 -0.0000 0.9975
vn 0.0003 -0.0000 1.0000
vn -1.0000 0.0000 -0.0000
# 19 vertex normals

vt -0.0000 0.0000 0.0000
vt -0.0000 59.0551 0.0000
vt 7.8843 59.0527 0.0000
vt 15.6887 60.1728 0.0000
vt 23.2541 62.3926 0.0000
vt 30.4264 65.6669 0.0000
vt 118.1100 118.1100 0.0000
vt 37.0595 69.9290 0.0000
vt 43.0183 75.0920 0.0000
vt 48.1813 81.0507 0.0000
vt 52.4433 87.6838 0.0000
vt 55.7176 94.8561 0.0000
vt 57.9374 102.4220 0.0000
vt 59.0575 110.2260 0.0000
vt 59.0551 118.1100 0.0000
vt 118.1100 0.0000 0.0000
vt -7.8843 59.0527 0.0000
vt 0.0000 59.0551 0.0000
vt 0.0000 0.0000 0.0000
vt -15.6887 60.1728 0.0000
vt -23.2541 62.3926 0.0000
vt -30.4264 65.6669 0.0000
vt -37.0595 69.9290 0.0000
vt -43.0183 75.0920 0.0000
vt -48.1813 81.0507 0.0000
vt -52.4433 87.6838 0.0000
vt -118.1100 0.0000 0.0000
vt -55.7176 94.8561 0.0000
vt -57.9374 102.4220 0.0000
vt -59.0575 110.2260 0.0000
vt -59.0551 118.1100 0.0000
vt -118.1100 118.1100 0.0000
vt -0.0000 7.8740 0.0000
vt 118.1100 7.8740 0.0000
vt 0.0000 7.8740 0.0000
vt -118.1100 7.8740 0.0000
vt -59.0551 7.8740 0.0000
vt -59.0551 0.0000 0.0000
vt -110.2080 0.0000 0.0000
vt -118.0920 0.0000 0.0000
vt -118.0920 7.8740 0.0000
vt -110.2080 7.8740 0.0000
vt -109.6140 0.0000 0.0000
vt -117.4980 0.0000 0.0000
vt -117.4980 7.8740 0.0000
vt -109.6140 7.8740 0.0000
vt -106.7060 0.0000 0.0000
vt -114.5900 0.0000 0.0000
vt -114.5900 7.8740 0.0000
vt -106.7060 7.8740 0.0000
vt -101.5440 0.0000 0.0000
vt -109.4290 0.0000 0.0000
vt -109.4290 7.8740 0.0000
vt -101.5440 7.8740 0.0000
vt -94.2332 0.0000 0.0000
vt -102.1180 0.0000 0.0000
vt -102.1180 7.8740 0.0000
vt -94.2332 7.8740 0.0000
vt -84.9222 0.0000 0.0000
vt -92.8065 0.0000 0.0000
vt -92.8065 7.8740 0.0000
vt -84.9222 7.8740 0.0000
vt -73.8007 0.0000 0.0000
vt -81.6850 0.0000 0.0000
vt -81.6850 7.8740 0.0000
vt -73.8007 7.8740 0.0000
vt -61.0954 0.0000 0.0000
vt -68.9797 0.0000 0.0000
vt -68.9797 7.8740 0.0000
vt -61.0954 7.8740 0.0000
vt -47.0650 0.0000 0.0000
vt -54.9494 0.0000 0.0000
vt -54.9494 7.8740 0.0000
vt -47.0650 7.8740 0.0000
vt -31.9955 0.0000 0.0000
vt -39.8799 0.0000 0.0000
vt -39.8799 7.8740 0.0000
vt -31.9955 7.8740 0.0000
vt -16.1939 0.0000 0.0000
vt -24.0783 0.0000 0.0000
vt -24.0783 7.8740 0.0000
vt -16.1939 7.8740 0.0000
vt 0.0180 0.0000 0.0000
vt -7.8664 0.0000 0.0000
vt -7.8664 7.8740 0.0000
vt 0.0180 7.8740 0.0000
# 86 texture coords

g FloorA_002
usemtl 01___Default
s off
f 1/1/1 2/2/1 3/3/1 4/4/1 
f 1/1/1 4/4/1 5/5/1 6/6/1 
f 7/7/1 1/1/1 6/6/1 8/8/1 
f 7/7/1 8/8/1 9/9/1 10/10/1 
f 7/7/1 10/10/1 11/11/1 12/12/1 
f 7/7/1 12/12/1 13/13/1 14/14/1 
f 14/14/1 15/15/1 7/7/1 
f 1/1/1 7/7/1 16/16/1 
f 17/17/2 18/18/2 19/19/2 20/20/2 
f 21/21/2 20/20/2 19/19/2 22/22/2 
f 23/23/2 22/22/2 19/19/2 24/24/2 
f 25/25/2 24/24/2 19/19/2 26/26/2 
f 26/26/2 19/19/2 27/27/2 28/28/2 
f 29/29/2 28/28/2 27/27/2 30/30/2 
f 31/31/2 30/30/2 27/27/2 32/32/2 
f 16/33/3 7/34/3 32/16/3 27/1/3 
f 1/35/4 16/34/4 27/16/4 19/19/4 
f 7/36/5 15/37/5 31/38/5 32/27/5 
f 30/39/6 31/40/7 15/41/7 14/42/6 
f 29/43/8 30/44/6 14/45/6 13/46/8 
f 28/47/9 29/48/8 13/49/8 12/50/9 
f 26/51/10 28/52/9 12/53/9 11/54/10 
f 25/55/11 26/56/10 11/57/10 10/58/11 
f 24/59/12 25/60/11 10/61/11 9/62/12 
f 23/63/13 24/64/12 9/65/12 8/66/13 
f 22/67/14 23/68/13 8/69/13 6/70/14 
f 21/71/15 22/72/14 6/73/14 5/74/15 
f 20/75/16 21/76/15 5/77/15 4/78/16 
f 17/79/17 20/80/16 4/81/16 3/82/17 
f 18/83/18 17/84/17 3/85/17 2/86/18 
f 1/35/19 19/19/19 18/38/19 2/37/19 
# 29 polygons - 2 triangles

