# 3ds Max Wavefront OBJ Exporter v0.97b - (c)2007 guruware
# File Created: 16.02.2016 12:54:35

#
# object LightA_003
#

v  1.6562 0.0000 -5.5867
v  1.6471 0.0000 -5.6224
v  1.6957 0.0000 -5.6224
v  1.6957 0.0000 -5.5732
v  2.0890 0.0000 -5.6224
v  2.0890 0.0000 -5.5732
v  2.1391 0.0000 -5.6224
v  2.1278 0.0000 -5.5867
v  1.6471 0.0000 -5.7270
v  1.6957 0.0000 -5.7270
v  2.0890 0.0000 -5.7270
v  2.1391 0.0000 -5.7270
v  1.6562 0.0000 -5.7637
v  1.6957 0.0000 -5.7727
v  2.0890 0.0000 -5.7727
v  2.1278 0.0000 -5.7615
v  1.6562 0.0552 -5.5867
v  1.6957 0.0552 -5.5732
v  1.6957 0.0676 -5.6224
v  1.6471 0.0552 -5.6224
v  2.0890 0.0552 -5.5732
v  2.0890 0.0676 -5.6224
v  2.1278 0.0552 -5.5867
v  2.1391 0.0552 -5.6224
v  1.6957 0.0676 -5.7270
v  1.6471 0.0552 -5.7270
v  1.6957 0.0378 -5.6224
v  2.0890 0.0378 -5.6224
v  2.0890 0.0378 -5.7270
v  1.6957 0.0378 -5.7270
v  2.1391 0.0552 -5.7270
v  2.0890 0.0676 -5.7270
v  1.6957 0.0552 -5.7727
v  1.6562 0.0552 -5.7637
v  2.0890 0.0552 -5.7727
v  2.1278 0.0552 -5.7615
# 36 vertices

vn 0.0000 -1.0000 -0.0000
vn -0.1670 0.9740 0.1532
vn -0.0369 0.9691 0.2441
vn -0.1372 0.9812 0.1358
vn -0.2472 0.9685 0.0286
vn 0.0684 0.9761 0.2062
vn 0.1587 0.9740 0.1617
vn 0.0000 1.0000 -0.0000
vn 0.1990 0.9777 0.0674
vn -0.1634 0.9712 -0.1732
vn -0.1989 0.9776 -0.0690
vn 0.2397 0.9702 -0.0349
vn 0.1319 0.9802 -0.1476
vn -0.0695 0.9742 -0.2146
vn 0.0342 0.9646 -0.2614
vn 0.1641 0.9726 -0.1645
vn -0.3232 0.0000 0.9463
vn -0.1638 0.0000 0.9865
vn 0.1663 0.0000 0.9861
vn 0.3280 0.0000 0.9447
vn 0.9537 0.0000 0.3007
vn 0.9884 0.0000 0.1521
vn 0.9876 0.0000 -0.1571
vn 0.9506 0.0000 -0.3103
vn 0.2780 0.0000 -0.9606
vn 0.1404 0.0000 -0.9901
vn -0.1117 0.0000 -0.9937
vn -0.2220 0.0000 -0.9750
vn -0.9712 0.0000 -0.2381
vn -0.9928 0.0000 -0.1199
vn -0.9924 0.0000 0.1232
vn -0.9696 0.0000 0.2446
vn 0.0000 0.0000 -1.0000
vn -1.0000 0.0000 -0.0000
vn 0.0000 0.0000 1.0000
vn 1.0000 0.0000 -0.0000
# 36 vertex normals

vt 1.0000 0.0000 0.0000
vt 1.0000 0.3333 0.0000
vt 0.6667 0.3333 0.0000
vt 0.6667 0.0000 0.0000
vt 0.3333 0.3333 0.0000
vt 0.3333 0.0000 0.0000
vt -0.0000 0.3333 0.0000
vt -0.0000 0.0000 0.0000
vt 1.0000 0.6667 0.0000
vt 0.6667 0.6667 0.0000
vt 0.3333 0.6667 0.0000
vt -0.0000 0.6667 0.0000
vt 1.0000 1.0000 0.0000
vt 0.6667 1.0000 0.0000
vt 0.3333 1.0000 0.0000
vt -0.0000 1.0000 0.0000
vt 0.0000 0.0000 0.0000
vt 0.0000 0.3333 0.0000
vt 0.0000 0.6667 0.0000
vt 0.0000 1.0000 0.0000
# 20 texture coords

g LightA_003
s 2
f 1/1/1 2/2/1 3/3/1 4/4/1 
f 4/4/1 3/3/1 5/5/1 6/6/1 
f 6/6/1 5/5/1 7/7/1 8/8/1 
f 2/2/1 9/9/1 10/10/1 3/3/1 
f 3/3/1 10/10/1 11/11/1 5/5/1 
f 5/5/1 11/11/1 12/12/1 7/7/1 
f 9/9/1 13/13/1 14/14/1 10/10/1 
f 10/10/1 14/14/1 15/15/1 11/11/1 
f 11/11/1 15/15/1 16/16/1 12/12/1 
s 4
f 17/17/2 18/6/3 19/5/4 20/18/5 
f 18/6/3 21/4/6 22/3/7 19/5/4 
f 21/4/6 23/1/8 24/2/9 22/3/7 
f 20/18/5 19/5/4 25/11/10 26/19/11 
f 27/5/8 28/3/8 29/10/8 30/11/8 
f 22/3/7 24/2/9 31/9/12 32/10/13 
f 26/19/11 25/11/10 33/15/14 34/20/8 
f 25/11/10 32/10/13 35/14/15 33/15/14 
f 32/10/13 31/9/12 36/13/16 35/14/15 
s 8
f 1/17/17 4/6/18 18/15/18 17/20/17 
f 4/6/18 6/4/19 21/14/19 18/15/18 
f 6/4/19 8/1/20 23/13/20 21/14/19 
s 16
f 8/17/21 7/6/22 24/15/22 23/20/21 
f 7/6/22 12/4/23 31/14/23 24/15/22 
f 12/4/23 16/1/24 36/13/24 31/14/23 
s 32
f 16/17/25 15/6/26 35/15/26 36/20/25 
f 15/6/26 14/4/27 33/14/27 35/15/26 
f 14/4/27 13/1/28 34/13/28 33/14/27 
s 64
f 13/17/29 9/6/30 26/15/30 34/20/29 
f 9/6/30 2/4/31 20/14/31 26/15/30 
f 2/4/31 1/1/32 17/13/32 20/14/31 
s off
f 19/5/33 22/3/33 28/3/33 27/5/33 
f 22/3/34 32/10/34 29/10/34 28/3/34 
f 32/10/35 25/11/35 30/11/35 29/10/35 
f 25/11/36 19/5/36 27/5/36 30/11/36 
# 34 polygons

