# 3ds Max Wavefront OBJ Exporter v0.97b - (c)2007 guruware
# File Created: 16.02.2016 12:53:44

#
# object PotA_001
#

v  -1.6037 0.0000 -9.0057
v  -1.6037 0.0000 -9.3797
v  -0.4785 0.0000 -9.3797
v  -0.4785 0.0000 -9.0057
v  -1.5828 0.2248 -9.0266
v  -0.4994 0.2248 -9.0266
v  -0.4994 0.2248 -9.3588
v  -1.5828 0.2248 -9.3588
v  -0.4785 0.2164 -9.0057
v  -1.6037 0.2164 -9.0057
v  -1.6152 0.2164 -8.9942
v  -0.4670 0.2164 -8.9942
v  -0.4670 0.2953 -8.9942
v  -1.6152 0.2953 -8.9942
v  -0.4785 0.2164 -9.3797
v  -0.4670 0.2164 -9.3912
v  -0.4670 0.2953 -9.3912
v  -1.6037 0.2164 -9.3797
v  -1.6152 0.2164 -9.3912
v  -1.6152 0.2953 -9.3912
v  -0.4994 0.2953 -9.0266
v  -1.5828 0.2953 -9.0266
v  -1.5828 0.2953 -9.3588
v  -0.4994 0.2953 -9.3588
# 24 vertices

vn 0.0000 -1.0000 -0.0000
vn 0.0000 1.0000 -0.0000
vn 0.0000 0.0000 1.0000
vn 1.0000 0.0000 -0.0000
vn 0.0000 0.0000 -1.0000
vn -1.0000 0.0000 -0.0000
# 6 vertex normals

vt 1.0000 0.0000 0.0000
vt 1.0000 1.0000 0.0000
vt 0.0000 1.0000 0.0000
vt 0.0000 0.0000 0.0000
vt 1.0000 0.5000 0.0000
vt 0.0000 0.5000 0.0000
# 6 texture coords

g PotA_001
s 2
f 1/1/1 2/2/1 3/3/1 4/4/1 
s 4
f 5/4/2 6/1/2 7/2/2 8/3/2 
s 8
f 1/4/3 4/1/3 9/5/3 10/6/3 
f 11/6/3 12/5/3 13/2/3 14/3/3 
s 16
f 4/4/4 3/1/4 15/5/4 9/6/4 
f 12/6/4 16/5/4 17/2/4 13/3/4 
s 32
f 3/4/5 2/1/5 18/5/5 15/6/5 
f 16/6/5 19/5/5 20/2/5 17/3/5 
s 64
f 2/4/6 1/1/6 10/5/6 18/6/6 
f 19/6/6 11/5/6 14/2/6 20/3/6 
s off
f 21/2/2 22/3/2 14/3/2 13/2/2 
f 22/2/2 23/3/2 20/3/2 14/2/2 
f 23/2/2 24/3/2 17/3/2 20/2/2 
f 24/2/2 21/3/2 13/3/2 17/2/2 
f 10/6/1 9/5/1 12/5/1 11/6/1 
f 9/6/1 15/5/1 16/5/1 12/6/1 
f 15/6/1 18/5/1 19/5/1 16/6/1 
f 18/6/1 10/5/1 11/5/1 19/6/1 
f 22/4/5 21/1/5 6/1/5 5/4/5 
f 21/1/6 24/2/6 7/2/6 6/1/6 
f 24/2/3 23/3/3 8/3/3 7/2/3 
f 23/3/4 22/4/4 5/4/4 8/3/4 
# 22 polygons

