# 3ds Max Wavefront OBJ Exporter v0.97b - (c)2007 guruware
# File Created: 11.02.2016 10:51:19

mtllib RampA_001.mtl

#
# object RampA_001
#

v  -150.0000 -134.0972 404.5396
v  -150.0000 -135.2683 409.4896
v  150.0000 -135.2683 409.4896
v  150.0000 -134.0972 404.5396
v  150.0000 138.9646 -449.9994
v  -150.0000 138.9646 -449.9994
v  -150.0000 158.6356 -449.9994
v  150.0000 158.6356 -449.9994
v  -150.0000 -158.6356 449.9995
v  150.0000 -158.6356 449.9995
v  150.0000 -138.9650 449.9995
v  -150.0000 -138.9650 449.9995
v  -150.0000 -158.6356 438.5996
v  150.0000 -158.6356 438.5996
v  -150.0000 -158.4039 433.3396
v  150.0000 -158.4039 433.3396
v  -150.0000 -157.9665 427.5496
v  150.0000 -157.9665 427.5496
v  -150.0000 -157.3478 421.7695
v  150.0000 -157.3478 421.7695
v  -150.0000 -156.5486 416.0195
v  150.0000 -156.5486 416.0195
v  -150.0000 -155.5697 410.2996
v  150.0000 -155.5697 410.2996
v  -150.0000 -154.4124 404.6195
v  150.0000 -154.4124 404.6195
v  -150.0000 -153.0778 398.9796
v  150.0000 -153.0778 398.9796
v  -150.0000 -151.5676 393.3995
v  150.0000 -151.5676 393.3995
v  -150.0000 -149.8833 387.8695
v  150.0000 -149.8833 387.8695
v  -150.0000 -148.0839 382.5696
v  150.0000 -148.0839 382.5696
v  -150.0000 130.9166 -397.4304
v  150.0000 130.9166 -397.4304
v  -150.0000 132.3746 -401.7204
v  150.0000 132.3746 -401.7204
v  -150.0000 133.6466 -405.8904
v  150.0000 133.6466 -405.8904
v  -150.0000 134.7866 -410.1104
v  150.0000 134.7866 -410.1104
v  -150.0000 135.7946 -414.3604
v  150.0000 135.7946 -414.3604
v  -150.0000 136.6686 -418.6504
v  150.0000 136.6686 -418.6504
v  -150.0000 137.4076 -422.9704
v  150.0000 137.4076 -422.9704
v  -150.0000 138.0106 -427.3124
v  150.0000 138.0106 -427.3124
v  -150.0000 138.4776 -431.6754
v  150.0000 138.4776 -431.6754
v  -150.0000 138.8086 -436.0524
v  150.0000 138.8086 -436.0524
v  -150.0000 138.9646 -439.6034
v  150.0000 138.9646 -439.6034
v  -150.0000 158.6356 -439.1024
v  150.0000 158.6356 -439.1024
v  -150.0000 158.4416 -434.6964
v  150.0000 158.4416 -434.6964
v  -150.0000 158.0576 -429.6094
v  150.0000 158.0576 -429.6094
v  -150.0000 157.5146 -424.5394
v  150.0000 157.5146 -424.5394
v  -150.0000 156.8126 -419.4904
v  150.0000 156.8126 -419.4904
v  -150.0000 155.9536 -414.4704
v  150.0000 155.9536 -414.4704
v  -150.0000 154.9386 -409.4904
v  150.0000 154.9386 -409.4904
v  -150.0000 153.7676 -404.5403
v  150.0000 153.7676 -404.5403
v  -150.0000 152.4416 -399.6404
v  150.0000 152.4416 -399.6404
v  -150.0000 150.9646 -394.7904
v  150.0000 150.9646 -394.7904
v  -150.0000 149.3356 -390.0005
v  150.0000 149.3356 -390.0005
v  -150.0000 -129.6650 389.9995
v  150.0000 -129.6650 389.9995
v  -150.0000 -131.2940 394.7896
v  150.0000 -131.2940 394.7896
v  -150.0000 -132.7719 399.6395
v  150.0000 -132.7719 399.6395
v  -150.0000 -136.2840 414.4796
v  150.0000 -136.2840 414.4796
v  -150.0000 -137.1429 419.4896
v  150.0000 -137.1429 419.4896
v  -150.0000 -137.8443 424.5396
v  150.0000 -137.8443 424.5396
v  -150.0000 -138.3872 429.6096
v  150.0000 -138.3872 429.6096
v  -150.0000 -138.7711 434.6996
v  150.0000 -138.7711 434.6996
v  -150.0000 -138.9650 439.1096
v  150.0000 -138.9650 439.1096
# 96 vertices

vn 0.0000 0.9596 0.2813
vn 0.0000 0.9691 0.2467
vn 0.0000 0.0000 -1.0000
vn 0.0000 -0.0000 1.0000
vn 0.0000 -1.0000 -0.0000
vn 0.0000 -0.9976 -0.0689
vn 0.0000 -0.9987 -0.0508
vn 0.0000 -0.9945 -0.1049
vn 0.0000 -0.9900 -0.1408
vn 0.0000 -0.9843 -0.1764
vn 0.0000 -0.9773 -0.2117
vn 0.0000 -0.9691 -0.2467
vn 0.0000 -0.9596 -0.2813
vn 0.0000 -0.9489 -0.3154
vn 0.0000 -0.9371 -0.3491
vn 0.0000 -0.9307 -0.3657
vn 0.0000 -0.9241 -0.3822
vn 0.0000 1.0000 0.0000
vn 0.0000 0.9987 0.0508
vn 0.0000 0.9976 0.0689
vn 0.0000 0.9945 0.1049
vn 0.0000 0.9900 0.1408
vn 0.0000 0.9843 0.1764
vn 0.0000 0.9773 0.2117
vn 0.0000 0.9489 0.3154
vn 0.0000 0.9371 0.3491
vn 0.0000 0.9307 0.3657
vn 0.0000 0.9241 0.3822
vn -1.0000 0.0000 -0.0000
vn 1.0000 -0.0000 0.0000
# 30 vertex normals

vt 0.0000 -240.2090 0.0000
vt 0.0000 -242.2180 0.0000
vt 118.1100 -242.2180 0.0000
vt 118.1100 -240.2090 0.0000
vt -118.1100 -0.4532 0.0000
vt 0.0000 -0.4532 0.0000
vt 0.0000 7.8740 0.0000
vt -118.1100 7.8740 0.0000
vt 0.0000 -126.4370 0.0000
vt 118.1100 -126.4370 0.0000
vt 118.1100 -118.1100 0.0000
vt 0.0000 -118.1100 0.0000
vt 0.0000 -231.7340 0.0000
vt -118.1100 -231.7340 0.0000
vt -118.1100 -236.2200 0.0000
vt 0.0000 -236.2200 0.0000
vt 0.0000 -235.3790 0.0000
vt -118.1100 -235.3790 0.0000
vt -118.1100 -237.4530 0.0000
vt 0.0000 -237.4530 0.0000
vt 0.0000 -236.8390 0.0000
vt -118.1100 -236.8390 0.0000
vt -118.1100 -239.1280 0.0000
vt 0.0000 -239.1280 0.0000
vt 0.0000 -238.0290 0.0000
vt -118.1100 -238.0290 0.0000
vt -118.1100 -240.3180 0.0000
vt 0.0000 -240.3180 0.0000
vt 0.0000 -238.9470 0.0000
vt -118.1100 -238.9470 0.0000
vt -118.1100 -241.2370 0.0000
vt 0.0000 -241.2370 0.0000
vt 0.0000 -239.5940 0.0000
vt -118.1100 -239.5940 0.0000
vt -118.1100 -241.8840 0.0000
vt 0.0000 -241.8840 0.0000
vt 0.0000 -239.9680 0.0000
vt -118.1100 -239.9680 0.0000
vt -118.1100 -242.2580 0.0000
vt 0.0000 -242.2580 0.0000
vt 0.0000 -240.0680 0.0000
vt -118.1100 -240.0680 0.0000
vt -118.1100 -242.3580 0.0000
vt 0.0000 -242.3580 0.0000
vt 0.0000 -239.8950 0.0000
vt -118.1100 -239.8950 0.0000
vt -118.1100 -242.1850 0.0000
vt 0.0000 -242.1850 0.0000
vt 0.0000 -239.4490 0.0000
vt -118.1100 -239.4490 0.0000
vt -118.1100 -241.7390 0.0000
vt 0.0000 -241.7390 0.0000
vt 0.0000 -238.8000 0.0000
vt -118.1100 -238.8000 0.0000
vt -118.1100 -241.0200 0.0000
vt 0.0000 -241.0200 0.0000
vt 0.0000 89.5333 0.0000
vt -118.1100 89.5333 0.0000
vt -118.1100 -239.4840 0.0000
vt 0.0000 -239.4840 0.0000
vt 0.0000 91.9689 0.0000
vt -118.1100 91.9689 0.0000
vt -118.1100 90.1700 0.0000
vt 0.0000 90.1700 0.0000
vt 0.0000 94.8931 0.0000
vt -118.1100 94.8931 0.0000
vt -118.1100 93.1643 0.0000
vt 0.0000 93.1643 0.0000
vt 0.0000 97.7108 0.0000
vt -118.1100 97.7108 0.0000
vt -118.1100 95.9820 0.0000
vt 0.0000 95.9820 0.0000
vt 0.0000 100.4190 0.0000
vt -118.1100 100.4190 0.0000
vt -118.1100 98.6899 0.0000
vt 0.0000 98.6899 0.0000
vt 0.0000 103.0140 0.0000
vt -118.1100 103.0140 0.0000
vt -118.1100 101.2850 0.0000
vt 0.0000 101.2850 0.0000
vt 0.0000 105.4930 0.0000
vt -118.1100 105.4930 0.0000
vt -118.1100 103.7640 0.0000
vt 0.0000 103.7640 0.0000
vt 0.0000 107.8530 0.0000
vt -118.1100 107.8530 0.0000
vt -118.1100 106.1250 0.0000
vt 0.0000 106.1250 0.0000
vt 0.0000 110.0930 0.0000
vt -118.1100 110.0930 0.0000
vt -118.1100 108.3640 0.0000
vt 0.0000 108.3640 0.0000
vt 0.0000 112.2080 0.0000
vt -118.1100 112.2080 0.0000
vt -118.1100 110.4790 0.0000
vt 0.0000 110.4790 0.0000
vt 0.0000 113.8680 0.0000
vt -118.1100 113.8680 0.0000
vt -118.1100 112.4690 0.0000
vt 0.0000 112.4690 0.0000
vt 0.0000 118.1100 0.0000
vt -118.1100 118.1100 0.0000
vt -118.1100 114.0170 0.0000
vt 0.0000 114.0170 0.0000
vt 0.0000 113.8200 0.0000
vt 118.1100 113.8200 0.0000
vt 118.1100 118.1100 0.0000
vt 0.0000 114.0650 0.0000
vt 0.0000 112.3290 0.0000
vt 118.1100 112.3290 0.0000
vt 118.1100 114.0650 0.0000
vt 0.0000 112.3480 0.0000
vt 0.0000 110.3390 0.0000
vt 118.1100 110.3390 0.0000
vt 118.1100 112.3480 0.0000
vt 0.0000 110.2330 0.0000
vt 0.0000 108.2240 0.0000
vt 118.1100 108.2240 0.0000
vt 118.1100 110.2330 0.0000
vt 0.0000 107.9940 0.0000
vt 0.0000 105.9840 0.0000
vt 118.1100 105.9840 0.0000
vt 118.1100 107.9940 0.0000
vt 0.0000 105.6330 0.0000
vt 0.0000 103.6240 0.0000
vt 118.1100 103.6240 0.0000
vt 118.1100 105.6330 0.0000
vt 0.0000 103.1540 0.0000
vt 0.0000 101.1450 0.0000
vt 118.1100 101.1450 0.0000
vt 118.1100 103.1540 0.0000
vt 0.0000 100.5590 0.0000
vt 0.0000 98.5497 0.0000
vt 118.1100 98.5497 0.0000
vt 118.1100 100.5590 0.0000
vt 0.0000 97.8510 0.0000
vt 0.0000 95.8418 0.0000
vt 118.1100 95.8418 0.0000
vt 118.1100 97.8510 0.0000
vt 0.0000 95.0333 0.0000
vt 0.0000 93.0241 0.0000
vt 118.1100 93.0241 0.0000
vt 118.1100 95.0333 0.0000
vt 0.0000 92.1091 0.0000
vt 0.0000 90.0999 0.0000
vt 118.1100 90.0999 0.0000
vt 118.1100 92.1091 0.0000
vt 0.0000 89.6034 0.0000
vt 0.0000 -239.4140 0.0000
vt 118.1100 -239.4140 0.0000
vt 118.1100 89.6034 0.0000
vt 0.0000 -238.8710 0.0000
vt 0.0000 -240.8800 0.0000
vt 118.1100 -240.8800 0.0000
vt 118.1100 -238.8710 0.0000
vt 0.0000 -239.5890 0.0000
vt 0.0000 -241.5990 0.0000
vt 118.1100 -241.5990 0.0000
vt 118.1100 -239.5890 0.0000
vt 0.0000 -240.0360 0.0000
vt 0.0000 -242.0450 0.0000
vt 118.1100 -242.0450 0.0000
vt 118.1100 -240.0360 0.0000
vt 0.0000 -240.1080 0.0000
vt 0.0000 -242.1170 0.0000
vt 118.1100 -242.1170 0.0000
vt 118.1100 -240.1080 0.0000
vt 0.0000 -239.7340 0.0000
vt 0.0000 -241.7440 0.0000
vt 118.1100 -241.7440 0.0000
vt 118.1100 -239.7340 0.0000
vt 0.0000 -239.0880 0.0000
vt 0.0000 -241.0970 0.0000
vt 118.1100 -241.0970 0.0000
vt 118.1100 -239.0880 0.0000
vt 0.0000 -238.1690 0.0000
vt 0.0000 -240.1780 0.0000
vt 118.1100 -240.1780 0.0000
vt 118.1100 -238.1690 0.0000
vt 0.0000 -236.9790 0.0000
vt 0.0000 -238.9880 0.0000
vt 118.1100 -238.9880 0.0000
vt 118.1100 -236.9790 0.0000
vt 0.0000 -235.5190 0.0000
vt 0.0000 -237.2560 0.0000
vt 118.1100 -237.2560 0.0000
vt 118.1100 -235.5190 0.0000
vt 0.0000 -231.9310 0.0000
vt 118.1100 -236.2200 0.0000
vt 118.1100 -231.9310 0.0000
# 190 texture coords

g RampA_001
usemtl 01___Default
s off
f 1/1/1 2/2/2 3/3/2 4/4/1 
f 5/5/3 6/6/3 7/7/3 8/8/3 
f 9/9/4 10/10/4 11/11/4 12/12/4 
f 13/13/5 14/14/5 10/15/5 9/16/5 
f 15/17/6 16/18/6 14/19/7 13/20/7 
f 17/21/8 18/22/8 16/23/6 15/24/6 
f 19/25/9 20/26/9 18/27/8 17/28/8 
f 21/29/10 22/30/10 20/31/9 19/32/9 
f 23/33/11 24/34/11 22/35/10 21/36/10 
f 25/37/12 26/38/12 24/39/11 23/40/11 
f 27/41/13 28/42/13 26/43/12 25/44/12 
f 29/45/14 30/46/14 28/47/13 27/48/13 
f 31/49/15 32/50/15 30/51/14 29/52/14 
f 33/53/16 34/54/16 32/55/15 31/56/15 
f 35/57/17 36/58/17 34/59/17 33/60/17 
f 37/61/15 38/62/15 36/63/16 35/64/16 
f 39/65/14 40/66/14 38/67/15 37/68/15 
f 41/69/13 42/70/13 40/71/14 39/72/14 
f 43/73/12 44/74/12 42/75/13 41/76/13 
f 45/77/11 46/78/11 44/79/12 43/80/12 
f 47/81/10 48/82/10 46/83/11 45/84/11 
f 49/85/9 50/86/9 48/87/10 47/88/10 
f 51/89/8 52/90/8 50/91/9 49/92/9 
f 53/93/6 54/94/6 52/95/8 51/96/8 
f 55/97/7 56/98/7 54/99/6 53/100/6 
f 6/101/5 5/102/5 56/103/5 55/104/5 
f 57/105/18 58/106/18 8/107/18 7/101/18 
f 57/108/19 59/109/20 60/110/20 58/111/19 
f 59/112/20 61/113/21 62/114/21 60/115/20 
f 61/116/21 63/117/22 64/118/22 62/119/21 
f 63/120/22 65/121/23 66/122/23 64/123/22 
f 65/124/23 67/125/24 68/126/24 66/127/23 
f 67/128/24 69/129/2 70/130/2 68/131/24 
f 69/132/2 71/133/1 72/134/1 70/135/2 
f 71/136/1 73/137/25 74/138/25 72/139/1 
f 73/140/25 75/141/26 76/142/26 74/143/25 
f 75/144/26 77/145/27 78/146/27 76/147/26 
f 77/148/28 79/149/28 80/150/28 78/151/28 
f 79/152/27 81/153/26 82/154/26 80/155/27 
f 81/156/26 83/157/25 84/158/25 82/159/26 
f 83/160/25 1/161/1 4/162/1 84/163/25 
f 2/164/2 85/165/24 86/166/24 3/167/2 
f 85/168/24 87/169/23 88/170/23 86/171/24 
f 87/172/23 89/173/22 90/174/22 88/175/23 
f 89/176/22 91/177/21 92/178/21 90/179/22 
f 91/180/21 93/181/20 94/182/20 92/183/21 
f 93/184/20 95/185/19 96/186/19 94/187/20 
f 95/188/18 12/16/18 11/189/18 96/190/18 
f 79/152/29 77/148/29 75/144/29 71/136/29 
f 75/144/29 73/140/29 71/136/29 
f 63/120/29 79/152/29 71/136/29 67/128/29 
f 71/136/29 69/132/29 67/128/29 
f 67/128/29 65/124/29 63/120/29 
f 37/68/29 79/152/29 63/120/29 39/72/29 
f 41/76/29 39/72/29 63/120/29 43/80/29 
f 45/84/29 43/80/29 63/120/29 47/88/29 
f 49/92/29 47/88/29 63/120/29 51/96/29 
f 53/100/29 51/96/29 63/120/29 7/101/29 
f 59/112/29 7/101/29 63/120/29 61/116/29 
f 59/112/29 57/108/29 7/101/29 
f 55/104/29 53/100/29 7/101/29 6/6/29 
f 81/156/29 79/152/29 37/68/29 35/64/29 
f 19/32/29 81/156/29 35/64/29 27/48/29 
f 31/56/29 27/48/29 35/64/29 33/60/29 
f 31/56/29 29/52/29 27/48/29 
f 23/40/29 19/32/29 27/48/29 25/44/29 
f 23/40/29 21/36/29 19/32/29 
f 83/160/29 81/156/29 19/32/29 1/1/29 
f 2/164/29 1/1/29 19/32/29 85/168/29 
f 87/172/29 85/168/29 19/32/29 89/176/29 
f 91/180/29 89/176/29 19/32/29 93/184/29 
f 9/16/29 93/184/29 19/32/29 15/24/29 
f 19/32/29 17/28/29 15/24/29 
f 15/24/29 13/20/29 9/16/29 
f 95/188/29 93/184/29 9/16/29 12/12/29 
f 96/186/30 11/189/30 10/10/30 94/182/30 
f 92/178/30 94/182/30 10/10/30 90/174/30 
f 88/170/30 90/174/30 10/10/30 86/166/30 
f 3/3/30 86/166/30 10/10/30 4/162/30 
f 84/158/30 4/162/30 10/10/30 82/154/30 
f 80/150/30 82/154/30 10/10/30 8/8/30 
f 36/58/30 8/8/30 10/10/30 28/42/30 
f 20/26/30 28/42/30 10/10/30 16/18/30 
f 10/10/30 14/14/30 16/18/30 
f 16/18/30 18/22/30 20/26/30 
f 24/34/30 28/42/30 20/26/30 22/30/30 
f 24/34/30 26/38/30 28/42/30 
f 32/50/30 36/58/30 28/42/30 30/46/30 
f 32/50/30 34/54/30 36/58/30 
f 8/8/30 36/58/30 38/62/30 40/66/30 
f 8/8/30 40/66/30 42/70/30 44/74/30 
f 8/8/30 44/74/30 46/78/30 48/82/30 
f 8/8/30 48/82/30 50/86/30 52/90/30 
f 8/8/30 52/90/30 54/94/30 56/98/30 
f 56/98/30 5/102/30 8/8/30 
f 72/134/30 80/150/30 8/8/30 64/118/30 
f 60/110/30 64/118/30 8/8/30 58/106/30 
f 60/110/30 62/114/30 64/118/30 
f 68/126/30 72/134/30 64/118/30 66/122/30 
f 68/126/30 70/130/30 72/134/30 
f 76/142/30 80/150/30 72/134/30 74/138/30 
f 76/142/30 78/146/30 80/150/30 
# 86 polygons - 16 triangles

