# 3ds Max Wavefront OBJ Exporter v0.97b - (c)2007 guruware
# File Created: 16.02.2016 12:52:49

#
# object SeatingA_002
#

v  1.2900 0.0019 -8.1669
v  1.2900 0.0412 -8.1621
v  1.8898 0.0412 -8.1621
v  1.8898 0.0019 -8.1669
v  1.2900 1.2056 -8.1550
v  1.8898 1.2056 -8.1550
v  1.8898 1.1933 -8.2135
v  1.2900 1.1933 -8.2135
v  1.3904 0.0019 -8.0237
v  1.3904 0.0019 -7.9499
v  1.2900 0.0019 -7.9499
v  1.4097 0.0019 -8.0659
v  1.4557 0.0019 -8.0779
v  1.7573 0.0019 -8.0779
v  1.8012 0.0019 -8.0664
v  1.8193 0.0019 -8.0237
v  1.8898 0.0019 -7.9499
v  1.8193 0.0019 -7.9499
v  1.8898 0.0308 -7.8727
v  1.8193 0.0308 -7.8727
v  1.2900 0.3772 -7.5252
v  1.8898 0.3772 -7.5252
v  1.8898 0.4400 -7.5651
v  1.2900 0.4400 -7.5651
v  1.8898 0.4354 -8.0060
v  1.2900 0.4354 -8.0060
v  1.8898 0.4685 -8.0429
v  1.2900 0.4685 -8.0429
v  1.8898 0.0445 -7.9435
v  1.8898 0.0605 -7.9001
v  1.8898 0.3630 -7.5916
v  1.8898 0.3804 -7.5995
v  1.8898 0.3755 -8.0382
v  1.8898 0.4466 -8.1072
v  1.8193 0.0445 -7.9435
v  1.8193 0.0605 -7.9001
v  1.2900 0.3630 -7.5916
v  1.2900 0.3804 -7.5995
v  1.2900 0.3755 -8.0382
v  1.2900 0.4466 -8.1072
v  1.2900 0.0445 -7.9435
v  1.2900 0.0308 -7.8727
v  1.2900 0.0605 -7.9001
v  1.8193 0.0988 -7.8045
v  1.8193 0.3117 -7.5910
v  1.7907 0.3468 -7.5557
v  1.7573 0.3530 -7.5495
v  1.4557 0.3530 -7.5495
v  1.4123 0.3432 -7.5593
v  1.3904 0.3117 -7.5910
v  1.3904 0.0988 -7.8045
v  1.3904 0.0308 -7.8727
v  1.3904 0.0605 -7.9001
v  1.3904 0.0445 -7.9435
v  1.8193 0.0433 -8.0237
v  1.8012 0.0427 -8.0664
v  1.7573 0.0425 -8.0779
v  1.4557 0.0425 -8.0779
v  1.4097 0.0427 -8.0659
v  1.3904 0.0433 -8.0237
v  1.8193 0.0988 -7.8610
v  1.8193 0.3117 -7.6439
v  1.7907 0.3468 -7.6080
v  1.7573 0.3530 -7.6017
v  1.4557 0.3530 -7.6017
v  1.4123 0.3432 -7.6117
v  1.3904 0.3117 -7.6439
v  1.3904 0.0988 -7.8610
# 68 vertices

vn 0.0000 0.1221 -0.9925
vn 0.0000 0.9786 -0.2058
vn 0.0000 -1.0000 -0.0000
vn 0.0000 -0.9839 0.1784
vn 0.0000 -0.9840 0.1784
vn 0.0000 -0.9839 0.1785
vn 0.0000 -0.8412 0.5408
vn 0.0000 -0.1104 0.9939
vn -0.0000 -0.1103 0.9939
vn 0.0000 0.8789 0.4770
vn 0.0000 0.9356 0.3531
vn 0.0000 0.4747 0.8801
vn 0.0000 0.1503 0.9886
vn 1.0000 -0.0002 0.0000
vn 1.0000 -0.0002 -0.0000
vn 1.0000 -0.0002 0.0001
vn 1.0000 -0.0001 0.0001
vn 1.0000 -0.0001 0.0000
vn 1.0000 -0.0001 -0.0000
vn 1.0000 -0.0000 -0.0000
vn 1.0000 -0.0000 0.0000
vn 1.0000 -0.0000 -0.0001
vn 0.0000 0.9831 -0.1831
vn 0.0000 0.8449 -0.5350
vn -0.0000 0.9831 -0.1831
vn -0.0000 0.1837 -0.9830
vn -0.0000 0.1838 -0.9830
vn 0.0000 -0.8435 -0.5371
vn 0.0000 -0.8436 -0.5370
vn 0.0000 -0.9232 -0.3844
vn 0.0000 -0.9231 -0.3845
vn 0.0000 -0.4402 -0.8979
vn 0.0000 -0.1409 -0.9900
vn -1.0000 0.0002 -0.0000
vn -1.0000 0.0002 -0.0001
vn -1.0000 0.0001 -0.0001
vn -1.0000 0.0001 -0.0000
vn -1.0000 0.0001 0.0000
vn -1.0000 0.0000 -0.0000
vn -1.0000 -0.0000 0.0001
vn -0.0000 -0.7082 0.7060
vn 0.0000 -0.7082 0.7060
vn -0.0000 -0.8412 0.5408
vn -0.0000 0.8449 -0.5350
vn 0.0000 0.9999 -0.0148
vn -0.0000 0.9999 -0.0148
vn 0.0000 0.7141 -0.7001
vn -0.0000 0.7141 -0.7001
vn -1.0000 0.0000 0.0000
vn -0.9802 0.0000 0.1979
vn -0.9799 -0.0000 0.1997
vn -0.0865 -0.9963 0.0000
vn -0.0973 -0.9953 -0.0000
vn -0.1836 -0.9830 -0.0000
vn -0.1836 -0.9830 0.0000
vn -0.8721 -0.4893 0.0000
vn -0.9832 -0.1828 -0.0000
vn 1.0000 0.0000 -0.0000
vn 0.9872 -0.1593 -0.0000
vn 0.8989 -0.4382 -0.0000
vn -0.9203 -0.0000 0.3913
vn -0.1287 0.0000 0.9917
vn -0.2552 -0.0000 0.9669
vn -0.1288 0.0000 0.9917
vn 0.1277 0.0000 0.9918
vn 0.1279 -0.0000 0.9918
vn 0.2534 -0.0000 0.9674
vn 0.9770 -0.0000 0.2133
vn 0.9090 -0.0000 0.4169
vn 0.9774 -0.0000 0.2114
vn 0.8218 -0.5697 -0.0000
vn 0.2198 -0.9755 -0.0000
vn 0.1178 -0.9930 -0.0000
vn 0.1024 -0.9947 -0.0000
vn -0.7751 -0.6319 0.0000
# 75 vertex normals

vt 1.0000 0.0000 0.0000
vt 1.0000 1.0000 0.0000
vt 0.0000 1.0000 0.0000
vt 0.0000 0.0000 0.0000
vt 0.0346 0.0943 0.0000
vt 0.0346 0.1429 0.0000
vt 0.0000 0.1429 0.0000
vt 0.0412 0.0665 0.0000
vt 0.0571 0.0586 0.0000
vt 0.9544 0.0586 0.0000
vt 0.9695 0.0662 0.0000
vt 0.9757 0.0943 0.0000
vt 1.0000 0.1429 0.0000
vt 0.9757 0.1429 0.0000
vt 1.0000 0.2857 0.0000
vt 0.9757 0.2857 0.0000
vt 0.0000 0.4286 0.0000
vt 1.0000 0.4286 0.0000
vt 1.0000 0.5714 0.0000
vt 0.0000 0.5714 0.0000
vt 1.0000 0.7143 0.0000
vt 0.0000 0.7143 0.0000
vt 1.0000 0.8571 0.0000
vt 0.0000 0.8571 0.0000
vt 0.0000 0.2857 0.0000
vt 0.0243 0.1429 0.0000
vt 0.0243 0.2857 0.0000
vt 0.9757 0.3138 0.0000
vt 0.9757 0.4015 0.0000
vt 0.9659 0.4160 0.0000
vt 0.9544 0.4186 0.0000
vt 0.0571 0.4186 0.0000
vt 0.0421 0.4146 0.0000
vt 0.0346 0.4015 0.0000
vt 0.0346 0.3138 0.0000
vt 0.0346 0.2857 0.0000
vt 0.9654 0.2857 0.0000
vt 0.9654 0.1429 0.0000
vt 0.0243 0.0904 0.0000
vt 0.0305 0.0625 0.0000
vt 0.0456 0.0550 0.0000
vt 0.9429 0.0550 0.0000
vt 0.9588 0.0628 0.0000
vt 0.9654 0.0904 0.0000
vt 0.0243 0.3038 0.0000
vt 0.0243 0.4043 0.0000
vt 0.0341 0.4209 0.0000
vt 0.0456 0.4239 0.0000
vt 0.9429 0.4239 0.0000
vt 0.9579 0.4193 0.0000
vt 0.9654 0.4043 0.0000
vt 0.9654 0.3038 0.0000
vt 0.5892 0.3333 0.0000
vt 0.6091 0.3333 0.0000
vt 0.6230 0.2080 0.0000
vt 0.6133 0.1110 0.0000
vt 0.6383 0.1557 0.0000
vt 0.6406 0.0163 0.0000
vt 0.6667 0.1518 0.0000
vt 0.6667 0.0163 0.0000
vt 0.6667 0.4990 0.0000
vt 0.6667 0.5174 0.0000
vt 1.0000 0.5193 0.0000
vt 1.0000 0.5008 0.0000
vt 0.5137 0.6667 0.0000
vt 0.5324 0.6667 0.0000
vt 0.4108 0.3333 0.0000
vt 0.3909 0.3333 0.0000
vt 0.4676 0.6667 0.0000
vt 0.4863 0.6667 0.0000
vt 1.0000 0.1497 0.0000
vt 1.0000 0.0163 0.0000
vt 0.3333 0.0163 0.0000
vt 0.0000 0.0163 0.0000
vt 0.0000 0.1497 0.0000
vt 0.3333 0.1492 0.0000
vt 0.6667 0.1492 0.0000
vt 0.3333 0.1518 0.0000
vt 0.4790 1.0000 0.0000
vt 0.4975 1.0000 0.0000
vt 0.0000 0.5025 0.0000
vt 0.0000 0.5210 0.0000
vt 0.3333 0.5174 0.0000
vt 0.3333 0.4990 0.0000
vt 0.5008 1.0000 0.0000
vt 0.5193 1.0000 0.0000
vt 0.3770 0.2080 0.0000
vt 0.3867 0.1110 0.0000
vt 0.3594 0.0163 0.0000
vt 0.3617 0.1557 0.0000
# 90 texture coords

g SeatingA_002
s 2
f 1/1/1 2/2/1 3/3/1 4/4/1 
s 4
f 5/4/2 6/1/2 7/2/2 8/3/2 
s 8
f 9/5/3 10/6/4 11/7/5 12/8/3 
f 12/8/3 11/7/5 1/4/3 13/9/3 
f 14/10/3 13/9/3 1/4/3 4/1/3 
f 15/11/3 14/10/3 4/1/3 16/12/3 
f 16/12/3 4/1/3 17/13/6 18/14/4 
f 18/14/4 17/13/6 19/15/7 20/16/7 
f 21/17/8 22/18/9 23/19/10 24/20/10 
f 24/20/10 23/19/10 25/21/11 26/22/11 
f 26/22/11 25/21/11 27/23/12 28/24/12 
f 28/24/12 27/23/12 6/2/13 5/3/13 
s 16
f 4/4/14 3/1/14 29/13/15 17/7/15 
f 30/15/16 19/25/16 17/7/15 29/13/15 
f 19/25/16 30/15/16 31/18/17 22/17/17 
f 22/17/17 31/18/17 32/19/18 23/20/18 
f 23/20/18 32/19/18 33/21/19 25/22/18 
f 34/23/20 27/24/21 25/22/18 33/21/19 
f 27/24/21 34/23/20 7/2/22 6/3/22 
s 32
f 35/26/23 36/27/24 30/25/24 29/7/25 
f 31/17/26 37/18/27 38/19/28 32/20/29 
f 32/20/29 38/19/28 39/21/30 33/22/31 
f 33/22/31 39/21/30 40/23/32 34/24/32 
f 34/24/32 40/23/32 8/2/33 7/3/33 
s 64
f 2/4/34 1/1/34 11/13/34 41/7/34 
f 42/15/35 43/25/35 41/7/34 11/13/34 
f 43/25/35 42/15/35 21/18/36 37/17/36 
f 38/20/37 37/17/36 21/18/36 24/19/37 
f 38/20/37 24/19/37 26/21/38 39/22/38 
f 28/23/38 40/24/39 39/22/38 26/21/38 
f 40/24/39 28/23/38 5/2/40 8/3/40 
s 8
f 44/28/41 20/16/7 19/15/7 22/18/9 
f 45/29/41 44/28/41 22/18/9 46/30/41 
f 47/31/41 46/30/41 22/18/9 48/32/42 
f 48/32/42 22/18/9 21/17/8 49/33/42 
f 50/34/42 49/33/42 21/17/8 51/35/41 
f 51/35/41 21/17/8 42/25/43 52/36/7 
f 52/36/7 42/25/43 11/7/5 10/6/4 
s 32
f 41/13/25 43/15/44 53/37/44 54/38/23 
f 55/39/45 35/26/23 29/7/25 3/4/45 
f 56/40/45 55/39/45 3/4/45 57/41/46 
f 57/41/46 3/4/45 2/1/46 58/42/45 
f 59/43/45 58/42/45 2/1/46 41/13/25 
f 41/13/25 54/38/23 60/44/45 59/43/45 
f 30/25/24 36/27/24 61/45/47 62/46/48 
f 31/17/26 30/25/24 62/46/48 63/47/47 
f 31/17/26 63/47/47 64/48/47 65/49/48 
f 37/18/27 31/17/26 65/49/48 66/50/48 
f 37/18/27 66/50/48 67/51/48 43/15/44 
f 43/15/44 67/51/48 68/52/48 53/37/44 
s 16
f 44/53/49 61/54/49 36/55/49 20/56/49 
f 20/56/49 36/55/49 35/57/39 18/58/39 
f 18/58/39 35/57/39 55/59/50 16/60/51 
s 4
f 47/61/52 64/62/53 63/63/54 46/64/55 
s 16
f 45/65/56 62/66/57 61/54/49 44/53/49 
s 64
f 51/67/58 68/68/58 67/69/59 50/70/60 
s 16
f 16/60/51 55/59/50 56/71/61 15/72/61 
s 1
f 14/73/62 15/74/63 56/75/63 57/76/64 
f 13/60/65 14/73/62 57/76/64 58/77/66 
f 12/72/67 13/60/65 58/77/66 59/71/67 
s 64
f 9/73/68 12/74/69 59/75/69 60/78/70 
f 66/79/71 49/80/71 50/70/60 67/69/59 
s 4
f 49/81/72 66/82/72 65/83/73 48/84/74 
f 47/61/52 48/84/74 65/83/73 64/62/53 
s 16
f 45/65/56 46/85/75 63/86/75 62/66/57 
s 64
f 53/87/58 68/68/58 51/67/58 52/88/58 
f 10/89/58 9/73/68 60/78/70 54/90/58 
f 52/88/58 10/89/58 54/90/58 53/87/58 
# 68 polygons

