# 3ds Max Wavefront OBJ Exporter v0.97b - (c)2007 guruware
# File Created: 16.02.2016 12:51:53

#
# object TableA_002
#

v  -1.0740 0.0165 -6.1094
v  -1.0740 0.0165 -6.7423
v  -1.0320 -0.0031 -6.7423
v  -1.0320 -0.0031 -6.1094
v  1.7423 -0.0031 -6.7423
v  1.7423 -0.0031 -6.1094
v  1.7816 0.0197 -6.7423
v  1.7816 0.0197 -6.1094
v  -1.0788 0.6008 -6.1094
v  -1.0320 0.6298 -6.1094
v  -1.0320 0.6298 -6.7423
v  -1.0788 0.6008 -6.7423
v  1.7423 0.6298 -6.1094
v  1.7423 0.6298 -6.7423
v  1.7860 0.6042 -6.1094
v  1.7860 0.6042 -6.7423
v  -1.0322 0.0535 -6.1094
v  -1.0351 0.0605 -6.1094
v  -1.0921 0.0605 -6.1094
v  1.7423 0.0605 -6.1094
v  1.7409 0.0605 -6.1094
v  1.7393 0.0563 -6.1094
v  -0.9961 0.0367 -6.1094
v  1.7055 0.0367 -6.1094
v  1.7965 0.0605 -6.1094
v  -1.0347 0.5570 -6.1094
v  -1.0320 0.5586 -6.1094
v  -1.0921 0.5570 -6.1094
v  1.7055 0.5808 -6.1094
v  1.7427 0.5591 -6.1094
v  -0.9961 0.5808 -6.1094
v  1.7965 0.5570 -6.1094
v  1.7435 0.5570 -6.1094
v  1.7965 0.0605 -6.7423
v  1.7965 0.5570 -6.7423
v  1.7423 0.0605 -6.7423
v  1.7393 0.0563 -6.7423
v  1.7409 0.0605 -6.7423
v  1.7055 0.0367 -6.7423
v  -0.9961 0.0367 -6.7423
v  -1.0322 0.0535 -6.7423
v  1.7423 0.0643 -6.7423
v  1.7522 0.0914 -6.7423
v  1.7522 0.5182 -6.7423
v  1.7435 0.5570 -6.7423
v  1.7427 0.5591 -6.7423
v  -1.0347 0.5570 -6.7423
v  -1.0921 0.5570 -6.7423
v  -1.0320 0.5586 -6.7423
v  -1.0921 0.0605 -6.7423
v  -1.0363 0.5560 -6.1094
v  -1.0478 0.5182 -6.1094
v  -1.0478 0.0914 -6.1094
v  -0.9961 0.5808 -6.7423
v  1.7055 0.5808 -6.7423
v  1.7423 0.0643 -6.1094
v  1.7522 0.0914 -6.1094
v  1.7522 0.5182 -6.1094
v  -1.0351 0.0605 -6.7423
v  -1.0363 0.5560 -6.7423
v  -1.0478 0.5182 -6.7423
v  -1.0478 0.0914 -6.7423
# 62 vertices

vn -0.4240 -0.9057 -0.0000
vn -0.2172 -0.9761 -0.0000
vn 0.2598 -0.9657 -0.0000
vn 0.5017 -0.8650 -0.0000
vn -0.5261 0.8504 -0.0000
vn -0.2735 0.9619 -0.0000
vn 0.2617 0.9651 -0.0000
vn 0.5052 0.8630 -0.0000
vn 0.0000 0.0000 1.0000
vn 0.9391 -0.3437 -0.0000
vn 0.9847 -0.1745 -0.0000
vn 0.9939 0.1098 -0.0000
vn 0.9759 0.2184 -0.0000
vn 0.0000 0.0000 -1.0000
vn -0.9248 -0.3804 -0.0000
vn -0.9810 -0.1939 -0.0000
vn -0.9891 0.1471 -0.0000
vn -0.9567 0.2910 -0.0000
vn -0.2598 0.9657 -0.0000
vn 0.2172 0.9761 -0.0000
vn -0.5017 0.8650 -0.0000
vn -0.9391 0.3437 -0.0000
vn -0.9847 0.1745 -0.0000
vn 0.4240 0.9057 -0.0000
vn 0.9240 0.3824 -0.0000
vn 0.9810 0.1939 -0.0000
vn 0.9232 0.3844 -0.0000
vn -0.9939 -0.1098 -0.0000
vn -0.9561 -0.2930 -0.0000
vn -0.9306 -0.3659 -0.0000
vn 0.9891 -0.1471 -0.0000
vn 0.9567 -0.2910 -0.0000
vn -0.2617 -0.9651 -0.0000
vn -0.5052 -0.8630 -0.0000
vn 0.2735 -0.9619 -0.0000
vn 0.5261 -0.8504 0.0000
vn 0.5261 -0.8504 -0.0000
# 37 vertex normals

vt 1.0000 0.0000 0.0000
vt 1.0000 1.0000 0.0000
vt 0.6667 1.0000 0.0000
vt 0.6667 0.0000 0.0000
vt 0.3333 1.0000 0.0000
vt 0.3333 0.0000 0.0000
vt -0.0000 1.0000 0.0000
vt -0.0000 0.0000 0.0000
vt 0.0000 0.0000 0.0000
vt 0.0000 1.0000 0.0000
vt 0.3333 0.2965 0.0000
vt 0.3165 0.3333 0.0000
vt 0.0000 0.3333 0.0000
vt 0.6667 0.3333 0.0000
vt 0.6658 0.3333 0.0000
vt 0.6648 0.3111 0.0000
vt 0.3564 0.2084 0.0000
vt 0.6430 0.2084 0.0000
vt 1.0000 0.3333 0.0000
vt 0.3188 0.6667 0.0000
vt 0.3333 0.6741 0.0000
vt 0.0000 0.6667 0.0000
vt 0.6430 0.7759 0.0000
vt 0.6667 0.6774 0.0000
vt 0.3564 0.7759 0.0000
vt 1.0000 0.6667 0.0000
vt 0.6743 0.6667 0.0000
vt 0.3333 0.3333 0.0000
vt 0.3352 0.3111 0.0000
vt 0.3342 0.3333 0.0000
vt 0.3570 0.2084 0.0000
vt 0.6436 0.2084 0.0000
vt 0.6676 0.2969 0.0000
vt 0.3333 0.3359 0.0000
vt 0.2725 0.3541 0.0000
vt 0.2725 0.6407 0.0000
vt 0.3257 0.6667 0.0000
vt 0.3283 0.6752 0.0000
vt 0.6812 0.6667 0.0000
vt 0.6667 0.6741 0.0000
vt 0.3098 0.6660 0.0000
vt 0.2461 0.6407 0.0000
vt 0.2461 0.3541 0.0000
vt 0.6436 0.7759 0.0000
vt 0.3570 0.7759 0.0000
vt 0.6667 0.3359 0.0000
vt 0.7275 0.3541 0.0000
vt 0.7275 0.6407 0.0000
vt 0.6835 0.3333 0.0000
vt 0.6902 0.6660 0.0000
vt 0.7539 0.6407 0.0000
vt 0.7539 0.3541 0.0000
vt 0.3333 0.2165 0.0000
vt 0.3333 0.8484 0.0000
vt 0.6667 0.8484 0.0000
vt 0.6667 0.2165 0.0000
vt -0.0000 0.2165 0.0000
vt -0.0000 0.8484 0.0000
vt 0.8484 0.0000 0.0000
vt 0.2165 0.0000 0.0000
vt 0.2165 0.0403 0.0000
vt 0.8484 0.0403 0.0000
vt 0.2165 0.3333 0.0000
vt 0.8484 0.3333 0.0000
vt 0.8484 0.0764 0.0000
vt 0.2165 0.0764 0.0000
vt 1.0000 0.8484 0.0000
vt 1.0000 0.2165 0.0000
vt 0.1516 0.0613 0.0000
vt 0.1516 0.3333 0.0000
vt 0.7835 0.3333 0.0000
vt 0.7835 0.0613 0.0000
vt 0.7835 0.0000 0.0000
vt 0.1516 0.0000 0.0000
vt 0.2165 0.6667 0.0000
vt 0.8484 0.6667 0.0000
vt 0.2165 0.9847 0.0000
vt 0.8484 0.9847 0.0000
vt 0.2165 1.0000 0.0000
vt 0.8484 1.0000 0.0000
vt 0.7835 0.6667 0.0000
vt 0.1516 0.6667 0.0000
vt 0.1516 1.0000 0.0000
vt 0.7835 1.0000 0.0000
vt 0.9927 0.8484 0.0000
vt 0.0352 0.2165 0.0000
vt 0.0135 0.2165 0.0000
vt 0.0000 0.2165 0.0000
vt 0.0000 0.8484 0.0000
vt 0.0135 0.8484 0.0000
vt 0.0352 0.8484 0.0000
# 91 texture coords

g TableA_002
s 2
f 1/1/1 2/2/1 3/3/2 4/4/2 
f 4/4/2 3/3/2 5/5/3 6/6/3 
f 6/6/3 5/5/3 7/7/4 8/8/4 
s 4
f 9/9/5 10/6/6 11/5/6 12/10/5 
f 10/6/6 13/4/7 14/3/7 11/5/6 
f 13/4/7 15/1/8 16/2/8 14/3/7 
s 8
f 17/11/9 18/12/9 19/13/9 4/6/9 
f 1/9/9 4/6/9 19/13/9 
f 20/14/9 21/15/9 22/16/9 6/4/9 
f 23/17/9 17/11/9 4/6/9 6/4/9 
f 24/18/9 23/17/9 6/4/9 22/16/9 
f 6/4/9 8/1/9 25/19/9 20/14/9 
f 26/20/9 27/21/9 10/5/9 28/22/9 
f 28/22/9 10/5/9 9/10/9 
f 29/23/9 30/24/9 13/3/9 31/25/9 
f 31/25/9 13/3/9 10/5/9 27/21/9 
f 15/2/9 13/3/9 30/24/9 32/26/9 
f 32/26/9 30/24/9 33/27/9 
s 16
f 8/9/10 7/1/10 34/19/11 25/13/11 
f 25/13/11 34/19/11 35/26/12 32/22/12 
f 32/22/12 35/26/12 16/2/13 15/10/13 
s 32
f 7/9/14 5/6/14 36/28/14 34/13/14 
f 37/29/14 38/30/14 36/28/14 5/6/14 
f 39/31/14 37/29/14 5/6/14 40/32/14 
f 40/32/14 5/6/14 3/4/14 41/33/14 
f 36/28/14 42/34/14 43/35/14 34/13/14 
f 44/36/14 45/37/14 35/22/14 43/35/14 
f 34/13/14 43/35/14 35/22/14 
f 35/22/14 45/37/14 46/38/14 16/10/14 
f 46/38/14 14/5/14 16/10/14 
f 47/39/14 48/26/14 12/2/14 11/3/14 
f 47/39/14 11/3/14 49/40/14 
s 64
f 2/9/15 1/1/15 19/19/16 50/13/16 
f 50/13/16 19/19/16 28/26/17 48/22/17 
f 48/22/17 28/26/17 9/2/18 12/10/18 
s 8
f 51/41/9 26/20/9 28/22/9 52/42/9 
f 52/42/9 28/22/9 19/13/9 53/43/9 
f 53/43/9 19/13/9 18/12/9 
s 32
f 54/44/14 49/40/14 11/3/14 14/5/14 
f 14/5/14 46/38/14 55/45/14 54/44/14 
s 8
f 21/15/9 20/14/9 56/46/9 
f 57/47/9 56/46/9 20/14/9 25/19/9 
f 57/47/9 25/19/9 32/26/9 58/48/9 
f 32/26/9 33/27/9 58/48/9 
s 32
f 42/34/14 36/28/14 38/30/14 
f 2/1/14 50/19/14 59/49/14 3/4/14 
f 41/33/14 3/4/14 59/49/14 
f 48/26/14 47/39/14 60/50/14 61/51/14 
f 50/19/14 48/26/14 61/51/14 62/52/14 
f 59/49/14 50/19/14 62/52/14 
s 2
f 24/53/19 39/54/19 40/55/20 23/56/20 
f 22/57/21 37/58/21 39/54/19 24/53/19 
s 16
f 37/59/22 22/60/22 21/61/22 38/62/22 
f 57/63/23 43/64/23 42/65/22 56/66/22 
f 21/61/22 56/66/22 42/65/22 38/62/22 
s 2
f 23/56/20 40/55/20 41/67/24 17/68/24 
s 64
f 59/69/25 62/70/26 53/71/26 18/72/25 
f 59/69/25 18/72/25 17/73/27 41/74/27 
s 16
f 58/75/28 44/76/28 43/64/23 57/63/23 
f 44/76/28 58/75/28 33/77/29 45/78/29 
f 33/77/29 30/79/30 46/80/30 45/78/29 
s 64
f 52/81/31 61/82/31 60/83/32 51/84/32 
f 61/82/31 52/81/31 53/71/26 62/70/26 
s 4
f 29/56/33 55/55/33 46/85/34 30/68/34 
f 31/53/35 54/54/35 55/55/33 29/56/33 
f 54/54/35 31/53/35 27/86/36 26/87/36 
f 51/88/37 60/89/37 47/90/37 26/87/36 
f 26/87/36 47/90/37 49/91/37 54/54/35 
# 56 polygons - 12 triangles

