# 3ds Max Wavefront OBJ Exporter v0.97b - (c)2007 guruware
# File Created: 16.02.2016 12:50:43

#
# object VendingA_003
#

v  0.0766 0.0000 -2.0347
v  0.0766 0.0000 -2.3414
v  0.2604 0.0000 -2.3414
v  0.2604 0.0000 -1.9304
v  0.7474 0.0000 -2.3414
v  0.7474 0.0000 -1.9304
v  0.9081 0.0000 -2.3414
v  0.9081 0.0000 -2.0347
v  0.9080 0.0000 -2.3414
v  0.9080 0.0000 -2.1105
v  1.1159 0.0000 -2.3414
v  1.1159 0.0000 -2.1105
v  0.0766 0.0000 -2.6482
v  0.2604 0.0000 -2.6482
v  0.7474 0.0000 -2.6482
v  0.9081 0.0000 -2.6482
v  0.9080 0.0000 -2.6482
v  1.1159 0.0000 -2.6482
v  0.0766 2.1755 -2.0347
v  0.2604 2.1755 -1.9304
v  0.2604 2.1755 -2.3414
v  0.0766 2.1755 -2.3414
v  0.7474 2.1755 -1.9304
v  0.7474 2.1755 -2.3414
v  0.9081 2.1755 -2.0347
v  0.9081 2.1755 -2.3414
v  0.9080 2.1755 -2.1105
v  0.9080 2.1755 -2.3414
v  1.1159 2.1755 -2.1105
v  1.1159 2.1755 -2.3414
v  0.2604 2.1755 -2.6482
v  0.0766 2.1755 -2.6482
v  0.7474 2.1755 -2.6482
v  0.9081 2.1755 -2.6482
v  0.9080 2.1755 -2.6482
v  1.1159 2.1755 -2.6482
v  0.2604 0.4636 -1.9304
v  0.0766 0.4636 -2.0347
v  0.7474 0.4636 -1.9304
v  0.9081 0.4636 -2.0347
v  0.9080 0.4636 -2.1105
v  1.1159 0.4636 -2.1105
v  0.2604 0.7597 -1.9304
v  0.0766 0.7597 -2.0347
v  0.2604 0.4636 -1.9821
v  0.7474 0.4636 -1.9821
v  0.7474 0.7597 -1.9510
v  0.2604 0.7597 -1.9510
v  0.9081 0.7597 -2.0347
v  0.7474 0.7597 -1.9304
v  0.9080 0.7597 -2.1105
v  1.1159 0.7597 -2.1105
v  0.2604 1.0326 -1.9304
v  0.0766 1.0326 -2.0347
v  0.7474 1.0326 -1.9304
v  0.9081 1.0326 -2.0347
v  0.9080 1.0326 -2.1105
v  1.1159 1.0326 -2.1105
v  1.1159 0.4636 -2.3414
v  1.1159 0.4636 -2.6482
v  1.1159 0.7597 -2.3414
v  1.1159 0.7597 -2.6482
v  1.1159 1.0326 -2.3414
v  1.1159 1.0326 -2.6482
v  0.9080 0.4636 -2.6482
v  0.9081 0.4636 -2.6482
v  0.7474 0.4636 -2.6482
v  0.2604 0.4636 -2.6482
v  0.0766 0.4636 -2.6482
v  0.9080 0.7597 -2.6482
v  0.9081 0.7597 -2.6482
v  0.7474 0.7597 -2.6482
v  0.2604 0.7597 -2.6482
v  0.0766 0.7597 -2.6482
v  0.9080 1.0326 -2.6482
v  0.9081 1.0326 -2.6482
v  0.7474 1.0326 -2.6482
v  0.2604 1.0326 -2.6482
v  0.0766 1.0326 -2.6482
v  0.0766 0.4636 -2.3414
v  0.0766 0.7597 -2.3414
v  0.0766 1.0326 -2.3414
v  0.0766 1.2108 -2.0347
v  0.2604 1.2108 -1.9304
v  0.7474 1.2108 -1.9304
v  0.9081 1.2108 -2.0347
v  0.9080 1.2108 -2.1105
v  1.1159 1.2108 -2.1105
v  1.1159 1.2108 -2.3414
v  1.1159 1.2108 -2.6482
v  0.9080 1.2108 -2.6482
v  0.9081 1.2108 -2.6482
v  0.7474 1.2108 -2.6482
v  0.2604 1.2108 -2.6482
v  0.0766 1.2108 -2.6482
v  0.0766 1.2108 -2.3414
v  1.0909 1.1858 -2.1268
v  0.9330 1.1858 -2.1268
v  0.9330 1.0576 -2.1268
v  1.0909 1.0576 -2.1268
# 100 vertices

vn 0.0000 -1.0000 -0.0000
vn 0.0000 1.0000 -0.0000
vn -0.4937 0.0000 0.8697
vn -0.2553 0.0000 0.9669
vn -0.3391 0.0000 0.9408
vn 0.2840 0.0000 0.9588
vn 0.3768 0.0000 0.9263
vn 0.8790 0.0000 0.4769
vn 0.7073 0.0000 0.7069
vn 0.0000 0.0000 1.0000
vn 0.0000 -0.1045 0.9945
vn -0.2553 -0.0000 0.9669
vn -0.4937 -0.0000 0.8697
vn 0.8947 0.0000 0.4467
vn 1.0000 -0.0000 -0.0000
vn 1.0000 0.0000 -0.0000
vn 0.0000 0.0000 -1.0000
vn -1.0000 0.0000 -0.0000
vn 0.0000 -0.5457 0.8380
vn 0.5457 0.0000 0.8380
vn 0.0000 0.5457 0.8380
vn -0.5457 0.0000 0.8380
# 22 vertex normals

vt 1.0000 0.0000 0.0000
vt 1.0000 0.5000 0.0000
vt 0.8000 0.5000 0.0000
vt 0.8000 0.0000 0.0000
vt 0.6000 0.5000 0.0000
vt 0.6000 0.0000 0.0000
vt 0.4000 0.5000 0.0000
vt 0.4000 0.0000 0.0000
vt 0.2000 0.5000 0.0000
vt 0.2000 0.0000 0.0000
vt 0.0000 0.5000 0.0000
vt 0.0000 0.0000 0.0000
vt 1.0000 1.0000 0.0000
vt 0.8000 1.0000 0.0000
vt 0.6000 1.0000 0.0000
vt 0.4000 1.0000 0.0000
vt 0.2000 1.0000 0.0000
vt 0.0000 1.0000 0.0000
vt 0.2000 0.3333 0.0000
vt 0.0000 0.3333 0.0000
vt 0.4000 0.3333 0.0000
vt 0.6000 0.3333 0.0000
vt 0.8000 0.3333 0.0000
vt 1.0000 0.3333 0.0000
vt 0.2000 0.6667 0.0000
vt 0.0000 0.6667 0.0000
vt 0.4000 0.6667 0.0000
vt 0.6000 0.6667 0.0000
vt 0.8000 0.6667 0.0000
vt 1.0000 0.6667 0.0000
vt 0.2000 0.7309 0.0000
vt 0.0000 0.7309 0.0000
vt 0.4000 0.7309 0.0000
vt 0.6000 0.7309 0.0000
vt 0.8000 0.7309 0.0000
vt 1.0000 0.7309 0.0000
vt 0.5000 0.0000 0.0000
vt 0.5000 0.3333 0.0000
vt 0.5000 0.6667 0.0000
vt 0.5000 0.7309 0.0000
vt 0.0000 0.7729 0.0000
vt 0.2000 0.7729 0.0000
vt 0.4000 0.7729 0.0000
vt 0.6000 0.7729 0.0000
vt 0.8000 0.7729 0.0000
vt 1.0000 0.7729 0.0000
vt 0.5000 1.0000 0.0000
vt 0.5000 0.7729 0.0000
# 48 texture coords

g VendingA_003
s 2
f 1/1/1 2/2/1 3/3/1 4/4/1 
f 4/4/1 3/3/1 5/5/1 6/6/1 
f 6/6/1 5/5/1 7/7/1 8/8/1 
f 8/8/1 7/7/1 9/9/1 10/10/2 
f 10/10/2 9/9/1 11/11/1 12/12/1 
f 2/2/1 13/13/1 14/14/1 3/3/1 
f 3/3/1 14/14/1 15/15/1 5/5/1 
f 5/5/1 15/15/1 16/16/1 7/7/1 
f 7/7/1 16/16/1 17/17/1 9/9/1 
f 9/9/1 17/17/1 18/18/1 11/11/1 
s 4
f 19/12/2 20/10/2 21/9/2 22/11/2 
f 20/10/2 23/8/2 24/7/2 21/9/2 
f 23/8/2 25/6/2 26/5/2 24/7/2 
f 25/6/2 27/4/1 28/3/2 26/5/2 
f 27/4/1 29/1/2 30/2/2 28/3/2 
f 22/11/2 21/9/2 31/17/2 32/18/2 
f 21/9/2 24/7/2 33/16/2 31/17/2 
f 24/7/2 26/5/2 34/15/2 33/16/2 
f 26/5/2 28/3/2 35/14/2 34/15/2 
f 28/3/2 30/2/2 36/13/2 35/14/2 
s 8
f 1/12/3 4/10/4 37/19/5 38/20/3 
f 4/10/4 6/8/6 39/21/7 37/19/5 
f 6/8/6 8/6/8 40/22/8 39/21/7 
f 8/6/8 10/4/9 41/23/9 40/22/8 
f 10/4/9 12/1/10 42/24/10 41/23/9 
f 38/20/3 37/19/5 43/25/5 44/26/3 
f 45/19/11 46/21/11 47/27/11 48/25/11 
f 39/21/7 40/22/8 49/28/8 50/27/7 
f 40/22/8 41/23/9 51/29/9 49/28/8 
f 41/23/9 42/24/10 52/30/10 51/29/9 
f 43/25/5 53/31/12 54/32/13 44/26/3 
f 50/27/7 55/33/6 53/31/12 43/25/5 
f 49/28/8 56/34/8 55/33/6 50/27/7 
f 51/29/9 57/35/14 56/34/8 49/28/8 
f 52/30/10 58/36/10 57/35/14 51/29/9 
s 16
f 12/12/15 11/37/15 59/38/15 42/20/15 
f 11/37/15 18/1/15 60/24/15 59/38/15 
f 42/20/15 59/38/15 61/39/16 52/26/16 
f 59/38/15 60/24/15 62/30/16 61/39/16 
f 61/39/16 63/40/16 58/32/16 52/26/16 
f 62/30/16 64/36/16 63/40/16 61/39/16 
s 32
f 18/12/17 17/10/10 65/19/17 60/20/17 
f 17/10/10 16/8/16 66/21/10 65/19/17 
f 16/8/16 15/6/17 67/22/17 66/21/10 
f 15/6/17 14/4/17 68/23/17 67/22/17 
f 14/4/17 13/1/17 69/24/17 68/23/17 
f 60/20/17 65/19/17 70/25/17 62/26/17 
f 65/19/17 66/21/10 71/27/17 70/25/17 
f 66/21/10 67/22/17 72/28/17 71/27/17 
f 67/22/17 68/23/17 73/29/17 72/28/17 
f 68/23/17 69/24/17 74/30/17 73/29/17 
f 70/25/17 75/31/17 64/32/17 62/26/17 
f 71/27/17 76/33/17 75/31/17 70/25/17 
f 72/28/17 77/34/17 76/33/17 71/27/17 
f 73/29/17 78/35/17 77/34/17 72/28/17 
f 74/30/17 79/36/17 78/35/17 73/29/17 
s 64
f 13/12/18 2/37/18 80/38/18 69/20/18 
f 2/37/18 1/1/18 38/24/18 80/38/18 
f 69/20/18 80/38/18 81/39/18 74/26/18 
f 80/38/18 38/24/18 44/30/18 81/39/18 
f 81/39/18 82/40/18 79/32/18 74/26/18 
f 44/30/18 54/36/18 82/40/18 81/39/18 
s off
f 37/19/2 39/21/2 46/21/2 45/19/2 
f 39/21/18 50/27/18 47/27/18 46/21/18 
f 50/27/1 43/25/1 48/25/1 47/27/1 
f 43/25/16 37/19/16 45/19/16 48/25/16 
s 8
f 20/17/4 19/18/3 83/41/3 84/42/12 
f 23/16/6 20/17/4 84/42/12 85/43/6 
f 25/15/8 23/16/6 85/43/6 86/44/8 
f 27/14/9 25/15/8 86/44/8 87/45/14 
f 29/13/10 27/14/9 87/45/14 88/46/10 
s 16
f 30/47/16 29/18/16 88/41/16 89/48/16 
f 36/13/16 30/47/16 89/48/16 90/46/16 
s 32
f 35/17/17 36/18/17 90/41/17 91/42/17 
f 34/16/10 35/17/17 91/42/17 92/43/10 
f 33/15/17 34/16/10 92/43/10 93/44/17 
f 31/14/17 33/15/17 93/44/17 94/45/17 
f 32/13/17 31/14/17 94/45/17 95/46/17 
s 64
f 22/47/18 32/18/18 95/41/18 96/48/18 
f 19/13/18 22/47/18 96/48/18 83/46/18 
s 8
f 84/42/12 83/41/3 54/32/13 53/31/12 
f 85/43/6 84/42/12 53/31/12 55/33/6 
f 86/44/8 85/43/6 55/33/6 56/34/8 
f 87/45/14 86/44/8 56/34/8 57/35/14 
f 97/46/10 98/45/10 99/35/10 100/36/10 
s 16
f 89/48/16 88/41/16 58/32/16 63/40/16 
f 90/46/16 89/48/16 63/40/16 64/36/16 
s 32
f 91/42/17 90/41/17 64/32/17 75/31/17 
f 92/43/10 91/42/17 75/31/17 76/33/17 
f 93/44/17 92/43/10 76/33/17 77/34/17 
f 94/45/17 93/44/17 77/34/17 78/35/17 
f 95/46/17 94/45/17 78/35/17 79/36/17 
s 64
f 96/48/18 95/41/18 79/32/18 82/40/18 
f 83/46/18 96/48/18 82/40/18 54/36/18 
s off
f 88/46/19 87/45/19 98/45/19 97/46/19 
f 87/45/20 57/35/20 99/35/20 98/45/20 
f 57/35/21 58/36/21 100/36/21 99/35/21 
f 58/36/22 88/46/22 97/46/22 100/36/22 
# 98 polygons

