# 3ds Max Wavefront OBJ Exporter v0.97b - (c)2007 guruware
# File Created: 26.02.2016 09:59:58

mtllib WallA_001.mtl

#
# object WallA_001
#

v  150.0000 -46.5650 -18.4393
v  150.0000 -46.5650 -38.4393
v  150.0000 104.5149 -38.4393
v  150.0000 104.5149 -18.4393
v  -150.0000 104.5149 -18.4393
v  -150.0000 104.5149 -38.4393
v  -150.0000 -46.5650 -38.4393
v  -150.0000 -46.5650 -18.4393
v  -150.0000 150.0000 -38.4393
v  -57.2112 150.0000 -13.4742
v  57.2112 150.0000 -13.4742
v  150.0000 150.0000 -38.4393
v  -150.0000 -150.0000 -38.4393
v  150.0000 -150.0000 -38.4393
v  150.0000 -150.0000 1.0798
v  -150.0000 -150.0000 1.0798
v  150.0000 -89.0853 -2.9459
v  150.0000 -89.0853 -38.4393
v  150.0000 141.3028 -38.4393
v  150.0000 141.3028 -9.4180
v  150.0000 117.3253 -9.4180
v  150.0000 117.7760 -38.4393
v  -150.0000 141.3028 -9.4180
v  -150.0000 141.3028 -38.4393
v  -150.0000 117.7760 -38.4393
v  -150.0000 117.3253 -9.4180
v  -150.0000 -89.0853 -38.4393
v  -150.0000 -89.0853 -2.9459
v  150.0000 -138.4491 1.0798
v  150.0000 -138.4491 -38.4393
v  150.0000 -133.0544 -38.4393
v  150.0000 -133.0544 -2.9459
v  -150.0000 -138.4491 -38.4393
v  -150.0000 -138.4491 1.0798
v  -150.0000 -133.0544 -2.9459
v  -150.0000 -133.0544 -38.4393
v  150.0000 150.0000 -13.4742
v  150.0000 144.1010 -13.4742
v  150.0000 144.1010 -38.4393
v  -150.0000 150.0000 -13.4742
v  -150.0000 144.1010 -38.4393
v  -150.0000 144.1010 -13.4742
v  -57.2112 144.1010 -13.4742
v  57.2112 144.1010 -13.4742
v  -57.2112 141.3028 -9.4180
v  57.2112 141.3028 -9.4180
v  57.2112 149.9012 -9.4180
v  -57.2112 149.9012 -9.4180
v  21.8400 115.6936 -10.5671
v  -21.8400 115.6936 -10.5671
v  21.8400 119.4555 -9.4180
v  -21.8400 117.3253 -9.4180
v  -21.8400 119.4555 -9.4180
v  21.8400 117.3253 -9.4180
v  21.8400 118.6608 -10.5671
v  -21.8400 118.6608 -10.5671
v  46.0190 107.4097 -14.6762
v  46.0190 112.0911 -11.3795
v  45.5138 112.5042 -11.0886
v  -45.5138 106.9966 -14.9671
v  -45.5138 112.5042 -11.0886
v  -46.0190 112.0911 -11.3795
v  -46.0190 107.4097 -14.6762
v  45.5138 106.9966 -14.9671
v  -46.4996 107.1921 -14.7130
v  -46.4996 112.1990 -11.1871
v  -47.5945 112.5681 -10.9234
v  -47.5945 106.8195 -14.9716
v  -45.7129 106.5489 -15.1660
v  -46.1664 105.6519 -15.7939
v  45.7129 106.5489 -15.1660
v  46.1664 105.6519 -15.7939
v  46.4996 107.1921 -14.7130
v  47.5945 106.8195 -14.9716
v  46.4996 112.1990 -11.1871
v  47.5945 112.5681 -10.9234
v  45.7129 112.8423 -10.7341
v  46.1664 113.7357 -10.1011
v  -45.7129 112.8423 -10.7341
v  -46.1664 113.7357 -10.1011
v  -47.5945 113.8233 -12.7058
v  -47.5945 108.0747 -16.7540
v  -46.1664 106.9071 -17.5763
v  46.1664 106.9071 -17.5763
v  47.5945 108.0747 -16.7540
v  47.5945 113.8233 -12.7058
v  46.1664 114.9909 -11.8835
v  -46.1664 114.9909 -11.8835
v  142.7420 -49.8454 -15.1421
v  -142.7420 -49.8454 -15.1421
v  -145.7756 -52.6957 -14.1036
v  145.7756 -52.6957 -14.1036
v  143.3558 -101.3081 -0.9759
v  -143.3558 -101.3081 -0.9759
v  -143.3557 -113.5452 -0.9759
v  143.3557 -113.5452 -0.9759
v  145.7756 -88.7286 -1.0058
v  145.7756 -101.3081 -0.9759
v  142.7420 -128.8158 -0.9759
v  11.2651 -123.7223 -0.9759
v  11.2409 -128.8158 -0.9759
v  -11.2651 -123.7223 -0.9759
v  -145.7756 -113.5452 -0.9759
v  -145.7756 -125.7822 -0.9759
v  -142.7420 -128.8158 -0.9759
v  -145.7756 -88.7286 -1.0058
v  145.7756 -53.7056 -16.8753
v  142.7420 -50.8554 -17.9139
v  -142.7420 -50.8554 -17.9139
v  -145.7756 -53.7056 -16.8753
v  143.3557 -113.5452 -3.9259
v  143.3558 -101.3081 -3.9259
v  -143.3558 -101.3081 -3.9259
v  -143.3557 -113.5452 -3.9259
v  -145.7756 -89.2414 -3.9109
v  -145.7756 -101.3081 -3.9259
v  -145.7756 -101.3081 -0.9759
v  145.7756 -101.3081 -3.9259
v  145.7756 -89.2414 -3.9109
v  142.7420 -128.8158 -3.9259
v  145.7756 -125.7822 -3.9259
v  145.7756 -125.7822 -0.9759
v  11.2651 -123.7223 -3.9259
v  11.2409 -128.8158 -3.9259
v  -11.2651 -123.7223 -3.9259
v  -142.7420 -128.8158 -3.9259
v  -11.2409 -128.8158 -3.9259
v  -11.2409 -128.8158 -0.9759
v  -145.7756 -125.7822 -3.9259
v  145.7756 -113.5452 -3.9259
v  145.7756 -113.5452 -0.9759
v  -145.7756 -113.5452 -3.9259
# 132 vertices

vn 1.0000 0.0000 -0.0000
vn -1.0000 0.0000 -0.0000
vn 0.0000 1.0000 -0.0000
vn 0.0000 -1.0000 -0.0000
vn 0.0000 0.0000 1.0000
vn 0.0000 0.0000 -1.0000
vn -1.0000 0.0000 0.0000
vn 0.0000 0.3424 0.9396
vn 0.0000 0.5981 0.8015
vn 1.0000 -0.0000 -0.0000
vn -1.0000 -0.0000 -0.0000
vn 0.0000 -0.0000 1.0000
vn -0.0000 0.8231 0.5679
vn 0.0000 0.8231 0.5679
vn 0.0000 0.9997 0.0243
vn -1.0000 -0.0000 0.0000
vn -0.0000 -0.5758 0.8176
vn -0.0000 -0.0000 1.0000
vn 0.0000 -0.5758 0.8176
vn -0.0000 -0.8225 0.5688
vn 0.0000 -0.8225 0.5688
vn 1.0000 0.0000 0.0000
vn 0.0028 -0.5758 0.8176
vn 0.0020 -0.5741 0.8188
vn 0.0000 -0.5735 0.8192
vn -0.0020 -0.5741 0.8188
vn -0.0028 -0.5758 0.8176
vn -0.0020 -0.5774 0.8165
vn 0.0000 -0.5781 0.8160
vn 0.0020 -0.5774 0.8165
vn 0.1943 -0.5648 0.8020
vn 0.1374 -0.4525 0.8811
vn 0.0000 -0.4060 0.9139
vn -0.1374 -0.4525 0.8811
vn -0.1943 -0.5648 0.8020
vn -0.1374 -0.6771 0.7229
vn 0.0000 -0.7237 0.6902
vn 0.1374 -0.6771 0.7229
vn -0.7071 -0.5781 -0.4071
vn 0.0000 -0.8176 -0.5758
vn 0.7071 -0.5781 -0.4071
vn 0.7071 0.5781 0.4071
vn 0.0000 0.8176 0.5758
vn -0.7071 0.5781 0.4071
vn 0.0000 0.0024 1.0000
vn 0.0000 0.3416 0.9398
vn 0.7071 0.6644 -0.2421
vn 0.0000 0.9396 -0.3424
vn -0.7071 0.6644 -0.2421
vn 0.7071 -0.7071 -0.0000
vn -1.0000 0.0047 -0.0000
vn 1.0000 0.0047 -0.0000
vn -0.7071 -0.7071 -0.0000
# 53 vertex normals

vt 0.0195 0.9201 0.0000
vt 0.0343 0.9201 0.0000
vt 0.0343 0.8084 0.0000
vt 0.0195 0.8084 0.0000
vt 0.0166 0.5460 0.0000
vt 0.1560 0.5085 0.0000
vt 0.3279 0.5085 0.0000
vt 0.4673 0.5460 0.0000
vt 0.2573 0.7674 0.0000
vt 0.0355 0.7674 0.0000
vt 0.0355 0.7381 0.0000
vt 0.2573 0.7381 0.0000
vt 0.4697 0.4144 0.0000
vt 0.0130 0.4144 0.0000
vt 0.0130 0.1847 0.0000
vt 0.4697 0.1847 0.0000
vt 0.0355 0.8080 0.0000
vt 0.2573 0.8080 0.0000
vt 0.2573 0.9198 0.0000
vt 0.0355 0.9198 0.0000
vt 0.0081 0.9515 0.0000
vt 0.0343 0.9515 0.0000
vt 0.0343 0.7812 0.0000
vt 0.0129 0.7812 0.0000
vt 0.0129 0.7989 0.0000
vt 0.0343 0.7986 0.0000
vt 0.0130 0.1135 0.0000
vt 0.4697 0.1135 0.0000
vt 0.4697 0.1794 0.0000
vt 0.0130 0.1794 0.0000
vt 0.0355 0.7808 0.0000
vt 0.2573 0.7808 0.0000
vt 0.2573 0.7982 0.0000
vt 0.0355 0.7982 0.0000
vt 0.2573 0.9512 0.0000
vt 0.0355 0.9512 0.0000
vt 0.0051 0.9880 0.0000
vt 0.0343 0.9880 0.0000
vt 0.0343 0.9840 0.0000
vt 0.0081 0.9840 0.0000
vt 0.0130 0.0283 0.0000
vt 0.4697 0.0283 0.0000
vt 0.4697 0.0368 0.0000
vt 0.0130 0.0368 0.0000
vt 0.2573 0.9877 0.0000
vt 0.0355 0.9877 0.0000
vt 0.0355 0.9837 0.0000
vt 0.2573 0.9837 0.0000
vt 0.0051 0.9965 0.0000
vt 0.0343 0.9965 0.0000
vt 0.0130 0.0053 0.0000
vt 0.4697 0.0053 0.0000
vt 0.4697 0.0229 0.0000
vt 0.0130 0.0229 0.0000
vt 0.4697 0.1085 0.0000
vt 0.0130 0.1085 0.0000
vt 0.0130 0.0417 0.0000
vt 0.4697 0.0417 0.0000
vt 0.2573 0.9962 0.0000
vt 0.0355 0.9962 0.0000
vt 0.0343 0.7747 0.0000
vt 0.0159 0.7747 0.0000
vt 0.0159 0.7791 0.0000
vt 0.0343 0.7791 0.0000
vt 0.2573 0.7744 0.0000
vt 0.2573 0.7788 0.0000
vt 0.0355 0.7788 0.0000
vt 0.0355 0.7744 0.0000
vt 0.0166 0.5085 0.0000
vt 0.4673 0.5085 0.0000
vt 0.0094 0.4955 0.0000
vt 0.0094 0.4866 0.0000
vt 0.1506 0.4866 0.0000
vt 0.1506 0.4955 0.0000
vt 0.4728 0.4866 0.0000
vt 0.4728 0.4955 0.0000
vt 0.3315 0.4955 0.0000
vt 0.3315 0.4866 0.0000
vt 0.0094 0.4844 0.0000
vt 0.0094 0.4798 0.0000
vt 0.1506 0.4798 0.0000
vt 0.1506 0.4844 0.0000
vt 0.4728 0.4798 0.0000
vt 0.4728 0.4844 0.0000
vt 0.3315 0.4844 0.0000
vt 0.3315 0.4798 0.0000
vt 0.1542 0.4780 0.0000
vt 0.3284 0.4780 0.0000
vt 0.3284 0.4911 0.0000
vt 0.1542 0.4911 0.0000
vt 0.3279 0.5024 0.0000
vt 0.1560 0.5024 0.0000
vt 0.4183 0.5048 0.0000
vt 0.4141 0.4987 0.0000
vt 0.4270 0.4987 0.0000
vt 0.4271 0.5048 0.0000
vt 0.4431 0.5051 0.0000
vt 0.4301 0.5051 0.0000
vt 0.4344 0.4990 0.0000
vt 0.4432 0.4990 0.0000
vt 0.0130 0.4185 0.0000
vt 0.4697 0.4185 0.0000
vt 0.2746 0.4349 0.0000
vt 0.2081 0.4349 0.0000
vt 0.4697 0.4780 0.0000
vt 0.2746 0.4448 0.0000
vt 0.0130 0.4780 0.0000
vt 0.0130 0.4416 0.0000
vt 0.2081 0.4416 0.0000
vt 0.2081 0.4448 0.0000
vt 0.4697 0.4416 0.0000
vt 0.2746 0.4416 0.0000
vt 0.4697 0.4372 0.0000
vt 0.2746 0.4372 0.0000
vt 0.0130 0.4372 0.0000
vt 0.2081 0.4372 0.0000
vt 0.3409 0.5019 0.0000
vt 0.4065 0.5019 0.0000
vt 0.4065 0.5064 0.0000
vt 0.3409 0.5064 0.0000
vt 0.1212 0.5028 0.0000
vt 0.1212 0.5049 0.0000
vt 0.0556 0.5049 0.0000
vt 0.0556 0.5028 0.0000
vt 0.4540 0.5041 0.0000
vt 0.4540 0.4997 0.0000
vt 0.4557 0.5021 0.0000
vt 0.4557 0.5053 0.0000
vt 0.4507 0.5023 0.0000
vt 0.4524 0.4998 0.0000
vt 0.4524 0.5043 0.0000
vt 0.4507 0.5055 0.0000
vt 0.3941 0.6902 0.0000
vt 0.3941 0.7003 0.0000
vt 0.3932 0.7012 0.0000
vt 0.2326 0.6893 0.0000
vt 0.2326 0.7012 0.0000
vt 0.2317 0.7003 0.0000
vt 0.2317 0.6902 0.0000
vt 0.3932 0.6893 0.0000
vt 0.2309 0.6899 0.0000
vt 0.2309 0.7007 0.0000
vt 0.2289 0.7015 0.0000
vt 0.2289 0.6891 0.0000
vt 0.2323 0.6885 0.0000
vt 0.2315 0.6865 0.0000
vt 0.3935 0.6885 0.0000
vt 0.3943 0.6865 0.0000
vt 0.3949 0.6899 0.0000
vt 0.3968 0.6891 0.0000
vt 0.3949 0.7007 0.0000
vt 0.3968 0.7015 0.0000
vt 0.3935 0.7021 0.0000
vt 0.3943 0.7040 0.0000
vt 0.2323 0.7021 0.0000
vt 0.2315 0.7040 0.0000
vt 0.2449 0.7259 0.0000
vt 0.2318 0.7264 0.0000
vt 0.2316 0.7223 0.0000
vt 0.2447 0.7218 0.0000
vt 0.2291 0.7265 0.0000
vt 0.2289 0.7224 0.0000
vt 0.4089 0.7136 0.0000
vt 0.2289 0.7136 0.0000
vt 0.2289 0.7101 0.0000
vt 0.4089 0.7101 0.0000
vt 0.2473 0.7204 0.0000
vt 0.2447 0.7202 0.0000
vt 0.2450 0.7161 0.0000
vt 0.2476 0.7163 0.0000
vt 0.2316 0.7192 0.0000
vt 0.2319 0.7151 0.0000
vt 0.2289 0.7189 0.0000
vt 0.2293 0.7149 0.0000
vt 0.2289 0.7053 0.0000
vt 0.4089 0.7053 0.0000
vt 0.4089 0.7088 0.0000
vt 0.2289 0.7088 0.0000
vt 0.2475 0.7258 0.0000
vt 0.2474 0.7217 0.0000
vt 0.4514 0.6724 0.0000
vt 0.0094 0.6724 0.0000
vt 0.0047 0.6679 0.0000
vt 0.4561 0.6679 0.0000
vt 0.4524 0.5915 0.0000
vt 0.0085 0.5915 0.0000
vt 0.0085 0.5726 0.0000
vt 0.4524 0.5726 0.0000
vt 0.4561 0.6109 0.0000
vt 0.4561 0.5915 0.0000
vt 0.4514 0.5490 0.0000
vt 0.2479 0.5568 0.0000
vt 0.2478 0.5490 0.0000
vt 0.2130 0.5568 0.0000
vt 0.0047 0.5726 0.0000
vt 0.0047 0.5537 0.0000
vt 0.0094 0.5490 0.0000
vt 0.0047 0.6109 0.0000
vt 0.0869 0.7103 0.0000
vt 0.0916 0.7100 0.0000
vt 0.0920 0.7145 0.0000
vt 0.0873 0.7149 0.0000
vt 0.0093 0.6762 0.0000
vt 0.4516 0.6762 0.0000
vt 0.4516 0.6805 0.0000
vt 0.0093 0.6805 0.0000
vt 0.0917 0.7039 0.0000
vt 0.0870 0.7037 0.0000
vt 0.0872 0.6992 0.0000
vt 0.0919 0.6994 0.0000
vt 0.1323 0.6967 0.0000
vt 0.1512 0.6967 0.0000
vt 0.1512 0.7012 0.0000
vt 0.1323 0.7012 0.0000
vt 0.0282 0.7350 0.0000
vt 0.0093 0.7350 0.0000
vt 0.0093 0.7304 0.0000
vt 0.0282 0.7304 0.0000
vt 0.0285 0.7012 0.0000
vt 0.0106 0.7068 0.0000
vt 0.0093 0.7025 0.0000
vt 0.0279 0.6967 0.0000
vt 0.0093 0.7419 0.0000
vt 0.0093 0.7381 0.0000
vt 0.0138 0.7381 0.0000
vt 0.0138 0.7419 0.0000
vt 0.0105 0.7101 0.0000
vt 0.0285 0.7151 0.0000
vt 0.0281 0.7196 0.0000
vt 0.0093 0.7145 0.0000
vt 0.1544 0.7004 0.0000
vt 0.1544 0.6967 0.0000
vt 0.1589 0.6967 0.0000
vt 0.1589 0.7004 0.0000
vt 0.0951 0.7100 0.0000
vt 0.0998 0.7100 0.0000
vt 0.0998 0.7145 0.0000
vt 0.0951 0.7145 0.0000
vt 0.1298 0.7145 0.0000
vt 0.1219 0.7145 0.0000
vt 0.1219 0.7100 0.0000
vt 0.1298 0.7100 0.0000
vt 0.2130 0.6874 0.0000
vt 0.0093 0.6874 0.0000
vt 0.0093 0.6828 0.0000
vt 0.2130 0.6828 0.0000
vt 0.1299 0.7012 0.0000
vt 0.0950 0.7012 0.0000
vt 0.0950 0.6967 0.0000
vt 0.1299 0.6967 0.0000
vt 0.2130 0.6943 0.0000
vt 0.0093 0.6943 0.0000
vt 0.0093 0.6897 0.0000
vt 0.2130 0.6897 0.0000
vt 0.0360 0.7228 0.0000
vt 0.0439 0.7228 0.0000
vt 0.0439 0.7273 0.0000
vt 0.0360 0.7273 0.0000
vt 0.0140 0.7273 0.0000
vt 0.0093 0.7273 0.0000
vt 0.0093 0.7228 0.0000
vt 0.0140 0.7228 0.0000
vt 0.1188 0.7100 0.0000
vt 0.1188 0.7145 0.0000
vt 0.2199 0.6828 0.0000
vt 0.2199 0.6866 0.0000
vt 0.2154 0.6866 0.0000
vt 0.2154 0.6828 0.0000
vt 0.2199 0.6897 0.0000
vt 0.2199 0.6935 0.0000
vt 0.2154 0.6935 0.0000
vt 0.2154 0.6897 0.0000
vt 0.0329 0.7273 0.0000
vt 0.0329 0.7228 0.0000
vt 0.2130 0.5490 0.0000
vt 0.4561 0.5537 0.0000
vt 0.4561 0.5726 0.0000
vt 0.0047 0.5915 0.0000
# 278 texture coords

g WallA_001
usemtl 02___Default
s off
f 1/1/1 2/2/1 3/3/1 4/4/1 
f 5/4/2 6/3/2 7/2/2 8/1/2 
f 9/5/3 10/6/3 11/7/3 12/8/3 
f 13/9/4 14/10/4 15/11/4 16/12/4 
f 4/13/5 5/14/5 8/15/5 1/16/5 
f 6/17/6 3/18/6 2/19/6 7/20/6 
f 17/21/1 18/22/1 2/2/1 1/1/1 
f 19/23/1 20/24/1 21/25/1 22/26/1 
f 23/24/7 24/23/7 25/26/7 26/25/7 
f 27/22/2 28/21/2 8/1/2 7/2/2 
f 28/27/8 17/28/8 1/29/8 8/30/8 
f 24/31/6 19/32/6 22/33/6 25/34/6 
f 18/35/6 27/36/6 7/20/6 2/19/6 
f 29/37/1 30/38/1 31/39/1 32/40/1 
f 33/38/2 34/37/2 35/40/2 36/39/2 
f 34/41/9 29/42/9 32/43/9 35/44/9 
f 30/45/6 33/46/6 36/47/6 31/48/6 
f 15/49/1 14/50/1 30/38/1 29/37/1 
f 18/22/10 17/21/10 32/40/10 31/39/10 
f 13/50/2 16/49/2 34/37/2 33/38/2 
f 28/21/11 27/22/11 36/39/11 35/40/11 
f 16/51/5 15/52/5 29/53/5 34/54/5 
f 17/55/12 28/56/12 35/57/12 32/58/12 
f 14/59/6 13/60/6 33/46/6 30/45/6 
f 27/36/6 18/35/6 31/48/6 36/47/6 
f 12/61/1 37/62/1 38/63/1 39/64/1 
f 4/4/1 3/3/1 22/26/1 21/25/1 
f 40/62/2 9/61/2 41/64/2 42/63/2 
f 6/3/2 5/4/2 26/25/2 25/26/2 
f 12/65/6 39/66/6 41/67/6 9/68/6 
f 3/18/6 6/17/6 25/34/6 22/33/6 
f 39/64/1 38/63/1 20/24/1 19/23/1 
f 42/63/2 41/64/2 24/23/2 23/24/2 
f 39/66/6 19/32/6 24/31/6 41/67/6 
f 9/5/3 40/69/3 10/6/3 
f 11/7/3 37/70/3 12/8/3 
f 40/71/5 42/72/5 43/73/5 10/74/5 
f 38/75/5 37/76/5 11/77/5 44/78/5 
f 42/79/13 23/80/13 45/81/13 43/82/13 
f 20/83/14 38/84/14 44/85/14 46/86/14 
f 45/87/5 46/88/5 47/89/5 48/90/5 
s 1
f 47/91/15 11/7/15 10/6/15 48/92/15 
s off
f 43/93/16 45/94/16 48/95/16 10/96/16 
f 47/97/1 46/98/1 44/99/1 11/100/1 
f 5/101/17 4/102/17 49/103/17 50/104/17 
f 20/105/12 46/88/12 51/106/12 
f 23/107/12 26/108/12 52/109/12 53/110/12 
f 21/111/18 20/105/18 51/106/18 54/112/18 
f 4/102/19 21/113/19 54/114/19 49/103/19 
f 26/115/19 5/101/19 50/104/19 52/116/19 
f 50/117/5 49/118/5 55/119/5 56/120/5 
s 1
f 55/121/20 51/122/21 53/123/20 56/124/20 
s off
f 55/125/11 49/126/11 54/127/11 51/128/11 
f 52/129/22 50/130/22 56/131/22 53/132/22 
f 45/87/18 23/107/18 53/110/18 
f 45/87/12 53/110/12 51/106/12 46/88/12 
f 57/133/19 58/134/19 59/135/19 60/136/19 
f 59/135/19 61/137/19 62/138/19 60/136/19 
f 62/138/17 63/139/17 60/136/17 
f 57/133/19 60/136/19 64/140/19 
f 65/141/23 66/142/23 67/143/23 68/144/23 
f 69/145/24 65/141/24 68/144/24 70/146/24 
f 71/147/25 69/145/25 70/146/25 72/148/25 
f 73/149/26 71/147/26 72/148/26 74/150/26 
f 75/151/27 73/149/27 74/150/27 76/152/27 
f 77/153/28 75/151/28 76/152/28 78/154/28 
f 79/155/29 77/153/29 78/154/29 80/156/29 
f 66/142/30 79/155/30 80/156/30 67/143/30 
f 63/139/31 62/138/31 66/142/31 65/141/31 
f 60/136/32 63/139/32 65/141/32 69/145/32 
f 64/140/33 60/136/33 69/145/33 71/147/33 
f 57/133/34 64/140/34 71/147/34 73/149/34 
f 58/134/35 57/133/35 73/149/35 75/151/35 
f 59/135/36 58/134/36 75/151/36 77/153/36 
f 61/137/37 59/135/37 77/153/37 79/155/37 
f 62/138/38 61/137/38 79/155/38 66/142/38 
s 1
f 81/157/2 82/158/2 68/159/2 67/160/2 
s 256
f 82/158/39 83/161/39 70/162/39 68/159/39 
s 2
f 83/163/40 84/164/40 72/165/40 70/166/40 
s 256
f 84/167/41 85/168/41 74/169/41 72/170/41 
s 1
f 85/168/1 86/171/1 76/172/1 74/169/1 
s 256
f 86/171/42 87/173/42 78/174/42 76/172/42 
s 2
f 87/175/43 88/176/43 80/177/43 78/178/43 
s 256
f 88/179/44 81/157/44 67/160/44 80/180/44 
s off
f 89/181/8 90/182/8 91/183/8 92/184/8 
f 93/185/12 94/186/12 95/187/12 96/188/12 
f 97/189/45 93/185/45 98/190/45 
f 99/191/12 96/188/12 100/192/12 101/193/12 
f 95/187/12 102/194/12 100/192/12 96/188/12 
f 95/187/12 103/195/12 104/196/12 105/197/12 
f 92/184/46 91/183/46 106/198/46 97/189/46 
s 256
f 107/199/47 108/200/47 89/201/47 92/202/47 
s 2
f 108/203/48 109/204/48 90/205/48 89/206/48 
s 256
f 109/207/49 110/208/49 91/209/49 90/210/49 
s 1
f 111/211/10 112/212/10 93/213/10 96/214/10 
f 113/215/11 114/216/11 95/217/11 94/218/11 
f 115/219/2 116/220/2 117/221/2 106/222/2 
s 2
f 116/223/4 113/224/4 94/225/4 117/226/4 
s 1
f 118/227/1 119/228/1 97/229/1 98/230/1 
s 2
f 112/231/4 118/232/4 98/233/4 93/234/4 
s 256
f 120/235/50 121/236/50 122/237/50 99/238/50 
s 1
f 123/239/51 124/240/51 101/241/51 100/242/51 
s 2
f 124/243/4 120/244/4 99/245/4 101/246/4 
f 125/247/4 123/248/4 100/249/4 102/250/4 
s 1
f 126/251/4 127/252/4 128/253/4 105/254/4 
s 4
f 127/255/52 125/256/52 102/257/52 128/258/52 
s 256
f 129/259/53 126/260/53 105/261/53 104/262/53 
s 1
f 121/236/1 130/263/1 131/264/1 122/237/1 
s 2
f 130/265/3 111/266/3 96/267/3 131/268/3 
s 4
f 114/269/3 132/270/3 103/271/3 95/272/3 
s 2
f 132/273/2 129/259/2 104/262/2 103/274/2 
s 1
f 119/228/1 107/199/1 92/202/1 97/229/1 
f 110/208/2 115/219/2 106/222/2 91/209/2 
s off
f 105/197/18 128/275/18 102/194/18 95/187/18 
f 122/276/18 131/277/18 96/188/18 99/191/18 
f 106/198/45 94/186/45 93/185/45 97/189/45 
f 106/198/45 117/278/45 94/186/45 
# 109 polygons - 8 triangles

