# 3ds Max Wavefront OBJ Exporter v0.97b - (c)2007 guruware
# File Created: 11.02.2016 10:52:06

mtllib WallA_003.mtl

#
# object WallA_003
#

v  150.0000 -150.0000 10.0000
v  -150.0000 -150.0000 10.0000
v  -150.0000 -150.0000 -10.0000
v  150.0000 -150.0000 -10.0000
v  150.0000 150.0000 10.0000
v  -150.0000 150.0000 10.0000
v  150.0000 150.0000 -10.0000
v  -150.0000 150.0000 -10.0000
# 8 vertices

vn 0.0000 -1.0000 -0.0000
vn 0.0000 -0.0000 1.0000
vn 1.0000 0.0000 -0.0000
vn 0.0000 0.0000 -1.0000
vn -1.0000 0.0000 -0.0000
vn 0.0000 1.0000 0.0000
# 6 vertex normals

vt 0.0000 0.0000 0.0000
vt 118.1100 0.0000 0.0000
vt 118.1100 7.8740 0.0000
vt -0.0000 7.8740 0.0000
vt 0.0000 118.1100 0.0000
vt -118.1100 118.1100 0.0000
vt -118.1100 0.0000 0.0000
vt -118.1100 7.8740 0.0000
vt -0.0000 118.1100 0.0000
vt -0.0000 0.0000 0.0000
vt 118.1100 118.1100 0.0000
vt 0.0000 7.8740 0.0000
# 12 texture coords

g WallA_003
usemtl 01___Default
s off
f 1/1/1 2/2/1 3/3/1 4/4/1 
f 1/1/2 5/5/2 6/6/2 2/7/2 
f 5/7/3 1/1/3 4/4/3 7/8/3 
f 7/9/4 4/10/4 3/2/4 8/11/4 
f 2/1/5 6/2/5 8/3/5 3/4/5 
f 6/7/6 5/1/6 7/12/6 8/8/6 
# 6 polygons

