# 3ds Max Wavefront OBJ Exporter v0.97b - (c)2007 guruware
# File Created: 16.02.2016 12:50:10

#
# object WaterContA_001
#

v  -1.5029 1.5715 -2.2561
v  -1.5097 1.5715 -2.2815
v  -1.5097 1.6347 -2.2815
v  -1.5029 1.6347 -2.2561
v  -1.5283 1.5715 -2.3001
v  -1.5283 1.6347 -2.3001
v  -1.5537 1.5715 -2.3069
v  -1.5537 1.6347 -2.3069
v  -1.5791 1.5715 -2.3001
v  -1.5791 1.6347 -2.3001
v  -1.5977 1.5715 -2.2815
v  -1.5977 1.6347 -2.2815
v  -1.6045 1.5715 -2.2561
v  -1.6045 1.6347 -2.2561
v  -1.5977 1.5715 -2.2308
v  -1.5977 1.6347 -2.2308
v  -1.5791 1.5715 -2.2122
v  -1.5791 1.6347 -2.2122
v  -1.5537 1.5715 -2.2054
v  -1.5537 1.6347 -2.2054
v  -1.5283 1.5715 -2.2122
v  -1.5283 1.6347 -2.2122
v  -1.5097 1.5715 -2.2308
v  -1.5097 1.6347 -2.2308
v  -1.3763 1.6950 -2.3586
v  -1.3488 1.6950 -2.2561
v  -1.4513 1.6950 -2.4336
v  -1.5537 1.6950 -2.4610
v  -1.6561 1.6950 -2.4336
v  -1.7311 1.6950 -2.3586
v  -1.7585 1.6950 -2.2561
v  -1.7311 1.6950 -2.1537
v  -1.6561 1.6950 -2.0787
v  -1.5537 1.6950 -2.0513
v  -1.4513 1.6950 -2.0787
v  -1.3763 1.6950 -2.1537
v  -1.3540 1.7224 -2.3715
v  -1.3231 1.7224 -2.2561
v  -1.4384 1.7224 -2.4559
v  -1.5537 1.7224 -2.4868
v  -1.6690 1.7224 -2.4559
v  -1.7534 1.7224 -2.3715
v  -1.7843 1.7224 -2.2561
v  -1.7534 1.7224 -2.1408
v  -1.6690 1.7224 -2.0564
v  -1.5537 1.7224 -2.0255
v  -1.4384 1.7224 -2.0564
v  -1.3540 1.7224 -2.1408
v  -1.3117 1.7224 -2.2561
v  -1.3441 1.7224 -2.3772
v  -1.3441 1.7893 -2.3772
v  -1.3117 1.7893 -2.2561
v  -1.4327 1.7224 -2.4657
v  -1.4327 1.7893 -2.4657
v  -1.5537 1.7224 -2.4982
v  -1.5537 1.7893 -2.4982
v  -1.6747 1.7224 -2.4657
v  -1.6747 1.7893 -2.4657
v  -1.7633 1.7224 -2.3772
v  -1.7633 1.7893 -2.3772
v  -1.7957 1.7224 -2.2561
v  -1.7957 1.7893 -2.2561
v  -1.7633 1.7224 -2.1351
v  -1.7633 1.7893 -2.1351
v  -1.6747 1.7224 -2.0466
v  -1.6747 1.7893 -2.0466
v  -1.5537 1.7224 -2.0141
v  -1.5537 1.7893 -2.0141
v  -1.4327 1.7224 -2.0466
v  -1.4327 1.7893 -2.0466
v  -1.3441 1.7224 -2.1351
v  -1.3441 1.7893 -2.1351
v  -1.3231 1.7893 -2.2561
v  -1.3540 1.7893 -2.3715
v  -1.3540 2.2014 -2.3715
v  -1.3231 2.2014 -2.2561
v  -1.4384 1.7893 -2.4559
v  -1.4384 2.2014 -2.4559
v  -1.5537 1.7893 -2.4868
v  -1.5537 2.2014 -2.4868
v  -1.6690 1.7893 -2.4559
v  -1.6690 2.2014 -2.4559
v  -1.7534 1.7893 -2.3715
v  -1.7534 2.2014 -2.3715
v  -1.7843 1.7893 -2.2561
v  -1.7843 2.2014 -2.2561
v  -1.7534 1.7893 -2.1408
v  -1.7534 2.2014 -2.1408
v  -1.6690 1.7893 -2.0564
v  -1.6690 2.2014 -2.0564
v  -1.5537 1.7893 -2.0255
v  -1.5537 2.2014 -2.0255
v  -1.4384 1.7893 -2.0564
v  -1.4384 2.2014 -2.0564
v  -1.3540 1.7893 -2.1408
v  -1.3540 2.2014 -2.1408
v  -1.3117 2.2014 -2.2561
v  -1.3441 2.2014 -2.3772
v  -1.3441 2.2710 -2.3772
v  -1.3117 2.2710 -2.2561
v  -1.4327 2.2014 -2.4657
v  -1.4327 2.2710 -2.4657
v  -1.5537 2.2014 -2.4982
v  -1.5537 2.2710 -2.4982
v  -1.6747 2.2014 -2.4657
v  -1.6747 2.2710 -2.4657
v  -1.7633 2.2014 -2.3772
v  -1.7633 2.2710 -2.3772
v  -1.7957 2.2014 -2.2561
v  -1.7957 2.2710 -2.2561
v  -1.7633 2.2014 -2.1351
v  -1.7633 2.2710 -2.1351
v  -1.6747 2.2014 -2.0466
v  -1.6747 2.2710 -2.0466
v  -1.5537 2.2014 -2.0141
v  -1.5537 2.2710 -2.0141
v  -1.4327 2.2014 -2.0466
v  -1.4327 2.2710 -2.0466
v  -1.3441 2.2014 -2.1351
v  -1.3441 2.2710 -2.1351
v  -1.3231 2.2710 -2.2561
v  -1.3540 2.2710 -2.3715
v  -1.4077 2.3037 -2.3405
v  -1.3851 2.3037 -2.2561
v  -1.4384 2.2710 -2.4559
v  -1.4694 2.3037 -2.4022
v  -1.5537 2.2710 -2.4868
v  -1.5537 2.3037 -2.4248
v  -1.6690 2.2710 -2.4559
v  -1.6380 2.3037 -2.4022
v  -1.7534 2.2710 -2.3715
v  -1.6997 2.3037 -2.3405
v  -1.7843 2.2710 -2.2561
v  -1.7223 2.3037 -2.2561
v  -1.7534 2.2710 -2.1408
v  -1.6997 2.3037 -2.1718
v  -1.6690 2.2710 -2.0564
v  -1.6380 2.3037 -2.1101
v  -1.5537 2.2710 -2.0255
v  -1.5537 2.3037 -2.0875
v  -1.4384 2.2710 -2.0564
v  -1.4694 2.3037 -2.1101
v  -1.3540 2.2710 -2.1408
v  -1.4077 2.3037 -2.1718
# 144 vertices

vn 1.0000 0.0000 0.0000
vn 0.8660 0.0000 -0.5000
vn 0.6853 -0.6115 -0.3956
vn 0.7913 -0.6115 0.0000
vn 0.5000 0.0000 -0.8660
vn 0.3956 -0.6115 -0.6853
vn 0.0000 0.0000 -1.0000
vn -0.0000 -0.6115 -0.7913
vn -0.5000 0.0000 -0.8660
vn -0.3956 -0.6115 -0.6853
vn -0.8660 0.0000 -0.5000
vn -0.6853 -0.6115 -0.3956
vn -1.0000 0.0000 -0.0000
vn -0.7913 -0.6115 -0.0000
vn -0.8660 0.0000 0.5000
vn -0.6853 -0.6115 0.3956
vn -0.5000 0.0000 0.8660
vn -0.3956 -0.6115 0.6853
vn -0.0000 0.0000 1.0000
vn -0.0000 -0.6115 0.7913
vn 0.5000 0.0000 0.8660
vn 0.3956 -0.6115 0.6853
vn 0.8660 0.0000 0.5000
vn 0.6853 -0.6115 0.3956
vn 0.5059 -0.8116 -0.2921
vn 0.5842 -0.8116 0.0000
vn 0.2921 -0.8116 -0.5059
vn -0.0000 -0.8116 -0.5842
vn -0.2921 -0.8116 -0.5059
vn -0.5059 -0.8116 -0.2921
vn -0.5842 -0.8116 -0.0000
vn -0.5059 -0.8116 0.2921
vn -0.2921 -0.8116 0.5059
vn -0.0000 -0.8116 0.5842
vn 0.2921 -0.8116 0.5059
vn 0.5059 -0.8116 0.2921
vn 0.6307 -0.6852 -0.3642
vn 0.7283 -0.6852 0.0000
vn 0.3642 -0.6852 -0.6307
vn -0.0000 -0.6852 -0.7283
vn -0.3642 -0.6852 -0.6307
vn -0.6307 -0.6852 -0.3642
vn -0.7283 -0.6852 -0.0000
vn -0.6307 -0.6852 0.3642
vn -0.3642 -0.6852 0.6307
vn -0.0000 -0.6852 0.7283
vn 0.3642 -0.6852 0.6307
vn 0.6307 -0.6852 0.3642
vn -0.0000 0.0000 -1.0000
vn -1.0000 0.0000 0.0000
vn 0.4669 0.8843 0.0000
vn 0.4044 0.8843 -0.2335
vn 0.2335 0.8843 -0.4044
vn -0.0000 0.8843 -0.4669
vn -0.2335 0.8843 -0.4044
vn -0.4044 0.8843 -0.2335
vn -0.4669 0.8843 -0.0000
vn -0.4044 0.8843 0.2335
vn -0.2335 0.8843 0.4044
vn -0.0000 0.8843 0.4669
vn 0.2335 0.8843 0.4044
vn 0.4044 0.8843 0.2335
vn 0.0000 -1.0000 -0.0000
vn 0.0000 1.0000 -0.0000
# 64 vertex normals

vt 0.7500 0.0000 1.0000
vt 0.8333 0.0000 1.0000
vt 0.8333 0.1429 1.0000
vt 0.7500 0.1429 1.0000
vt 0.9167 0.0000 1.0000
vt 0.9167 0.1429 1.0000
vt 1.0000 0.0000 1.0000
vt 1.0000 0.1429 1.0000
vt 0.0000 0.0000 1.0000
vt 0.0833 0.0000 1.0000
vt 0.0833 0.1429 1.0000
vt 0.0000 0.1429 1.0000
vt 0.1667 0.0000 1.0000
vt 0.1667 0.1429 1.0000
vt 0.2500 0.0000 1.0000
vt 0.2500 0.1429 1.0000
vt 0.3333 0.0000 1.0000
vt 0.3333 0.1429 1.0000
vt 0.4167 0.0000 1.0000
vt 0.4167 0.1429 1.0000
vt 0.5000 0.0000 1.0000
vt 0.5000 0.1429 1.0000
vt 0.5833 0.0000 1.0000
vt 0.5833 0.1429 1.0000
vt 0.6667 0.0000 1.0000
vt 0.6667 0.1429 1.0000
vt 0.8333 0.2857 1.0000
vt 0.7500 0.2857 1.0000
vt 0.9167 0.2857 1.0000
vt 1.0000 0.2857 1.0000
vt 0.0833 0.2857 1.0000
vt 0.0000 0.2857 1.0000
vt 0.1667 0.2857 1.0000
vt 0.2500 0.2857 1.0000
vt 0.3333 0.2857 1.0000
vt 0.4167 0.2857 1.0000
vt 0.5000 0.2857 1.0000
vt 0.5833 0.2857 1.0000
vt 0.6667 0.2857 1.0000
vt 0.8333 0.4286 1.0000
vt 0.7500 0.4286 1.0000
vt 0.9167 0.4286 1.0000
vt 1.0000 0.4286 1.0000
vt 0.0833 0.4286 1.0000
vt 0.0000 0.4286 1.0000
vt 0.1667 0.4286 1.0000
vt 0.2500 0.4286 1.0000
vt 0.3333 0.4286 1.0000
vt 0.4167 0.4286 1.0000
vt 0.5000 0.4286 1.0000
vt 0.5833 0.4286 1.0000
vt 0.6667 0.4286 1.0000
vt 0.8333 0.5714 1.0000
vt 0.7500 0.5714 1.0000
vt 0.9167 0.5714 1.0000
vt 1.0000 0.5714 1.0000
vt 0.0833 0.5714 1.0000
vt 0.0000 0.5714 1.0000
vt 0.1667 0.5714 1.0000
vt 0.2500 0.5714 1.0000
vt 0.3333 0.5714 1.0000
vt 0.4167 0.5714 1.0000
vt 0.5000 0.5714 1.0000
vt 0.5833 0.5714 1.0000
vt 0.6667 0.5714 1.0000
vt 0.8333 0.7143 1.0000
vt 0.7500 0.7143 1.0000
vt 0.9167 0.7143 1.0000
vt 1.0000 0.7143 1.0000
vt 0.0833 0.7143 1.0000
vt 0.0000 0.7143 1.0000
vt 0.1667 0.7143 1.0000
vt 0.2500 0.7143 1.0000
vt 0.3333 0.7143 1.0000
vt 0.4167 0.7143 1.0000
vt 0.5000 0.7143 1.0000
vt 0.5833 0.7143 1.0000
vt 0.6667 0.7143 1.0000
vt 0.8333 0.8571 1.0000
vt 0.7500 0.8571 1.0000
vt 0.9167 0.8571 1.0000
vt 1.0000 0.8571 1.0000
vt 0.0833 0.8571 1.0000
vt 0.0000 0.8571 1.0000
vt 0.1667 0.8571 1.0000
vt 0.2500 0.8571 1.0000
vt 0.3333 0.8571 1.0000
vt 0.4167 0.8571 1.0000
vt 0.5000 0.8571 1.0000
vt 0.5833 0.8571 1.0000
vt 0.6667 0.8571 1.0000
vt 0.8333 1.0000 1.0000
vt 0.7500 1.0000 1.0000
vt 0.9167 1.0000 1.0000
vt 1.0000 1.0000 1.0000
vt 0.0833 1.0000 1.0000
vt 0.0000 1.0000 1.0000
vt 0.1667 1.0000 1.0000
vt 0.2500 1.0000 1.0000
vt 0.3333 1.0000 1.0000
vt 0.4167 1.0000 1.0000
vt 0.5000 1.0000 1.0000
vt 0.5833 1.0000 1.0000
vt 0.6667 1.0000 1.0000
vt 0.9330 0.7500 -0.2500
vt 1.0000 0.5000 -0.2500
vt 0.9330 0.2500 -0.2500
vt 0.5000 1.0000 -0.2500
vt 0.7500 0.0670 -0.2500
vt 0.5000 0.0000 -0.2500
vt 0.0670 0.2500 -0.2500
vt 0.2500 0.0670 -0.2500
vt 0.0000 0.5000 -0.2500
vt 0.0670 0.7500 -0.2500
vt 0.2500 0.9330 -0.2500
vt 0.7500 0.9330 -0.2500
vt 0.2500 0.9330 0.2500
vt 0.0670 0.7500 0.2500
vt 0.0000 0.5000 0.2500
vt 0.7500 0.9330 0.2500
vt 0.0670 0.2500 0.2500
vt 0.2500 0.0670 0.2500
vt 0.7500 0.0670 0.2500
vt 0.5000 0.0000 0.2500
vt 0.9330 0.2500 0.2500
vt 1.0000 0.5000 0.2500
vt 0.9330 0.7500 0.2500
vt 0.5000 1.0000 0.2500
# 128 texture coords

g WaterContA_001
s 8
f 1/1/1 2/2/2 3/3/3 4/4/4 
f 2/2/2 5/5/5 6/6/6 3/3/3 
f 5/5/5 7/7/7 8/8/8 6/6/6 
f 7/9/7 9/10/9 10/11/10 8/12/8 
f 9/10/9 11/13/11 12/14/12 10/11/10 
f 11/13/11 13/15/13 14/16/14 12/14/12 
f 13/15/13 15/17/15 16/18/16 14/16/14 
f 15/17/15 17/19/17 18/20/18 16/18/16 
f 17/19/17 19/21/19 20/22/20 18/20/18 
f 19/21/19 21/23/21 22/24/22 20/22/20 
f 21/23/21 23/25/23 24/26/24 22/24/22 
f 23/25/23 1/1/1 4/4/4 24/26/24 
f 4/4/4 3/3/3 25/27/25 26/28/26 
f 3/3/3 6/6/6 27/29/27 25/27/25 
f 6/6/6 8/8/8 28/30/28 27/29/27 
f 8/12/8 10/11/10 29/31/29 28/32/28 
f 10/11/10 12/14/12 30/33/30 29/31/29 
f 12/14/12 14/16/14 31/34/31 30/33/30 
f 14/16/14 16/18/16 32/35/32 31/34/31 
f 16/18/16 18/20/18 33/36/33 32/35/32 
f 18/20/18 20/22/20 34/37/34 33/36/33 
f 20/22/20 22/24/22 35/38/35 34/37/34 
f 22/24/22 24/26/24 36/39/36 35/38/35 
f 24/26/24 4/4/4 26/28/26 36/39/36 
f 26/28/26 25/27/25 37/40/37 38/41/38 
f 25/27/25 27/29/27 39/42/39 37/40/37 
f 27/29/27 28/30/28 40/43/40 39/42/39 
f 28/32/28 29/31/29 41/44/41 40/45/40 
f 29/31/29 30/33/30 42/46/42 41/44/41 
f 30/33/30 31/34/31 43/47/43 42/46/42 
f 31/34/31 32/35/32 44/48/44 43/47/43 
f 32/35/32 33/36/33 45/49/45 44/48/44 
f 33/36/33 34/37/34 46/50/46 45/49/45 
f 34/37/34 35/38/35 47/51/47 46/50/46 
f 35/38/35 36/39/36 48/52/48 47/51/47 
f 36/39/36 26/28/26 38/41/38 48/52/48 
f 49/41/1 50/40/2 51/53/2 52/54/1 
f 50/40/2 53/42/5 54/55/5 51/53/2 
f 53/42/5 55/43/7 56/56/49 54/55/5 
f 55/45/7 57/44/9 58/57/9 56/58/49 
f 57/44/9 59/46/11 60/59/11 58/57/9 
f 59/46/11 61/47/50 62/60/50 60/59/11 
f 61/47/50 63/48/15 64/61/15 62/60/50 
f 63/48/15 65/49/17 66/62/17 64/61/15 
f 65/49/17 67/50/19 68/63/19 66/62/17 
f 67/50/19 69/51/21 70/64/21 68/63/19 
f 69/51/21 71/52/23 72/65/23 70/64/21 
f 71/52/23 49/41/1 52/54/1 72/65/23 
f 73/54/1 74/53/2 75/66/2 76/67/1 
f 74/53/2 77/55/5 78/68/5 75/66/2 
f 77/55/5 79/56/49 80/69/49 78/68/5 
f 79/58/49 81/57/9 82/70/9 80/71/49 
f 81/57/9 83/59/11 84/72/11 82/70/9 
f 83/59/11 85/60/13 86/73/13 84/72/11 
f 85/60/13 87/61/15 88/74/15 86/73/13 
f 87/61/15 89/62/17 90/75/17 88/74/15 
f 89/62/17 91/63/19 92/76/19 90/75/17 
f 91/63/19 93/64/21 94/77/21 92/76/19 
f 93/64/21 95/65/23 96/78/23 94/77/21 
f 95/65/23 73/54/1 76/67/1 96/78/23 
f 97/67/1 98/66/2 99/79/2 100/80/1 
f 98/66/2 101/68/5 102/81/5 99/79/2 
f 101/68/5 103/69/7 104/82/49 102/81/5 
f 103/71/7 105/70/9 106/83/9 104/84/49 
f 105/70/9 107/72/11 108/85/11 106/83/9 
f 107/72/11 109/73/50 110/86/50 108/85/11 
f 109/73/50 111/74/15 112/87/15 110/86/50 
f 111/74/15 113/75/17 114/88/17 112/87/15 
f 113/75/17 115/76/19 116/89/19 114/88/17 
f 115/76/19 117/77/21 118/90/21 116/89/19 
f 117/77/21 119/78/23 120/91/23 118/90/21 
f 119/78/23 97/67/1 100/80/1 120/91/23 
f 121/80/51 122/79/52 123/92/52 124/93/51 
f 122/79/52 125/81/53 126/94/53 123/92/52 
f 125/81/53 127/82/54 128/95/54 126/94/53 
f 127/84/54 129/83/55 130/96/55 128/97/54 
f 129/83/55 131/85/56 132/98/56 130/96/55 
f 131/85/56 133/86/57 134/99/57 132/98/56 
f 133/86/57 135/87/58 136/100/58 134/99/57 
f 135/87/58 137/88/59 138/101/59 136/100/58 
f 137/88/59 139/89/60 140/102/60 138/101/59 
f 139/89/60 141/90/61 142/103/61 140/102/60 
f 141/90/61 143/91/62 144/104/62 142/103/61 
f 143/91/62 121/80/51 124/93/51 144/104/62 
s 1
f 21/105/63 19/106/63 17/107/63 1/108/63 
f 17/107/63 15/109/63 13/110/63 9/111/63 
f 13/110/63 11/112/63 9/111/63 
f 9/111/63 7/113/63 5/114/63 1/108/63 
f 5/114/63 2/115/63 1/108/63 
f 17/107/63 9/111/63 1/108/63 
f 23/116/63 21/105/63 1/108/63 
f 123/117/64 126/118/64 128/119/64 144/120/64 
f 128/119/64 130/121/64 132/122/64 136/123/64 
f 132/122/64 134/124/64 136/123/64 
f 136/123/64 138/125/64 140/126/64 144/120/64 
f 140/126/64 142/127/64 144/120/64 
f 128/119/64 136/123/64 144/120/64 
f 124/128/64 123/117/64 144/120/64 
s off
f 38/41/63 37/40/63 50/40/63 49/41/63 
f 37/40/63 39/42/63 53/42/63 50/40/63 
f 39/42/63 40/43/63 55/43/63 53/42/63 
f 40/45/63 41/44/63 57/44/63 55/45/63 
f 41/44/63 42/46/63 59/46/63 57/44/63 
f 42/46/63 43/47/63 61/47/63 59/46/63 
f 43/47/63 44/48/63 63/48/63 61/47/63 
f 44/48/63 45/49/63 65/49/63 63/48/63 
f 45/49/63 46/50/63 67/50/63 65/49/63 
f 46/50/63 47/51/63 69/51/63 67/50/63 
f 47/51/63 48/52/63 71/52/63 69/51/63 
f 48/52/63 38/41/63 49/41/63 71/52/63 
f 74/53/64 73/54/64 52/54/64 51/53/64 
f 73/54/64 95/65/64 72/65/64 52/54/64 
f 95/65/64 93/64/64 70/64/64 72/65/64 
f 93/64/64 91/63/64 68/63/64 70/64/64 
f 91/63/64 89/62/64 66/62/64 68/63/64 
f 89/62/64 87/61/64 64/61/64 66/62/64 
f 87/61/64 85/60/64 62/60/64 64/61/64 
f 85/60/64 83/59/64 60/59/64 62/60/64 
f 83/59/64 81/57/64 58/57/64 60/59/64 
f 81/57/64 79/58/64 56/58/64 58/57/64 
f 79/56/64 77/55/64 54/55/64 56/56/64 
f 77/55/64 74/53/64 51/53/64 54/55/64 
f 76/67/63 75/66/63 98/66/63 97/67/63 
f 75/66/63 78/68/63 101/68/63 98/66/63 
f 78/68/63 80/69/63 103/69/63 101/68/63 
f 80/71/63 82/70/63 105/70/63 103/71/63 
f 82/70/63 84/72/63 107/72/63 105/70/63 
f 84/72/63 86/73/63 109/73/63 107/72/63 
f 86/73/63 88/74/63 111/74/63 109/73/63 
f 88/74/63 90/75/63 113/75/63 111/74/63 
f 90/75/63 92/76/63 115/76/63 113/75/63 
f 92/76/63 94/77/63 117/77/63 115/76/63 
f 94/77/63 96/78/63 119/78/63 117/77/63 
f 96/78/63 76/67/63 97/67/63 119/78/63 
f 122/79/64 121/80/64 100/80/64 99/79/64 
f 121/80/64 143/91/64 120/91/64 100/80/64 
f 143/91/64 141/90/64 118/90/64 120/91/64 
f 141/90/64 139/89/64 116/89/64 118/90/64 
f 139/89/64 137/88/64 114/88/64 116/89/64 
f 137/88/64 135/87/64 112/87/64 114/88/64 
f 135/87/64 133/86/64 110/86/64 112/87/64 
f 133/86/64 131/85/64 108/85/64 110/86/64 
f 131/85/64 129/83/64 106/83/64 108/85/64 
f 129/83/64 127/84/64 104/84/64 106/83/64 
f 127/82/64 125/81/64 102/81/64 104/82/64 
f 125/81/64 122/79/64 99/79/64 102/81/64 
# 138 polygons - 8 triangles

