# 3ds Max Wavefront OBJ Exporter v0.97b - (c)2007 guruware
# File Created: 17.03.2016 20:33:54

mtllib water barrel.mtl

#
# object Object003
#

v  9.7479 10.4945 -1.7188
v  9.7479 10.4945 1.7188
v  9.1168 10.0287 1.6075
v  9.1168 10.0287 -1.6075
v  8.5721 10.4945 -4.9491
v  8.0172 10.0287 -4.6287
v  6.3625 10.4945 -7.5825
v  5.9506 10.0287 -7.0916
v  3.3854 10.4945 -9.3013
v  3.1662 10.0287 -8.6991
v  -0.0000 10.4945 -9.8982
v  -0.0000 10.0287 -9.2574
v  -3.3854 10.4945 -9.3013
v  -3.1662 10.0287 -8.6991
v  -6.3625 10.4945 -7.5825
v  -5.9506 10.0287 -7.0916
v  -8.5721 10.4945 -4.9491
v  -8.0172 10.0287 -4.6287
v  -9.7479 10.4945 -1.7188
v  -9.1168 10.0287 -1.6075
v  -9.7479 10.4945 1.7188
v  -9.1168 10.0287 1.6075
v  -8.5721 10.4945 4.9491
v  -8.0172 10.0287 4.6287
v  -6.3625 10.4945 7.5825
v  -5.9506 10.0287 7.0916
v  -3.3854 10.4945 9.3013
v  -3.1662 10.0287 8.6991
v  -0.0000 10.4945 9.8982
v  -0.0000 10.0287 9.2574
v  3.3854 10.4945 9.3013
v  3.1662 10.0287 8.6991
v  6.3625 10.4945 7.5825
v  5.9506 10.0287 7.0916
v  8.5721 10.4945 4.9491
v  8.0172 10.0287 4.6287
v  9.7479 12.7116 -1.7188
v  9.7479 12.7116 1.7188
v  8.5721 12.7116 -4.9491
v  6.3625 12.7116 -7.5825
v  3.3854 12.7116 -9.3013
v  -0.0000 12.7116 -9.8982
v  -3.3854 12.7116 -9.3013
v  -6.3625 12.7116 -7.5825
v  -8.5721 12.7116 -4.9491
v  -9.7479 12.7116 -1.7188
v  -9.7479 12.7116 1.7188
v  -8.5721 12.7116 4.9491
v  -6.3625 12.7116 7.5825
v  -3.3854 12.7116 9.3013
v  -0.0000 12.7116 9.8982
v  3.3854 12.7116 9.3013
v  6.3625 12.7116 7.5825
v  8.5721 12.7116 4.9491
v  7.5318 14.1125 -1.3281
v  7.5318 14.1125 1.3281
v  6.6233 14.1125 -3.8240
v  4.9160 14.1125 -5.8587
v  2.6158 14.1125 -7.1867
v  -0.0000 14.1125 -7.6480
v  -2.6158 14.1125 -7.1867
v  -4.9160 14.1125 -5.8587
v  -6.6233 14.1125 -3.8240
v  -7.5318 14.1125 -1.3281
v  -7.5318 14.1125 1.3281
v  -6.6233 14.1125 3.8240
v  -4.9160 14.1125 5.8587
v  -2.6158 14.1125 7.1867
v  -0.0000 14.1125 7.6480
v  2.6158 14.1125 7.1867
v  4.9160 14.1125 5.8587
v  6.6233 14.1125 3.8240
v  -0.0000 13.5089 -0.0000
v  9.1168 -6.3423 1.6075
v  9.1168 -6.3423 -1.6075
v  8.0172 -6.3423 -4.6287
v  5.9506 -6.3423 -7.0916
v  3.1662 -6.3423 -8.6991
v  -0.0000 -6.3423 -9.2574
v  -3.1662 -6.3423 -8.6991
v  -5.9506 -6.3423 -7.0916
v  -8.0172 -6.3423 -4.6287
v  -9.1168 -6.3423 -1.6075
v  -9.1168 -6.3423 1.6075
v  -8.0172 -6.3423 4.6287
v  -5.9506 -6.3423 7.0916
v  -3.1662 -6.3423 8.6991
v  -0.0000 -6.3423 9.2574
v  3.1662 -6.3423 8.6991
v  5.9506 -6.3423 7.0916
v  8.0172 -6.3423 4.6287
v  9.7479 -6.8081 -1.7188
v  9.7479 -6.8081 1.7188
v  8.5721 -6.8081 -4.9491
v  6.3625 -6.8081 -7.5825
v  3.3854 -6.8081 -9.3013
v  -0.0000 -6.8081 -9.8982
v  -3.3854 -6.8081 -9.3013
v  -6.3625 -6.8081 -7.5825
v  -8.5721 -6.8081 -4.9491
v  -9.7479 -6.8081 -1.7188
v  -9.7479 -6.8081 1.7188
v  -8.5721 -6.8081 4.9491
v  -6.3625 -6.8081 7.5825
v  -3.3854 -6.8081 9.3013
v  -0.0000 -6.8081 9.8982
v  3.3854 -6.8081 9.3013
v  6.3625 -6.8081 7.5825
v  8.5721 -6.8081 4.9491
v  9.7479 -9.0253 -1.7188
v  9.7479 -9.0253 1.7188
v  8.5721 -9.0253 -4.9491
v  6.3625 -9.0253 -7.5825
v  3.3854 -9.0253 -9.3013
v  -0.0000 -9.0253 -9.8982
v  -3.3854 -9.0253 -9.3013
v  -6.3625 -9.0253 -7.5825
v  -8.5721 -9.0253 -4.9491
v  -9.7479 -9.0253 -1.7188
v  -9.7479 -9.0253 1.7188
v  -8.5721 -9.0253 4.9491
v  -6.3625 -9.0253 7.5825
v  -3.3854 -9.0253 9.3013
v  -0.0000 -9.0253 9.8982
v  3.3854 -9.0253 9.3013
v  6.3625 -9.0253 7.5825
v  8.5721 -9.0253 4.9491
v  6.9907 -11.0166 -1.2326
v  6.9907 -11.0166 1.2326
v  6.1475 -11.0166 -3.5493
v  4.5629 -11.0166 -5.4378
v  2.4278 -11.0166 -6.6704
v  -0.0000 -11.0166 -7.0985
v  -2.4278 -11.0166 -6.6704
v  -4.5629 -11.0166 -5.4378
v  -6.1475 -11.0166 -3.5493
v  -6.9907 -11.0166 -1.2327
v  -6.9907 -11.0166 1.2326
v  -6.1475 -11.0166 3.5493
v  -4.5629 -11.0166 5.4378
v  -2.4278 -11.0166 6.6704
v  -0.0000 -11.0166 7.0985
v  2.4278 -11.0166 6.6704
v  4.5629 -11.0166 5.4378
v  6.1475 -11.0166 3.5493
v  2.1365 -12.5983 0.7776
v  2.1365 -12.5983 -0.7776
v  1.1368 -12.5983 -1.9690
v  -0.3948 -12.5983 -2.2390
v  -1.7417 -12.5983 -1.4614
v  -2.2736 -12.5983 -0.0000
v  -1.7417 -12.5983 1.4614
v  -0.3948 -12.5983 2.2390
v  1.1368 -12.5983 1.9690
v  2.1365 -14.1125 0.7776
v  2.1365 -14.1125 -0.7776
v  1.1368 -14.1125 -1.9690
v  -0.3948 -14.1125 -2.2390
v  -1.7417 -14.1125 -1.4614
v  -2.2736 -14.1125 -0.0000
v  -1.7417 -14.1125 1.4614
v  -0.3948 -14.1125 2.2390
v  1.1368 -14.1125 1.9690
# 163 vertices

vn 0.7794 -0.6113 -0.1374
vn 0.7794 -0.6113 0.1374
vn 0.6854 -0.6113 -0.3957
vn 0.5087 -0.6113 -0.6062
vn 0.2707 -0.6113 -0.7437
vn 0.0000 -0.6113 -0.7914
vn -0.2707 -0.6113 -0.7436
vn -0.5087 -0.6113 -0.6062
vn -0.6854 -0.6113 -0.3957
vn -0.7794 -0.6113 -0.1374
vn -0.7794 -0.6113 0.1374
vn -0.6854 -0.6113 0.3957
vn -0.5087 -0.6113 0.6062
vn -0.2707 -0.6113 0.7437
vn -0.0000 -0.6113 0.7914
vn 0.2707 -0.6113 0.7437
vn 0.5087 -0.6113 0.6062
vn 0.6854 -0.6113 0.3957
vn 0.9848 0.0000 -0.1736
vn 0.9848 0.0000 0.1736
vn 0.8660 0.0000 -0.5000
vn 0.6428 0.0000 -0.7660
vn 0.3420 0.0000 -0.9397
vn 0.0000 0.0000 -1.0000
vn -0.3420 0.0000 -0.9397
vn -0.6428 0.0000 -0.7660
vn -0.8660 0.0000 -0.5000
vn -0.9848 0.0000 -0.1736
vn -0.9848 0.0000 0.1736
vn -0.8660 0.0000 0.5000
vn -0.6428 0.0000 0.7660
vn -0.3420 0.0000 0.9397
vn -0.0000 0.0000 1.0000
vn 0.3420 0.0000 0.9397
vn 0.6428 0.0000 0.7660
vn 0.8660 0.0000 0.5000
vn 0.7313 0.6698 -0.1289
vn 0.7313 0.6698 0.1289
vn 0.6431 0.6698 -0.3713
vn 0.4773 0.6698 -0.5688
vn 0.2540 0.6698 -0.6978
vn 0.0000 0.6698 -0.7426
vn -0.2540 0.6698 -0.6978
vn -0.4773 0.6698 -0.5688
vn -0.6431 0.6698 -0.3713
vn -0.7313 0.6698 -0.1289
vn -0.7313 0.6698 0.1289
vn -0.6431 0.6698 0.3713
vn -0.4773 0.6698 0.5688
vn -0.2540 0.6698 0.6978
vn -0.0000 0.6698 0.7426
vn 0.2540 0.6698 0.6978
vn 0.4773 0.6698 0.5688
vn 0.6431 0.6698 0.3713
vn -0.0000 1.0000 0.0000
vn -0.1371 0.9903 -0.0242
vn -0.1371 0.9903 0.0242
vn -0.1206 0.9903 0.0696
vn -0.0895 0.9903 0.1066
vn -0.0476 0.9903 0.1308
vn -0.0000 0.9903 0.1392
vn 0.0476 0.9903 0.1308
vn 0.0895 0.9903 0.1066
vn 0.1206 0.9903 0.0696
vn 0.1371 0.9903 0.0242
vn 0.1371 0.9903 -0.0242
vn 0.1206 0.9903 -0.0696
vn 0.0895 0.9903 -0.1066
vn 0.0476 0.9903 -0.1308
vn 0.0000 0.9903 -0.1392
vn -0.0476 0.9903 -0.1308
vn -0.0895 0.9903 -0.1066
vn -0.1206 0.9903 -0.0696
vn -0.0000 0.0000 -1.0000
vn 0.7794 0.6113 -0.1374
vn 0.7794 0.6113 0.1374
vn 0.6854 0.6113 -0.3957
vn 0.5087 0.6113 -0.6062
vn 0.2707 0.6113 -0.7437
vn 0.0000 0.6113 -0.7914
vn -0.2707 0.6113 -0.7436
vn -0.5087 0.6113 -0.6062
vn -0.6854 0.6113 -0.3957
vn -0.7794 0.6113 -0.1374
vn -0.7794 0.6113 0.1374
vn -0.6854 0.6113 0.3957
vn -0.5087 0.6113 0.6062
vn -0.2707 0.6113 0.7437
vn -0.0000 0.6113 0.7914
vn 0.2707 0.6113 0.7437
vn 0.5087 0.6113 0.6062
vn 0.6854 0.6113 0.3957
vn 0.6564 -0.7457 -0.1141
vn 0.7730 -0.6196 -0.1363
vn 0.7730 -0.6196 0.1363
vn 0.6564 -0.7457 0.1141
vn 0.5762 -0.7457 -0.3345
vn 0.6797 -0.6196 -0.3924
vn 0.4295 -0.7457 -0.5094
vn 0.5045 -0.6196 -0.6013
vn 0.2264 -0.7457 -0.6266
vn 0.2684 -0.6196 -0.7376
vn 0.0016 -0.7457 -0.6663
vn 0.0000 -0.6196 -0.7849
vn -0.2294 -0.7457 -0.6256
vn -0.2684 -0.6196 -0.7376
vn -0.4271 -0.7457 -0.5114
vn -0.5045 -0.6196 -0.6013
vn -0.5778 -0.7457 -0.3318
vn -0.6797 -0.6196 -0.3924
vn -0.6559 -0.7457 -0.1173
vn -0.7730 -0.6196 -0.1363
vn -0.6559 -0.7457 0.1173
vn -0.7730 -0.6196 0.1363
vn -0.5778 -0.7457 0.3318
vn -0.6797 -0.6196 0.3924
vn -0.4271 -0.7457 0.5114
vn -0.5045 -0.6196 0.6013
vn -0.2294 -0.7457 0.6256
vn -0.2684 -0.6196 0.7376
vn 0.0016 -0.7457 0.6663
vn -0.0000 -0.6196 0.7849
vn 0.2264 -0.7457 0.6266
vn 0.2684 -0.6196 0.7376
vn 0.4295 -0.7457 0.5094
vn 0.5045 -0.6196 0.6013
vn 0.5762 -0.7457 0.3345
vn 0.6797 -0.6196 0.3924
vn 0.4537 -0.8757 0.1651
vn 0.4537 -0.8757 -0.1651
vn 0.2414 -0.8757 -0.4182
vn -0.0838 -0.8757 -0.4755
vn -0.3699 -0.8757 -0.3104
vn -0.4828 -0.8757 -0.0000
vn -0.3699 -0.8757 0.3104
vn -0.0838 -0.8757 0.4755
vn 0.2414 -0.8757 0.4182
vn 0.9397 0.0000 -0.3420
vn 0.9397 0.0000 0.3420
vn 0.5000 0.0000 -0.8660
vn -0.1736 0.0000 -0.9848
vn -0.7660 0.0000 -0.6428
vn -1.0000 0.0000 -0.0000
vn -0.7660 0.0000 0.6428
vn -0.1736 0.0000 0.9848
vn 0.5000 0.0000 0.8660
# 146 vertex normals

vt 0.3231 0.9632 0.1418
vt 0.3417 0.9632 0.1418
vt 0.3417 0.9729 -0.0920
vt 0.3231 0.9729 -0.0920
vt 0.3044 0.9632 0.1298
vt 0.3044 0.9729 -0.1032
vt 0.2856 0.9632 0.1113
vt 0.2856 0.9729 -0.1205
vt 0.2666 0.9632 0.0950
vt 0.2666 0.9729 -0.1357
vt 0.2474 0.9632 0.0885
vt 0.2474 0.9729 -0.1418
vt 0.2283 0.9632 0.0950
vt 0.2283 0.9729 -0.1357
vt 0.2093 0.9632 0.1113
vt 0.2093 0.9729 -0.1205
vt 0.1905 0.9632 0.1298
vt 0.1905 0.9729 -0.1032
vt 0.1718 0.9632 0.1418
vt 0.1718 0.9729 -0.0920
vt 0.1532 0.9632 0.1418
vt 0.1532 0.9729 -0.0920
vt 0.1346 0.9632 0.1298
vt 0.1346 0.9729 -0.1032
vt 0.1158 0.9632 0.1113
vt 0.1158 0.9729 -0.1205
vt 0.0968 0.9632 0.0950
vt 0.0968 0.9729 -0.1357
vt 0.0776 0.9632 0.0885
vt 0.0776 0.9729 -0.1418
vt 0.0585 0.9632 0.0950
vt 0.0585 0.9729 -0.1357
vt 0.0395 0.9632 0.1113
vt 0.0395 0.9729 -0.1205
vt 0.0207 0.9632 0.1298
vt 0.0207 0.9729 -0.1032
vt 0.0020 0.9632 0.1418
vt 0.0020 0.9729 -0.0920
vt 0.4657 0.8459 0.0384
vt 0.4926 0.8459 0.0384
vt 0.4926 0.8721 0.0384
vt 0.4657 0.8721 0.0384
vt 0.4388 0.8459 0.0211
vt 0.4388 0.8721 0.0211
vt 0.4116 0.8459 -0.0055
vt 0.4116 0.8721 -0.0055
vt 0.3842 0.8459 -0.0291
vt 0.3842 0.8721 -0.0291
vt 0.3565 0.8459 -0.0384
vt 0.3565 0.8721 -0.0384
vt 0.3289 0.8459 -0.0291
vt 0.3289 0.8721 -0.0291
vt 0.3014 0.8459 -0.0055
vt 0.3014 0.8721 -0.0055
vt 0.2742 0.8459 0.0211
vt 0.2742 0.8721 0.0211
vt 0.2473 0.8459 0.0384
vt 0.2473 0.8721 0.0384
vt 0.2204 0.8459 0.0384
vt 0.2204 0.8721 0.0384
vt 0.1935 0.8459 0.0211
vt 0.1935 0.8721 0.0211
vt 0.1663 0.8459 -0.0055
vt 0.1663 0.8721 -0.0055
vt 0.1389 0.8459 -0.0291
vt 0.1389 0.8721 -0.0291
vt 0.1112 0.8459 -0.0384
vt 0.1112 0.8721 -0.0384
vt 0.0836 0.8459 -0.0291
vt 0.0836 0.8721 -0.0291
vt 0.0561 0.8459 -0.0055
vt 0.0561 0.8721 -0.0055
vt 0.0289 0.8459 0.0211
vt 0.0289 0.8721 0.0211
vt 0.0020 0.8459 0.0384
vt 0.0020 0.8721 0.0384
vt 0.0595 0.9478 -0.5785
vt 0.0308 0.9478 -0.5785
vt 0.0308 0.9292 0.5785
vt 0.0595 0.9292 0.5785
vt 0.0883 0.9478 -0.5785
vt 0.0883 0.9292 0.5785
vt 0.1170 0.9478 -0.5785
vt 0.1170 0.9292 0.5785
vt 0.1458 0.9478 -0.5785
vt 0.1458 0.9292 0.5785
vt 0.1745 0.9478 -0.5785
vt 0.1745 0.9292 0.5785
vt 0.2033 0.9478 -0.5785
vt 0.2033 0.9292 0.5785
vt 0.2320 0.9478 -0.5785
vt 0.2320 0.9292 0.5785
vt 0.2608 0.9478 -0.5785
vt 0.2608 0.9292 0.5785
vt 0.2895 0.9478 -0.5785
vt 0.2895 0.9292 0.5785
vt 0.3183 0.9478 -0.5785
vt 0.3183 0.9292 0.5785
vt 0.3470 0.9478 -0.5785
vt 0.3470 0.9292 0.5785
vt 0.3758 0.9478 -0.5785
vt 0.3758 0.9292 0.5785
vt 0.4045 0.9478 -0.5785
vt 0.4045 0.9292 0.5785
vt 0.4333 0.9478 -0.5785
vt 0.4333 0.9292 0.5785
vt 0.4620 0.9478 -0.5785
vt 0.4620 0.9292 0.5785
vt 0.4908 0.9478 -0.5785
vt 0.4908 0.9292 0.5785
vt 0.5195 0.9478 -0.5785
vt 0.5195 0.9292 0.5785
vt 0.0020 0.9478 -0.5785
vt 0.0020 0.9292 0.5785
vt 0.8009 0.1588 0.0000
vt 0.7855 0.1052 0.0000
vt 0.8048 0.1031 0.0000
vt 0.8236 0.1078 0.0000
vt 0.8396 0.1186 0.0000
vt 0.8510 0.1343 0.0000
vt 0.8564 0.1529 0.0000
vt 0.8550 0.1722 0.0000
vt 0.8472 0.1899 0.0000
vt 0.8338 0.2038 0.0000
vt 0.8164 0.2123 0.0000
vt 0.7971 0.2144 0.0000
vt 0.7783 0.2097 0.0000
vt 0.7623 0.1989 0.0000
vt 0.7509 0.1832 0.0000
vt 0.7455 0.1646 0.0000
vt 0.7468 0.1453 0.0000
vt 0.7547 0.1276 0.0000
vt 0.7681 0.1137 0.0000
vt 0.4909 0.6118 0.0379
vt 0.5192 0.6118 0.0379
vt 0.5192 0.7834 0.0379
vt 0.4909 0.7834 0.0379
vt 0.4625 0.6118 0.0208
vt 0.4625 0.7834 0.0208
vt 0.4339 0.6118 -0.0055
vt 0.4339 0.7834 -0.0055
vt 0.4049 0.6118 -0.0287
vt 0.4049 0.7834 -0.0287
vt 0.3758 0.6118 -0.0379
vt 0.3758 0.7834 -0.0379
vt 0.3466 0.6118 -0.0287
vt 0.3466 0.7834 -0.0287
vt 0.3177 0.6118 -0.0055
vt 0.3177 0.7834 -0.0055
vt 0.2890 0.6118 0.0208
vt 0.2890 0.7834 0.0208
vt 0.2606 0.6118 0.0379
vt 0.2606 0.7834 0.0379
vt 0.2323 0.6118 0.0379
vt 0.2323 0.7834 0.0379
vt 0.2039 0.6118 0.0208
vt 0.2039 0.7834 0.0208
vt 0.1752 0.6118 -0.0055
vt 0.1752 0.7834 -0.0055
vt 0.1463 0.6118 -0.0287
vt 0.1463 0.7834 -0.0287
vt 0.1172 0.6118 -0.0379
vt 0.1172 0.7834 -0.0379
vt 0.0880 0.6118 -0.0287
vt 0.0880 0.7834 -0.0287
vt 0.0591 0.6118 -0.0055
vt 0.0591 0.7834 -0.0055
vt 0.0304 0.6118 0.0208
vt 0.0304 0.7834 0.0208
vt 0.0020 0.6118 0.0379
vt 0.0020 0.7834 0.0379
vt 0.3231 0.9980 0.1418
vt 0.3231 0.9883 -0.0920
vt 0.3417 0.9883 -0.0920
vt 0.3417 0.9980 0.1418
vt 0.3044 0.9980 0.1298
vt 0.3044 0.9883 -0.1032
vt 0.2856 0.9980 0.1113
vt 0.2856 0.9883 -0.1205
vt 0.2666 0.9980 0.0950
vt 0.2666 0.9883 -0.1357
vt 0.2474 0.9980 0.0885
vt 0.2474 0.9883 -0.1418
vt 0.2283 0.9980 0.0950
vt 0.2283 0.9883 -0.1357
vt 0.2093 0.9980 0.1113
vt 0.2093 0.9883 -0.1205
vt 0.1905 0.9980 0.1298
vt 0.1905 0.9883 -0.1032
vt 0.1718 0.9980 0.1418
vt 0.1718 0.9883 -0.0920
vt 0.1532 0.9980 0.1418
vt 0.1532 0.9883 -0.0920
vt 0.1346 0.9980 0.1298
vt 0.1346 0.9883 -0.1032
vt 0.1158 0.9980 0.1113
vt 0.1158 0.9883 -0.1205
vt 0.0968 0.9980 0.0950
vt 0.0968 0.9883 -0.1357
vt 0.0776 0.9980 0.0885
vt 0.0776 0.9883 -0.1418
vt 0.0585 0.9980 0.0950
vt 0.0585 0.9883 -0.1357
vt 0.0395 0.9980 0.1113
vt 0.0395 0.9883 -0.1205
vt 0.0207 0.9980 0.1298
vt 0.0207 0.9883 -0.1032
vt 0.0020 0.9980 0.1418
vt 0.0020 0.9883 -0.0920
vt 0.4657 0.9138 0.0384
vt 0.4657 0.8876 0.0384
vt 0.4926 0.8876 0.0384
vt 0.4926 0.9138 0.0384
vt 0.4388 0.9138 0.0211
vt 0.4388 0.8876 0.0211
vt 0.4116 0.9138 -0.0055
vt 0.4116 0.8876 -0.0055
vt 0.3842 0.9138 -0.0291
vt 0.3842 0.8876 -0.0291
vt 0.3565 0.9138 -0.0384
vt 0.3565 0.8876 -0.0384
vt 0.3289 0.9138 -0.0291
vt 0.3289 0.8876 -0.0291
vt 0.3014 0.9138 -0.0055
vt 0.3014 0.8876 -0.0055
vt 0.2742 0.9138 0.0211
vt 0.2742 0.8876 0.0211
vt 0.2473 0.9138 0.0384
vt 0.2473 0.8876 0.0384
vt 0.2204 0.9138 0.0384
vt 0.2204 0.8876 0.0384
vt 0.1935 0.9138 0.0211
vt 0.1935 0.8876 0.0211
vt 0.1663 0.9138 -0.0055
vt 0.1663 0.8876 -0.0055
vt 0.1389 0.9138 -0.0291
vt 0.1389 0.8876 -0.0291
vt 0.1112 0.9138 -0.0384
vt 0.1112 0.8876 -0.0384
vt 0.0836 0.9138 -0.0291
vt 0.0836 0.8876 -0.0291
vt 0.0561 0.9138 -0.0055
vt 0.0561 0.8876 -0.0055
vt 0.0289 0.9138 0.0211
vt 0.0289 0.8876 0.0211
vt 0.0020 0.9138 0.0384
vt 0.0020 0.8876 0.0384
vt 0.8336 0.0287 0.3454
vt 0.8336 0.0020 1.2255
vt 0.8509 0.0020 1.2255
vt 0.8509 0.0287 0.3454
vt 0.8163 0.0301 0.3365
vt 0.8162 0.0039 1.2150
vt 0.7988 0.0326 0.3223
vt 0.7986 0.0074 1.1989
vt 0.7811 0.0360 0.3084
vt 0.7808 0.0122 1.1846
vt 0.7632 0.0399 0.3001
vt 0.7630 0.0176 1.1790
vt 0.7453 0.0438 0.2999
vt 0.7451 0.0230 1.1846
vt 0.7275 0.0472 0.3065
vt 0.7273 0.0278 1.1989
vt 0.7099 0.0497 0.3153
vt 0.7098 0.0313 1.2150
vt 0.6924 0.0511 0.3214
vt 0.6923 0.0332 1.2255
vt 0.6749 0.0511 0.3214
vt 0.6750 0.0332 1.2255
vt 0.6574 0.0497 0.3153
vt 0.6576 0.0313 1.2150
vt 0.6398 0.0472 0.3065
vt 0.6400 0.0278 1.1989
vt 0.6220 0.0438 0.2999
vt 0.6222 0.0230 1.1846
vt 0.9213 0.0399 0.3001
vt 0.9216 0.0176 1.1790
vt 0.9394 0.0230 1.1846
vt 0.9392 0.0438 0.2999
vt 0.9034 0.0360 0.3084
vt 0.9037 0.0122 1.1846
vt 0.8857 0.0326 0.3223
vt 0.8859 0.0074 1.1989
vt 0.8682 0.0301 0.3365
vt 0.8684 0.0039 1.2150
vt 0.8591 0.0806 -1.1843
vt 0.8254 0.0806 -1.1843
vt 0.7910 0.0822 -1.2006
vt 0.7555 0.0847 -1.2179
vt 0.7195 0.0868 -1.2249
vt 0.6837 0.0877 -1.2255
vt 0.6478 0.0868 -1.2249
vt 0.6118 0.0847 -1.2179
vt 0.9290 0.0847 -1.2179
vt 0.8935 0.0822 -1.2006
vt 0.2996 0.4349 0.0349
vt 0.3125 0.4349 0.0349
vt 0.3125 0.4513 0.0349
vt 0.2996 0.4513 0.0349
vt 0.2864 0.4349 0.0073
vt 0.2864 0.4513 0.0073
vt 0.2728 0.4349 -0.0219
vt 0.2728 0.4513 -0.0219
vt 0.2590 0.4349 -0.0338
vt 0.2590 0.4513 -0.0338
vt 0.2453 0.4349 -0.0349
vt 0.2453 0.4513 -0.0349
vt 0.2316 0.4349 -0.0338
vt 0.2316 0.4513 -0.0338
vt 0.2178 0.4349 -0.0219
vt 0.2178 0.4513 -0.0219
vt 0.2042 0.4349 0.0073
vt 0.2042 0.4513 0.0073
vt 0.1910 0.4349 0.0349
vt 0.1910 0.4513 0.0349
# 315 texture coords

g Object003
usemtl wire_115115115
s 1
f 1/1/1 2/2/2 3/3/2 4/4/1 
f 5/5/3 1/1/1 4/4/1 6/6/3 
f 7/7/4 5/5/3 6/6/3 8/8/4 
f 9/9/5 7/7/4 8/8/4 10/10/5 
f 11/11/6 9/9/5 10/10/5 12/12/6 
f 13/13/7 11/11/6 12/12/6 14/14/7 
f 15/15/8 13/13/7 14/14/7 16/16/8 
f 17/17/9 15/15/8 16/16/8 18/18/9 
f 19/19/10 17/17/9 18/18/9 20/20/10 
f 21/21/11 19/19/10 20/20/10 22/22/11 
f 23/23/12 21/21/11 22/22/11 24/24/12 
f 25/25/13 23/23/12 24/24/12 26/26/13 
f 27/27/14 25/25/13 26/26/13 28/28/14 
f 29/29/15 27/27/14 28/28/14 30/30/15 
f 31/31/16 29/29/15 30/30/15 32/32/16 
f 33/33/17 31/31/16 32/32/16 34/34/17 
f 35/35/18 33/33/17 34/34/17 36/36/18 
f 2/37/2 35/35/18 36/36/18 3/38/2 
s 2
f 37/39/19 38/40/20 2/41/20 1/42/19 
f 39/43/21 37/39/19 1/42/19 5/44/21 
f 40/45/22 39/43/21 5/44/21 7/46/22 
f 41/47/23 40/45/22 7/46/22 9/48/23 
f 42/49/24 41/47/23 9/48/23 11/50/24 
f 43/51/25 42/49/24 11/50/24 13/52/25 
f 44/53/26 43/51/25 13/52/25 15/54/26 
f 45/55/27 44/53/26 15/54/26 17/56/27 
f 46/57/28 45/55/27 17/56/27 19/58/28 
f 47/59/29 46/57/28 19/58/28 21/60/29 
f 48/61/30 47/59/29 21/60/29 23/62/30 
f 49/63/31 48/61/30 23/62/30 25/64/31 
f 50/65/32 49/63/31 25/64/31 27/66/32 
f 51/67/33 50/65/32 27/66/32 29/68/33 
f 52/69/34 51/67/33 29/68/33 31/70/34 
f 53/71/35 52/69/34 31/70/34 33/72/35 
f 54/73/36 53/71/35 33/72/35 35/74/36 
f 38/75/20 54/73/36 35/74/36 2/76/20 
s 1
f 55/77/37 56/78/38 38/79/38 37/80/37 
f 57/81/39 55/77/37 37/80/37 39/82/39 
f 58/83/40 57/81/39 39/82/39 40/84/40 
f 59/85/41 58/83/40 40/84/40 41/86/41 
f 60/87/42 59/85/41 41/86/41 42/88/42 
f 61/89/43 60/87/42 42/88/42 43/90/43 
f 62/91/44 61/89/43 43/90/43 44/92/44 
f 63/93/45 62/91/44 44/92/44 45/94/45 
f 64/95/46 63/93/45 45/94/45 46/96/46 
f 65/97/47 64/95/46 46/96/46 47/98/47 
f 66/99/48 65/97/47 47/98/47 48/100/48 
f 67/101/49 66/99/48 48/100/48 49/102/49 
f 68/103/50 67/101/49 49/102/49 50/104/50 
f 69/105/51 68/103/50 50/104/50 51/106/51 
f 70/107/52 69/105/51 51/106/51 52/108/52 
f 71/109/53 70/107/52 52/108/52 53/110/53 
f 72/111/54 71/109/53 53/110/53 54/112/54 
f 56/78/38 72/113/54 54/114/54 38/79/38 
s 2
f 73/115/55 56/116/56 55/117/57 
f 73/115/55 55/117/57 57/118/58 
f 73/115/55 57/118/58 58/119/59 
f 73/115/55 58/119/59 59/120/60 
f 73/115/55 59/120/60 60/121/61 
f 73/115/55 60/121/61 61/122/62 
f 73/115/55 61/122/62 62/123/63 
f 73/115/55 62/123/63 63/124/64 
f 73/115/55 63/124/64 64/125/65 
f 73/115/55 64/125/65 65/126/66 
f 73/115/55 65/126/66 66/127/67 
f 73/115/55 66/127/67 67/128/68 
f 73/115/55 67/128/68 68/129/69 
f 73/115/55 68/129/69 69/130/70 
f 73/115/55 69/130/70 70/131/71 
f 73/115/55 70/131/71 71/132/72 
f 73/115/55 71/132/72 72/133/73 
f 73/115/55 72/133/73 56/116/56 
f 4/134/19 3/135/20 74/136/20 75/137/19 
f 6/138/21 4/134/19 75/137/19 76/139/21 
f 8/140/22 6/138/21 76/139/21 77/141/22 
f 10/142/23 8/140/22 77/141/22 78/143/23 
f 12/144/74 10/142/23 78/143/23 79/145/74 
f 14/146/25 12/144/74 79/145/74 80/147/25 
f 16/148/26 14/146/25 80/147/25 81/149/26 
f 18/150/27 16/148/26 81/149/26 82/151/27 
f 20/152/28 18/150/27 82/151/27 83/153/28 
f 22/154/29 20/152/28 83/153/28 84/155/29 
f 24/156/30 22/154/29 84/155/29 85/157/30 
f 26/158/31 24/156/30 85/157/30 86/159/31 
f 28/160/32 26/158/31 86/159/31 87/161/32 
f 30/162/33 28/160/32 87/161/32 88/163/33 
f 32/164/34 30/162/33 88/163/33 89/165/34 
f 34/166/35 32/164/34 89/165/34 90/167/35 
f 36/168/36 34/166/35 90/167/35 91/169/36 
f 3/170/20 36/168/36 91/169/36 74/171/20 
s 1
f 92/172/75 75/173/75 74/174/76 93/175/76 
f 94/176/77 76/177/77 75/173/75 92/172/75 
f 95/178/78 77/179/78 76/177/77 94/176/77 
f 96/180/79 78/181/79 77/179/78 95/178/78 
f 97/182/80 79/183/80 78/181/79 96/180/79 
f 98/184/81 80/185/81 79/183/80 97/182/80 
f 99/186/82 81/187/82 80/185/81 98/184/81 
f 100/188/83 82/189/83 81/187/82 99/186/82 
f 101/190/84 83/191/84 82/189/83 100/188/83 
f 102/192/85 84/193/85 83/191/84 101/190/84 
f 103/194/86 85/195/86 84/193/85 102/192/85 
f 104/196/87 86/197/87 85/195/86 103/194/86 
f 105/198/88 87/199/88 86/197/87 104/196/87 
f 106/200/89 88/201/89 87/199/88 105/198/88 
f 107/202/90 89/203/90 88/201/89 106/200/89 
f 108/204/91 90/205/91 89/203/90 107/202/90 
f 109/206/92 91/207/92 90/205/91 108/204/91 
f 93/208/76 74/209/76 91/207/92 109/206/92 
s 2
f 110/210/19 92/211/19 93/212/20 111/213/20 
f 112/214/21 94/215/21 92/211/19 110/210/19 
f 113/216/22 95/217/22 94/215/21 112/214/21 
f 114/218/23 96/219/23 95/217/22 113/216/22 
f 115/220/24 97/221/24 96/219/23 114/218/23 
f 116/222/25 98/223/25 97/221/24 115/220/24 
f 117/224/26 99/225/26 98/223/25 116/222/25 
f 118/226/27 100/227/27 99/225/26 117/224/26 
f 119/228/28 101/229/28 100/227/27 118/226/27 
f 120/230/29 102/231/29 101/229/28 119/228/28 
f 121/232/30 103/233/30 102/231/29 120/230/29 
f 122/234/31 104/235/31 103/233/30 121/232/30 
f 123/236/32 105/237/32 104/235/31 122/234/31 
f 124/238/33 106/239/33 105/237/32 123/236/32 
f 125/240/34 107/241/34 106/239/33 124/238/33 
f 126/242/35 108/243/35 107/241/34 125/240/34 
f 127/244/36 109/245/36 108/243/35 126/242/35 
f 111/246/20 93/247/20 109/245/36 127/244/36 
s 1
f 128/248/93 110/249/94 111/250/95 129/251/96 
f 130/252/97 112/253/98 110/249/94 128/248/93 
f 131/254/99 113/255/100 112/253/98 130/252/97 
f 132/256/101 114/257/102 113/255/100 131/254/99 
f 133/258/103 115/259/104 114/257/102 132/256/101 
f 134/260/105 116/261/106 115/259/104 133/258/103 
f 135/262/107 117/263/108 116/261/106 134/260/105 
f 136/264/109 118/265/110 117/263/108 135/262/107 
f 137/266/111 119/267/112 118/265/110 136/264/109 
f 138/268/113 120/269/114 119/267/112 137/266/111 
f 139/270/115 121/271/116 120/269/114 138/268/113 
f 140/272/117 122/273/118 121/271/116 139/270/115 
f 141/274/119 123/275/120 122/273/118 140/272/117 
f 142/276/121 124/277/122 123/278/120 141/279/119 
f 143/280/123 125/281/124 124/277/122 142/276/121 
f 144/282/125 126/283/126 125/281/124 143/280/123 
f 145/284/127 127/285/128 126/283/126 144/282/125 
f 129/251/96 111/250/95 127/285/128 145/284/127 
f 128/248/93 129/251/96 146/286/129 147/287/130 
f 131/254/99 130/252/97 147/287/130 148/288/131 
f 133/258/103 132/256/101 148/288/131 149/289/132 
f 135/262/107 134/260/105 149/289/132 150/290/133 
f 137/266/111 136/264/109 150/290/133 151/291/134 
f 139/270/115 138/268/113 151/291/134 152/292/135 
f 141/274/119 140/272/117 152/292/135 153/293/136 
f 143/280/123 142/276/121 153/294/136 154/295/137 
f 145/284/127 144/282/125 154/295/137 146/286/129 
s 258
f 147/296/138 146/297/139 155/298/139 156/299/138 
s 260
f 148/300/140 147/296/138 156/299/138 157/301/140 
s 258
f 149/302/141 148/300/140 157/301/140 158/303/141 
s 260
f 150/304/142 149/302/141 158/303/141 159/305/142 
s 258
f 151/306/143 150/304/142 159/305/142 160/307/143 
s 260
f 152/308/144 151/306/143 160/307/143 161/309/144 
s 258
f 153/310/145 152/308/144 161/309/144 162/311/145 
s 260
f 154/312/146 153/310/145 162/311/145 163/313/146 
s 264
f 146/314/139 154/312/146 163/313/146 155/315/139 
s 1
f 130/252/97 128/248/93 147/287/130 
f 132/256/101 131/254/99 148/288/131 
f 134/260/105 133/258/103 149/289/132 
f 136/264/109 135/262/107 150/290/133 
f 138/268/113 137/266/111 151/291/134 
f 140/272/117 139/270/115 152/292/135 
f 142/276/121 141/279/119 153/294/136 
f 144/282/125 143/280/123 154/295/137 
f 129/251/96 145/284/127 146/286/129 
# 144 polygons - 27 triangles

