# 3ds Max Wavefront OBJ Exporter v0.97b - (c)2007 guruware
# File Created: 17.03.2016 20:33:45

mtllib water.mtl

#
# object Object002
#

v  9.7479 22.4021 -1.7188
v  9.7479 28.7606 -1.7188
v  9.7479 28.7606 1.7188
v  9.7479 22.4021 1.7188
v  8.5721 22.4021 -4.9491
v  8.5721 28.7606 -4.9491
v  6.3625 22.4021 -7.5825
v  6.3625 28.7606 -7.5825
v  -3.3854 22.2957 -9.3013
v  -3.3854 28.7606 -9.3013
v  -0.0000 28.7606 -9.8982
v  -0.0000 22.2957 -9.8982
v  -6.3625 22.2957 -7.5825
v  -6.3625 28.7606 -7.5825
v  -8.5721 22.2957 -4.9491
v  -8.5721 28.7606 -4.9491
v  -9.7479 22.2957 -1.7188
v  -9.7479 28.7606 -1.7188
v  -9.7479 22.2957 1.7188
v  -9.7479 28.7606 1.7188
v  -8.5721 22.2957 4.9491
v  -8.5721 28.7606 4.9491
v  -6.3625 22.2957 7.5825
v  -6.3625 28.7606 7.5825
v  -3.3854 22.2957 9.3013
v  -3.3854 28.7606 9.3013
v  -0.0000 22.4021 9.8982
v  -0.0000 28.7606 9.8982
v  3.3854 23.1381 9.3013
v  3.3854 28.7606 9.3013
v  6.3625 28.7606 7.5825
v  8.5721 22.4021 4.9491
v  8.5721 28.7606 4.9491
v  6.3625 22.4021 7.5825
v  7.6103 32.2021 -1.3419
v  7.6103 32.2021 1.3419
v  6.6924 32.2021 -3.8639
v  4.9673 32.2021 -5.9198
v  3.3854 28.7606 -9.3013
v  2.6430 32.2021 -7.2617
v  -0.0000 32.2021 -7.7277
v  -2.6430 32.2021 -7.2617
v  -4.9673 32.2021 -5.9198
v  -6.6924 32.2021 -3.8639
v  -7.6103 32.2021 -1.3419
v  -7.6103 32.2021 1.3419
v  -6.6924 32.2021 3.8639
v  -4.9673 32.2021 5.9198
v  -2.6430 32.2021 7.2617
v  -0.0000 32.2021 7.7277
v  2.6430 32.2021 7.2617
v  4.9673 32.2021 5.9198
v  6.6924 32.2021 3.8639
v  -0.0000 32.2021 -0.0000
v  -0.0000 10.1239 -9.8982
v  -3.3854 10.1239 -9.3013
v  -6.3625 10.1239 -7.5825
v  -8.5721 10.1239 -4.9491
v  -9.7479 10.1239 -1.7188
v  -9.7479 10.1239 1.7188
v  -8.5721 10.1239 4.9491
v  -6.3625 10.1239 7.5825
v  -3.3854 10.1239 9.3013
v  -0.0000 10.2303 9.8982
v  3.3854 11.5643 9.3013
v  3.3854 21.0682 9.3013
v  9.7479 -32.2021 1.7188
v  9.7479 -32.2021 -1.7188
v  9.7479 10.4752 -1.7188
v  9.7479 10.4752 1.7188
v  8.5721 -32.2021 -4.9491
v  8.5721 10.4752 -4.9491
v  6.3625 -32.2021 -7.5825
v  6.3625 10.4752 -7.5825
v  3.3854 8.8964 -9.3013
v  3.8997 10.5638 -9.0043
v  3.3854 -32.2021 -9.3013
v  -0.0000 -32.2021 -9.8982
v  -3.3854 -32.2021 -9.3013
v  -6.3625 -32.2021 -7.5825
v  -8.5721 -32.2021 -4.9491
v  -9.7479 -32.2021 -1.7188
v  -9.7479 -32.2021 1.7188
v  -8.5721 -32.2021 4.9491
v  -6.3625 -32.2021 7.5825
v  -3.3854 -32.2021 9.3013
v  -0.0000 -32.2021 9.8982
v  3.3854 8.8964 9.3013
v  6.3625 10.4752 7.5825
v  3.3854 -32.2021 9.3013
v  6.3625 -32.2021 7.5825
v  8.5721 -32.2021 4.9491
v  8.5721 10.4752 4.9491
v  2.2600 10.5734 -6.8257
v  2.2600 21.6403 -6.8257
v  2.2600 21.6403 6.8257
v  2.2600 10.5734 6.8257
v  3.9689 22.0686 8.0361
v  3.9689 22.0686 -8.0361
v  3.3854 11.5643 -9.3013
v  3.3854 21.0682 -9.3013
v  3.3854 21.0682 -8.1467
v  3.3854 11.5643 -8.1467
v  3.3854 11.5643 8.1467
v  3.3854 21.0682 8.1467
v  3.1041 10.4672 -7.8164
v  3.1041 21.8820 -7.8164
v  3.1041 21.8820 7.8164
v  3.1041 10.4672 7.8165
v  3.9689 10.4672 8.0361
v  3.9689 10.4672 -8.0361
v  3.3854 23.2528 -9.3013
v  3.8997 22.0686 -9.0043
v  3.8997 10.5638 9.0043
v  3.8997 22.0686 9.0043
v  2.0451 18.6413 -0.3281
v  2.0451 19.2152 -0.3281
v  4.8703 19.2152 -0.3281
v  4.8703 18.6413 -0.3281
v  2.0451 18.6413 0.2830
v  4.8703 18.6413 0.2830
v  4.8703 19.2152 0.2830
v  2.0451 19.2152 0.2830
v  5.3283 16.7523 -0.0226
v  5.2545 16.7523 -0.2496
v  5.2545 19.7782 -0.2496
v  5.3283 19.7782 -0.0226
v  5.0614 16.7523 -0.3898
v  5.0614 19.7782 -0.3898
v  4.8227 16.7523 -0.3898
v  4.8227 19.7782 -0.3898
v  4.6296 16.7523 -0.2496
v  4.6296 19.7782 -0.2496
v  4.5559 16.7523 -0.0226
v  4.5559 19.7782 -0.0226
v  4.6296 16.7523 0.2044
v  4.6296 19.7782 0.2044
v  4.8227 16.7523 0.3447
v  4.8227 19.7782 0.3447
v  5.0614 16.7523 0.3447
v  5.0614 19.7782 0.3447
v  5.2545 16.7523 0.2044
v  5.2545 19.7782 0.2044
# 143 vertices

vn 0.9848 0.0000 -0.1736
vn 0.9848 0.0000 0.1736
vn 0.9848 -0.0000 0.1736
vn 0.8660 0.0000 -0.5000
vn 0.6344 -0.0000 -0.7730
vn 0.6428 0.0000 -0.7660
vn -0.3420 -0.0000 -0.9397
vn -0.3420 0.0000 -0.9397
vn 0.0000 0.0000 -1.0000
vn 0.0000 -0.0000 -1.0000
vn -0.6428 0.0000 -0.7660
vn -0.8660 0.0000 -0.5000
vn -0.9848 0.0000 -0.1736
vn -0.9848 -0.0000 0.1736
vn -0.9848 0.0000 0.1736
vn -0.8660 0.0000 0.5000
vn -0.6428 0.0000 0.7660
vn -0.3420 0.0000 0.9397
vn -0.0000 0.0000 1.0000
vn -0.0000 -0.0000 1.0000
vn 0.3420 -0.0000 0.9397
vn 0.3420 0.0000 0.9397
vn 0.6428 0.0000 0.7660
vn 0.8660 0.0000 0.5000
vn 0.6344 -0.0000 0.7730
vn 0.9283 0.3338 0.1637
vn 0.9283 0.3338 -0.1637
vn 0.8163 0.3338 -0.4713
vn 0.6059 0.3338 -0.7221
vn 0.3224 0.3338 -0.8858
vn 0.0000 0.3338 -0.9426
vn -0.3224 0.3338 -0.8858
vn -0.6059 0.3338 -0.7221
vn -0.8163 0.3338 -0.4713
vn -0.9283 0.3338 -0.1637
vn -0.9283 0.3338 0.1637
vn -0.8163 0.3338 0.4713
vn -0.6059 0.3338 0.7221
vn -0.3224 0.3338 0.8858
vn -0.0000 0.3338 0.9426
vn 0.3224 0.3338 0.8858
vn 0.6059 0.3338 0.7221
vn 0.8163 0.3338 0.4713
vn 0.0000 1.0000 -0.0000
vn -0.6428 -0.0000 -0.7660
vn -0.8660 -0.0000 0.5000
vn 0.2050 0.0000 0.9788
vn 0.9848 -0.0000 -0.1736
vn 0.8660 -0.0000 -0.5000
vn 0.6404 -0.0000 -0.7680
vn 0.3420 -0.0000 -0.9397
vn 0.5000 -0.0000 -0.8660
vn 0.3420 0.0000 -0.9397
vn -0.8660 -0.0000 -0.5000
vn -0.9848 -0.0000 -0.1736
vn -0.6428 -0.0000 0.7660
vn -0.3420 -0.0000 0.9397
vn 0.6404 0.0000 0.7680
vn 0.6428 -0.0000 0.7660
vn 0.8660 -0.0000 0.5000
vn 1.0000 0.0000 0.0000
vn -0.0086 0.9997 0.0217
vn -0.0086 0.9997 -0.0217
vn 0.2772 -0.9608 0.0070
vn 0.2772 -0.9608 -0.0070
vn 0.1817 -0.9833 -0.0021
vn 0.1817 -0.9833 0.0021
vn 0.0000 -1.0000 -0.0000
vn 0.9912 0.1326 0.0000
vn 0.9897 -0.1425 -0.0102
vn 0.9870 -0.1605 -0.0000
vn 0.9896 0.1437 -0.0027
vn 0.9912 -0.1326 0.0000
vn 0.9908 0.1353 0.0027
vn 0.9891 0.1471 0.0000
vn 0.9890 -0.1474 0.0106
vn 0.5509 0.0614 0.8323
vn 0.5423 -0.0852 0.8359
vn 0.7612 0.0000 0.6485
vn 0.7612 0.0000 -0.6485
vn 0.5423 -0.0852 -0.8359
vn 0.5509 0.0614 -0.8323
vn 0.7612 -0.0000 -0.6485
vn 0.0621 0.9981 0.0000
vn -0.0178 0.9973 -0.0718
vn -0.0178 0.9973 0.0718
vn 0.4543 -0.8908 0.0000
vn 0.3876 -0.9218 0.0000
vn 0.9603 0.2787 0.0124
vn 0.9615 0.2742 0.0200
vn 0.9582 -0.2825 -0.0441
vn 0.9615 -0.2661 -0.0687
vn 0.9591 0.2828 -0.0123
vn 0.9583 0.2852 -0.0178
vn 0.9538 -0.2970 0.0449
vn 0.9494 -0.3067 0.0678
vn 0.2050 -0.0000 -0.9788
vn 0.5000 0.0000 0.8660
vn 0.7086 0.0172 -0.7054
vn 0.2442 0.1273 -0.9613
vn 0.2442 0.1273 0.9613
vn 0.7086 0.0172 0.7054
vn 0.7042 -0.0250 0.7095
vn 0.2992 -0.1564 0.9413
vn 0.2992 -0.1564 -0.9413
vn 0.7042 -0.0250 -0.7095
vn -0.0395 0.9833 -0.1776
vn 0.2439 -0.9696 -0.0174
vn -0.0395 0.9833 0.1776
vn 0.2439 -0.9696 0.0174
vn 0.5000 -0.0000 0.8660
vn 0.2186 0.9758 0.0000
vn -0.0000 0.0000 -1.0000
vn 1.0000 0.0000 -0.0000
vn -1.0000 -0.0000 -0.0000
vn 0.8090 0.0000 -0.5878
vn 0.3090 0.0000 -0.9511
vn -0.3090 0.0000 -0.9511
vn -0.8090 -0.0000 -0.5878
vn -0.8090 0.0000 -0.5878
vn -1.0000 0.0000 0.0000
vn -0.8090 0.0000 0.5878
vn -0.3090 -0.0000 0.9511
vn -0.3090 0.0000 0.9511
vn 0.3090 -0.0000 0.9511
vn 0.8090 0.0000 0.5878
vn 0.8090 -0.0000 0.5878
# 127 vertex normals

vt 0.2992 0.5343 0.0282
vt 0.2992 0.5963 0.0282
vt 0.2666 0.5963 0.0259
vt 0.2666 0.5343 0.0259
vt 0.3318 0.5343 0.0216
vt 0.3318 0.5963 0.0216
vt 0.3646 0.5343 0.0092
vt 0.3646 0.5963 0.0092
vt 0.4647 0.5333 -0.0077
vt 0.4647 0.5963 -0.0077
vt 0.4312 0.5963 -0.0100
vt 0.4312 0.5333 -0.0100
vt 0.4981 0.5333 0.0025
vt 0.4981 0.5963 0.0025
vt 0.5311 0.5333 0.0158
vt 0.5311 0.5963 0.0158
vt 0.5638 0.5333 0.0259
vt 0.5638 0.5963 0.0259
vt 0.5963 0.5333 0.0282
vt 0.5963 0.5963 0.0282
vt 0.0346 0.5333 0.0216
vt 0.0346 0.5963 0.0216
vt 0.0020 0.5963 0.0282
vt 0.0020 0.5333 0.0282
vt 0.0674 0.5333 0.0092
vt 0.0674 0.5963 0.0092
vt 0.1006 0.5333 -0.0033
vt 0.1006 0.5963 -0.0033
vt 0.1341 0.5343 -0.0100
vt 0.1341 0.5963 -0.0100
vt 0.1676 0.5415 -0.0077
vt 0.1676 0.5963 -0.0077
vt 0.2009 0.5963 0.0025
vt 0.2339 0.5343 0.0158
vt 0.2339 0.5963 0.0158
vt 0.2009 0.5343 0.0025
vt 0.5628 0.7988 0.2937
vt 0.5953 0.7988 0.2937
vt 0.5953 0.8305 -0.2644
vt 0.5628 0.8305 -0.2644
vt 0.0020 0.7988 0.2937
vt 0.0346 0.7988 0.2852
vt 0.0346 0.8305 -0.2710
vt 0.0020 0.8305 -0.2644
vt 0.0675 0.7988 0.2722
vt 0.0675 0.8305 -0.2811
vt 0.1007 0.7988 0.2607
vt 0.1007 0.8305 -0.2901
vt 0.1341 0.7988 0.2562
vt 0.1341 0.8305 -0.2937
vt 0.1675 0.7988 0.2607
vt 0.1675 0.8305 -0.2901
vt 0.2007 0.7988 0.2722
vt 0.2007 0.8305 -0.2811
vt 0.2336 0.7988 0.2852
vt 0.2336 0.8305 -0.2710
vt 0.2662 0.7988 0.2937
vt 0.2662 0.8305 -0.2644
vt 0.2986 0.7988 0.2937
vt 0.2986 0.8305 -0.2644
vt 0.3312 0.7988 0.2852
vt 0.3312 0.8305 -0.2710
vt 0.3641 0.7988 0.2722
vt 0.3641 0.8305 -0.2811
vt 0.3973 0.7988 0.2607
vt 0.3973 0.8305 -0.2901
vt 0.4307 0.7988 0.2562
vt 0.4307 0.8305 -0.2937
vt 0.4642 0.7988 0.2607
vt 0.4642 0.8305 -0.2901
vt 0.4974 0.7988 0.2722
vt 0.4974 0.8305 -0.2811
vt 0.5302 0.7988 0.2852
vt 0.5302 0.8305 -0.2710
vt 0.6670 0.3827 0.0000
vt 0.6478 0.3793 0.0000
vt 0.6670 0.3266 0.0000
vt 0.6309 0.3696 0.0000
vt 0.6184 0.3547 0.0000
vt 0.6118 0.3364 0.0000
vt 0.6118 0.3169 0.0000
vt 0.6184 0.2986 0.0000
vt 0.6309 0.2837 0.0000
vt 0.6478 0.2740 0.0000
vt 0.6670 0.2706 0.0000
vt 0.6861 0.2740 0.0000
vt 0.7030 0.2837 0.0000
vt 0.7155 0.2986 0.0000
vt 0.7222 0.3169 0.0000
vt 0.7222 0.3364 0.0000
vt 0.7155 0.3547 0.0000
vt 0.7030 0.3696 0.0000
vt 0.6861 0.3793 0.0000
vt 0.4312 0.4146 -0.0100
vt 0.4647 0.4146 -0.0077
vt 0.4981 0.4146 0.0025
vt 0.5311 0.4146 0.0158
vt 0.5638 0.4146 0.0259
vt 0.5963 0.4146 0.0282
vt 0.0020 0.4146 0.0282
vt 0.0346 0.4146 0.0216
vt 0.0674 0.4146 0.0092
vt 0.1006 0.4146 -0.0033
vt 0.1341 0.4157 -0.0100
vt 0.1676 0.4287 -0.0077
vt 0.1676 0.5213 -0.0077
vt 0.2666 0.0020 0.0259
vt 0.2992 0.0020 0.0282
vt 0.2992 0.4181 0.0282
vt 0.2666 0.4181 0.0259
vt 0.3318 0.0020 0.0216
vt 0.3318 0.4181 0.0216
vt 0.3646 0.0020 0.0092
vt 0.3646 0.4181 0.0092
vt 0.3978 0.4027 -0.0033
vt 0.3921 0.4189 -0.0233
vt 0.3978 0.0020 -0.0033
vt 0.4312 0.0020 -0.0100
vt 0.4647 0.0020 -0.0077
vt 0.4981 0.0020 0.0025
vt 0.5311 0.0020 0.0158
vt 0.5638 0.0020 0.0259
vt 0.5963 0.0020 0.0282
vt 0.0020 0.0020 0.0282
vt 0.0346 0.0020 0.0216
vt 0.0674 0.0020 0.0092
vt 0.1006 0.0020 -0.0033
vt 0.1341 0.0020 -0.0100
vt 0.1676 0.4027 -0.0077
vt 0.2009 0.4181 0.0025
vt 0.1676 0.0020 -0.0077
vt 0.2009 0.0020 0.0025
vt 0.2339 0.0020 0.0158
vt 0.2339 0.4181 0.0158
vt 0.6311 0.2538 0.0000
vt 0.6311 0.1088 0.0000
vt 0.7301 0.1088 0.0000
vt 0.7301 0.2538 0.0000
vt 0.6675 0.4520 0.0000
vt 0.6669 0.4769 0.0000
vt 0.6579 0.5002 0.0000
vt 0.6594 0.4283 0.0000
vt 0.6415 0.5190 0.0000
vt 0.6438 0.4088 0.0000
vt 0.5786 0.6189 0.0000
vt 0.5765 0.7376 0.0000
vt 0.5589 0.7339 0.0000
vt 0.5609 0.6219 0.0000
vt 0.5429 0.7142 0.0000
vt 0.5442 0.6411 0.0000
vt 0.5347 0.6902 0.0000
vt 0.5351 0.6648 0.0000
vt 0.6118 0.2408 0.0000
vt 0.6118 0.1162 0.0000
vt 0.6201 0.1162 0.0000
vt 0.6201 0.2408 0.0000
vt 0.8817 0.1162 0.0000
vt 0.8817 0.2403 0.0000
vt 0.8734 0.2403 0.0000
vt 0.8734 0.1162 0.0000
vt 0.6229 0.2552 0.0000
vt 0.6229 0.1056 0.0000
vt 0.6118 0.5506 0.0000
vt 0.6200 0.5471 0.0000
vt 0.6200 0.7140 0.0000
vt 0.6118 0.7124 0.0000
vt 0.6177 0.5202 0.0000
vt 0.6202 0.4066 0.0000
vt 0.6265 0.4052 0.0000
vt 0.6240 0.5219 0.0000
vt 0.5911 0.6281 0.0000
vt 0.5893 0.7289 0.0000
vt 0.5829 0.7361 0.0000
vt 0.5850 0.6206 0.0000
vt 0.3978 0.5426 -0.0033
vt 0.3921 0.5311 -0.0233
vt 0.8718 0.2546 0.0000
vt 0.8789 0.2534 0.0000
vt 0.6202 0.1031 0.0000
vt 0.6133 0.1031 0.0000
vt 0.6133 0.2539 0.0000
vt 0.6202 0.2552 0.0000
vt 0.8789 0.1031 0.0000
vt 0.8718 0.1031 0.0000
vt 0.3978 0.5963 -0.0033
vt 0.3978 0.4287 -0.0033
vt 0.1733 0.4189 -0.0282
vt 0.6228 0.6980 0.0000
vt 0.6273 0.7140 0.0000
vt 0.2902 0.4729 0.0000
vt 0.2753 0.4684 0.0000
vt 0.2902 0.4667 0.0000
vt 0.2365 0.4877 0.0000
vt 0.2461 0.4931 0.0000
vt 0.2325 0.4933 0.0000
vt 0.6273 0.5444 0.0000
vt 0.6228 0.5590 0.0000
vt 0.6261 0.3981 0.0000
vt 0.5769 0.7447 0.0000
vt 0.6233 0.5289 0.0000
vt 0.5792 0.6118 0.0000
vt 0.1733 0.5311 -0.0282
vt 0.6118 0.5129 0.0000
vt 0.6139 0.4137 0.0000
vt 0.3978 0.5213 -0.0033
vt 0.3553 0.4349 0.0000
vt 0.3553 0.4405 0.0000
vt 0.3279 0.4405 0.0000
vt 0.3279 0.4349 0.0000
vt 0.2598 0.4723 0.0000
vt 0.2325 0.4723 0.0000
vt 0.2325 0.4667 0.0000
vt 0.2598 0.4667 0.0000
vt 0.6754 0.0058 0.0000
vt 0.6513 0.0058 0.0000
vt 0.6513 0.0020 0.0000
vt 0.6754 0.0020 0.0000
vt 0.9614 0.0070 0.0000
vt 0.9549 0.0070 0.0000
vt 0.9549 0.0020 0.0000
vt 0.9614 0.0020 0.0000
vt 0.6359 0.0058 0.0000
vt 0.6118 0.0058 0.0000
vt 0.6118 0.0020 0.0000
vt 0.6359 0.0020 0.0000
vt 0.5146 0.8510 0.0000
vt 0.5080 0.8510 0.0000
vt 0.5080 0.8459 0.0000
vt 0.5146 0.8459 0.0000
vt 0.2040 0.4667 -0.0044
vt 0.2067 0.4667 -0.0004
vt 0.2067 0.4927 -0.0004
vt 0.2040 0.4927 -0.0044
vt 0.2093 0.4667 0.0044
vt 0.2093 0.4927 0.0044
vt 0.2117 0.4667 0.0035
vt 0.2117 0.4927 0.0035
vt 0.2143 0.4667 -0.0020
vt 0.2143 0.4927 -0.0020
vt 0.2170 0.4667 -0.0044
vt 0.2170 0.4927 -0.0044
vt 0.1910 0.4667 -0.0044
vt 0.1937 0.4667 -0.0004
vt 0.1937 0.4927 -0.0004
vt 0.1910 0.4927 -0.0044
vt 0.1963 0.4667 0.0044
vt 0.1963 0.4927 0.0044
vt 0.1987 0.4667 0.0035
vt 0.1987 0.4927 0.0035
vt 0.2013 0.4667 -0.0020
vt 0.2013 0.4927 -0.0020
vt 0.5103 0.8876 0.0000
vt 0.5123 0.8876 0.0000
vt 0.5140 0.8884 0.0000
vt 0.5080 0.8898 0.0000
vt 0.5146 0.8898 0.0000
vt 0.5140 0.8912 0.0000
vt 0.5123 0.8921 0.0000
vt 0.5103 0.8921 0.0000
vt 0.5087 0.8912 0.0000
vt 0.5087 0.8884 0.0000
vt 0.5409 0.9329 0.0000
vt 0.5393 0.9337 0.0000
vt 0.5372 0.9337 0.0000
vt 0.5409 0.9301 0.0000
vt 0.5356 0.9329 0.0000
vt 0.5350 0.9315 0.0000
vt 0.5356 0.9301 0.0000
vt 0.5372 0.9292 0.0000
vt 0.5393 0.9292 0.0000
vt 0.5416 0.9315 0.0000
# 271 texture coords

g Object002
usemtl wire_115115115
s 1
f 1/1/1 2/2/1 3/3/2 4/4/3 
f 5/5/4 6/6/4 2/2/1 1/1/1 
f 7/7/5 8/8/6 6/6/4 5/5/4 
f 9/9/7 10/10/8 11/11/9 12/12/10 
f 13/13/11 14/14/11 10/10/8 9/9/7 
f 15/15/12 16/16/12 14/14/11 13/13/11 
f 17/17/13 18/18/13 16/16/12 15/15/12 
f 19/19/14 20/20/15 18/18/13 17/17/13 
f 21/21/16 22/22/16 20/23/15 19/24/14 
f 23/25/17 24/26/17 22/22/16 21/21/16 
f 25/27/18 26/28/18 24/26/17 23/25/17 
f 27/29/19 28/30/20 26/28/18 25/27/18 
f 28/30/20 27/29/19 29/31/21 30/32/22 
f 30/32/22 29/31/21 31/33/23 
f 32/34/24 33/35/24 31/33/23 34/36/25 
f 4/4/3 3/3/2 33/35/24 32/34/24 
s 4
f 3/37/26 2/38/27 35/39/27 36/40/26 
f 2/41/27 6/42/28 37/43/28 35/44/27 
f 6/42/28 8/45/29 38/46/29 37/43/28 
f 8/45/29 39/47/30 40/48/30 38/46/29 
f 39/47/30 11/49/31 41/50/31 40/48/30 
f 11/49/31 10/51/32 42/52/32 41/50/31 
f 10/51/32 14/53/33 43/54/33 42/52/32 
f 14/53/33 16/55/34 44/56/34 43/54/33 
f 16/55/34 18/57/35 45/58/35 44/56/34 
f 18/57/35 20/59/36 46/60/36 45/58/35 
f 20/59/36 22/61/37 47/62/37 46/60/36 
f 22/61/37 24/63/38 48/64/38 47/62/37 
f 24/63/38 26/65/39 49/66/39 48/64/38 
f 26/65/39 28/67/40 50/68/40 49/66/39 
f 28/67/40 30/69/41 51/70/41 50/68/40 
f 30/69/41 31/71/42 52/72/42 51/70/41 
f 31/71/42 33/73/43 53/74/43 52/72/42 
f 33/73/43 3/37/26 36/40/26 53/74/43 
s 2
f 36/75/44 35/76/44 54/77/44 
f 35/76/44 37/78/44 54/77/44 
f 37/78/44 38/79/44 54/77/44 
f 38/79/44 40/80/44 54/77/44 
f 40/80/44 41/81/44 54/77/44 
f 41/81/44 42/82/44 54/77/44 
f 42/82/44 43/83/44 54/77/44 
f 43/83/44 44/84/44 54/77/44 
f 44/84/44 45/85/44 54/77/44 
f 45/85/44 46/86/44 54/77/44 
f 46/86/44 47/87/44 54/77/44 
f 47/87/44 48/88/44 54/77/44 
f 48/88/44 49/89/44 54/77/44 
f 49/89/44 50/90/44 54/77/44 
f 50/90/44 51/91/44 54/77/44 
f 51/91/44 52/92/44 54/77/44 
f 52/92/44 53/93/44 54/77/44 
f 53/93/44 36/75/44 54/77/44 
s 1
f 12/12/10 55/94/10 56/95/7 9/9/7 
f 9/9/7 56/95/7 57/96/45 13/13/11 
f 13/13/11 57/96/45 58/97/12 15/15/12 
f 15/15/12 58/97/12 59/98/13 17/17/13 
f 17/17/13 59/98/13 60/99/15 19/19/14 
f 19/24/14 60/100/15 61/101/46 21/21/16 
f 21/21/16 61/101/46 62/102/17 23/25/17 
f 23/25/17 62/102/17 63/103/18 25/27/18 
f 25/27/18 63/103/18 64/104/19 27/29/19 
f 27/29/19 64/104/19 65/105/47 66/106/47 
f 67/107/3 68/108/48 69/109/48 70/110/3 
f 68/108/48 71/111/49 72/112/49 69/109/48 
f 71/111/49 73/113/6 74/114/50 72/112/49 
f 74/114/50 75/115/51 76/116/52 
f 55/94/10 75/115/51 77/117/53 78/118/9 
f 78/118/9 79/119/8 56/95/7 55/94/10 
f 79/119/8 80/120/45 57/96/45 56/95/7 
f 80/120/45 81/121/54 58/97/12 57/96/45 
f 81/121/54 82/122/55 59/98/13 58/97/12 
f 82/122/55 83/123/15 60/99/15 59/98/13 
f 83/124/15 84/125/46 61/101/46 60/100/15 
f 84/125/46 85/126/56 62/102/17 61/101/46 
f 85/126/56 86/127/57 63/103/18 62/102/17 
f 86/127/57 87/128/20 64/104/19 63/103/18 
f 64/104/19 88/129/22 65/105/47 
f 89/130/58 88/129/22 90/131/21 91/132/59 
f 91/132/59 92/133/60 93/134/60 89/130/58 
f 92/133/60 67/107/3 70/110/3 93/134/60 
f 94/135/61 95/136/61 96/137/61 97/138/61 
s 2
f 70/139/44 69/140/44 72/141/44 93/142/44 
f 93/142/44 72/141/44 74/143/62 89/144/63 
f 98/145/64 99/146/65 7/147/66 34/148/67 
f 34/148/67 7/147/66 5/149/68 32/150/68 
f 32/150/68 5/149/68 1/151/68 4/152/68 
s 4
f 100/153/69 101/154/70 102/155/71 103/156/72 
f 66/157/73 65/158/74 104/159/75 105/160/76 
s 16
f 106/161/77 107/162/78 95/136/79 94/135/79 
f 96/163/80 108/164/81 109/165/82 97/166/83 
s 2
f 106/167/84 109/168/84 110/169/85 111/170/86 
f 96/171/87 95/172/87 107/173/88 108/174/88 
f 89/144/63 74/143/62 111/170/86 110/169/85 
s 1
f 112/175/51 8/8/6 7/7/5 113/176/52 
s 4
f 110/177/89 104/159/75 65/158/74 114/178/90 
f 99/179/91 102/155/71 101/154/70 113/180/92 
f 76/181/93 100/153/69 103/156/72 111/182/94 
f 115/183/95 66/157/73 105/160/76 98/184/96 
s 1
f 12/12/10 11/11/9 39/185/53 112/175/51 
f 76/116/52 75/115/51 100/186/97 
f 65/105/47 88/129/22 114/187/98 
s 16
f 109/165/82 104/188/99 110/189/100 
f 111/190/101 103/191/102 106/192/77 
f 107/193/78 102/194/103 99/195/104 
f 98/196/105 105/197/106 108/164/81 
s 2
f 114/198/107 89/144/63 110/169/85 
f 113/199/108 7/147/66 99/146/65 
f 111/170/86 74/143/62 76/200/109 
f 98/145/64 34/148/67 115/201/110 
s 16
f 103/156/102 102/155/103 107/162/78 106/161/77 
s 1
f 27/29/19 66/106/47 29/31/21 
f 29/31/21 66/106/47 115/202/111 
f 29/31/21 115/202/111 34/36/25 31/33/23 
f 55/94/10 100/186/97 75/115/51 
f 87/128/20 90/131/21 88/129/22 64/104/19 
f 89/130/58 114/187/98 88/129/22 
f 73/113/6 77/117/53 75/115/51 74/114/50 
s 2
f 108/174/88 107/173/88 99/146/65 98/145/64 
f 106/167/84 94/203/112 97/204/112 109/168/84 
s 1
f 101/205/97 100/186/97 55/94/10 12/12/10 
f 113/176/52 101/205/97 112/175/51 
f 112/175/51 101/205/97 12/12/10 
f 112/175/51 39/185/53 8/8/6 
s 16
f 108/164/81 105/197/106 104/188/99 109/165/82 
s 2
f 116/206/113 117/207/113 118/208/113 119/209/113 
s 4
f 120/210/20 121/211/20 122/212/20 123/213/20 
s 8
f 116/214/68 119/215/68 121/216/68 120/217/68 
s 16
f 119/218/114 118/219/114 122/220/114 121/221/114 
s 32
f 118/222/44 117/223/44 123/224/44 122/225/44 
s 64
f 117/226/115 116/227/115 120/228/115 123/229/115 
s 8
f 124/230/61 125/231/116 126/232/116 127/233/61 
f 125/231/116 128/234/117 129/235/117 126/232/116 
f 128/234/117 130/236/118 131/237/118 129/235/117 
f 130/236/118 132/238/119 133/239/120 131/237/118 
f 132/238/119 134/240/121 135/241/121 133/239/120 
f 134/242/121 136/243/122 137/244/122 135/245/121 
f 136/243/122 138/246/123 139/247/124 137/244/122 
f 138/246/123 140/248/125 141/249/125 139/247/124 
f 140/248/125 142/250/126 143/251/127 141/249/125 
f 142/250/126 124/230/61 127/233/61 143/251/127 
s 1
f 140/252/68 138/253/68 136/254/68 124/255/68 
f 136/254/68 134/256/68 132/257/68 124/255/68 
f 132/257/68 130/258/68 128/259/68 124/255/68 
f 128/259/68 125/260/68 124/255/68 
f 142/261/68 140/252/68 124/255/68 
f 126/262/44 129/263/44 131/264/44 143/265/44 
f 131/264/44 133/266/44 135/267/44 143/265/44 
f 135/267/44 137/268/44 139/269/44 143/265/44 
f 139/269/44 141/270/44 143/265/44 
f 127/271/44 126/262/44 143/265/44 
# 108 polygons - 42 triangles

